<?xml version="1.0" encoding="UTF-8"?>
<!--Generator: Apple Native CoreSVG 123-->
<!DOCTYPE svg
PUBLIC "-//W3C//DTD SVG 1.1//EN"
       "http://www.w3.org/Graphics/SVG/1.1/DTD/svg11.dtd">
<svg version="1.1" xmlns="http://www.w3.org/2000/svg" xmlns:xlink="http://www.w3.org/1999/xlink" width="3300" height="2200">
 <!--glyph: "uni100336.medium", point size: 100.000000, font version: "Version 15.0d7e11", template writer version: "5"-->
 <g id="Notes">
  <rect height="2200" id="artboard" style="fill:white;opacity:1" width="3300" x="0" y="0"/>
  <line id="" style="fill:none;stroke:black;opacity:1;stroke-width:0.5;" x1="263" x2="3036" y1="292" y2="292"/>
  <text style="stroke:none;fill:black;font-family:-apple-system,&quot;SF Pro Display&quot;,&quot;SF Pro Text&quot;,Helvetica,sans-serif;font-weight:bold;" transform="matrix(1 0 0 1 263 322)">Weight/Scale Variations</text>
  <text style="stroke:none;fill:black;font-family:-apple-system,&quot;SF Pro Display&quot;,&quot;SF Pro Text&quot;,Helvetica,sans-serif;text-anchor:middle;" transform="matrix(1 0 0 1 559.711 322)">Ultralight</text>
  <text style="stroke:none;fill:black;font-family:-apple-system,&quot;SF Pro Display&quot;,&quot;SF Pro Text&quot;,Helvetica,sans-serif;text-anchor:middle;" transform="matrix(1 0 0 1 856.422 322)">Thin</text>
  <text style="stroke:none;fill:black;font-family:-apple-system,&quot;SF Pro Display&quot;,&quot;SF Pro Text&quot;,Helvetica,sans-serif;text-anchor:middle;" transform="matrix(1 0 0 1 1153.13 322)">Light</text>
  <text style="stroke:none;fill:black;font-family:-apple-system,&quot;SF Pro Display&quot;,&quot;SF Pro Text&quot;,Helvetica,sans-serif;text-anchor:middle;" transform="matrix(1 0 0 1 1449.84 322)">Regular</text>
  <text style="stroke:none;fill:black;font-family:-apple-system,&quot;SF Pro Display&quot;,&quot;SF Pro Text&quot;,Helvetica,sans-serif;text-anchor:middle;" transform="matrix(1 0 0 1 1746.56 322)">Medium</text>
  <text style="stroke:none;fill:black;font-family:-apple-system,&quot;SF Pro Display&quot;,&quot;SF Pro Text&quot;,Helvetica,sans-serif;text-anchor:middle;" transform="matrix(1 0 0 1 2043.27 322)">Semibold</text>
  <text style="stroke:none;fill:black;font-family:-apple-system,&quot;SF Pro Display&quot;,&quot;SF Pro Text&quot;,Helvetica,sans-serif;text-anchor:middle;" transform="matrix(1 0 0 1 2339.98 322)">Bold</text>
  <text style="stroke:none;fill:black;font-family:-apple-system,&quot;SF Pro Display&quot;,&quot;SF Pro Text&quot;,Helvetica,sans-serif;text-anchor:middle;" transform="matrix(1 0 0 1 2636.69 322)">Heavy</text>
  <text style="stroke:none;fill:black;font-family:-apple-system,&quot;SF Pro Display&quot;,&quot;SF Pro Text&quot;,Helvetica,sans-serif;text-anchor:middle;" transform="matrix(1 0 0 1 2933.4 322)">Black</text>
  <line id="" style="fill:none;stroke:black;opacity:1;stroke-width:0.5;" x1="263" x2="3036" y1="1903" y2="1903"/>
  <g id="" transform="matrix(1 0 0 1 263 1933)">
   <path d="M 9.24805 0.830078 C 13.5547 0.830078 17.1387 -2.74414 17.1387 -7.05078 C 17.1387 -11.3574 13.5449 -14.9316 9.23828 -14.9316 C 4.94141 -14.9316 1.36719 -11.3574 1.36719 -7.05078 C 1.36719 -2.74414 4.95117 0.830078 9.24805 0.830078 Z M 9.24805 -0.654297 C 5.70312 -0.654297 2.87109 -3.49609 2.87109 -7.05078 C 2.87109 -10.6055 5.69336 -13.4473 9.23828 -13.4473 C 12.793 -13.4473 15.6348 -10.6055 15.6445 -7.05078 C 15.6543 -3.49609 12.8027 -0.654297 9.24805 -0.654297 Z M 9.22852 -3.42773 C 9.69727 -3.42773 9.9707 -3.74023 9.9707 -4.25781 L 9.9707 -6.31836 L 12.1973 -6.31836 C 12.6953 -6.31836 13.0371 -6.57227 13.0371 -7.04102 C 13.0371 -7.51953 12.7148 -7.7832 12.1973 -7.7832 L 9.9707 -7.7832 L 9.9707 -10.0098 C 9.9707 -10.5273 9.69727 -10.8496 9.22852 -10.8496 C 8.75977 -10.8496 8.50586 -10.5078 8.50586 -10.0098 L 8.50586 -7.7832 L 6.29883 -7.7832 C 5.78125 -7.7832 5.44922 -7.51953 5.44922 -7.04102 C 5.44922 -6.57227 5.80078 -6.31836 6.29883 -6.31836 L 8.50586 -6.31836 L 8.50586 -4.25781 C 8.50586 -3.75977 8.75977 -3.42773 9.22852 -3.42773 Z"/>
  </g>
  <g id="" transform="matrix(1 0 0 1 281.506 1933)">
   <path d="M 11.709 2.91016 C 17.1582 2.91016 21.6699 -1.60156 21.6699 -7.05078 C 21.6699 -12.4902 17.1484 -17.0117 11.6992 -17.0117 C 6.25977 -17.0117 1.74805 -12.4902 1.74805 -7.05078 C 1.74805 -1.60156 6.26953 2.91016 11.709 2.91016 Z M 11.709 1.25 C 7.09961 1.25 3.41797 -2.44141 3.41797 -7.05078 C 3.41797 -11.6504 7.08984 -15.3516 11.6992 -15.3516 C 16.3086 -15.3516 20 -11.6504 20.0098 -7.05078 C 20.0195 -2.44141 16.3184 1.25 11.709 1.25 Z M 11.6895 -2.41211 C 12.207 -2.41211 12.5195 -2.77344 12.5195 -3.33984 L 12.5195 -6.23047 L 15.5762 -6.23047 C 16.123 -6.23047 16.5039 -6.51367 16.5039 -7.03125 C 16.5039 -7.55859 16.1426 -7.86133 15.5762 -7.86133 L 12.5195 -7.86133 L 12.5195 -10.9277 C 12.5195 -11.5039 12.207 -11.8555 11.6895 -11.8555 C 11.1719 -11.8555 10.8789 -11.4844 10.8789 -10.9277 L 10.8789 -7.86133 L 7.83203 -7.86133 C 7.26562 -7.86133 6.89453 -7.55859 6.89453 -7.03125 C 6.89453 -6.51367 7.28516 -6.23047 7.83203 -6.23047 L 10.8789 -6.23047 L 10.8789 -3.33984 C 10.8789 -2.79297 11.1719 -2.41211 11.6895 -2.41211 Z"/>
  </g>
  <g id="" transform="matrix(1 0 0 1 304.924 1933)">
   <path d="M 14.9707 5.67383 C 21.9336 5.67383 27.6953 -0.078125 27.6953 -7.04102 C 27.6953 -14.0039 21.9238 -19.7559 14.9609 -19.7559 C 8.00781 -19.7559 2.25586 -14.0039 2.25586 -7.04102 C 2.25586 -0.078125 8.01758 5.67383 14.9707 5.67383 Z M 14.9707 3.85742 C 8.93555 3.85742 4.08203 -1.00586 4.08203 -7.04102 C 4.08203 -13.0762 8.92578 -17.9395 14.9609 -17.9395 C 21.0059 -17.9395 25.8594 -13.0762 25.8691 -7.04102 C 25.8789 -1.00586 21.0156 3.85742 14.9707 3.85742 Z M 14.9512 -1.06445 C 15.5176 -1.06445 15.8691 -1.45508 15.8691 -2.06055 L 15.8691 -6.13281 L 20.1074 -6.13281 C 20.6934 -6.13281 21.1133 -6.46484 21.1133 -7.02148 C 21.1133 -7.59766 20.7227 -7.93945 20.1074 -7.93945 L 15.8691 -7.93945 L 15.8691 -12.1875 C 15.8691 -12.8027 15.5176 -13.1934 14.9512 -13.1934 C 14.3848 -13.1934 14.0625 -12.7832 14.0625 -12.1875 L 14.0625 -7.93945 L 9.83398 -7.93945 C 9.21875 -7.93945 8.80859 -7.59766 8.80859 -7.02148 C 8.80859 -6.46484 9.23828 -6.13281 9.83398 -6.13281 L 14.0625 -6.13281 L 14.0625 -2.06055 C 14.0625 -1.47461 14.3848 -1.06445 14.9512 -1.06445 Z"/>
  </g>
  <text style="stroke:none;fill:black;font-family:-apple-system,&quot;SF Pro Display&quot;,&quot;SF Pro Text&quot;,Helvetica,sans-serif;font-weight:bold;" transform="matrix(1 0 0 1 263 1953)">Design Variations</text>
  <text style="stroke:none;fill:black;font-family:-apple-system,&quot;SF Pro Display&quot;,&quot;SF Pro Text&quot;,Helvetica,sans-serif;" transform="matrix(1 0 0 1 263 1971)">Symbols are supported in up to nine weights and three scales.</text>
  <text style="stroke:none;fill:black;font-family:-apple-system,&quot;SF Pro Display&quot;,&quot;SF Pro Text&quot;,Helvetica,sans-serif;" transform="matrix(1 0 0 1 263 1989)">For optimal layout with text and other symbols, vertically align</text>
  <text style="stroke:none;fill:black;font-family:-apple-system,&quot;SF Pro Display&quot;,&quot;SF Pro Text&quot;,Helvetica,sans-serif;" transform="matrix(1 0 0 1 263 2007)">symbols with the adjacent text.</text>
  <rect height="14" id="" style="fill:#00AEEF;stroke:none;opacity:0.4;" width="3" x="776" y="1919"/>
  <g id="" transform="matrix(1 0 0 1 779 1933)">
   <path d="M 10.5273 0 L 12.373 0 L 7.17773 -14.0918 L 5.43945 -14.0918 L 0.244141 0 L 2.08984 0 L 3.50586 -4.0332 L 9.11133 -4.0332 Z M 6.2793 -11.9531 L 6.33789 -11.9531 L 8.59375 -5.52734 L 4.02344 -5.52734 Z"/>
  </g>
  <rect height="14" id="" style="fill:#00AEEF;stroke:none;opacity:0.4;" width="3" x="791.617" y="1919"/>
  <text style="stroke:none;fill:black;font-family:-apple-system,&quot;SF Pro Display&quot;,&quot;SF Pro Text&quot;,Helvetica,sans-serif;font-weight:bold;" transform="matrix(1 0 0 1 776 1953)">Margins</text>
  <text style="stroke:none;fill:black;font-family:-apple-system,&quot;SF Pro Display&quot;,&quot;SF Pro Text&quot;,Helvetica,sans-serif;" transform="matrix(1 0 0 1 776 1971)">Leading and trailing margins on the left and right side of each symbol</text>
  <text style="stroke:none;fill:black;font-family:-apple-system,&quot;SF Pro Display&quot;,&quot;SF Pro Text&quot;,Helvetica,sans-serif;" transform="matrix(1 0 0 1 776 1989)">can be adjusted by modifying the width of the blue rectangles.</text>
  <text style="stroke:none;fill:black;font-family:-apple-system,&quot;SF Pro Display&quot;,&quot;SF Pro Text&quot;,Helvetica,sans-serif;" transform="matrix(1 0 0 1 776 2007)">Modifications are automatically applied proportionally to all</text>
  <text style="stroke:none;fill:black;font-family:-apple-system,&quot;SF Pro Display&quot;,&quot;SF Pro Text&quot;,Helvetica,sans-serif;" transform="matrix(1 0 0 1 776 2025)">scales and weights.</text>
  <g id="" transform="matrix(1 0 0 1 1289 1933)">
   <path d="M 2.83203 3.11523 L 4.375 4.6582 C 5.22461 5.48828 6.19141 5.41992 7.06055 4.46289 L 17.2754 -6.66016 C 17.7051 -6.36719 18.0957 -6.37695 18.5645 -6.47461 L 19.6094 -6.68945 L 20.3027 -5.99609 L 20.2539 -5.47852 C 20.1855 -4.95117 20.3516 -4.53125 20.8496 -4.0332 L 21.6602 -3.22266 C 22.168 -2.71484 22.8223 -2.68555 23.3008 -3.16406 L 26.5527 -6.41602 C 27.0312 -6.89453 27.0117 -7.54883 26.5039 -8.05664 L 25.6836 -8.87695 C 25.1855 -9.375 24.7754 -9.55078 24.2383 -9.47266 L 23.7109 -9.41406 L 23.0566 -10.0781 L 23.3398 -11.2207 C 23.4863 -11.7871 23.3398 -12.2559 22.7148 -12.8613 L 20.3027 -15.2539 C 16.7578 -18.7793 12.2266 -18.6719 9.11133 -15.5371 C 8.69141 -15.1074 8.64258 -14.5215 8.91602 -14.0918 C 9.15039 -13.7207 9.62891 -13.4961 10.2734 -13.6621 C 11.7871 -14.043 13.3008 -13.9258 14.7852 -12.9199 L 14.1602 -11.3379 C 13.9258 -10.752 13.9453 -10.2734 14.1797 -9.83398 L 3.01758 0.439453 C 2.08008 1.30859 1.97266 2.25586 2.83203 3.11523 Z M 10.6738 -15.1465 C 13.3398 -17.1387 16.6504 -16.8262 19.0527 -14.4141 L 21.6797 -11.8066 C 21.9141 -11.5723 21.9434 -11.3867 21.8848 -11.0938 L 21.5039 -9.53125 L 23.0762 -7.95898 L 24.043 -8.04688 C 24.3262 -8.07617 24.4141 -8.05664 24.6387 -7.83203 L 25.2637 -7.20703 L 22.5098 -4.46289 L 21.8848 -5.07812 C 21.6602 -5.30273 21.6406 -5.40039 21.6699 -5.68359 L 21.7578 -6.64062 L 20.1953 -8.20312 L 18.5742 -7.89062 C 18.291 -7.83203 18.1445 -7.83203 17.9102 -8.07617 L 15.7324 -10.2539 C 15.5078 -10.4883 15.4785 -10.625 15.6055 -10.9473 L 16.5527 -13.2227 C 14.9512 -14.7559 12.8418 -15.6055 10.8008 -14.9512 C 10.7129 -14.9219 10.6445 -14.9414 10.6152 -14.9805 C 10.5859 -15.0293 10.5859 -15.0781 10.6738 -15.1465 Z M 4.10156 2.41211 C 3.61328 1.91406 3.78906 1.61133 4.12109 1.30859 L 15.0781 -8.80859 L 16.3086 -7.57812 L 6.15234 3.34961 C 5.84961 3.68164 5.46875 3.7793 5.06836 3.37891 Z"/>
  </g>
  <text style="stroke:none;fill:black;font-family:-apple-system,&quot;SF Pro Display&quot;,&quot;SF Pro Text&quot;,Helvetica,sans-serif;font-weight:bold;" transform="matrix(1 0 0 1 1289 1953)">Exporting</text>
  <text style="stroke:none;fill:black;font-family:-apple-system,&quot;SF Pro Display&quot;,&quot;SF Pro Text&quot;,Helvetica,sans-serif;" transform="matrix(1 0 0 1 1289 1971)">Symbols should be outlined when exporting to ensure the</text>
  <text style="stroke:none;fill:black;font-family:-apple-system,&quot;SF Pro Display&quot;,&quot;SF Pro Text&quot;,Helvetica,sans-serif;" transform="matrix(1 0 0 1 1289 1989)">design is preserved when submitting to Xcode.</text>
  <text id="template-version" style="stroke:none;fill:black;font-family:-apple-system,&quot;SF Pro Display&quot;,&quot;SF Pro Text&quot;,Helvetica,sans-serif;text-anchor:end;" transform="matrix(1 0 0 1 3036 1933)">Template v.1.0</text>
  <text style="stroke:none;fill:black;font-family:-apple-system,&quot;SF Pro Display&quot;,&quot;SF Pro Text&quot;,Helvetica,sans-serif;text-anchor:end;" transform="matrix(1 0 0 1 3036 1951)">Generated from plus.bubble</text>
  <text style="stroke:none;fill:black;font-family:-apple-system,&quot;SF Pro Display&quot;,&quot;SF Pro Text&quot;,Helvetica,sans-serif;text-anchor:end;" transform="matrix(1 0 0 1 3036 1969)">Typeset at 100 points</text>
  <text style="stroke:none;fill:black;font-family:-apple-system,&quot;SF Pro Display&quot;,&quot;SF Pro Text&quot;,Helvetica,sans-serif;" transform="matrix(1 0 0 1 263 726)">Small</text>
  <text style="stroke:none;fill:black;font-family:-apple-system,&quot;SF Pro Display&quot;,&quot;SF Pro Text&quot;,Helvetica,sans-serif;" transform="matrix(1 0 0 1 263 1156)">Medium</text>
  <text style="stroke:none;fill:black;font-family:-apple-system,&quot;SF Pro Display&quot;,&quot;SF Pro Text&quot;,Helvetica,sans-serif;" transform="matrix(1 0 0 1 263 1586)">Large</text>
 </g>
 <g id="Guides">
  <g id="H-reference" style="fill:#27AAE1;stroke:none;" transform="matrix(1 0 0 1 339 696)">
   <path d="M 54.9316 0 L 57.666 0 L 30.5664 -70.459 L 28.0762 -70.459 L 0.976562 0 L 3.66211 0 L 12.9395 -24.4629 L 45.7031 -24.4629 Z M 29.1992 -67.0898 L 29.4434 -67.0898 L 44.8242 -26.709 L 13.8184 -26.709 Z"/>
  </g>
  <line id="Baseline-S" style="fill:none;stroke:#27AAE1;opacity:1;stroke-width:0.577;" x1="263" x2="3036" y1="696" y2="696"/>
  <line id="Capline-S" style="fill:none;stroke:#27AAE1;opacity:1;stroke-width:0.577;" x1="263" x2="3036" y1="625.541" y2="625.541"/>
  <g id="H-reference" style="fill:#27AAE1;stroke:none;" transform="matrix(1 0 0 1 339 1126)">
   <path d="M 54.9316 0 L 57.666 0 L 30.5664 -70.459 L 28.0762 -70.459 L 0.976562 0 L 3.66211 0 L 12.9395 -24.4629 L 45.7031 -24.4629 Z M 29.1992 -67.0898 L 29.4434 -67.0898 L 44.8242 -26.709 L 13.8184 -26.709 Z"/>
  </g>
  <line id="Baseline-M" style="fill:none;stroke:#27AAE1;opacity:1;stroke-width:0.577;" x1="263" x2="3036" y1="1126" y2="1126"/>
  <line id="Capline-M" style="fill:none;stroke:#27AAE1;opacity:1;stroke-width:0.577;" x1="263" x2="3036" y1="1055.54" y2="1055.54"/>
  <g id="H-reference" style="fill:#27AAE1;stroke:none;" transform="matrix(1 0 0 1 339 1556)">
   <path d="M 54.9316 0 L 57.666 0 L 30.5664 -70.459 L 28.0762 -70.459 L 0.976562 0 L 3.66211 0 L 12.9395 -24.4629 L 45.7031 -24.4629 Z M 29.1992 -67.0898 L 29.4434 -67.0898 L 44.8242 -26.709 L 13.8184 -26.709 Z"/>
  </g>
  <line id="Baseline-L" style="fill:none;stroke:#27AAE1;opacity:1;stroke-width:0.577;" x1="263" x2="3036" y1="1556" y2="1556"/>
  <line id="Capline-L" style="fill:none;stroke:#27AAE1;opacity:1;stroke-width:0.577;" x1="263" x2="3036" y1="1485.54" y2="1485.54"/>
  <rect height="119.336" id="left-margin" style="fill:#00AEEF;stroke:none;opacity:0.4;" width="12.4512" x="1383.58" y="1030.79"/>
  <rect height="119.336" id="right-margin" style="fill:#00AEEF;stroke:none;opacity:0.4;" width="12.4512" x="1503.65" y="1030.79"/>
 </g>
 <g id="Symbols">
  <g id="Black-L" transform="matrix(1 0 0 1 2846.24 1556)">
   <path d="M 59.7168 38.5742 C 64.8438 38.5742 69.0918 36.5234 75.3418 31.1035 L 96.2891 12.8418 L 125.83 12.8418 C 145.703 12.8418 158.252 0.195312 158.252 -19.5801 L 158.252 -70.1172 C 158.252 -89.8926 145.703 -102.539 125.83 -102.539 L 48.4863 -102.539 C 28.6133 -102.539 16.0645 -89.8926 16.0645 -70.1172 L 16.0645 -19.5801 C 16.0645 0.195312 29.7852 12.8418 46.7285 12.8418 L 47.7051 12.8418 L 47.7051 25.3906 C 47.7051 33.5938 52.2949 38.5742 59.7168 38.5742 Z M 64.5508 16.2598 L 64.5508 -0.732422 C 64.5508 -5.56641 62.0117 -7.37305 57.8613 -7.37305 L 50 -7.37305 C 40.8203 -7.37305 36.3281 -11.8652 36.3281 -21.0938 L 36.3281 -68.6035 C 36.3281 -77.832 40.8203 -82.2754 50 -82.2754 L 124.316 -82.2754 C 133.496 -82.2754 138.037 -77.832 138.037 -68.6035 L 138.037 -21.0938 C 138.037 -11.8652 133.496 -7.37305 124.316 -7.37305 L 94.5801 -7.37305 C 89.5996 -7.37305 87.5488 -6.34766 83.8867 -2.7832 Z M 87.1582 -15.9668 C 91.5527 -15.9668 94.7266 -19.0918 94.7266 -23.5352 L 94.7266 -35.6934 L 107.715 -35.6934 C 112.109 -35.6934 115.283 -38.8184 115.283 -43.2129 C 115.283 -47.7051 112.158 -50.8301 107.715 -50.8301 L 94.7266 -50.8301 L 94.7266 -63.3789 C 94.7266 -67.8223 91.5527 -70.9473 87.1582 -70.9473 C 82.7148 -70.9473 79.5898 -67.7734 79.5898 -63.3789 L 79.5898 -50.8301 L 66.6504 -50.8301 C 62.207 -50.8301 59.0332 -47.7051 59.0332 -43.2129 C 59.0332 -38.8184 62.2559 -35.6934 66.6504 -35.6934 L 79.5898 -35.6934 L 79.5898 -23.5352 C 79.5898 -19.1406 82.7148 -15.9668 87.1582 -15.9668 Z"/>
  </g>
  <g id="Heavy-L" transform="matrix(1 0 0 1 2550.07 1556)">
   <path d="M 58.1543 37.2559 C 62.6953 37.2559 66.4062 35.3516 71.9238 30.5176 L 93.1152 12.0117 L 125.879 12.0117 C 145.264 12.0117 157.178 -0.0488281 157.178 -19.2383 L 157.178 -69.6289 C 157.178 -88.8184 145.264 -100.879 125.879 -100.879 L 47.3145 -100.879 C 27.9785 -100.879 16.0645 -88.8672 16.0645 -69.6289 L 16.0645 -19.2383 C 16.0645 0 28.8574 12.0117 45.9961 12.0117 L 47.5586 12.0117 L 47.5586 25.5371 C 47.5586 32.8125 51.6113 37.2559 58.1543 37.2559 Z M 62.3535 17.8711 L 62.3535 0.585938 C 62.3535 -3.80859 60.2051 -5.46875 56.2988 -5.46875 L 48.4863 -5.46875 C 38.5254 -5.46875 33.5938 -10.498 33.5938 -20.4102 L 33.5938 -68.4082 C 33.5938 -78.3691 38.5254 -83.3496 48.4863 -83.3496 L 124.707 -83.3496 C 134.668 -83.3496 139.648 -78.3691 139.648 -68.4082 L 139.648 -20.4102 C 139.648 -10.498 134.668 -5.46875 124.707 -5.46875 L 91.7969 -5.46875 C 87.2559 -5.46875 85.3027 -4.58984 81.9824 -1.31836 Z M 86.7676 -15.1367 C 90.8203 -15.1367 93.6523 -18.0176 93.6523 -22.168 L 93.6523 -36.1328 L 108.447 -36.1328 C 112.5 -36.1328 115.43 -38.916 115.43 -42.9688 C 115.43 -47.0703 112.549 -49.8535 108.447 -49.8535 L 93.6523 -49.8535 L 93.6523 -64.4043 C 93.6523 -68.5059 90.8203 -71.3867 86.7676 -71.3867 C 82.7148 -71.3867 79.9316 -68.457 79.9316 -64.4043 L 79.9316 -49.8535 L 65.1855 -49.8535 C 61.0352 -49.8535 58.1543 -47.0703 58.1543 -42.9688 C 58.1543 -38.916 61.1328 -36.1328 65.1855 -36.1328 L 79.9316 -36.1328 L 79.9316 -22.168 C 79.9316 -18.1152 82.7148 -15.1367 86.7676 -15.1367 Z"/>
  </g>
  <g id="Bold-L" transform="matrix(1 0 0 1 2253.97 1556)">
   <path d="M 56.4453 35.791 C 60.3516 35.791 63.3789 34.0332 68.1152 29.9316 L 89.5996 11.084 L 125.977 11.084 C 144.727 11.084 155.957 -0.292969 155.957 -18.8965 L 155.957 -69.043 C 155.957 -87.6465 144.727 -99.0234 125.977 -99.0234 L 46.0449 -99.0234 C 27.2461 -99.0234 16.0645 -87.6953 16.0645 -69.043 L 16.0645 -18.8965 C 16.0645 -0.244141 27.832 11.084 45.166 11.084 L 47.4609 11.084 L 47.4609 25.7324 C 47.4609 31.9336 50.8301 35.791 56.4453 35.791 Z M 59.9609 19.6777 L 59.9609 2.00195 C 59.9609 -1.9043 58.1055 -3.36914 54.5898 -3.36914 L 46.8262 -3.36914 C 35.9375 -3.36914 30.5176 -8.93555 30.5176 -19.6777 L 30.5176 -68.2617 C 30.5176 -78.9551 35.9375 -84.5703 46.8262 -84.5703 L 125.195 -84.5703 C 135.986 -84.5703 141.504 -78.9551 141.504 -68.2617 L 141.504 -19.6777 C 141.504 -8.93555 135.986 -3.36914 125.195 -3.36914 L 88.6719 -3.36914 C 84.6191 -3.36914 82.8125 -2.58789 79.8828 0.292969 Z M 86.3281 -14.2578 C 90.0391 -14.2578 92.4316 -16.8457 92.4316 -20.6055 L 92.4316 -36.6699 L 109.277 -36.6699 C 112.939 -36.6699 115.625 -39.0625 115.625 -42.6758 C 115.625 -46.3867 113.037 -48.7793 109.277 -48.7793 L 92.4316 -48.7793 L 92.4316 -65.5273 C 92.4316 -69.2871 90.0391 -71.875 86.3281 -71.875 C 82.666 -71.875 80.3223 -69.2383 80.3223 -65.5273 L 80.3223 -48.7793 L 63.5254 -48.7793 C 59.7656 -48.7793 57.1777 -46.3867 57.1777 -42.6758 C 57.1777 -39.0625 59.8633 -36.6699 63.5254 -36.6699 L 80.3223 -36.6699 L 80.3223 -20.6055 C 80.3223 -16.8945 82.666 -14.2578 86.3281 -14.2578 Z"/>
  </g>
  <g id="Semibold-L" transform="matrix(1 0 0 1 1957.7 1556)">
   <path d="M 55.2734 34.7656 C 58.6914 34.7656 61.3281 33.1055 65.4785 29.4922 L 87.1582 10.4492 L 126.025 10.4492 C 144.385 10.4492 155.078 -0.439453 155.078 -18.6035 L 155.078 -68.6523 C 155.078 -86.8164 144.385 -97.7539 126.025 -97.7539 L 45.166 -97.7539 C 26.7578 -97.7539 16.0645 -86.8652 16.0645 -68.6523 L 16.0645 -18.6035 C 16.0645 -0.390625 27.1484 10.4492 44.5801 10.4492 L 47.3633 10.4492 L 47.3633 25.8789 C 47.3633 31.3477 50.3418 34.7656 55.2734 34.7656 Z M 58.252 20.9473 L 58.252 3.02734 C 58.252 -0.537109 56.6895 -1.9043 53.3691 -1.9043 L 45.6543 -1.9043 C 34.1797 -1.9043 28.418 -7.91016 28.418 -19.1406 L 28.418 -68.1152 C 28.418 -79.3945 34.1797 -85.4004 45.6543 -85.4004 L 125.488 -85.4004 C 136.914 -85.4004 142.773 -79.3945 142.773 -68.1152 L 142.773 -19.1406 C 142.773 -7.91016 136.914 -1.9043 125.488 -1.9043 L 86.5234 -1.9043 C 82.8125 -1.9043 81.0547 -1.2207 78.418 1.41602 Z M 86.0352 -13.6719 C 89.4531 -13.6719 91.6016 -16.0156 91.6016 -19.5312 L 91.6016 -37.0117 L 109.814 -37.0117 C 113.232 -37.0117 115.723 -39.1113 115.723 -42.4805 C 115.723 -45.8984 113.379 -48.0469 109.814 -48.0469 L 91.6016 -48.0469 L 91.6016 -66.3086 C 91.6016 -69.8242 89.4531 -72.2168 86.0352 -72.2168 C 82.666 -72.2168 80.5664 -69.7266 80.5664 -66.3086 L 80.5664 -48.0469 L 62.4512 -48.0469 C 58.8867 -48.0469 56.4941 -45.8984 56.4941 -42.4805 C 56.4941 -39.1113 58.9844 -37.0117 62.4512 -37.0117 L 80.5664 -37.0117 L 80.5664 -19.5312 C 80.5664 -16.1133 82.666 -13.6719 86.0352 -13.6719 Z"/>
  </g>
  <g id="Medium-L" transform="matrix(1 0 0 1 1661.3 1556)">
   <path d="M 54.3457 33.9844 C 57.4707 33.9844 59.7656 32.4219 63.4766 29.1504 L 85.3027 9.96094 L 126.025 9.96094 C 144.092 9.96094 154.443 -0.585938 154.443 -18.457 L 154.443 -68.3594 C 154.443 -86.2305 144.092 -96.7773 126.025 -96.7773 L 44.4824 -96.7773 C 26.3672 -96.7773 16.0645 -86.2793 16.0645 -68.3594 L 16.0645 -18.457 C 16.0645 -0.537109 26.6113 9.96094 44.1406 9.96094 L 47.3145 9.96094 L 47.3145 25.9766 C 47.3145 30.9082 49.9512 33.9844 54.3457 33.9844 Z M 56.9824 21.9238 L 56.9824 3.75977 C 56.9824 0.488281 55.6152 -0.78125 52.4414 -0.78125 L 44.7754 -0.78125 C 32.8125 -0.78125 26.8066 -7.08008 26.8066 -18.75 L 26.8066 -68.0176 C 26.8066 -79.6875 32.8125 -86.0352 44.7754 -86.0352 L 125.732 -86.0352 C 137.598 -86.0352 143.701 -79.6875 143.701 -68.0176 L 143.701 -18.75 C 143.701 -7.08008 137.598 -0.78125 125.732 -0.78125 L 84.8633 -0.78125 C 81.4453 -0.78125 79.7363 -0.195312 77.2949 2.24609 Z M 85.8398 -13.1836 C 89.0137 -13.1836 91.0156 -15.3809 91.0156 -18.75 L 91.0156 -37.3047 L 110.254 -37.3047 C 113.477 -37.3047 115.82 -39.209 115.82 -42.334 C 115.82 -45.5566 113.623 -47.5098 110.254 -47.5098 L 91.0156 -47.5098 L 91.0156 -66.8945 C 91.0156 -70.2148 89.0137 -72.4609 85.8398 -72.4609 C 82.666 -72.4609 80.7617 -70.166 80.7617 -66.8945 L 80.7617 -47.5098 L 61.5723 -47.5098 C 58.2031 -47.5098 55.957 -45.5566 55.957 -42.334 C 55.957 -39.209 58.3496 -37.3047 61.5723 -37.3047 L 80.7617 -37.3047 L 80.7617 -18.75 C 80.7617 -15.4785 82.666 -13.1836 85.8398 -13.1836 Z"/>
  </g>
  <g id="Regular-L" transform="matrix(1 0 0 1 1365.01 1556)">
   <path d="M 53.1738 32.959 C 55.8594 32.959 57.7148 31.543 60.8887 28.7109 L 82.9102 9.32617 L 126.074 9.32617 C 143.75 9.32617 153.613 -0.78125 153.613 -18.1641 L 153.613 -67.9688 C 153.613 -85.4004 143.75 -95.5078 126.074 -95.5078 L 43.6035 -95.5078 C 25.8789 -95.5078 16.0645 -85.4492 16.0645 -67.9688 L 16.0645 -18.1641 C 16.0645 -0.683594 25.8789 9.32617 43.6035 9.32617 L 47.2656 9.32617 L 47.2656 26.123 C 47.2656 30.2734 49.4141 32.959 53.1738 32.959 Z M 55.3223 23.1445 L 55.3223 4.78516 C 55.3223 1.80664 54.1992 0.683594 51.2695 0.683594 L 43.6523 0.683594 C 31.0547 0.683594 24.707 -6.05469 24.707 -18.2617 L 24.707 -67.9199 C 24.707 -80.127 31.0547 -86.8652 43.6523 -86.8652 L 126.025 -86.8652 C 138.477 -86.8652 144.971 -80.127 144.971 -67.9199 L 144.971 -18.2617 C 144.971 -6.05469 138.477 0.683594 126.025 0.683594 L 82.7148 0.683594 C 79.6387 0.683594 78.0273 1.17188 75.8789 3.36914 Z M 85.5469 -12.5488 C 88.4766 -12.5488 90.1855 -14.5996 90.1855 -17.6758 L 90.1855 -37.6465 L 110.791 -37.6465 C 113.77 -37.6465 115.918 -39.3066 115.918 -42.1387 C 115.918 -45.0684 113.916 -46.7773 110.791 -46.7773 L 90.1855 -46.7773 L 90.1855 -67.627 C 90.1855 -70.752 88.4766 -72.8027 85.5469 -72.8027 C 82.666 -72.8027 81.0547 -70.6543 81.0547 -67.627 L 81.0547 -46.7773 L 60.4492 -46.7773 C 57.3242 -46.7773 55.2734 -45.0684 55.2734 -42.1387 C 55.2734 -39.3066 57.4707 -37.6465 60.4492 -37.6465 L 81.0547 -37.6465 L 81.0547 -17.6758 C 81.0547 -14.6973 82.666 -12.5488 85.5469 -12.5488 Z"/>
  </g>
  <g id="Light-L" transform="matrix(1 0 0 1 1069.2 1556)">
   <path d="M 50.9277 31.5918 C 52.9785 31.5918 54.4922 30.4688 56.7871 28.418 L 79.1504 8.98438 L 126.074 8.98438 C 142.334 8.98438 151.807 -0.683594 151.807 -16.6992 L 151.807 -68.6035 C 151.807 -84.6191 142.334 -94.2871 126.074 -94.2871 L 41.7969 -94.2871 C 25.5371 -94.2871 16.0645 -84.7168 16.0645 -68.6035 L 16.0645 -16.6992 C 16.0645 -0.585938 25.5371 8.98438 41.7969 8.98438 L 46.3379 8.98438 L 46.3379 26.3184 C 46.3379 29.541 48.0957 31.5918 50.9277 31.5918 Z M 52.5391 24.1211 L 52.5391 5.51758 C 52.5391 3.27148 51.6602 2.34375 49.3652 2.34375 L 41.8945 2.34375 C 29.541 2.34375 22.7051 -4.73633 22.7051 -16.8457 L 22.7051 -68.5059 C 22.7051 -80.5664 29.541 -87.6953 41.8945 -87.6953 L 125.977 -87.6953 C 138.135 -87.6953 145.166 -80.5664 145.166 -68.5059 L 145.166 -16.8457 C 145.166 -4.73633 138.135 2.34375 125.977 2.34375 L 79.3457 2.34375 C 76.8066 2.34375 75.4883 2.7832 73.584 4.63867 Z M 85.1074 -12.5977 C 87.3535 -12.5977 88.7207 -14.209 88.7207 -16.5039 L 88.7207 -38.7695 L 111.377 -38.7695 C 113.623 -38.7695 115.332 -40.0879 115.332 -42.2363 C 115.332 -44.5312 113.721 -45.8496 111.377 -45.8496 L 88.7207 -45.8496 L 88.7207 -68.7012 C 88.7207 -71.0449 87.3535 -72.6074 85.1074 -72.6074 C 82.9102 -72.6074 81.5918 -70.9473 81.5918 -68.7012 L 81.5918 -45.8496 L 58.9844 -45.8496 C 56.6406 -45.8496 55.0293 -44.5312 55.0293 -42.2363 C 55.0293 -40.0879 56.7383 -38.7695 58.9844 -38.7695 L 81.5918 -38.7695 L 81.5918 -16.5039 C 81.5918 -14.2578 82.9102 -12.5977 85.1074 -12.5977 Z"/>
  </g>
  <g id="Thin-L" transform="matrix(1 0 0 1 773.683 1556)">
   <path d="M 47.9492 29.7852 C 49.2188 29.7852 50.2441 29.0527 51.416 28.0273 L 74.2188 8.54492 L 126.074 8.54492 C 140.43 8.54492 149.414 -0.634766 149.414 -14.7949 L 149.414 -69.3848 C 149.414 -83.5449 140.43 -92.7246 126.074 -92.7246 L 39.3555 -92.7246 C 25.0488 -92.7246 16.0645 -83.6914 16.0645 -69.3848 L 16.0645 -14.7949 C 16.0645 -0.488281 25.0488 8.54492 39.3555 8.54492 L 45.1172 8.54492 L 45.1172 26.5137 C 45.1172 28.5156 46.2891 29.7852 47.9492 29.7852 Z M 48.8281 25.4395 L 48.8281 6.54297 C 48.8281 5.17578 48.2422 4.58984 46.875 4.58984 L 39.502 4.58984 C 27.5391 4.58984 19.9707 -2.97852 19.9707 -14.9414 L 19.9707 -69.2383 C 19.9707 -81.2012 27.5391 -88.7695 39.502 -88.7695 L 125.928 -88.7695 C 137.646 -88.7695 145.459 -81.2012 145.459 -69.2383 L 145.459 -14.9414 C 145.459 -2.97852 137.646 4.58984 125.928 4.58984 L 74.8535 4.58984 C 73.0469 4.58984 72.1191 4.93164 70.6055 6.34766 Z M 84.4727 -12.6465 C 85.9375 -12.6465 86.7676 -13.6719 86.7676 -14.9414 L 86.7676 -40.2832 L 112.109 -40.2832 C 113.379 -40.2832 114.453 -41.1621 114.453 -42.3828 C 114.453 -43.75 113.428 -44.6777 112.109 -44.6777 L 86.7676 -44.6777 L 86.7676 -70.0684 C 86.7676 -71.3867 85.9375 -72.4121 84.4727 -72.4121 C 83.2031 -72.4121 82.373 -71.3379 82.373 -70.0684 L 82.373 -44.6777 L 57.0312 -44.6777 C 55.7129 -44.6777 54.6875 -43.75 54.6875 -42.3828 C 54.6875 -41.1621 55.8105 -40.2832 57.0312 -40.2832 L 82.373 -40.2832 L 82.373 -14.9414 C 82.373 -13.7207 83.2031 -12.6465 84.4727 -12.6465 Z"/>
  </g>
  <g id="Ultralight-L" transform="matrix(1 0 0 1 477.607 1556)">
   <path d="M 46.4355 28.8574 C 47.3145 28.8574 48.0469 28.3203 48.6816 27.832 L 71.6797 8.30078 L 126.074 8.30078 C 139.453 8.30078 148.145 -0.585938 148.145 -13.8184 L 148.145 -69.8242 C 148.145 -83.0078 139.453 -91.8945 126.074 -91.8945 L 38.1348 -91.8945 C 24.8047 -91.8945 16.0645 -83.2031 16.0645 -69.8242 L 16.0645 -13.8184 C 16.0645 -0.439453 24.8047 8.30078 38.1348 8.30078 L 44.4824 8.30078 L 44.4824 26.6113 C 44.4824 28.0273 45.3613 28.8574 46.4355 28.8574 Z M 46.9238 26.0742 L 46.9238 7.03125 C 46.9238 6.15234 46.4844 5.71289 45.6055 5.71289 L 38.3301 5.71289 C 26.5137 5.71289 18.6035 -2.09961 18.6035 -13.9648 L 18.6035 -69.6289 C 18.6035 -81.4941 26.5137 -89.3555 38.3301 -89.3555 L 125.928 -89.3555 C 137.354 -89.3555 145.605 -81.4941 145.605 -69.6289 L 145.605 -13.9648 C 145.605 -2.09961 137.354 5.71289 125.928 5.71289 L 72.5098 5.71289 C 71.0938 5.71289 70.4102 6.05469 69.043 7.22656 Z M 84.1797 -12.6953 C 85.2051 -12.6953 85.791 -13.4277 85.791 -14.1113 L 85.791 -41.0156 L 112.5 -41.0156 C 113.232 -41.0156 114.062 -41.748 114.062 -42.4805 C 114.062 -43.3594 113.33 -44.043 112.5 -44.043 L 85.791 -44.043 L 85.791 -70.752 C 85.791 -71.5332 85.2051 -72.2656 84.1797 -72.2656 C 83.3984 -72.2656 82.7637 -71.5332 82.7637 -70.752 L 82.7637 -44.043 L 56.0547 -44.043 C 55.2246 -44.043 54.4922 -43.3594 54.4922 -42.4805 C 54.4922 -41.748 55.3223 -41.0156 56.0547 -41.0156 L 82.7637 -41.0156 L 82.7637 -14.1113 C 82.7637 -13.4277 83.3984 -12.6953 84.1797 -12.6953 Z"/>
  </g>
  <g id="Black-M" transform="matrix(1 0 0 1 2865.58 1126)">
   <path d="M 47.168 23.0469 C 51.5625 23.0469 55.4199 21.4355 60.8398 16.748 L 76.9043 2.97852 L 97.4609 2.97852 C 112.793 2.97852 123.193 -7.42188 123.193 -22.7539 L 123.193 -63.2812 C 123.193 -78.6133 112.793 -89.0137 97.4609 -89.0137 L 38.1836 -89.0137 C 22.8516 -89.0137 12.4512 -78.6133 12.4512 -63.2812 L 12.4512 -22.7539 C 12.4512 -7.42188 24.1211 2.97852 36.2793 2.97852 L 36.6211 2.97852 L 36.6211 11.5723 C 36.6211 18.75 40.7227 23.0469 47.168 23.0469 Z M 51.4648 2.97852 L 51.4648 -9.81445 C 51.4648 -13.8184 49.1699 -15.332 45.9473 -15.332 L 39.8438 -15.332 C 33.9355 -15.332 30.7617 -18.2617 30.7617 -24.4141 L 30.7617 -61.6211 C 30.7617 -67.7734 33.9355 -70.7031 39.8438 -70.7031 L 95.8008 -70.7031 C 101.66 -70.7031 104.883 -67.7734 104.883 -61.6211 L 104.883 -24.4141 C 104.883 -18.2617 101.66 -15.332 95.8008 -15.332 L 75.2441 -15.332 C 71.0938 -15.332 69.4824 -14.4043 66.3574 -11.377 Z M 67.8223 -21.3867 C 71.3867 -21.3867 74.0723 -23.9746 74.0723 -27.3926 L 74.0723 -35.5469 L 82.8125 -35.5469 C 86.2305 -35.5469 88.8184 -38.2812 88.8184 -41.8457 C 88.8184 -45.4102 86.2305 -48.0957 82.8125 -48.0957 L 74.0723 -48.0957 L 74.0723 -56.25 C 74.0723 -59.668 71.3867 -62.2559 67.8223 -62.2559 C 64.2578 -62.2559 61.5723 -59.668 61.5723 -56.25 L 61.5723 -48.0957 L 52.832 -48.0957 C 49.3652 -48.0957 46.8262 -45.4102 46.8262 -41.8457 C 46.8262 -38.2812 49.3652 -35.5469 52.832 -35.5469 L 61.5723 -35.5469 L 61.5723 -27.3926 C 61.5723 -23.9746 64.2578 -21.3867 67.8223 -21.3867 Z"/>
  </g>
  <g id="Heavy-M" transform="matrix(1 0 0 1 2569.23 1126)">
   <path d="M 46.0449 21.9238 C 50 21.9238 53.3203 20.4102 58.1543 16.2109 L 74.4141 2.14844 L 97.5098 2.14844 C 112.646 2.14844 122.461 -7.71484 122.461 -22.8027 L 122.461 -62.5488 C 122.461 -77.6367 112.646 -87.5 97.5098 -87.5 L 37.4023 -87.5 C 22.2656 -87.5 12.4512 -77.6367 12.4512 -62.5488 L 12.4512 -22.8027 C 12.4512 -7.71484 23.2422 2.14844 35.9375 2.14844 L 36.7188 2.14844 L 36.7188 11.7676 C 36.7188 18.1152 40.332 21.9238 46.0449 21.9238 Z M 49.8047 4.54102 L 49.8047 -8.59375 C 49.8047 -12.3047 47.8516 -13.6719 44.7266 -13.6719 L 38.6719 -13.6719 C 31.8359 -13.6719 28.2715 -17.1387 28.2715 -24.0723 L 28.2715 -61.2793 C 28.2715 -68.2129 31.8359 -71.6797 38.6719 -71.6797 L 96.2402 -71.6797 C 103.076 -71.6797 106.641 -68.2129 106.641 -61.2793 L 106.641 -24.0723 C 106.641 -17.1387 103.076 -13.6719 96.2402 -13.6719 L 73.0957 -13.6719 C 69.2871 -13.6719 67.7246 -12.8418 64.8926 -10.1074 Z M 67.5293 -20.5078 C 70.8496 -20.5078 73.291 -22.9004 73.291 -26.1719 L 73.291 -35.791 L 83.4473 -35.791 C 86.7188 -35.791 89.1602 -38.1836 89.1602 -41.5039 C 89.1602 -44.873 86.7676 -47.3145 83.4473 -47.3145 L 73.291 -47.3145 L 73.291 -57.0801 C 73.291 -60.4004 70.8496 -62.7441 67.5293 -62.7441 C 64.1602 -62.7441 61.7676 -60.3516 61.7676 -57.0801 L 61.7676 -47.3145 L 51.6113 -47.3145 C 48.291 -47.3145 45.8984 -44.873 45.8984 -41.5039 C 45.8984 -38.1836 48.3398 -35.791 51.6113 -35.791 L 61.7676 -35.791 L 61.7676 -26.1719 C 61.7676 -22.9004 64.1602 -20.5078 67.5293 -20.5078 Z"/>
  </g>
  <g id="Bold-M" transform="matrix(1 0 0 1 2272.94 1126)">
   <path d="M 44.8242 20.7031 C 48.2422 20.7031 50.9766 19.2871 55.1758 15.625 L 71.6309 1.2207 L 97.5586 1.2207 C 112.5 1.2207 121.631 -8.00781 121.631 -22.8027 L 121.631 -61.7676 C 121.631 -76.5625 112.5 -85.791 97.5586 -85.791 L 36.4746 -85.791 C 21.582 -85.791 12.4512 -76.6113 12.4512 -61.7676 L 12.4512 -22.8027 C 12.4512 -7.95898 22.2168 1.2207 35.5469 1.2207 L 36.8652 1.2207 L 36.8652 11.9141 C 36.8652 17.3828 39.8926 20.7031 44.8242 20.7031 Z M 47.9492 6.20117 L 47.9492 -7.22656 C 47.9492 -10.5957 46.3379 -11.8652 43.3594 -11.8652 L 37.3535 -11.8652 C 29.4434 -11.8652 25.5371 -15.8203 25.5371 -23.6328 L 25.5371 -60.9375 C 25.5371 -68.75 29.4434 -72.7539 37.3535 -72.7539 L 96.7285 -72.7539 C 104.59 -72.7539 108.545 -68.75 108.545 -60.9375 L 108.545 -23.6328 C 108.545 -15.8203 104.59 -11.8652 96.7285 -11.8652 L 70.6543 -11.8652 C 67.2363 -11.8652 65.7227 -11.1816 63.2324 -8.69141 Z M 67.1875 -19.5312 C 70.2637 -19.5312 72.4121 -21.7285 72.4121 -24.8535 L 72.4121 -36.0352 L 84.1797 -36.0352 C 87.2559 -36.0352 89.502 -38.0859 89.502 -41.1621 C 89.502 -44.2871 87.3047 -46.3867 84.1797 -46.3867 L 72.4121 -46.3867 L 72.4121 -58.0078 C 72.4121 -61.1328 70.2637 -63.3301 67.1875 -63.3301 C 64.1113 -63.3301 62.0117 -61.1328 62.0117 -58.0078 L 62.0117 -46.3867 L 50.2441 -46.3867 C 47.1191 -46.3867 44.9219 -44.2871 44.9219 -41.1621 C 44.9219 -38.0859 47.168 -36.0352 50.2441 -36.0352 L 62.0117 -36.0352 L 62.0117 -24.8535 C 62.0117 -21.7773 64.1113 -19.5312 67.1875 -19.5312 Z"/>
  </g>
  <g id="Semibold-M" transform="matrix(1 0 0 1 1976.52 1126)">
   <path d="M 43.9941 19.873 C 47.0215 19.873 49.3652 18.5059 53.0762 15.2344 L 69.7266 0.585938 L 97.6074 0.585938 C 112.402 0.585938 121.045 -8.20312 121.045 -22.8027 L 121.045 -61.2305 C 121.045 -75.8301 112.402 -84.668 97.6074 -84.668 L 35.8887 -84.668 C 21.0938 -84.668 12.4512 -75.8789 12.4512 -61.2305 L 12.4512 -22.8027 C 12.4512 -8.1543 21.4844 0.585938 35.2539 0.585938 L 36.9629 0.585938 L 36.9629 12.0117 C 36.9629 16.8457 39.5996 19.873 43.9941 19.873 Z M 46.6797 7.42188 L 46.6797 -6.29883 C 46.6797 -9.42383 45.3125 -10.5469 42.4316 -10.5469 L 36.4258 -10.5469 C 27.7832 -10.5469 23.6328 -14.9414 23.6328 -23.3887 L 23.6328 -60.6934 C 23.6328 -69.1406 27.7832 -73.4863 36.4258 -73.4863 L 97.0703 -73.4863 C 105.664 -73.4863 109.863 -69.1406 109.863 -60.6934 L 109.863 -23.3887 C 109.863 -14.9414 105.664 -10.5469 97.0703 -10.5469 L 68.9941 -10.5469 C 65.8203 -10.5469 64.3555 -10.0098 62.0605 -7.71484 Z M 66.9434 -18.8477 C 69.873 -18.8477 71.7773 -20.8984 71.7773 -23.9258 L 71.7773 -36.1816 L 84.668 -36.1816 C 87.6465 -36.1816 89.7461 -38.0371 89.7461 -40.918 C 89.7461 -43.8965 87.6953 -45.8008 84.668 -45.8008 L 71.7773 -45.8008 L 71.7773 -58.6426 C 71.7773 -61.6699 69.873 -63.7207 66.9434 -63.7207 C 64.0137 -63.7207 62.207 -61.6211 62.207 -58.6426 L 62.207 -45.8008 L 49.3164 -45.8008 C 46.2891 -45.8008 44.1895 -43.8965 44.1895 -40.918 C 44.1895 -38.0371 46.3379 -36.1816 49.3164 -36.1816 L 62.207 -36.1816 L 62.207 -23.9258 C 62.207 -20.9473 64.0137 -18.8477 66.9434 -18.8477 Z"/>
  </g>
  <g id="Medium-M" transform="matrix(1 0 0 1 1680.03 1126)">
   <path d="M 43.3105 19.2383 C 46.0938 19.2383 48.1445 17.8711 51.5137 14.8926 L 68.2617 0.146484 L 97.6562 0.146484 C 112.354 0.146484 120.605 -8.34961 120.605 -22.8516 L 120.605 -60.791 C 120.605 -75.293 112.354 -83.7891 97.6562 -83.7891 L 35.4004 -83.7891 C 20.752 -83.7891 12.4512 -75.293 12.4512 -60.791 L 12.4512 -22.8516 C 12.4512 -8.30078 20.9961 0.146484 35.0586 0.146484 L 37.0605 0.146484 L 37.0605 12.1094 C 37.0605 16.4551 39.3555 19.2383 43.3105 19.2383 Z M 45.752 8.30078 L 45.752 -5.61523 C 45.752 -8.49609 44.4824 -9.61914 41.748 -9.61914 L 35.7422 -9.61914 C 26.5625 -9.61914 22.168 -14.2578 22.168 -23.1445 L 22.168 -60.498 C 22.168 -69.3848 26.5625 -74.0234 35.7422 -74.0234 L 97.3633 -74.0234 C 106.494 -74.0234 110.889 -69.3848 110.889 -60.498 L 110.889 -23.1445 C 110.889 -14.2578 106.494 -9.61914 97.3633 -9.61914 L 67.7246 -9.61914 C 64.7461 -9.61914 63.2812 -9.13086 61.2305 -6.98242 Z M 66.748 -18.3105 C 69.5801 -18.3105 71.3379 -20.2637 71.3379 -23.2422 L 71.3379 -36.2793 L 85.0586 -36.2793 C 87.9395 -36.2793 89.9414 -37.9883 89.9414 -40.7715 C 89.9414 -43.6035 88.0371 -45.3125 85.0586 -45.3125 L 71.3379 -45.3125 L 71.3379 -59.1309 C 71.3379 -62.1094 69.5801 -64.0625 66.748 -64.0625 C 63.9648 -64.0625 62.3047 -62.0117 62.3047 -59.1309 L 62.3047 -45.3125 L 48.6328 -45.3125 C 45.6543 -45.3125 43.7012 -43.6035 43.7012 -40.7715 C 43.7012 -37.9883 45.752 -36.2793 48.6328 -36.2793 L 62.3047 -36.2793 L 62.3047 -23.2422 C 62.3047 -20.3613 63.9648 -18.3105 66.748 -18.3105 Z"/>
  </g>
  <g id="Regular-M" transform="matrix(1 0 0 1 1383.58 1126)">
   <path d="M 42.4805 18.4082 C 44.873 18.4082 46.5332 17.1387 49.5117 14.502 L 66.3574 -0.488281 L 97.7051 -0.488281 C 112.256 -0.488281 120.068 -8.54492 120.068 -22.8516 L 120.068 -60.2539 C 120.068 -74.5605 112.256 -82.6172 97.7051 -82.6172 L 34.8145 -82.6172 C 20.2637 -82.6172 12.4512 -74.6094 12.4512 -60.2539 L 12.4512 -22.8516 C 12.4512 -8.49609 20.2637 -0.488281 34.8145 -0.488281 L 37.1582 -0.488281 L 37.1582 12.207 C 37.1582 15.9668 39.0625 18.4082 42.4805 18.4082 Z M 44.4824 9.47266 L 44.4824 -4.6875 C 44.4824 -7.32422 43.457 -8.34961 40.8203 -8.34961 L 34.8145 -8.34961 C 24.9512 -8.34961 20.3125 -13.3789 20.3125 -22.9004 L 20.3125 -60.2539 C 20.3125 -69.7754 24.9512 -74.7559 34.8145 -74.7559 L 97.7051 -74.7559 C 107.52 -74.7559 112.207 -69.7754 112.207 -60.2539 L 112.207 -22.9004 C 112.207 -13.3789 107.52 -8.34961 97.7051 -8.34961 L 66.0645 -8.34961 C 63.3301 -8.34961 61.9629 -7.95898 60.1074 -6.05469 Z M 66.5527 -17.627 C 69.1895 -17.627 70.7031 -19.4336 70.7031 -22.3145 L 70.7031 -36.4746 L 85.5469 -36.4746 C 88.2812 -36.4746 90.1855 -37.8906 90.1855 -40.5273 C 90.1855 -43.2129 88.3789 -44.6777 85.5469 -44.6777 L 70.7031 -44.6777 L 70.7031 -59.7656 C 70.7031 -62.6465 69.1895 -64.4531 66.5527 -64.4531 C 63.916 -64.4531 62.5 -62.5488 62.5 -59.7656 L 62.5 -44.6777 L 47.7051 -44.6777 C 44.8242 -44.6777 42.9688 -43.2129 42.9688 -40.5273 C 42.9688 -37.8906 44.9707 -36.4746 47.7051 -36.4746 L 62.5 -36.4746 L 62.5 -22.3145 C 62.5 -19.5312 63.916 -17.627 66.5527 -17.627 Z"/>
  </g>
  <g id="Light-M" transform="matrix(1 0 0 1 1087.68 1126)">
   <path d="M 40.4785 17.1875 C 42.334 17.1875 43.6523 16.1621 45.8496 14.2578 L 63.0371 -0.830078 L 97.7051 -0.830078 C 110.938 -0.830078 118.457 -8.49609 118.457 -21.5332 L 118.457 -60.791 C 118.457 -73.877 110.938 -81.543 97.7051 -81.543 L 33.2031 -81.543 C 19.9707 -81.543 12.4512 -73.9258 12.4512 -60.791 L 12.4512 -21.5332 C 12.4512 -8.44727 19.9707 -0.830078 33.2031 -0.830078 L 36.3281 -0.830078 L 36.3281 12.3535 C 36.3281 15.2832 37.8418 17.1875 40.4785 17.1875 Z M 41.9922 10.3516 L 41.9922 -4.00391 C 41.9922 -6.05469 41.1621 -6.83594 39.1113 -6.83594 L 33.252 -6.83594 C 23.584 -6.83594 18.5059 -12.207 18.5059 -21.582 L 18.5059 -60.7422 C 18.5059 -70.166 23.584 -75.4883 33.252 -75.4883 L 97.6562 -75.4883 C 107.227 -75.4883 112.402 -70.166 112.402 -60.7422 L 112.402 -21.582 C 112.402 -12.207 107.227 -6.83594 97.6562 -6.83594 L 62.9883 -6.83594 C 60.791 -6.83594 59.668 -6.49414 58.0566 -4.88281 Z M 66.1621 -17.6758 C 68.2129 -17.6758 69.3848 -19.0918 69.3848 -21.2402 L 69.3848 -37.4512 L 86.0352 -37.4512 C 88.1348 -37.4512 89.6484 -38.623 89.6484 -40.625 C 89.6484 -42.6758 88.2324 -43.8965 86.0352 -43.8965 L 69.3848 -43.8965 L 69.3848 -60.6934 C 69.3848 -62.8418 68.2129 -64.2578 66.1621 -64.2578 C 64.1113 -64.2578 62.9883 -62.793 62.9883 -60.6934 L 62.9883 -43.8965 L 46.3867 -43.8965 C 44.2383 -43.8965 42.7734 -42.6758 42.7734 -40.625 C 42.7734 -38.623 44.2871 -37.4512 46.3867 -37.4512 L 62.9883 -37.4512 L 62.9883 -21.2402 C 62.9883 -19.1895 64.1113 -17.6758 66.1621 -17.6758 Z"/>
  </g>
  <g id="Thin-M" transform="matrix(1 0 0 1 792.042 1126)">
   <path d="M 37.8418 15.5273 C 38.9648 15.5273 39.8438 14.8926 41.0156 13.8672 L 58.5938 -1.2207 L 97.7051 -1.2207 C 109.229 -1.2207 116.309 -8.44727 116.309 -19.8242 L 116.309 -61.5234 C 116.309 -72.9004 109.229 -80.127 97.7051 -80.127 L 31.0547 -80.127 C 19.5312 -80.127 12.4512 -72.998 12.4512 -61.5234 L 12.4512 -19.8242 C 12.4512 -8.34961 19.5312 -1.2207 31.0547 -1.2207 L 35.2051 -1.2207 L 35.2051 12.5977 C 35.2051 14.4043 36.2793 15.5273 37.8418 15.5273 Z M 38.623 11.4746 L 38.623 -3.07617 C 38.623 -4.3457 38.1348 -4.83398 36.8652 -4.83398 L 31.1523 -4.83398 C 21.7773 -4.83398 16.0645 -10.6445 16.0645 -19.9219 L 16.0645 -61.4258 C 16.0645 -70.7031 21.7773 -76.5137 31.1523 -76.5137 L 97.6074 -76.5137 C 106.787 -76.5137 112.646 -70.7031 112.646 -61.4258 L 112.646 -19.9219 C 112.646 -10.6445 106.787 -4.83398 97.6074 -4.83398 L 58.9844 -4.83398 C 57.4219 -4.83398 56.6406 -4.58984 55.3711 -3.36914 Z M 65.625 -17.7246 C 66.8945 -17.7246 67.6758 -18.6523 67.6758 -19.8242 L 67.6758 -38.8184 L 86.7188 -38.8184 C 87.8906 -38.8184 88.916 -39.5996 88.916 -40.7227 C 88.916 -41.9922 87.9883 -42.8223 86.7188 -42.8223 L 67.6758 -42.8223 L 67.6758 -61.9141 C 67.6758 -63.1836 66.8945 -64.0625 65.625 -64.0625 C 64.4043 -64.0625 63.6719 -63.1348 63.6719 -61.9141 L 63.6719 -42.8223 L 44.6289 -42.8223 C 43.3594 -42.8223 42.4316 -41.9922 42.4316 -40.7227 C 42.4316 -39.5996 43.457 -38.8184 44.6289 -38.8184 L 63.6719 -38.8184 L 63.6719 -19.8242 C 63.6719 -18.6523 64.4043 -17.7246 65.625 -17.7246 Z"/>
  </g>
  <g id="Ultralight-M" transform="matrix(1 0 0 1 495.893 1126)">
   <path d="M 36.4746 14.6973 C 37.2559 14.6973 37.8906 14.2578 38.5742 13.7207 L 56.3477 -1.41602 L 97.7051 -1.41602 C 108.35 -1.41602 115.186 -8.39844 115.186 -18.9453 L 115.186 -61.9141 C 115.186 -72.4121 108.35 -79.3945 97.7051 -79.3945 L 29.9316 -79.3945 C 19.2871 -79.3945 12.4512 -72.5586 12.4512 -61.9141 L 12.4512 -18.9453 C 12.4512 -8.25195 19.2871 -1.41602 29.9316 -1.41602 L 34.668 -1.41602 L 34.668 12.6953 C 34.668 13.916 35.4492 14.6973 36.4746 14.6973 Z M 36.9141 12.1094 L 36.9141 -2.63672 C 36.9141 -3.4668 36.5723 -3.80859 35.7422 -3.80859 L 30.0781 -3.80859 C 20.8496 -3.80859 14.8438 -9.81445 14.8438 -19.043 L 14.8438 -61.7676 C 14.8438 -70.9961 20.8496 -77.002 30.0781 -77.002 L 97.6074 -77.002 C 106.543 -77.002 112.793 -70.9961 112.793 -61.7676 L 112.793 -19.043 C 112.793 -9.81445 106.543 -3.80859 97.6074 -3.80859 L 56.8848 -3.80859 C 55.6641 -3.80859 55.0781 -3.56445 53.9551 -2.58789 Z M 65.332 -17.7734 C 66.2598 -17.7734 66.7969 -18.4082 66.7969 -19.1406 L 66.7969 -39.502 L 87.0605 -39.502 C 87.793 -39.502 88.5254 -40.0879 88.5254 -40.8203 C 88.5254 -41.6504 87.8418 -42.2363 87.0605 -42.2363 L 66.7969 -42.2363 L 66.7969 -62.5488 C 66.7969 -63.3301 66.2598 -63.9648 65.332 -63.9648 C 64.5508 -63.9648 64.0137 -63.3301 64.0137 -62.5488 L 64.0137 -42.2363 L 43.75 -42.2363 C 42.9688 -42.2363 42.2852 -41.6504 42.2852 -40.8203 C 42.2852 -40.0879 43.0176 -39.502 43.75 -39.502 L 64.0137 -39.502 L 64.0137 -19.1406 C 64.0137 -18.4082 64.5508 -17.7734 65.332 -17.7734 Z"/>
  </g>
  <g id="Black-S" transform="matrix(1 0 0 1 2880.28 696)">
   <path d="M 36.9141 10.3516 C 40.332 10.3516 43.3105 9.08203 47.5098 5.46875 L 60.1074 -5.37109 L 76.3672 -5.37109 C 88.3789 -5.37109 96.4844 -13.4766 96.4844 -25.4883 L 96.4844 -57.1289 C 96.4844 -69.1406 88.3789 -77.2461 76.3672 -77.2461 L 29.8828 -77.2461 C 17.8711 -77.2461 9.76562 -69.1406 9.76562 -57.1289 L 9.76562 -25.4883 C 9.76562 -13.4766 18.8477 -5.37109 28.418 -5.37109 L 28.7109 -5.37109 L 28.7109 1.46484 C 28.7109 7.03125 31.8848 10.3516 36.9141 10.3516 Z M 40.2344 -5.17578 L 40.2344 -15.2344 C 40.2344 -18.3594 38.4766 -19.5312 35.9375 -19.5312 L 31.1523 -19.5312 C 26.4648 -19.5312 23.9258 -21.875 23.9258 -26.7578 L 23.9258 -55.8594 C 23.9258 -60.7422 26.4648 -63.0859 31.1523 -63.0859 L 75.0977 -63.0859 C 79.7852 -63.0859 82.3242 -60.7422 82.3242 -55.8594 L 82.3242 -26.7578 C 82.3242 -21.875 79.7852 -19.5312 75.0977 -19.5312 L 58.8379 -19.5312 C 55.6152 -19.5312 54.3457 -18.7988 51.9043 -16.4551 Z M 53.125 -24.3164 C 55.9082 -24.3164 58.0078 -26.3184 58.0078 -29.0039 L 58.0078 -35.498 L 64.9414 -35.498 C 67.627 -35.498 69.6289 -37.5977 69.6289 -40.3809 C 69.6289 -43.1641 67.627 -45.2637 64.9414 -45.2637 L 58.0078 -45.2637 L 58.0078 -51.7578 C 58.0078 -54.4434 55.9082 -56.4453 53.125 -56.4453 C 50.3418 -56.4453 48.2422 -54.4434 48.2422 -51.7578 L 48.2422 -45.2637 L 41.3086 -45.2637 C 38.623 -45.2637 36.6211 -43.1641 36.6211 -40.3809 C 36.6211 -37.5977 38.623 -35.498 41.3086 -35.498 L 48.2422 -35.498 L 48.2422 -29.0039 C 48.2422 -26.3184 50.3418 -24.3164 53.125 -24.3164 Z"/>
  </g>
  <g id="Heavy-S" transform="matrix(1 0 0 1 2583.76 696)">
   <path d="M 36.2793 9.66797 C 39.4043 9.66797 42.041 8.39844 45.8496 5.07812 L 58.5938 -5.95703 L 76.416 -5.95703 C 88.4277 -5.95703 96.0938 -13.6719 96.0938 -25.6348 L 96.0938 -56.543 C 96.0938 -68.5059 88.4277 -76.2207 76.416 -76.2207 L 29.4434 -76.2207 C 17.4316 -76.2207 9.76562 -68.5059 9.76562 -56.543 L 9.76562 -25.6348 C 9.76562 -13.6719 18.2129 -5.95703 28.3203 -5.95703 L 28.9062 -5.95703 L 28.9062 1.5625 C 28.9062 6.5918 31.7383 9.66797 36.2793 9.66797 Z M 39.2578 -4.10156 L 39.2578 -14.3555 C 39.2578 -17.334 37.6953 -18.457 35.2051 -18.457 L 30.4199 -18.457 C 25 -18.457 22.2656 -21.0938 22.2656 -26.6113 L 22.2656 -55.5664 C 22.2656 -61.0352 25 -63.7207 30.4199 -63.7207 L 75.4395 -63.7207 C 80.8594 -63.7207 83.6426 -61.0352 83.6426 -55.5664 L 83.6426 -26.6113 C 83.6426 -21.0938 80.8594 -18.457 75.4395 -18.457 L 57.5195 -18.457 C 54.4922 -18.457 53.2227 -17.8223 50.9766 -15.625 Z M 52.9297 -23.6328 C 55.6152 -23.6328 57.5684 -25.5371 57.5684 -28.2227 L 57.5684 -35.5469 L 65.3809 -35.5469 C 68.0176 -35.5469 69.9219 -37.4512 69.9219 -40.1367 C 69.9219 -42.8223 68.0176 -44.7266 65.3809 -44.7266 L 57.5684 -44.7266 L 57.5684 -52.2949 C 57.5684 -54.9316 55.6152 -56.8359 52.9297 -56.8359 C 50.2441 -56.8359 48.3398 -54.9316 48.3398 -52.2949 L 48.3398 -44.7266 L 40.5273 -44.7266 C 37.8906 -44.7266 35.9375 -42.8223 35.9375 -40.1367 C 35.9375 -37.4512 37.8906 -35.5469 40.5273 -35.5469 L 48.3398 -35.5469 L 48.3398 -28.2227 C 48.3398 -25.5859 50.2441 -23.6328 52.9297 -23.6328 Z"/>
  </g>
  <g id="Bold-S" transform="matrix(1 0 0 1 2287.27 696)">
   <path d="M 35.5957 8.88672 C 38.3789 8.88672 40.5762 7.66602 44.043 4.6875 L 56.8848 -6.64062 L 76.4648 -6.64062 C 88.4766 -6.64062 95.6543 -13.916 95.6543 -25.8301 L 95.6543 -55.8594 C 95.6543 -67.7734 88.4766 -75.0488 76.4648 -75.0488 L 28.9551 -75.0488 C 16.9434 -75.0488 9.76562 -67.7734 9.76562 -55.8594 L 9.76562 -25.8301 C 9.76562 -13.916 17.4316 -6.64062 28.2227 -6.64062 L 29.1016 -6.64062 L 29.1016 1.66016 C 29.1016 6.10352 31.543 8.88672 35.5957 8.88672 Z M 38.1836 -2.92969 L 38.1836 -13.4277 C 38.1836 -16.1621 36.8164 -17.2363 34.375 -17.2363 L 29.5898 -17.2363 C 23.3398 -17.2363 20.3613 -20.2637 20.3613 -26.4648 L 20.3613 -55.2246 C 20.3613 -61.4258 23.3398 -64.4531 29.5898 -64.4531 L 75.8301 -64.4531 C 82.0801 -64.4531 85.0586 -61.4258 85.0586 -55.2246 L 85.0586 -26.4648 C 85.0586 -20.2637 82.0801 -17.2363 75.8301 -17.2363 L 56.0547 -17.2363 C 53.2227 -17.2363 52.002 -16.6992 50 -14.6973 Z M 52.7344 -22.9004 C 55.2734 -22.9004 57.0312 -24.6582 57.0312 -27.2949 L 57.0312 -35.5957 L 65.8691 -35.5957 C 68.457 -35.5957 70.3125 -37.3047 70.3125 -39.8438 C 70.3125 -42.4316 68.5059 -44.1406 65.8691 -44.1406 L 57.0312 -44.1406 L 57.0312 -52.8809 C 57.0312 -55.5176 55.2734 -57.3242 52.7344 -57.3242 C 50.1465 -57.3242 48.4863 -55.4688 48.4863 -52.8809 L 48.4863 -44.1406 L 39.6484 -44.1406 C 37.0605 -44.1406 35.2051 -42.4316 35.2051 -39.8438 C 35.2051 -37.3047 37.0605 -35.5957 39.6484 -35.5957 L 48.4863 -35.5957 L 48.4863 -27.2949 C 48.4863 -24.707 50.1465 -22.9004 52.7344 -22.9004 Z"/>
  </g>
  <g id="Semibold-S" transform="matrix(1 0 0 1 1990.7 696)">
   <path d="M 35.1074 8.30078 C 37.6465 8.30078 39.5996 7.12891 42.7734 4.39453 L 55.7129 -7.08008 L 76.5137 -7.08008 C 88.5254 -7.08008 95.3613 -14.0625 95.3613 -25.9277 L 95.3613 -55.3711 C 95.3613 -67.2852 88.5254 -74.2676 76.5137 -74.2676 L 28.6621 -74.2676 C 16.6504 -74.2676 9.76562 -67.2852 9.76562 -55.3711 L 9.76562 -25.9277 C 9.76562 -14.0625 16.9434 -7.08008 28.1738 -7.08008 L 29.248 -7.08008 L 29.248 1.75781 C 29.248 5.81055 31.4453 8.30078 35.1074 8.30078 Z M 37.4023 -2.09961 L 37.4023 -12.7441 C 37.4023 -15.3809 36.2305 -16.3574 33.7891 -16.3574 L 29.0527 -16.3574 C 22.168 -16.3574 19.0918 -19.6777 19.0918 -26.3672 L 19.0918 -54.9805 C 19.0918 -61.6699 22.168 -64.9414 29.0527 -64.9414 L 76.0742 -64.9414 C 82.959 -64.9414 86.084 -61.6699 86.084 -54.9805 L 86.084 -26.3672 C 86.084 -19.6777 82.959 -16.3574 76.0742 -16.3574 L 55.0293 -16.3574 C 52.3926 -16.3574 51.123 -15.918 49.2676 -14.0137 Z M 52.5879 -22.3633 C 55.0781 -22.3633 56.6895 -24.0723 56.6895 -26.709 L 56.6895 -35.6445 L 66.2109 -35.6445 C 68.75 -35.6445 70.5566 -37.1582 70.5566 -39.6484 C 70.5566 -42.1875 68.7988 -43.75 66.2109 -43.75 L 56.6895 -43.75 L 56.6895 -53.2715 C 56.6895 -55.9082 55.0781 -57.6172 52.5879 -57.6172 C 50.0977 -57.6172 48.584 -55.8594 48.584 -53.2715 L 48.584 -43.75 L 39.0625 -43.75 C 36.4746 -43.75 34.7168 -42.1875 34.7168 -39.6484 C 34.7168 -37.1582 36.5234 -35.6445 39.0625 -35.6445 L 48.584 -35.6445 L 48.584 -26.709 C 48.584 -24.1699 50.0977 -22.3633 52.5879 -22.3633 Z"/>
  </g>
  <g id="Medium-S" transform="matrix(1 0 0 1 1694.09 696)">
   <path d="M 34.7168 7.91016 C 37.1094 7.91016 38.8672 6.73828 41.7969 4.15039 L 54.7852 -7.42188 L 76.5137 -7.42188 C 88.5254 -7.42188 95.166 -14.209 95.166 -26.0254 L 95.166 -55.0293 C 95.166 -66.8945 88.5254 -73.6816 76.5137 -73.6816 L 28.418 -73.6816 C 16.4062 -73.6816 9.76562 -66.8945 9.76562 -55.0293 L 9.76562 -26.0254 C 9.76562 -14.209 16.5527 -7.42188 28.125 -7.42188 L 29.3457 -7.42188 L 29.3457 1.80664 C 29.3457 5.56641 31.3477 7.91016 34.7168 7.91016 Z M 36.8164 -1.46484 L 36.8164 -12.2559 C 36.8164 -14.7949 35.791 -15.7227 33.3496 -15.7227 L 28.6133 -15.7227 C 21.3379 -15.7227 18.0664 -19.2383 18.0664 -26.2695 L 18.0664 -54.7852 C 18.0664 -61.8164 21.3379 -65.332 28.6133 -65.332 L 76.3184 -65.332 C 83.5938 -65.332 86.8164 -61.8164 86.8164 -54.7852 L 86.8164 -26.2695 C 86.8164 -19.2383 83.5938 -15.7227 76.3184 -15.7227 L 54.248 -15.7227 C 51.709 -15.7227 50.4883 -15.332 48.7793 -13.5254 Z M 52.4902 -21.9727 C 54.8828 -21.9727 56.3965 -23.6328 56.3965 -26.2207 L 56.3965 -35.6445 L 66.4551 -35.6445 C 68.9453 -35.6445 70.7031 -37.1094 70.7031 -39.502 C 70.7031 -41.9922 69.043 -43.457 66.4551 -43.457 L 56.3965 -43.457 L 56.3965 -53.6133 C 56.3965 -56.2012 54.8828 -57.8613 52.4902 -57.8613 C 50.0488 -57.8613 48.6328 -56.1035 48.6328 -53.6133 L 48.6328 -43.457 L 38.623 -43.457 C 36.0352 -43.457 34.3262 -41.9922 34.3262 -39.502 C 34.3262 -37.1094 36.084 -35.6445 38.623 -35.6445 L 48.6328 -35.6445 L 48.6328 -26.2207 C 48.6328 -23.7305 50.0488 -21.9727 52.4902 -21.9727 Z"/>
  </g>
  <g id="Regular-S" transform="matrix(1 0 0 1 1397.53 696)">
   <path d="M 34.2773 7.37305 C 36.4258 7.37305 37.8906 6.25 40.5273 3.85742 L 53.6133 -7.86133 L 76.5625 -7.86133 C 88.5742 -7.86133 94.873 -14.3555 94.873 -26.1719 L 94.873 -54.5898 C 94.873 -66.4062 88.5742 -72.9004 76.5625 -72.9004 L 28.0762 -72.9004 C 16.0645 -72.9004 9.76562 -66.4062 9.76562 -54.5898 L 9.76562 -26.1719 C 9.76562 -14.3555 16.0645 -7.86133 28.0762 -7.86133 L 29.4922 -7.86133 L 29.4922 1.85547 C 29.4922 5.22461 31.2012 7.37305 34.2773 7.37305 Z M 36.084 -0.634766 L 36.084 -11.6211 C 36.084 -14.0137 35.2051 -14.8926 32.8125 -14.8926 L 28.0762 -14.8926 C 20.2148 -14.8926 16.7969 -18.6523 16.7969 -26.1719 L 16.7969 -54.5898 C 16.7969 -62.0605 20.2148 -65.8203 28.0762 -65.8203 L 76.5625 -65.8203 C 84.4238 -65.8203 87.8418 -62.0605 87.8418 -54.5898 L 87.8418 -26.1719 C 87.8418 -18.6523 84.4238 -14.8926 76.5625 -14.8926 L 53.2227 -14.8926 C 50.8789 -14.8926 49.6582 -14.5508 48.0957 -12.8906 Z M 52.3438 -21.4355 C 54.6875 -21.4355 56.0547 -23.0469 56.0547 -25.6348 L 56.0547 -35.6934 L 66.7969 -35.6934 C 69.2383 -35.6934 70.9473 -36.9629 70.9473 -39.3066 C 70.9473 -41.6992 69.3359 -43.0176 66.7969 -43.0176 L 56.0547 -43.0176 L 56.0547 -54.0039 C 56.0547 -56.5918 54.6875 -58.2031 52.3438 -58.2031 C 50 -58.2031 48.7305 -56.4941 48.7305 -54.0039 L 48.7305 -43.0176 L 38.0371 -43.0176 C 35.4492 -43.0176 33.7891 -41.6992 33.7891 -39.3066 C 33.7891 -36.9629 35.5469 -35.6934 38.0371 -35.6934 L 48.7305 -35.6934 L 48.7305 -25.6348 C 48.7305 -23.1445 50 -21.4355 52.3438 -21.4355 Z"/>
  </g>
  <g id="Light-S" transform="matrix(1 0 0 1 1101.55 696)">
   <path d="M 32.4707 6.29883 C 34.1797 6.29883 35.3516 5.41992 37.3047 3.61328 L 50.6836 -8.1543 L 76.5625 -8.1543 C 87.4023 -8.1543 93.4082 -14.3066 93.4082 -25 L 93.4082 -55.0781 C 93.4082 -65.7715 87.4023 -71.9238 76.5625 -71.9238 L 26.6113 -71.9238 C 15.7715 -71.9238 9.76562 -65.8203 9.76562 -55.0781 L 9.76562 -25 C 9.76562 -14.2578 15.7715 -8.1543 26.6113 -8.1543 L 28.7598 -8.1543 L 28.7598 2.00195 C 28.7598 4.63867 30.127 6.29883 32.4707 6.29883 Z M 33.8379 0.146484 L 33.8379 -11.0352 C 33.8379 -12.8418 33.1543 -13.5742 31.2988 -13.5742 L 26.6602 -13.5742 C 18.9941 -13.5742 15.1855 -17.627 15.1855 -25.0488 L 15.1855 -55.0293 C 15.1855 -62.4512 18.9941 -66.5039 26.6602 -66.5039 L 76.5137 -66.5039 C 84.1309 -66.5039 87.9883 -62.4512 87.9883 -55.0293 L 87.9883 -25.0488 C 87.9883 -17.627 84.1309 -13.5742 76.5137 -13.5742 L 50.5371 -13.5742 C 48.6328 -13.5742 47.6074 -13.2812 46.2891 -11.9141 Z M 52.002 -21.4844 C 53.8086 -21.4844 54.8828 -22.7539 54.8828 -24.6582 L 54.8828 -36.6211 L 67.2363 -36.6211 C 69.0918 -36.6211 70.459 -37.6465 70.459 -39.4043 C 70.459 -41.2598 69.1895 -42.334 67.2363 -42.334 L 54.8828 -42.334 L 54.8828 -54.834 C 54.8828 -56.7871 53.8086 -58.0566 52.002 -58.0566 C 50.1953 -58.0566 49.1699 -56.7383 49.1699 -54.834 L 49.1699 -42.334 L 36.8652 -42.334 C 34.9121 -42.334 33.5938 -41.2598 33.5938 -39.4043 C 33.5938 -37.6465 34.9609 -36.6211 36.8652 -36.6211 L 49.1699 -36.6211 L 49.1699 -24.6582 C 49.1699 -22.8027 50.1953 -21.4844 52.002 -21.4844 Z"/>
  </g>
  <g id="Thin-S" transform="matrix(1 0 0 1 805.763 696)">
   <path d="M 30.127 4.88281 C 31.2012 4.88281 31.9824 4.29688 33.0566 3.32031 L 46.7773 -8.49609 L 76.5625 -8.49609 C 85.9375 -8.49609 91.5527 -14.2578 91.5527 -23.4863 L 91.5527 -55.7129 C 91.5527 -64.9414 85.9375 -70.6543 76.5625 -70.6543 L 24.7559 -70.6543 C 15.3809 -70.6543 9.76562 -64.9902 9.76562 -55.7129 L 9.76562 -23.4863 C 9.76562 -14.1602 15.3809 -8.49609 24.7559 -8.49609 L 27.832 -8.49609 L 27.832 2.19727 C 27.832 3.80859 28.7109 4.88281 30.127 4.88281 Z M 30.9082 1.17188 L 30.9082 -10.2051 C 30.9082 -11.377 30.4688 -11.8164 29.3457 -11.8164 L 24.8047 -11.8164 C 17.4316 -11.8164 13.0859 -16.2598 13.0859 -23.5352 L 13.0859 -55.6152 C 13.0859 -62.9395 17.4316 -67.3828 24.8047 -67.3828 L 76.5137 -67.3828 C 83.7402 -67.3828 88.2324 -62.9395 88.2324 -55.6152 L 88.2324 -23.5352 C 88.2324 -16.2598 83.7402 -11.8164 76.5137 -11.8164 L 46.9727 -11.8164 C 45.6543 -11.8164 44.9707 -11.5723 43.8965 -10.5469 Z M 51.5137 -21.4844 C 52.6855 -21.4844 53.3691 -22.3145 53.3691 -23.4375 L 53.3691 -37.793 L 67.8223 -37.793 C 68.9453 -37.793 69.8242 -38.4766 69.8242 -39.502 C 69.8242 -40.6738 68.9941 -41.3574 67.8223 -41.3574 L 53.3691 -41.3574 L 53.3691 -55.9082 C 53.3691 -57.0312 52.6855 -57.8613 51.5137 -57.8613 C 50.4395 -57.8613 49.7559 -57.0312 49.7559 -55.9082 L 49.7559 -41.3574 L 35.3027 -41.3574 C 34.1797 -41.3574 33.3496 -40.6738 33.3496 -39.502 C 33.3496 -38.4766 34.2285 -37.793 35.3027 -37.793 L 49.7559 -37.793 L 49.7559 -23.4375 C 49.7559 -22.3633 50.4395 -21.4844 51.5137 -21.4844 Z"/>
  </g>
  <g id="Ultralight-S" transform="matrix(1 0 0 1 509.54 696)">
   <path d="M 28.9551 4.10156 C 29.6387 4.10156 30.2246 3.71094 30.8594 3.17383 L 44.7266 -8.69141 L 76.5625 -8.69141 C 85.1562 -8.69141 90.5762 -14.209 90.5762 -22.7051 L 90.5762 -56.0059 C 90.5762 -64.502 85.1562 -70.0195 76.5625 -70.0195 L 23.7793 -70.0195 C 15.1855 -70.0195 9.76562 -64.5996 9.76562 -56.0059 L 9.76562 -22.7051 C 9.76562 -14.1113 15.1855 -8.69141 23.7793 -8.69141 L 27.2949 -8.69141 L 27.2949 2.29492 C 27.2949 3.41797 27.9785 4.10156 28.9551 4.10156 Z M 29.3945 1.70898 L 29.3945 -9.81445 C 29.3945 -10.5957 29.0527 -10.8887 28.3203 -10.8887 L 23.8281 -10.8887 C 16.6016 -10.8887 11.9629 -15.5273 11.9629 -22.8027 L 11.9629 -55.957 C 11.9629 -63.1836 16.6016 -67.8223 23.8281 -67.8223 L 76.4648 -67.8223 C 83.5449 -67.8223 88.3301 -63.1836 88.3301 -55.957 L 88.3301 -22.8027 C 88.3301 -15.5273 83.5449 -10.8887 76.4648 -10.8887 L 45.166 -10.8887 C 44.0918 -10.8887 43.5547 -10.6934 42.6758 -9.86328 Z M 51.2695 -21.5332 C 52.0996 -21.5332 52.5879 -22.1191 52.5879 -22.8027 L 52.5879 -38.3789 L 68.1641 -38.3789 C 68.7988 -38.3789 69.4824 -38.916 69.4824 -39.5996 C 69.4824 -40.332 68.8965 -40.8691 68.1641 -40.8691 L 52.5879 -40.8691 L 52.5879 -56.4453 C 52.5879 -57.1777 52.0996 -57.7637 51.2695 -57.7637 C 50.5371 -57.7637 50.0977 -57.1777 50.0977 -56.4453 L 50.0977 -40.8691 L 34.5215 -40.8691 C 33.7891 -40.8691 33.2031 -40.332 33.2031 -39.5996 C 33.2031 -38.916 33.8379 -38.3789 34.5215 -38.3789 L 50.0977 -38.3789 L 50.0977 -22.8027 C 50.0977 -22.1191 50.5371 -21.5332 51.2695 -21.5332 Z"/>
  </g>
 </g>
</svg>
