<?xml version="1.0" encoding="UTF-8"?>
<!--Generator: Apple Native CoreSVG 123-->
<!DOCTYPE svg
PUBLIC "-//W3C//DTD SVG 1.1//EN"
       "http://www.w3.org/Graphics/SVG/1.1/DTD/svg11.dtd">
<svg version="1.1" xmlns="http://www.w3.org/2000/svg" xmlns:xlink="http://www.w3.org/1999/xlink" width="3300" height="2200">
 <!--glyph: "uni10031E.medium", point size: 100.000000, font version: "Version 15.0d7e11", template writer version: "5"-->
 <g id="Notes">
  <rect height="2200" id="artboard" style="fill:white;opacity:1" width="3300" x="0" y="0"/>
  <line id="" style="fill:none;stroke:black;opacity:1;stroke-width:0.5;" x1="263" x2="3036" y1="292" y2="292"/>
  <text style="stroke:none;fill:black;font-family:-apple-system,&quot;SF Pro Display&quot;,&quot;SF Pro Text&quot;,Helvetica,sans-serif;font-weight:bold;" transform="matrix(1 0 0 1 263 322)">Weight/Scale Variations</text>
  <text style="stroke:none;fill:black;font-family:-apple-system,&quot;SF Pro Display&quot;,&quot;SF Pro Text&quot;,Helvetica,sans-serif;text-anchor:middle;" transform="matrix(1 0 0 1 559.711 322)">Ultralight</text>
  <text style="stroke:none;fill:black;font-family:-apple-system,&quot;SF Pro Display&quot;,&quot;SF Pro Text&quot;,Helvetica,sans-serif;text-anchor:middle;" transform="matrix(1 0 0 1 856.422 322)">Thin</text>
  <text style="stroke:none;fill:black;font-family:-apple-system,&quot;SF Pro Display&quot;,&quot;SF Pro Text&quot;,Helvetica,sans-serif;text-anchor:middle;" transform="matrix(1 0 0 1 1153.13 322)">Light</text>
  <text style="stroke:none;fill:black;font-family:-apple-system,&quot;SF Pro Display&quot;,&quot;SF Pro Text&quot;,Helvetica,sans-serif;text-anchor:middle;" transform="matrix(1 0 0 1 1449.84 322)">Regular</text>
  <text style="stroke:none;fill:black;font-family:-apple-system,&quot;SF Pro Display&quot;,&quot;SF Pro Text&quot;,Helvetica,sans-serif;text-anchor:middle;" transform="matrix(1 0 0 1 1746.56 322)">Medium</text>
  <text style="stroke:none;fill:black;font-family:-apple-system,&quot;SF Pro Display&quot;,&quot;SF Pro Text&quot;,Helvetica,sans-serif;text-anchor:middle;" transform="matrix(1 0 0 1 2043.27 322)">Semibold</text>
  <text style="stroke:none;fill:black;font-family:-apple-system,&quot;SF Pro Display&quot;,&quot;SF Pro Text&quot;,Helvetica,sans-serif;text-anchor:middle;" transform="matrix(1 0 0 1 2339.98 322)">Bold</text>
  <text style="stroke:none;fill:black;font-family:-apple-system,&quot;SF Pro Display&quot;,&quot;SF Pro Text&quot;,Helvetica,sans-serif;text-anchor:middle;" transform="matrix(1 0 0 1 2636.69 322)">Heavy</text>
  <text style="stroke:none;fill:black;font-family:-apple-system,&quot;SF Pro Display&quot;,&quot;SF Pro Text&quot;,Helvetica,sans-serif;text-anchor:middle;" transform="matrix(1 0 0 1 2933.4 322)">Black</text>
  <line id="" style="fill:none;stroke:black;opacity:1;stroke-width:0.5;" x1="263" x2="3036" y1="1903" y2="1903"/>
  <g id="" transform="matrix(1 0 0 1 263 1933)">
   <path d="M 9.24805 0.830078 C 13.5547 0.830078 17.1387 -2.74414 17.1387 -7.05078 C 17.1387 -11.3574 13.5449 -14.9316 9.23828 -14.9316 C 4.94141 -14.9316 1.36719 -11.3574 1.36719 -7.05078 C 1.36719 -2.74414 4.95117 0.830078 9.24805 0.830078 Z M 9.24805 -0.654297 C 5.70312 -0.654297 2.87109 -3.49609 2.87109 -7.05078 C 2.87109 -10.6055 5.69336 -13.4473 9.23828 -13.4473 C 12.793 -13.4473 15.6348 -10.6055 15.6445 -7.05078 C 15.6543 -3.49609 12.8027 -0.654297 9.24805 -0.654297 Z M 9.22852 -3.42773 C 9.69727 -3.42773 9.9707 -3.74023 9.9707 -4.25781 L 9.9707 -6.31836 L 12.1973 -6.31836 C 12.6953 -6.31836 13.0371 -6.57227 13.0371 -7.04102 C 13.0371 -7.51953 12.7148 -7.7832 12.1973 -7.7832 L 9.9707 -7.7832 L 9.9707 -10.0098 C 9.9707 -10.5273 9.69727 -10.8496 9.22852 -10.8496 C 8.75977 -10.8496 8.50586 -10.5078 8.50586 -10.0098 L 8.50586 -7.7832 L 6.29883 -7.7832 C 5.78125 -7.7832 5.44922 -7.51953 5.44922 -7.04102 C 5.44922 -6.57227 5.80078 -6.31836 6.29883 -6.31836 L 8.50586 -6.31836 L 8.50586 -4.25781 C 8.50586 -3.75977 8.75977 -3.42773 9.22852 -3.42773 Z"/>
  </g>
  <g id="" transform="matrix(1 0 0 1 281.506 1933)">
   <path d="M 11.709 2.91016 C 17.1582 2.91016 21.6699 -1.60156 21.6699 -7.05078 C 21.6699 -12.4902 17.1484 -17.0117 11.6992 -17.0117 C 6.25977 -17.0117 1.74805 -12.4902 1.74805 -7.05078 C 1.74805 -1.60156 6.26953 2.91016 11.709 2.91016 Z M 11.709 1.25 C 7.09961 1.25 3.41797 -2.44141 3.41797 -7.05078 C 3.41797 -11.6504 7.08984 -15.3516 11.6992 -15.3516 C 16.3086 -15.3516 20 -11.6504 20.0098 -7.05078 C 20.0195 -2.44141 16.3184 1.25 11.709 1.25 Z M 11.6895 -2.41211 C 12.207 -2.41211 12.5195 -2.77344 12.5195 -3.33984 L 12.5195 -6.23047 L 15.5762 -6.23047 C 16.123 -6.23047 16.5039 -6.51367 16.5039 -7.03125 C 16.5039 -7.55859 16.1426 -7.86133 15.5762 -7.86133 L 12.5195 -7.86133 L 12.5195 -10.9277 C 12.5195 -11.5039 12.207 -11.8555 11.6895 -11.8555 C 11.1719 -11.8555 10.8789 -11.4844 10.8789 -10.9277 L 10.8789 -7.86133 L 7.83203 -7.86133 C 7.26562 -7.86133 6.89453 -7.55859 6.89453 -7.03125 C 6.89453 -6.51367 7.28516 -6.23047 7.83203 -6.23047 L 10.8789 -6.23047 L 10.8789 -3.33984 C 10.8789 -2.79297 11.1719 -2.41211 11.6895 -2.41211 Z"/>
  </g>
  <g id="" transform="matrix(1 0 0 1 304.924 1933)">
   <path d="M 14.9707 5.67383 C 21.9336 5.67383 27.6953 -0.078125 27.6953 -7.04102 C 27.6953 -14.0039 21.9238 -19.7559 14.9609 -19.7559 C 8.00781 -19.7559 2.25586 -14.0039 2.25586 -7.04102 C 2.25586 -0.078125 8.01758 5.67383 14.9707 5.67383 Z M 14.9707 3.85742 C 8.93555 3.85742 4.08203 -1.00586 4.08203 -7.04102 C 4.08203 -13.0762 8.92578 -17.9395 14.9609 -17.9395 C 21.0059 -17.9395 25.8594 -13.0762 25.8691 -7.04102 C 25.8789 -1.00586 21.0156 3.85742 14.9707 3.85742 Z M 14.9512 -1.06445 C 15.5176 -1.06445 15.8691 -1.45508 15.8691 -2.06055 L 15.8691 -6.13281 L 20.1074 -6.13281 C 20.6934 -6.13281 21.1133 -6.46484 21.1133 -7.02148 C 21.1133 -7.59766 20.7227 -7.93945 20.1074 -7.93945 L 15.8691 -7.93945 L 15.8691 -12.1875 C 15.8691 -12.8027 15.5176 -13.1934 14.9512 -13.1934 C 14.3848 -13.1934 14.0625 -12.7832 14.0625 -12.1875 L 14.0625 -7.93945 L 9.83398 -7.93945 C 9.21875 -7.93945 8.80859 -7.59766 8.80859 -7.02148 C 8.80859 -6.46484 9.23828 -6.13281 9.83398 -6.13281 L 14.0625 -6.13281 L 14.0625 -2.06055 C 14.0625 -1.47461 14.3848 -1.06445 14.9512 -1.06445 Z"/>
  </g>
  <text style="stroke:none;fill:black;font-family:-apple-system,&quot;SF Pro Display&quot;,&quot;SF Pro Text&quot;,Helvetica,sans-serif;font-weight:bold;" transform="matrix(1 0 0 1 263 1953)">Design Variations</text>
  <text style="stroke:none;fill:black;font-family:-apple-system,&quot;SF Pro Display&quot;,&quot;SF Pro Text&quot;,Helvetica,sans-serif;" transform="matrix(1 0 0 1 263 1971)">Symbols are supported in up to nine weights and three scales.</text>
  <text style="stroke:none;fill:black;font-family:-apple-system,&quot;SF Pro Display&quot;,&quot;SF Pro Text&quot;,Helvetica,sans-serif;" transform="matrix(1 0 0 1 263 1989)">For optimal layout with text and other symbols, vertically align</text>
  <text style="stroke:none;fill:black;font-family:-apple-system,&quot;SF Pro Display&quot;,&quot;SF Pro Text&quot;,Helvetica,sans-serif;" transform="matrix(1 0 0 1 263 2007)">symbols with the adjacent text.</text>
  <rect height="14" id="" style="fill:#00AEEF;stroke:none;opacity:0.4;" width="3" x="776" y="1919"/>
  <g id="" transform="matrix(1 0 0 1 779 1933)">
   <path d="M 10.5273 0 L 12.373 0 L 7.17773 -14.0918 L 5.43945 -14.0918 L 0.244141 0 L 2.08984 0 L 3.50586 -4.0332 L 9.11133 -4.0332 Z M 6.2793 -11.9531 L 6.33789 -11.9531 L 8.59375 -5.52734 L 4.02344 -5.52734 Z"/>
  </g>
  <rect height="14" id="" style="fill:#00AEEF;stroke:none;opacity:0.4;" width="3" x="791.617" y="1919"/>
  <text style="stroke:none;fill:black;font-family:-apple-system,&quot;SF Pro Display&quot;,&quot;SF Pro Text&quot;,Helvetica,sans-serif;font-weight:bold;" transform="matrix(1 0 0 1 776 1953)">Margins</text>
  <text style="stroke:none;fill:black;font-family:-apple-system,&quot;SF Pro Display&quot;,&quot;SF Pro Text&quot;,Helvetica,sans-serif;" transform="matrix(1 0 0 1 776 1971)">Leading and trailing margins on the left and right side of each symbol</text>
  <text style="stroke:none;fill:black;font-family:-apple-system,&quot;SF Pro Display&quot;,&quot;SF Pro Text&quot;,Helvetica,sans-serif;" transform="matrix(1 0 0 1 776 1989)">can be adjusted by modifying the width of the blue rectangles.</text>
  <text style="stroke:none;fill:black;font-family:-apple-system,&quot;SF Pro Display&quot;,&quot;SF Pro Text&quot;,Helvetica,sans-serif;" transform="matrix(1 0 0 1 776 2007)">Modifications are automatically applied proportionally to all</text>
  <text style="stroke:none;fill:black;font-family:-apple-system,&quot;SF Pro Display&quot;,&quot;SF Pro Text&quot;,Helvetica,sans-serif;" transform="matrix(1 0 0 1 776 2025)">scales and weights.</text>
  <g id="" transform="matrix(1 0 0 1 1289 1933)">
   <path d="M 2.83203 3.11523 L 4.375 4.6582 C 5.22461 5.48828 6.19141 5.41992 7.06055 4.46289 L 17.2754 -6.66016 C 17.7051 -6.36719 18.0957 -6.37695 18.5645 -6.47461 L 19.6094 -6.68945 L 20.3027 -5.99609 L 20.2539 -5.47852 C 20.1855 -4.95117 20.3516 -4.53125 20.8496 -4.0332 L 21.6602 -3.22266 C 22.168 -2.71484 22.8223 -2.68555 23.3008 -3.16406 L 26.5527 -6.41602 C 27.0312 -6.89453 27.0117 -7.54883 26.5039 -8.05664 L 25.6836 -8.87695 C 25.1855 -9.375 24.7754 -9.55078 24.2383 -9.47266 L 23.7109 -9.41406 L 23.0566 -10.0781 L 23.3398 -11.2207 C 23.4863 -11.7871 23.3398 -12.2559 22.7148 -12.8613 L 20.3027 -15.2539 C 16.7578 -18.7793 12.2266 -18.6719 9.11133 -15.5371 C 8.69141 -15.1074 8.64258 -14.5215 8.91602 -14.0918 C 9.15039 -13.7207 9.62891 -13.4961 10.2734 -13.6621 C 11.7871 -14.043 13.3008 -13.9258 14.7852 -12.9199 L 14.1602 -11.3379 C 13.9258 -10.752 13.9453 -10.2734 14.1797 -9.83398 L 3.01758 0.439453 C 2.08008 1.30859 1.97266 2.25586 2.83203 3.11523 Z M 10.6738 -15.1465 C 13.3398 -17.1387 16.6504 -16.8262 19.0527 -14.4141 L 21.6797 -11.8066 C 21.9141 -11.5723 21.9434 -11.3867 21.8848 -11.0938 L 21.5039 -9.53125 L 23.0762 -7.95898 L 24.043 -8.04688 C 24.3262 -8.07617 24.4141 -8.05664 24.6387 -7.83203 L 25.2637 -7.20703 L 22.5098 -4.46289 L 21.8848 -5.07812 C 21.6602 -5.30273 21.6406 -5.40039 21.6699 -5.68359 L 21.7578 -6.64062 L 20.1953 -8.20312 L 18.5742 -7.89062 C 18.291 -7.83203 18.1445 -7.83203 17.9102 -8.07617 L 15.7324 -10.2539 C 15.5078 -10.4883 15.4785 -10.625 15.6055 -10.9473 L 16.5527 -13.2227 C 14.9512 -14.7559 12.8418 -15.6055 10.8008 -14.9512 C 10.7129 -14.9219 10.6445 -14.9414 10.6152 -14.9805 C 10.5859 -15.0293 10.5859 -15.0781 10.6738 -15.1465 Z M 4.10156 2.41211 C 3.61328 1.91406 3.78906 1.61133 4.12109 1.30859 L 15.0781 -8.80859 L 16.3086 -7.57812 L 6.15234 3.34961 C 5.84961 3.68164 5.46875 3.7793 5.06836 3.37891 Z"/>
  </g>
  <text style="stroke:none;fill:black;font-family:-apple-system,&quot;SF Pro Display&quot;,&quot;SF Pro Text&quot;,Helvetica,sans-serif;font-weight:bold;" transform="matrix(1 0 0 1 1289 1953)">Exporting</text>
  <text style="stroke:none;fill:black;font-family:-apple-system,&quot;SF Pro Display&quot;,&quot;SF Pro Text&quot;,Helvetica,sans-serif;" transform="matrix(1 0 0 1 1289 1971)">Symbols should be outlined when exporting to ensure the</text>
  <text style="stroke:none;fill:black;font-family:-apple-system,&quot;SF Pro Display&quot;,&quot;SF Pro Text&quot;,Helvetica,sans-serif;" transform="matrix(1 0 0 1 1289 1989)">design is preserved when submitting to Xcode.</text>
  <text id="template-version" style="stroke:none;fill:black;font-family:-apple-system,&quot;SF Pro Display&quot;,&quot;SF Pro Text&quot;,Helvetica,sans-serif;text-anchor:end;" transform="matrix(1 0 0 1 3036 1933)">Template v.1.0</text>
  <text style="stroke:none;fill:black;font-family:-apple-system,&quot;SF Pro Display&quot;,&quot;SF Pro Text&quot;,Helvetica,sans-serif;text-anchor:end;" transform="matrix(1 0 0 1 3036 1951)">Generated from camera</text>
  <text style="stroke:none;fill:black;font-family:-apple-system,&quot;SF Pro Display&quot;,&quot;SF Pro Text&quot;,Helvetica,sans-serif;text-anchor:end;" transform="matrix(1 0 0 1 3036 1969)">Typeset at 100 points</text>
  <text style="stroke:none;fill:black;font-family:-apple-system,&quot;SF Pro Display&quot;,&quot;SF Pro Text&quot;,Helvetica,sans-serif;" transform="matrix(1 0 0 1 263 726)">Small</text>
  <text style="stroke:none;fill:black;font-family:-apple-system,&quot;SF Pro Display&quot;,&quot;SF Pro Text&quot;,Helvetica,sans-serif;" transform="matrix(1 0 0 1 263 1156)">Medium</text>
  <text style="stroke:none;fill:black;font-family:-apple-system,&quot;SF Pro Display&quot;,&quot;SF Pro Text&quot;,Helvetica,sans-serif;" transform="matrix(1 0 0 1 263 1586)">Large</text>
 </g>
 <g id="Guides">
  <g id="H-reference" style="fill:#27AAE1;stroke:none;" transform="matrix(1 0 0 1 339 696)">
   <path d="M 54.9316 0 L 57.666 0 L 30.5664 -70.459 L 28.0762 -70.459 L 0.976562 0 L 3.66211 0 L 12.9395 -24.4629 L 45.7031 -24.4629 Z M 29.1992 -67.0898 L 29.4434 -67.0898 L 44.8242 -26.709 L 13.8184 -26.709 Z"/>
  </g>
  <line id="Baseline-S" style="fill:none;stroke:#27AAE1;opacity:1;stroke-width:0.577;" x1="263" x2="3036" y1="696" y2="696"/>
  <line id="Capline-S" style="fill:none;stroke:#27AAE1;opacity:1;stroke-width:0.577;" x1="263" x2="3036" y1="625.541" y2="625.541"/>
  <g id="H-reference" style="fill:#27AAE1;stroke:none;" transform="matrix(1 0 0 1 339 1126)">
   <path d="M 54.9316 0 L 57.666 0 L 30.5664 -70.459 L 28.0762 -70.459 L 0.976562 0 L 3.66211 0 L 12.9395 -24.4629 L 45.7031 -24.4629 Z M 29.1992 -67.0898 L 29.4434 -67.0898 L 44.8242 -26.709 L 13.8184 -26.709 Z"/>
  </g>
  <line id="Baseline-M" style="fill:none;stroke:#27AAE1;opacity:1;stroke-width:0.577;" x1="263" x2="3036" y1="1126" y2="1126"/>
  <line id="Capline-M" style="fill:none;stroke:#27AAE1;opacity:1;stroke-width:0.577;" x1="263" x2="3036" y1="1055.54" y2="1055.54"/>
  <g id="H-reference" style="fill:#27AAE1;stroke:none;" transform="matrix(1 0 0 1 339 1556)">
   <path d="M 54.9316 0 L 57.666 0 L 30.5664 -70.459 L 28.0762 -70.459 L 0.976562 0 L 3.66211 0 L 12.9395 -24.4629 L 45.7031 -24.4629 Z M 29.1992 -67.0898 L 29.4434 -67.0898 L 44.8242 -26.709 L 13.8184 -26.709 Z"/>
  </g>
  <line id="Baseline-L" style="fill:none;stroke:#27AAE1;opacity:1;stroke-width:0.577;" x1="263" x2="3036" y1="1556" y2="1556"/>
  <line id="Capline-L" style="fill:none;stroke:#27AAE1;opacity:1;stroke-width:0.577;" x1="263" x2="3036" y1="1485.54" y2="1485.54"/>
  <rect height="119.336" id="left-margin" style="fill:#00AEEF;stroke:none;opacity:0.4;" width="12.4512" x="1380.02" y="1030.79"/>
  <rect height="119.336" id="right-margin" style="fill:#00AEEF;stroke:none;opacity:0.4;" width="12.4512" x="1507.22" y="1030.79"/>
 </g>
 <g id="Symbols">
  <g id="Black-L" transform="matrix(1 0 0 1 2839.85 1556)">
   <path d="M 39.9902 26.5137 L 147.119 26.5137 C 162.354 26.5137 171.045 17.8711 171.045 2.68555 L 171.045 -63.8184 C 171.045 -79.0527 162.354 -87.6465 147.119 -87.6465 L 134.766 -87.6465 C 129.932 -87.6465 128.027 -88.2324 124.365 -91.5039 L 119.58 -95.8984 C 115.869 -99.2676 112.256 -100.635 106.055 -100.635 L 81.0547 -100.635 C 74.8535 -100.635 71.1914 -99.2676 67.5293 -95.8984 L 62.7441 -91.5039 C 59.082 -88.2324 57.1777 -87.6465 52.3438 -87.6465 L 39.9902 -87.6465 C 24.7559 -87.6465 16.0645 -79.0527 16.0645 -63.8184 L 16.0645 2.68555 C 16.0645 17.8711 24.7559 26.5137 39.9902 26.5137 Z M 42.6758 6.29883 C 38.4766 6.29883 36.3281 4.39453 36.3281 -0.146484 L 36.3281 -60.9863 C 36.3281 -65.5273 38.4766 -67.4316 42.6758 -67.4316 L 59.668 -67.4316 C 65.2832 -67.4316 67.8223 -68.2617 71.0449 -71.6309 L 75.3906 -76.0254 C 78.7109 -79.4434 80.8594 -80.3711 86.2305 -80.3711 L 100.83 -80.3711 C 106.25 -80.3711 108.398 -79.3457 111.475 -76.2207 L 116.064 -71.6309 C 119.287 -68.3105 121.826 -67.4316 127.441 -67.4316 L 144.385 -67.4316 C 148.633 -67.4316 150.781 -65.5273 150.781 -60.9863 L 150.781 -0.146484 C 150.781 4.39453 148.633 6.29883 144.385 6.29883 Z M 93.5059 -0.976562 C 111.719 -0.976562 126.27 -15.5762 126.27 -33.8379 C 126.27 -52.0996 111.719 -66.6992 93.5059 -66.6992 C 75.3418 -66.6992 60.6934 -52.0996 60.6934 -33.8379 C 60.6934 -15.5762 75.3418 -0.976562 93.5059 -0.976562 Z M 135.889 -43.9453 C 140.82 -43.9453 144.775 -47.9004 144.775 -52.7344 C 144.775 -57.7148 140.82 -61.6211 135.889 -61.6211 C 130.957 -61.6211 127.002 -57.7148 127.002 -52.7344 C 127.002 -47.9004 130.957 -43.9453 135.889 -43.9453 Z M 93.5059 -18.3105 C 84.9609 -18.3105 78.0273 -25.2441 78.0273 -33.8379 C 78.0273 -42.4805 84.9121 -49.3652 93.5059 -49.3652 C 102.1 -49.3652 108.936 -42.4805 108.936 -33.8379 C 108.936 -25.2441 102.1 -18.3105 93.5059 -18.3105 Z"/>
  </g>
  <g id="Heavy-L" transform="matrix(1 0 0 1 2544.01 1556)">
   <path d="M 38.8184 25.4883 L 146.533 25.4883 C 161.133 25.4883 169.287 17.4316 169.287 2.88086 L 169.287 -63.5742 C 169.287 -78.125 161.133 -86.1816 146.533 -86.1816 L 133.398 -86.1816 C 128.516 -86.1816 126.758 -86.8164 123.242 -90.0879 L 118.359 -94.8242 C 114.795 -98.2422 111.279 -99.6582 105.029 -99.6582 L 80.127 -99.6582 C 73.877 -99.6582 70.3613 -98.2422 66.7969 -94.8242 L 61.9141 -90.0879 C 58.4473 -86.8164 56.6406 -86.1816 51.7578 -86.1816 L 38.8184 -86.1816 C 24.2188 -86.1816 16.0645 -78.125 16.0645 -63.5742 L 16.0645 2.88086 C 16.0645 17.4316 24.2188 25.4883 38.8184 25.4883 Z M 40.918 8.00781 C 36.1328 8.00781 33.5938 5.71289 33.5938 0.585938 L 33.5938 -61.2793 C 33.5938 -66.4062 36.1328 -68.7012 40.918 -68.7012 L 57.8125 -68.7012 C 63.4766 -68.7012 66.0645 -69.5801 69.2871 -72.9492 L 73.8281 -77.6855 C 77.1973 -81.2012 79.2969 -82.1777 84.668 -82.1777 L 100.488 -82.1777 C 105.908 -82.1777 107.959 -81.1523 111.182 -77.832 L 115.869 -72.9492 C 119.092 -69.6289 121.729 -68.7012 127.344 -68.7012 L 144.385 -68.7012 C 149.219 -68.7012 151.758 -66.4062 151.758 -61.2793 L 151.758 0.585938 C 151.758 5.71289 149.219 8.00781 144.385 8.00781 Z M 92.627 -0.0976562 C 111.084 -0.0976562 125.83 -14.8926 125.83 -33.3496 C 125.83 -51.8555 111.084 -66.6504 92.627 -66.6504 C 74.2188 -66.6504 59.4238 -51.8555 59.4238 -33.3496 C 59.4238 -14.8926 74.2188 -0.0976562 92.627 -0.0976562 Z M 135.693 -44.8242 C 140.43 -44.8242 144.238 -48.584 144.238 -53.2715 C 144.238 -58.0078 140.43 -61.8164 135.693 -61.8164 C 131.006 -61.8164 127.197 -58.0078 127.197 -53.2715 C 127.197 -48.584 131.006 -44.8242 135.693 -44.8242 Z M 92.627 -15.2832 C 82.666 -15.2832 74.6094 -23.3398 74.6094 -33.3496 C 74.6094 -43.4082 82.666 -51.4648 92.627 -51.4648 C 102.637 -51.4648 110.645 -43.4082 110.645 -33.3496 C 110.645 -23.3398 102.637 -15.2832 92.627 -15.2832 Z"/>
  </g>
  <g id="Bold-L" transform="matrix(1 0 0 1 2248.28 1556)">
   <path d="M 37.5 24.3652 L 145.85 24.3652 C 159.766 24.3652 167.334 16.8945 167.334 3.07617 L 167.334 -63.2324 C 167.334 -77.0508 159.766 -84.5703 145.85 -84.5703 L 131.885 -84.5703 C 127.002 -84.5703 125.293 -85.2539 122.021 -88.5254 L 116.992 -93.6523 C 113.574 -97.1191 110.254 -98.6328 103.955 -98.6328 L 79.0527 -98.6328 C 72.8027 -98.6328 69.4336 -97.1191 66.0156 -93.6523 L 60.9863 -88.5254 C 57.7148 -85.3027 56.0059 -84.5703 51.123 -84.5703 L 37.5 -84.5703 C 23.6328 -84.5703 16.0645 -77.0508 16.0645 -63.2324 L 16.0645 3.07617 C 16.0645 16.8945 23.6328 24.3652 37.5 24.3652 Z M 38.9648 9.91211 C 33.4961 9.91211 30.5176 7.17773 30.5176 1.41602 L 30.5176 -61.6211 C 30.5176 -67.3828 33.4961 -70.1172 38.9648 -70.1172 L 55.7617 -70.1172 C 61.4258 -70.1172 64.1602 -70.9961 67.334 -74.5117 L 72.0703 -79.541 C 75.5371 -83.252 77.5391 -84.1797 82.9102 -84.1797 L 100.098 -84.1797 C 105.469 -84.1797 107.471 -83.2031 110.84 -79.6387 L 115.674 -74.5117 C 118.896 -71.0449 121.582 -70.1172 127.246 -70.1172 L 144.434 -70.1172 C 149.854 -70.1172 152.881 -67.3828 152.881 -61.6211 L 152.881 1.41602 C 152.881 7.17773 149.854 9.91211 144.434 9.91211 Z M 91.6504 0.878906 C 110.352 0.878906 125.293 -14.1113 125.293 -32.8613 C 125.293 -51.6113 110.352 -66.5527 91.6504 -66.5527 C 72.998 -66.5527 58.0078 -51.6113 58.0078 -32.8613 C 58.0078 -14.1113 72.998 0.878906 91.6504 0.878906 Z M 135.498 -45.752 C 139.99 -45.752 143.652 -49.3652 143.652 -53.8086 C 143.652 -58.3496 139.99 -61.9629 135.498 -61.9629 C 131.006 -61.9629 127.393 -58.3496 127.393 -53.8086 C 127.393 -49.3652 131.006 -45.752 135.498 -45.752 Z M 91.6504 -11.9141 C 80.127 -11.9141 70.8008 -21.2402 70.8008 -32.8613 C 70.8008 -44.4824 80.127 -53.7598 91.6504 -53.7598 C 103.223 -53.7598 112.549 -44.4824 112.549 -32.8613 C 112.549 -21.2402 103.223 -11.9141 91.6504 -11.9141 Z"/>
  </g>
  <g id="Semibold-L" transform="matrix(1 0 0 1 1952.25 1556)">
   <path d="M 36.6211 23.584 L 145.41 23.584 C 158.838 23.584 165.967 16.5039 165.967 3.17383 L 165.967 -63.0371 C 165.967 -76.3672 158.838 -83.4473 145.41 -83.4473 L 130.859 -83.4473 C 125.928 -83.4473 124.316 -84.1797 121.143 -87.5 L 116.064 -92.8223 C 112.695 -96.2891 109.473 -97.9004 103.174 -97.9004 L 78.3203 -97.9004 C 72.0215 -97.9004 68.7988 -96.2891 65.4297 -92.8223 L 60.4004 -87.5 C 57.2266 -84.2285 55.5664 -83.4473 50.6348 -83.4473 L 36.6211 -83.4473 C 23.1934 -83.4473 16.0645 -76.3672 16.0645 -63.0371 L 16.0645 3.17383 C 16.0645 16.5039 23.1934 23.584 36.6211 23.584 Z M 37.5977 11.2793 C 31.6895 11.2793 28.418 8.20312 28.418 1.95312 L 28.418 -61.8164 C 28.418 -68.0664 31.6895 -71.0938 37.5977 -71.0938 L 54.3457 -71.0938 C 60.0098 -71.0938 62.793 -72.0215 66.0156 -75.5371 L 70.8496 -80.8105 C 74.3652 -84.6191 76.3184 -85.5469 81.6895 -85.5469 L 99.8535 -85.5469 C 105.225 -85.5469 107.129 -84.6191 110.596 -80.8594 L 115.479 -75.5371 C 118.701 -72.0215 121.533 -71.0938 127.197 -71.0938 L 144.434 -71.0938 C 150.342 -71.0938 153.613 -68.0664 153.613 -61.8164 L 153.613 1.95312 C 153.613 8.20312 150.342 11.2793 144.434 11.2793 Z M 91.0156 1.5625 C 109.863 1.5625 124.951 -13.5742 124.951 -32.4707 C 124.951 -51.416 109.863 -66.5527 91.0156 -66.5527 C 72.168 -66.5527 57.0312 -51.416 57.0312 -32.4707 C 57.0312 -13.5742 72.168 1.5625 91.0156 1.5625 Z M 135.352 -46.4355 C 139.697 -46.4355 143.213 -49.9023 143.213 -54.248 C 143.213 -58.5938 139.697 -62.0605 135.352 -62.0605 C 131.006 -62.0605 127.49 -58.5938 127.49 -54.248 C 127.49 -49.9023 131.006 -46.4355 135.352 -46.4355 Z M 91.0156 -9.57031 C 78.418 -9.57031 68.1641 -19.7754 68.1641 -32.4707 C 68.1641 -45.2148 78.3691 -55.3711 91.0156 -55.3711 C 103.662 -55.3711 113.818 -45.2148 113.818 -32.4707 C 113.818 -19.7754 103.662 -9.57031 91.0156 -9.57031 Z"/>
  </g>
  <g id="Medium-L" transform="matrix(1 0 0 1 1656.05 1556)">
   <path d="M 35.9375 22.998 L 145.068 22.998 C 158.105 22.998 164.941 16.2109 164.941 3.27148 L 164.941 -62.8906 C 164.941 -75.8301 158.105 -82.6172 145.068 -82.6172 L 130.078 -82.6172 C 125.098 -82.6172 123.584 -83.3496 120.459 -86.6699 L 115.381 -92.1875 C 112.061 -95.7031 108.936 -97.3145 102.588 -97.3145 L 77.7832 -97.3145 C 71.4355 -97.3145 68.3105 -95.7031 65.0391 -92.1875 L 59.9121 -86.6699 C 56.8848 -83.3984 55.2734 -82.6172 50.293 -82.6172 L 35.9375 -82.6172 C 22.9004 -82.6172 16.0645 -75.8301 16.0645 -62.8906 L 16.0645 3.27148 C 16.0645 16.2109 22.9004 22.998 35.9375 22.998 Z M 36.5723 12.2559 C 30.3223 12.2559 26.8066 8.98438 26.8066 2.39258 L 26.8066 -62.0117 C 26.8066 -68.5547 30.3223 -71.875 36.5723 -71.875 L 53.2715 -71.875 C 58.9355 -71.875 61.7676 -72.7539 64.9902 -76.3184 L 69.9707 -81.7871 C 73.4863 -85.6934 75.3906 -86.5723 80.7617 -86.5723 L 99.6582 -86.5723 C 104.98 -86.5723 106.885 -85.6445 110.4 -81.8359 L 115.381 -76.3184 C 118.604 -72.8027 121.484 -71.875 127.148 -71.875 L 144.434 -71.875 C 150.684 -71.875 154.199 -68.5547 154.199 -62.0117 L 154.199 2.39258 C 154.199 8.98438 150.684 12.2559 144.434 12.2559 Z M 90.4785 2.05078 C 109.473 2.05078 124.707 -13.1348 124.707 -32.2266 C 124.707 -51.2695 109.521 -66.5039 90.4785 -66.5039 C 71.5332 -66.5039 56.2988 -51.2695 56.2988 -32.2266 C 56.2988 -13.1348 71.5332 2.05078 90.4785 2.05078 Z M 135.254 -46.9238 C 139.453 -46.9238 142.92 -50.3418 142.92 -54.541 C 142.92 -58.7891 139.453 -62.1582 135.254 -62.1582 C 131.055 -62.1582 127.588 -58.7891 127.588 -54.541 C 127.588 -50.3418 131.055 -46.9238 135.254 -46.9238 Z M 90.4785 -7.8125 C 77.0508 -7.8125 66.1621 -18.7012 66.1621 -32.2266 C 66.1621 -45.752 77.0508 -56.5918 90.4785 -56.5918 C 103.955 -56.5918 114.844 -45.752 114.844 -32.2266 C 114.844 -18.7012 103.955 -7.8125 90.4785 -7.8125 Z"/>
  </g>
  <g id="Regular-L" transform="matrix(1 0 0 1 1360 1556)">
   <path d="M 35.0586 22.2168 L 144.58 22.2168 C 157.178 22.2168 163.623 15.8691 163.623 3.41797 L 163.623 -62.6953 C 163.623 -75.0977 157.178 -81.4941 144.58 -81.4941 L 129.053 -81.4941 C 124.023 -81.4941 122.607 -82.2754 119.629 -85.5957 L 114.453 -91.4062 C 111.23 -94.9219 108.203 -96.582 101.855 -96.582 L 77.0996 -96.582 C 70.7031 -96.582 67.6758 -94.9219 64.4531 -91.4062 L 59.2773 -85.5957 C 56.3965 -82.373 54.834 -81.4941 49.8535 -81.4941 L 35.0586 -81.4941 C 22.4609 -81.4941 16.0645 -75.0977 16.0645 -62.6953 L 16.0645 3.41797 C 16.0645 15.8691 22.4609 22.2168 35.0586 22.2168 Z M 35.2539 13.5742 C 28.5645 13.5742 24.707 9.96094 24.707 2.97852 L 24.707 -62.207 C 24.707 -69.2383 28.5645 -72.8516 35.2539 -72.8516 L 51.8555 -72.8516 C 57.5195 -72.8516 60.4492 -73.7793 63.6719 -77.3926 L 68.75 -83.0566 C 72.3633 -87.0605 74.2188 -87.9395 79.541 -87.9395 L 99.3652 -87.9395 C 104.736 -87.9395 106.543 -87.0605 110.156 -83.0566 L 115.234 -77.3926 C 118.457 -73.7793 121.387 -72.8516 127.1 -72.8516 L 144.434 -72.8516 C 151.123 -72.8516 154.932 -69.2383 154.932 -62.207 L 154.932 2.97852 C 154.932 9.96094 151.123 13.5742 144.434 13.5742 Z M 89.8438 2.73438 C 108.984 2.73438 124.365 -12.5977 124.365 -31.8359 C 124.365 -51.123 109.033 -66.4551 89.8438 -66.4551 C 70.7031 -66.4551 55.3223 -51.123 55.3223 -31.8359 C 55.3223 -12.5977 70.7031 2.73438 89.8438 2.73438 Z M 135.107 -47.6074 C 139.16 -47.6074 142.48 -50.8301 142.48 -54.9316 C 142.48 -59.0332 139.16 -62.3047 135.107 -62.3047 C 131.055 -62.3047 127.734 -59.0332 127.734 -54.9316 C 127.734 -50.8301 131.055 -47.6074 135.107 -47.6074 Z M 89.8438 -5.51758 C 75.3418 -5.51758 63.5254 -17.2363 63.5254 -31.8359 C 63.5254 -46.4844 75.293 -58.2031 89.8438 -58.2031 C 104.346 -58.2031 116.113 -46.4844 116.113 -31.8359 C 116.113 -17.2363 104.346 -5.51758 89.8438 -5.51758 Z"/>
  </g>
  <g id="Light-L" transform="matrix(1 0 0 1 1063.68 1556)">
   <path d="M 34.0332 21.4355 L 144.873 21.4355 C 156.738 21.4355 162.842 15.2344 162.842 3.56445 L 162.842 -62.6953 C 162.842 -74.4141 156.738 -80.5664 144.873 -80.5664 L 128.223 -80.5664 C 123.145 -80.5664 121.777 -81.1035 118.604 -84.668 L 113.281 -90.625 C 109.961 -94.2383 107.178 -95.6055 101.025 -95.6055 L 76.709 -95.6055 C 70.5566 -95.6055 67.7734 -94.2383 64.4531 -90.625 L 59.1309 -84.668 C 56.0547 -81.25 54.5898 -80.5664 49.5117 -80.5664 L 34.0332 -80.5664 C 22.168 -80.5664 16.0645 -74.4141 16.0645 -62.6953 L 16.0645 3.56445 C 16.0645 15.2344 22.168 21.4355 34.0332 21.4355 Z M 34.1797 14.7949 C 26.9043 14.7949 22.7051 10.8398 22.7051 3.22266 L 22.7051 -62.3535 C 22.7051 -70.0195 26.9043 -73.9258 34.1797 -73.9258 L 50.7324 -73.9258 C 56.4453 -73.9258 59.2285 -74.707 62.5488 -78.418 L 67.8223 -84.3262 C 71.3867 -88.2812 73.2422 -89.0137 78.2715 -89.0137 L 99.4629 -89.0137 C 104.492 -89.0137 106.348 -88.2812 109.912 -84.3262 L 115.186 -78.418 C 118.506 -74.707 121.289 -73.9258 127.002 -73.9258 L 144.727 -73.9258 C 152.051 -73.9258 156.25 -70.0195 156.25 -62.3535 L 156.25 3.22266 C 156.25 10.8398 152.051 14.7949 144.727 14.7949 Z M 89.4531 2.88086 C 108.691 2.88086 124.17 -12.5488 124.17 -31.9336 C 124.17 -51.2695 108.789 -66.748 89.4531 -66.748 C 70.2148 -66.748 54.7363 -51.2695 54.7363 -31.9336 C 54.7363 -12.5488 70.2148 2.88086 89.4531 2.88086 Z M 134.717 -48.1445 C 138.477 -48.1445 141.504 -51.123 141.504 -54.8828 C 141.504 -58.6426 138.477 -61.6699 134.717 -61.6699 C 131.006 -61.6699 127.979 -58.6426 127.979 -54.8828 C 127.979 -51.123 131.006 -48.1445 134.717 -48.1445 Z M 89.4531 -3.56445 C 73.877 -3.56445 61.2305 -16.2109 61.2305 -31.9336 C 61.2305 -47.6562 73.8281 -60.2539 89.4531 -60.2539 C 105.078 -60.2539 117.725 -47.6562 117.725 -31.9336 C 117.725 -16.2109 105.078 -3.56445 89.4531 -3.56445 Z"/>
  </g>
  <g id="Thin-L" transform="matrix(1 0 0 1 767.457 1556)">
   <path d="M 32.666 20.3613 L 145.264 20.3613 C 156.152 20.3613 161.865 14.4531 161.865 3.75977 L 161.865 -62.7441 C 161.865 -73.4863 156.152 -79.3457 145.264 -79.3457 L 127.148 -79.3457 C 121.875 -79.3457 120.654 -79.5898 117.285 -83.3984 L 111.719 -89.5996 C 108.252 -93.3105 105.859 -94.3359 99.9023 -94.3359 L 76.2695 -94.3359 C 70.3125 -94.3359 67.9199 -93.3105 64.4531 -89.5996 L 58.8867 -83.3984 C 55.6641 -79.7363 54.1992 -79.3457 49.0234 -79.3457 L 32.666 -79.3457 C 21.7773 -79.3457 16.0645 -73.4863 16.0645 -62.7441 L 16.0645 3.75977 C 16.0645 14.4531 21.7773 20.3613 32.666 20.3613 Z M 32.8125 16.4062 C 24.707 16.4062 19.9707 12.0117 19.9707 3.56445 L 19.9707 -62.5488 C 19.9707 -71.0449 24.707 -75.3906 32.8125 -75.3906 L 49.2676 -75.3906 C 55.0293 -75.3906 57.6172 -75.9766 61.0352 -79.7852 L 66.5527 -85.9863 C 70.1172 -89.9414 71.9727 -90.3809 76.5625 -90.3809 L 99.6094 -90.3809 C 104.199 -90.3809 106.055 -89.9414 109.619 -85.9863 L 115.137 -79.7852 C 118.604 -75.9766 121.143 -75.3906 126.904 -75.3906 L 145.117 -75.3906 C 153.271 -75.3906 157.959 -71.0449 157.959 -62.5488 L 157.959 3.56445 C 157.959 12.0117 153.271 16.4062 145.117 16.4062 Z M 88.9648 3.02734 C 108.301 3.02734 123.975 -12.5 123.975 -32.0312 C 123.975 -51.5137 108.447 -67.0898 88.9648 -67.0898 C 69.6289 -67.0898 54.0039 -51.5137 54.0039 -32.0312 C 54.0039 -12.5 69.6289 3.02734 88.9648 3.02734 Z M 88.9648 -1.02539 C 71.9238 -1.02539 58.1543 -14.8926 58.1543 -32.0312 C 58.1543 -49.1699 71.9238 -63.0371 88.9648 -63.0371 C 106.055 -63.0371 119.824 -49.1699 119.824 -32.0312 C 119.824 -14.8926 106.055 -1.02539 88.9648 -1.02539 Z M 134.229 -48.8281 C 137.598 -48.8281 140.234 -51.5137 140.234 -54.834 C 140.234 -58.1543 137.598 -60.8398 134.229 -60.8398 C 130.908 -60.8398 128.271 -58.1543 128.271 -54.834 C 128.271 -51.5137 130.908 -48.8281 134.229 -48.8281 Z"/>
  </g>
  <g id="Ultralight-L" transform="matrix(1 0 0 1 470.99 1556)">
   <path d="M 31.9824 19.7754 L 145.459 19.7754 C 155.859 19.7754 161.377 14.0625 161.377 3.85742 L 161.377 -62.793 C 161.377 -72.998 155.859 -78.7109 145.459 -78.7109 L 126.611 -78.7109 C 121.289 -78.7109 120.117 -78.8086 116.602 -82.7148 L 110.889 -89.0625 C 107.422 -92.8711 105.176 -93.6523 99.3652 -93.6523 L 76.0254 -93.6523 C 70.2148 -93.6523 67.9688 -92.8711 64.4531 -89.0625 L 58.7891 -82.7148 C 55.4688 -78.9551 54.0039 -78.7109 48.7793 -78.7109 L 31.9824 -78.7109 C 21.582 -78.7109 16.0645 -72.998 16.0645 -62.793 L 16.0645 3.85742 C 16.0645 14.0625 21.582 19.7754 31.9824 19.7754 Z M 32.1289 17.2363 C 23.584 17.2363 18.6035 12.6465 18.6035 3.75977 L 18.6035 -62.6465 C 18.6035 -71.5332 23.584 -76.1719 32.1289 -76.1719 L 48.5352 -76.1719 C 54.2969 -76.1719 56.7383 -76.6113 60.2539 -80.4688 L 65.918 -86.8164 C 69.4824 -90.7715 71.3379 -91.1133 75.7324 -91.1133 L 99.6582 -91.1133 C 104.053 -91.1133 105.908 -90.7715 109.424 -86.8164 L 115.137 -80.4688 C 118.604 -76.6113 121.045 -76.1719 126.855 -76.1719 L 145.312 -76.1719 C 153.906 -76.1719 158.838 -71.5332 158.838 -62.6465 L 158.838 3.75977 C 158.838 12.6465 153.906 17.2363 145.312 17.2363 Z M 88.7207 3.125 C 108.154 3.125 123.877 -12.5 123.877 -32.0801 C 123.877 -51.6602 108.301 -67.2852 88.7207 -67.2852 C 69.3359 -67.2852 53.6133 -51.6602 53.6133 -32.0801 C 53.6133 -12.5 69.3359 3.125 88.7207 3.125 Z M 88.7207 0.244141 C 70.8984 0.244141 56.543 -14.209 56.543 -32.0801 C 56.543 -49.9512 70.8984 -64.4043 88.7207 -64.4043 C 106.543 -64.4043 120.898 -49.9512 120.898 -32.0801 C 120.898 -14.209 106.543 0.244141 88.7207 0.244141 Z M 133.984 -49.2188 C 137.109 -49.2188 139.6 -51.709 139.6 -54.7852 C 139.6 -57.9102 137.109 -60.4004 133.984 -60.4004 C 130.908 -60.4004 128.418 -57.9102 128.418 -54.7852 C 128.418 -51.709 130.908 -49.2188 133.984 -49.2188 Z"/>
  </g>
  <g id="Black-M" transform="matrix(1 0 0 1 2859.91 1126)">
   <path d="M 31.9824 13.5742 L 114.99 13.5742 C 127.246 13.5742 134.521 6.29883 134.521 -5.95703 L 134.521 -57.8125 C 134.521 -70.0684 127.246 -77.3438 114.99 -77.3438 L 105.811 -77.3438 C 102.051 -77.3438 100.488 -77.5391 97.3633 -80.1758 L 93.7012 -83.252 C 90.625 -85.8887 87.7441 -86.6699 83.0566 -86.6699 L 63.916 -86.6699 C 59.2285 -86.6699 56.3477 -85.8887 53.2715 -83.252 L 49.6094 -80.1758 C 46.4844 -77.5391 44.9219 -77.3438 41.1621 -77.3438 L 31.9824 -77.3438 C 19.7266 -77.3438 12.4512 -70.0684 12.4512 -57.8125 L 12.4512 -5.95703 C 12.4512 6.29883 19.7266 13.5742 31.9824 13.5742 Z M 34.9121 -4.73633 C 32.0801 -4.73633 30.7617 -5.81055 30.7617 -8.88672 L 30.7617 -54.8828 C 30.7617 -57.959 32.0801 -59.0332 34.9121 -59.0332 L 48.1445 -59.0332 C 52.4902 -59.0332 54.1992 -59.5703 56.7871 -62.1582 L 60.0098 -65.2832 C 62.5 -67.7246 64.2578 -68.4082 68.3105 -68.4082 L 78.6621 -68.4082 C 82.7148 -68.4082 84.4727 -67.627 86.7188 -65.4785 L 90.1855 -62.1582 C 92.7734 -59.668 94.4824 -59.0332 98.8281 -59.0332 L 112.061 -59.0332 C 114.893 -59.0332 116.211 -57.959 116.211 -54.8828 L 116.211 -8.88672 C 116.211 -5.81055 114.893 -4.73633 112.061 -4.73633 Z M 73.4375 -9.81445 C 87.3047 -9.81445 98.3887 -20.9473 98.3887 -34.8145 C 98.3887 -48.6816 87.3047 -59.8145 73.4375 -59.8145 C 59.6191 -59.8145 48.4863 -48.6816 48.4863 -34.8145 C 48.4863 -20.9473 59.6191 -9.81445 73.4375 -9.81445 Z M 105.371 -41.1133 C 109.326 -41.1133 112.451 -44.2383 112.451 -48.0957 C 112.451 -52.0508 109.326 -55.1758 105.371 -55.1758 C 101.465 -55.1758 98.3398 -52.0508 98.3398 -48.0957 C 98.3398 -44.2383 101.465 -41.1133 105.371 -41.1133 Z M 73.4375 -25.1465 C 68.1152 -25.1465 63.8184 -29.4922 63.8184 -34.8145 C 63.8184 -40.1855 68.1152 -44.4824 73.4375 -44.4824 C 78.8086 -44.4824 83.0078 -40.1855 83.0078 -34.8145 C 83.0078 -29.4922 78.8086 -25.1465 73.4375 -25.1465 Z"/>
  </g>
  <g id="Heavy-M" transform="matrix(1 0 0 1 2564.06 1126)">
   <path d="M 31.0059 12.6465 L 114.258 12.6465 C 126.025 12.6465 132.812 5.9082 132.812 -5.81055 L 132.812 -57.4707 C 132.812 -69.2383 126.025 -75.9766 114.258 -75.9766 L 104.541 -75.9766 C 100.781 -75.9766 99.3164 -76.3184 96.3867 -78.9062 L 92.6758 -82.3242 C 89.7461 -84.9609 86.9629 -85.8887 82.2266 -85.8887 L 62.9395 -85.8887 C 58.2031 -85.8887 55.4199 -84.9609 52.4902 -82.3242 L 48.7793 -78.9062 C 45.8496 -76.3184 44.3848 -75.9766 40.625 -75.9766 L 31.0059 -75.9766 C 19.2383 -75.9766 12.4512 -69.2383 12.4512 -57.4707 L 12.4512 -5.81055 C 12.4512 5.9082 19.2383 12.6465 31.0059 12.6465 Z M 33.252 -3.17383 C 29.9805 -3.17383 28.2715 -4.63867 28.2715 -8.1543 L 28.2715 -55.127 C 28.2715 -58.6914 29.9805 -60.1562 33.252 -60.1562 L 46.3867 -60.1562 C 50.7812 -60.1562 52.6367 -60.7422 55.1758 -63.3789 L 58.5449 -66.7969 C 61.1328 -69.3359 62.793 -70.0684 66.8945 -70.0684 L 78.2715 -70.0684 C 82.373 -70.0684 84.082 -69.2871 86.4258 -66.9434 L 89.9902 -63.3789 C 92.5293 -60.791 94.3848 -60.1562 98.7793 -60.1562 L 112.012 -60.1562 C 115.283 -60.1562 116.943 -58.6914 116.943 -55.127 L 116.943 -8.1543 C 116.943 -4.63867 115.283 -3.17383 112.012 -3.17383 Z M 72.5586 -8.88672 C 86.6699 -8.88672 97.9492 -20.166 97.9492 -34.2773 C 97.9492 -48.3887 86.6699 -59.7168 72.5586 -59.7168 C 58.5449 -59.7168 47.2168 -48.3887 47.2168 -34.2773 C 47.2168 -20.166 58.5449 -8.88672 72.5586 -8.88672 Z M 105.273 -41.8945 C 109.082 -41.8945 112.109 -44.9219 112.109 -48.6816 C 112.109 -52.4902 109.082 -55.4688 105.273 -55.4688 C 101.465 -55.4688 98.4375 -52.4902 98.4375 -48.6816 C 98.4375 -44.9219 101.465 -41.8945 105.273 -41.8945 Z M 72.5586 -22.3633 C 66.0156 -22.3633 60.6934 -27.6855 60.6934 -34.2773 C 60.6934 -40.918 66.0156 -46.1914 72.5586 -46.1914 C 79.1992 -46.1914 84.4238 -40.918 84.4238 -34.2773 C 84.4238 -27.6855 79.1992 -22.3633 72.5586 -22.3633 Z"/>
  </g>
  <g id="Bold-M" transform="matrix(1 0 0 1 2268.32 1126)">
   <path d="M 29.8828 11.6699 L 113.428 11.6699 C 124.658 11.6699 130.859 5.46875 130.859 -5.66406 L 130.859 -57.1289 C 130.859 -68.3105 124.658 -74.4629 113.428 -74.4629 L 103.125 -74.4629 C 99.3652 -74.4629 97.998 -74.9512 95.3125 -77.4902 L 91.5039 -81.25 C 88.7695 -83.8867 86.084 -85.0098 81.25 -85.0098 L 61.9141 -85.0098 C 57.0801 -85.0098 54.3945 -83.8867 51.6113 -81.25 L 47.8516 -77.4902 C 45.166 -74.9512 43.7988 -74.4629 39.9902 -74.4629 L 29.8828 -74.4629 C 18.6523 -74.4629 12.4512 -68.3105 12.4512 -57.1289 L 12.4512 -5.66406 C 12.4512 5.46875 18.6523 11.6699 29.8828 11.6699 Z M 31.3965 -1.41602 C 27.5879 -1.41602 25.5371 -3.27148 25.5371 -7.32422 L 25.5371 -55.4688 C 25.5371 -59.5215 27.5879 -61.377 31.3965 -61.377 L 44.4824 -61.377 C 48.8281 -61.377 50.8789 -62.0605 53.3691 -64.7461 L 56.9336 -68.457 C 59.5703 -71.1914 61.1328 -71.9238 65.332 -71.9238 L 77.832 -71.9238 C 81.9824 -71.9238 83.5938 -71.1426 86.084 -68.5547 L 89.7461 -64.7461 C 92.2363 -62.1094 94.2871 -61.377 98.6816 -61.377 L 111.914 -61.377 C 115.723 -61.377 117.773 -59.5215 117.773 -55.4688 L 117.773 -7.32422 C 117.773 -3.27148 115.723 -1.41602 111.914 -1.41602 Z M 71.6309 -7.8125 C 85.9375 -7.8125 97.4121 -19.3359 97.4121 -33.6914 C 97.4121 -48.0469 85.9863 -59.5703 71.6309 -59.5703 C 57.3242 -59.5703 45.8496 -48.0469 45.8496 -33.6914 C 45.8496 -19.3359 57.3242 -7.8125 71.6309 -7.8125 Z M 105.127 -42.8223 C 108.789 -42.8223 111.719 -45.7031 111.719 -49.3164 C 111.719 -52.9785 108.789 -55.8594 105.127 -55.8594 C 101.514 -55.8594 98.584 -52.9785 98.584 -49.3164 C 98.584 -45.7031 101.514 -42.8223 105.127 -42.8223 Z M 71.6309 -19.2383 C 63.6719 -19.2383 57.2266 -25.6836 57.2266 -33.6914 C 57.2266 -41.748 63.623 -48.1445 71.6309 -48.1445 C 79.6387 -48.1445 86.0352 -41.748 86.0352 -33.6914 C 86.0352 -25.6836 79.6387 -19.2383 71.6309 -19.2383 Z"/>
  </g>
  <g id="Semibold-M" transform="matrix(1 0 0 1 1972.27 1126)">
   <path d="M 29.1016 10.9863 L 112.891 10.9863 C 123.73 10.9863 129.541 5.17578 129.541 -5.56641 L 129.541 -56.8848 C 129.541 -67.627 123.73 -73.4375 112.891 -73.4375 L 102.148 -73.4375 C 98.3887 -73.4375 97.0703 -74.0234 94.5801 -76.5137 L 90.7227 -80.4688 C 88.0859 -83.1543 85.498 -84.4238 80.5664 -84.4238 L 61.1816 -84.4238 C 56.2988 -84.4238 53.6621 -83.1543 51.0254 -80.4688 L 47.168 -76.5137 C 44.7266 -74.0234 43.3594 -73.4375 39.5996 -73.4375 L 29.1016 -73.4375 C 18.2617 -73.4375 12.4512 -67.627 12.4512 -56.8848 L 12.4512 -5.56641 C 12.4512 5.17578 18.2617 10.9863 29.1016 10.9863 Z M 30.127 -0.195312 C 25.9277 -0.195312 23.6328 -2.34375 23.6328 -6.78711 L 23.6328 -55.6641 C 23.6328 -60.1074 25.9277 -62.2559 30.127 -62.2559 L 43.1152 -62.2559 C 47.5098 -62.2559 49.707 -62.9883 52.1484 -65.6738 L 55.8105 -69.5801 C 58.4961 -72.4609 60.0098 -73.2422 64.2578 -73.2422 L 77.4902 -73.2422 C 81.7383 -73.2422 83.252 -72.4609 85.8887 -69.6289 L 89.5996 -65.6738 C 92.0898 -62.9883 94.2383 -62.2559 98.6328 -62.2559 L 111.865 -62.2559 C 116.064 -62.2559 118.359 -60.1074 118.359 -55.6641 L 118.359 -6.78711 C 118.359 -2.34375 116.064 -0.195312 111.865 -0.195312 Z M 70.9961 -7.12891 C 85.4492 -7.12891 97.0703 -18.75 97.0703 -33.3008 C 97.0703 -47.8516 85.498 -59.4727 70.9961 -59.4727 C 56.4941 -59.4727 44.873 -47.8516 44.873 -33.3008 C 44.873 -18.75 56.4941 -7.12891 70.9961 -7.12891 Z M 105.078 -43.4082 C 108.594 -43.4082 111.426 -46.2402 111.426 -49.7559 C 111.426 -53.2715 108.594 -56.1035 105.078 -56.1035 C 101.562 -56.1035 98.6816 -53.2715 98.6816 -49.7559 C 98.6816 -46.2402 101.562 -43.4082 105.078 -43.4082 Z M 70.9961 -17.041 C 62.0605 -17.041 54.7852 -24.3164 54.7852 -33.3008 C 54.7852 -42.2852 62.0117 -49.5117 70.9961 -49.5117 C 79.9316 -49.5117 87.1582 -42.2852 87.1582 -33.3008 C 87.1582 -24.3164 79.9316 -17.041 70.9961 -17.041 Z"/>
  </g>
  <g id="Medium-M" transform="matrix(1 0 0 1 1676.07 1126)">
   <path d="M 28.5156 10.4492 L 112.451 10.4492 C 122.998 10.4492 128.516 4.98047 128.516 -5.46875 L 128.516 -56.7383 C 128.516 -67.1875 122.998 -72.6562 112.451 -72.6562 L 101.416 -72.6562 C 97.6562 -72.6562 96.3867 -73.291 94.043 -75.7812 L 90.1367 -79.9316 C 87.5977 -82.6172 85.0098 -83.9355 80.0781 -83.9355 L 60.6445 -83.9355 C 55.6641 -83.9355 53.125 -82.6172 50.5859 -79.9316 L 46.6797 -75.7812 C 44.3359 -73.3398 43.0664 -72.6562 39.2578 -72.6562 L 28.5156 -72.6562 C 17.9688 -72.6562 12.4512 -67.1875 12.4512 -56.7383 L 12.4512 -5.46875 C 12.4512 4.98047 17.9688 10.4492 28.5156 10.4492 Z M 29.1504 0.732422 C 24.707 0.732422 22.168 -1.61133 22.168 -6.34766 L 22.168 -55.8594 C 22.168 -60.5469 24.707 -62.8906 29.1504 -62.8906 L 42.1387 -62.8906 C 46.5332 -62.8906 48.7793 -63.6719 51.2207 -66.3574 L 54.9316 -70.459 C 57.666 -73.4375 59.1797 -74.2188 63.4277 -74.2188 L 77.2949 -74.2188 C 81.543 -74.2188 83.0078 -73.4375 85.7422 -70.5078 L 89.502 -66.3574 C 91.9434 -63.6719 94.1895 -62.8906 98.584 -62.8906 L 111.816 -62.8906 C 116.26 -62.8906 118.799 -60.5469 118.799 -55.8594 L 118.799 -6.34766 C 118.799 -1.61133 116.26 0.732422 111.816 0.732422 Z M 70.459 -6.5918 C 85.1074 -6.5918 96.8262 -18.3105 96.8262 -32.959 C 96.8262 -47.6562 85.1074 -59.375 70.459 -59.375 C 55.8594 -59.375 44.1406 -47.6562 44.1406 -32.959 C 44.1406 -18.3105 55.8594 -6.5918 70.459 -6.5918 Z M 104.98 -43.8965 C 108.447 -43.8965 111.23 -46.6309 111.23 -50.0488 C 111.23 -53.5645 108.447 -56.2988 104.98 -56.2988 C 101.562 -56.2988 98.7793 -53.5645 98.7793 -50.0488 C 98.7793 -46.6309 101.562 -43.8965 104.98 -43.8965 Z M 70.459 -15.4297 C 60.8398 -15.4297 52.9785 -23.2422 52.9785 -32.959 C 52.9785 -42.7246 60.791 -50.5371 70.459 -50.5371 C 80.1758 -50.5371 87.9883 -42.7246 87.9883 -32.959 C 87.9883 -23.2422 80.1758 -15.4297 70.459 -15.4297 Z"/>
  </g>
  <g id="Regular-M" transform="matrix(1 0 0 1 1380.02 1126)">
   <path d="M 27.7832 9.76562 L 111.865 9.76562 C 122.07 9.76562 127.197 4.6875 127.197 -5.37109 L 127.197 -56.4941 C 127.197 -66.5527 122.07 -71.582 111.865 -71.582 L 100.488 -71.582 C 96.6797 -71.582 95.459 -72.3633 93.3105 -74.8047 L 89.3555 -79.1992 C 86.9141 -81.8848 84.4238 -83.3496 79.3945 -83.3496 L 59.9121 -83.3496 C 54.8828 -83.3496 52.3926 -81.8848 49.9512 -79.1992 L 46.0449 -74.8047 C 43.8965 -72.4121 42.6758 -71.582 38.8672 -71.582 L 27.7832 -71.582 C 17.5781 -71.582 12.4512 -66.5527 12.4512 -56.4941 L 12.4512 -5.37109 C 12.4512 4.6875 17.5781 9.76562 27.7832 9.76562 Z M 27.8809 1.9043 C 23.0957 1.9043 20.3125 -0.683594 20.3125 -5.76172 L 20.3125 -56.0547 C 20.3125 -61.1328 23.0957 -63.7207 27.8809 -63.7207 L 40.8203 -63.7207 C 45.2148 -63.7207 47.5586 -64.5508 50 -67.2852 L 53.8086 -71.582 C 56.6406 -74.707 58.0566 -75.4883 62.3535 -75.4883 L 76.9531 -75.4883 C 81.2988 -75.4883 82.7148 -74.707 85.498 -71.582 L 89.3555 -67.2852 C 91.748 -64.5508 94.1406 -63.7207 98.5352 -63.7207 L 111.768 -63.7207 C 116.602 -63.7207 119.336 -61.1328 119.336 -56.0547 L 119.336 -5.76172 C 119.336 -0.683594 116.602 1.9043 111.768 1.9043 Z M 69.8242 -5.85938 C 84.6191 -5.85938 96.4844 -17.7246 96.4844 -32.5684 C 96.4844 -47.4121 84.6191 -59.2773 69.8242 -59.2773 C 55.0781 -59.2773 43.2129 -47.4121 43.2129 -32.5684 C 43.2129 -17.7246 55.0781 -5.85938 69.8242 -5.85938 Z M 104.932 -44.4824 C 108.252 -44.4824 110.986 -47.168 110.986 -50.4883 C 110.986 -53.8574 108.252 -56.543 104.932 -56.543 C 101.611 -56.543 98.877 -53.8574 98.877 -50.4883 C 98.877 -47.168 101.611 -44.4824 104.932 -44.4824 Z M 69.8242 -13.2812 C 59.2285 -13.2812 50.5859 -21.875 50.5859 -32.5684 C 50.5859 -43.2617 59.1797 -51.8555 69.8242 -51.8555 C 80.4688 -51.8555 89.1113 -43.2617 89.1113 -32.5684 C 89.1113 -21.875 80.4688 -13.2812 69.8242 -13.2812 Z"/>
  </g>
  <g id="Light-M" transform="matrix(1 0 0 1 1083.63 1126)">
   <path d="M 26.8555 9.0332 L 112.158 9.0332 C 121.68 9.0332 126.562 4.15039 126.562 -5.22461 L 126.562 -56.4941 C 126.562 -65.918 121.68 -70.8008 112.158 -70.8008 L 99.7559 -70.8008 C 95.8496 -70.8008 94.7266 -71.3379 92.3828 -73.9746 L 88.3301 -78.5156 C 85.791 -81.25 83.5449 -82.4707 78.6621 -82.4707 L 59.6191 -82.4707 C 54.7363 -82.4707 52.4902 -81.25 49.9512 -78.5156 L 45.8984 -73.9746 C 43.6035 -71.3867 42.4316 -70.8008 38.5254 -70.8008 L 26.8555 -70.8008 C 17.334 -70.8008 12.4512 -65.918 12.4512 -56.4941 L 12.4512 -5.22461 C 12.4512 4.15039 17.334 9.0332 26.8555 9.0332 Z M 26.9531 2.97852 C 21.582 2.97852 18.5059 0.0976562 18.5059 -5.56641 L 18.5059 -56.2012 C 18.5059 -61.8164 21.582 -64.7461 26.9531 -64.7461 L 39.7949 -64.7461 C 44.2383 -64.7461 46.4355 -65.3809 48.9746 -68.2129 L 52.9785 -72.7051 C 55.7617 -75.7812 57.1777 -76.416 61.2305 -76.416 L 77.0508 -76.416 C 81.1035 -76.416 82.5195 -75.7812 85.3027 -72.7051 L 89.3066 -68.2129 C 91.7969 -65.3809 94.043 -64.7461 98.4863 -64.7461 L 112.012 -64.7461 C 117.432 -64.7461 120.508 -61.8164 120.508 -56.2012 L 120.508 -5.56641 C 120.508 0.0976562 117.432 2.97852 112.012 2.97852 Z M 69.4824 -5.76172 C 84.375 -5.76172 96.3379 -17.6758 96.3379 -32.6172 C 96.3379 -47.6074 84.4238 -59.5215 69.4824 -59.5215 C 54.6387 -59.5215 42.6758 -47.6074 42.6758 -32.6172 C 42.6758 -17.6758 54.6387 -5.76172 69.4824 -5.76172 Z M 104.59 -44.9707 C 107.617 -44.9707 110.107 -47.4121 110.107 -50.4883 C 110.107 -53.5645 107.617 -56.0059 104.59 -56.0059 C 101.562 -56.0059 99.0723 -53.5645 99.0723 -50.4883 C 99.0723 -47.4121 101.562 -44.9707 104.59 -44.9707 Z M 69.4824 -11.5723 C 57.9102 -11.5723 48.4863 -20.9473 48.4863 -32.6172 C 48.4863 -44.3359 57.8613 -53.7109 69.4824 -53.7109 C 81.1035 -53.7109 90.5273 -44.3359 90.5273 -32.6172 C 90.5273 -20.9473 81.1035 -11.5723 69.4824 -11.5723 Z"/>
  </g>
  <g id="Thin-M" transform="matrix(1 0 0 1 787.355 1126)">
   <path d="M 25.6348 8.05664 L 112.5 8.05664 C 121.143 8.05664 125.684 3.4668 125.684 -5.0293 L 125.684 -56.543 C 125.684 -65.0879 121.143 -69.6777 112.5 -69.6777 L 98.7793 -69.6777 C 94.7266 -69.6777 93.75 -69.9219 91.1621 -72.8027 L 86.9141 -77.5879 C 84.2773 -80.4688 82.3242 -81.2988 77.6855 -81.2988 L 59.1797 -81.2988 C 54.541 -81.2988 52.5879 -80.4688 49.9512 -77.5879 L 45.7031 -72.8027 C 43.2129 -70.0195 42.0898 -69.6777 38.0859 -69.6777 L 25.6348 -69.6777 C 16.9922 -69.6777 12.4512 -65.0879 12.4512 -56.543 L 12.4512 -5.0293 C 12.4512 3.4668 16.9922 8.05664 25.6348 8.05664 Z M 25.7324 4.44336 C 19.6289 4.44336 16.0645 1.12305 16.0645 -5.22461 L 16.0645 -56.3477 C 16.0645 -62.7441 19.6289 -66.0645 25.7324 -66.0645 L 38.4766 -66.0645 C 42.9688 -66.0645 44.9707 -66.5039 47.6074 -69.4824 L 51.8555 -74.2188 C 54.6387 -77.2461 56.0547 -77.6855 59.7168 -77.6855 L 77.1484 -77.6855 C 80.8105 -77.6855 82.2754 -77.2461 85.0098 -74.2188 L 89.2578 -69.4824 C 91.8945 -66.5039 93.8965 -66.0645 98.3887 -66.0645 L 112.402 -66.0645 C 118.506 -66.0645 122.021 -62.7441 122.021 -56.3477 L 122.021 -5.22461 C 122.021 1.12305 118.506 4.44336 112.402 4.44336 Z M 69.043 -5.61523 C 84.0332 -5.61523 96.1426 -17.627 96.1426 -32.7148 C 96.1426 -47.8027 84.1309 -59.8633 69.043 -59.8633 C 54.1016 -59.8633 41.9922 -47.8027 41.9922 -32.7148 C 41.9922 -17.627 54.1016 -5.61523 69.043 -5.61523 Z M 69.043 -9.27734 C 56.1523 -9.27734 45.7031 -19.7266 45.7031 -32.7148 C 45.7031 -45.7031 56.1523 -56.1523 69.043 -56.1523 C 81.9824 -56.1523 92.3828 -45.7031 92.3828 -32.7148 C 92.3828 -19.7266 81.9824 -9.27734 69.043 -9.27734 Z M 104.15 -45.6055 C 106.836 -45.6055 108.984 -47.7539 108.984 -50.4395 C 108.984 -53.125 106.836 -55.2246 104.15 -55.2246 C 101.465 -55.2246 99.3164 -53.125 99.3164 -50.4395 C 99.3164 -47.7539 101.465 -45.6055 104.15 -45.6055 Z"/>
  </g>
  <g id="Ultralight-M" transform="matrix(1 0 0 1 490.863 1126)">
   <path d="M 25 7.56836 L 112.695 7.56836 C 120.85 7.56836 125.244 3.125 125.244 -4.98047 L 125.244 -56.5918 C 125.244 -64.6484 120.85 -69.1406 112.695 -69.1406 L 98.291 -69.1406 C 94.1895 -69.1406 93.2617 -69.2383 90.5762 -72.2168 L 86.1816 -77.0996 C 83.4961 -80.0293 81.6895 -80.7129 77.1484 -80.7129 L 58.9844 -80.7129 C 54.4434 -80.7129 52.6367 -80.0293 49.9512 -77.0996 L 45.6055 -72.2168 C 43.0176 -69.3359 41.8945 -69.1406 37.8418 -69.1406 L 25 -69.1406 C 16.7969 -69.1406 12.4512 -64.6484 12.4512 -56.5918 L 12.4512 -4.98047 C 12.4512 3.125 16.7969 7.56836 25 7.56836 Z M 25.0977 5.17578 C 18.6035 5.17578 14.8438 1.66016 14.8438 -5.07812 L 14.8438 -56.4453 C 14.8438 -63.2324 18.6035 -66.748 25.0977 -66.748 L 37.8418 -66.748 C 42.334 -66.748 44.2383 -67.0898 46.9238 -70.0684 L 51.3184 -74.9512 C 54.0527 -78.0273 55.4688 -78.3203 58.9355 -78.3203 L 77.1973 -78.3203 C 80.6641 -78.3203 82.1289 -78.0273 84.8633 -74.9512 L 89.209 -70.0684 C 91.8945 -67.0898 93.8477 -66.748 98.3398 -66.748 L 112.549 -66.748 C 119.092 -66.748 122.852 -63.2324 122.852 -56.4453 L 122.852 -5.07812 C 122.852 1.66016 119.092 5.17578 112.549 5.17578 Z M 68.8477 -5.51758 C 83.8379 -5.51758 95.9961 -17.627 95.9961 -32.7637 C 95.9961 -47.9004 83.9844 -60.0098 68.8477 -60.0098 C 53.8086 -60.0098 41.6504 -47.9004 41.6504 -32.7637 C 41.6504 -17.627 53.8086 -5.51758 68.8477 -5.51758 Z M 68.8477 -8.10547 C 55.2734 -8.10547 44.2871 -19.1406 44.2871 -32.7637 C 44.2871 -46.4355 55.2734 -57.4219 68.8477 -57.4219 C 82.4219 -57.4219 93.3594 -46.4355 93.3594 -32.7637 C 93.3594 -19.1406 82.4219 -8.10547 68.8477 -8.10547 Z M 103.906 -45.9473 C 106.396 -45.9473 108.398 -47.9492 108.398 -50.3906 C 108.398 -52.8809 106.396 -54.8828 103.906 -54.8828 C 101.465 -54.8828 99.4629 -52.8809 99.4629 -50.3906 C 99.4629 -47.9492 101.465 -45.9473 103.906 -45.9473 Z"/>
  </g>
  <g id="Black-S" transform="matrix(1 0 0 1 2875.88 696)">
   <path d="M 25 2.92969 L 90.0391 2.92969 C 99.6094 2.92969 105.273 -2.73438 105.273 -12.3047 L 105.273 -52.8809 C 105.273 -62.4512 99.6094 -68.1152 90.0391 -68.1152 L 82.8125 -68.1152 C 79.8828 -68.1152 78.6621 -68.3105 76.2207 -70.3613 L 73.3398 -72.8027 C 70.9473 -74.8535 68.7012 -75.4883 65.0391 -75.4883 L 50 -75.4883 C 46.3379 -75.4883 44.0918 -74.8535 41.6992 -72.8027 L 38.8184 -70.3613 C 36.377 -68.3105 35.1562 -68.1152 32.2266 -68.1152 L 25 -68.1152 C 15.4297 -68.1152 9.76562 -62.4512 9.76562 -52.8809 L 9.76562 -12.3047 C 9.76562 -2.73438 15.4297 2.92969 25 2.92969 Z M 27.2461 -11.2305 C 25 -11.2305 23.9258 -12.1094 23.9258 -14.5508 L 23.9258 -50.6348 C 23.9258 -53.0762 25 -53.9551 27.2461 -53.9551 L 37.5977 -53.9551 C 41.0156 -53.9551 42.3828 -54.3945 44.3848 -56.3965 L 46.9238 -58.8867 C 48.877 -60.791 50.2441 -61.3281 53.418 -61.3281 L 61.6211 -61.3281 C 64.7949 -61.3281 66.1621 -60.7422 67.9199 -59.0332 L 70.6543 -56.3965 C 72.6562 -54.4434 74.0234 -53.9551 77.4414 -53.9551 L 87.793 -53.9551 C 90.0391 -53.9551 91.1133 -53.0762 91.1133 -50.6348 L 91.1133 -14.5508 C 91.1133 -12.1094 90.0391 -11.2305 87.793 -11.2305 Z M 57.4707 -15.2344 C 68.3594 -15.2344 77.0508 -23.9746 77.0508 -34.8633 C 77.0508 -45.752 68.3594 -54.4922 57.4707 -54.4922 C 46.6309 -54.4922 37.8906 -45.752 37.8906 -34.8633 C 37.8906 -23.9746 46.6309 -15.2344 57.4707 -15.2344 Z M 82.5684 -39.8926 C 85.6445 -39.8926 88.0859 -42.334 88.0859 -45.3613 C 88.0859 -48.4375 85.6445 -50.8789 82.5684 -50.8789 C 79.4922 -50.8789 77.0508 -48.4375 77.0508 -45.3613 C 77.0508 -42.334 79.4922 -39.8926 82.5684 -39.8926 Z M 57.4707 -27.1484 C 53.2227 -27.1484 49.8047 -30.6152 49.8047 -34.8633 C 49.8047 -39.1602 53.2227 -42.5781 57.4707 -42.5781 C 61.7676 -42.5781 65.1367 -39.1602 65.1367 -34.8633 C 65.1367 -30.6152 61.7676 -27.1484 57.4707 -27.1484 Z"/>
  </g>
  <g id="Heavy-S" transform="matrix(1 0 0 1 2579.8 696)">
   <path d="M 24.3652 2.34375 L 89.4531 2.34375 C 98.7305 2.34375 104.004 -2.97852 104.004 -12.207 L 104.004 -52.6367 C 104.004 -61.8652 98.7305 -67.1875 89.4531 -67.1875 L 81.9336 -67.1875 C 79.0039 -67.1875 77.832 -67.4805 75.5859 -69.4824 L 72.6562 -72.1191 C 70.4102 -74.2188 68.2129 -75 64.4531 -75 L 49.3164 -75 C 45.5566 -75 43.3594 -74.2188 41.1133 -72.1191 L 38.1836 -69.4824 C 35.9375 -67.4805 34.7656 -67.1875 31.8359 -67.1875 L 24.3652 -67.1875 C 15.0879 -67.1875 9.76562 -61.8652 9.76562 -52.6367 L 9.76562 -12.207 C 9.76562 -2.97852 15.0879 2.34375 24.3652 2.34375 Z M 26.0742 -10.1562 C 23.5352 -10.1562 22.2656 -11.2793 22.2656 -14.0137 L 22.2656 -50.8301 C 22.2656 -53.5645 23.5352 -54.6875 26.0742 -54.6875 L 36.377 -54.6875 C 39.7949 -54.6875 41.3086 -55.1758 43.2617 -57.2266 L 45.8984 -59.9121 C 47.9004 -61.9141 49.2188 -62.5 52.4902 -62.5 L 61.2793 -62.5 C 64.5508 -62.5 65.8691 -61.8652 67.7246 -60.0098 L 70.5078 -57.2266 C 72.4609 -55.2246 73.9746 -54.6875 77.3926 -54.6875 L 87.6953 -54.6875 C 90.2344 -54.6875 91.5527 -53.5645 91.5527 -50.8301 L 91.5527 -14.0137 C 91.5527 -11.2793 90.2344 -10.1562 87.6953 -10.1562 Z M 56.8359 -14.5508 C 67.9199 -14.5508 76.709 -23.3887 76.709 -34.4727 C 76.709 -45.5078 67.9199 -54.3457 56.8359 -54.3457 C 45.8496 -54.3457 37.0117 -45.5078 37.0117 -34.4727 C 37.0117 -23.3887 45.8496 -14.5508 56.8359 -14.5508 Z M 82.5195 -40.4297 C 85.498 -40.4297 87.9395 -42.8223 87.9395 -45.8008 C 87.9395 -48.8281 85.498 -51.1719 82.5195 -51.1719 C 79.541 -51.1719 77.1484 -48.8281 77.1484 -45.8008 C 77.1484 -42.8223 79.541 -40.4297 82.5195 -40.4297 Z M 56.8359 -25.1953 C 51.7578 -25.1953 47.6562 -29.3457 47.6562 -34.4727 C 47.6562 -39.5996 51.7578 -43.7012 56.8359 -43.7012 C 62.0117 -43.7012 66.0645 -39.5996 66.0645 -34.4727 C 66.0645 -29.3457 62.0117 -25.1953 56.8359 -25.1953 Z"/>
  </g>
  <g id="Bold-S" transform="matrix(1 0 0 1 2283.78 696)">
   <path d="M 23.6328 1.66016 L 88.7695 1.66016 C 97.7051 1.66016 102.637 -3.22266 102.637 -12.1094 L 102.637 -52.3926 C 102.637 -61.2793 97.7051 -66.1133 88.7695 -66.1133 L 80.957 -66.1133 C 78.0273 -66.1133 76.9043 -66.5527 74.9023 -68.5059 L 71.9238 -71.3867 C 69.8242 -73.4863 67.6758 -74.4141 63.8184 -74.4141 L 48.584 -74.4141 C 44.7266 -74.4141 42.5781 -73.4863 40.4297 -71.3867 L 37.5 -68.5059 C 35.4492 -66.5527 34.375 -66.1133 31.3965 -66.1133 L 23.6328 -66.1133 C 14.6973 -66.1133 9.76562 -61.2793 9.76562 -52.3926 L 9.76562 -12.1094 C 9.76562 -3.22266 14.6973 1.66016 23.6328 1.66016 Z M 24.8047 -8.93555 C 21.9238 -8.93555 20.3613 -10.3516 20.3613 -13.4277 L 20.3613 -51.0742 C 20.3613 -54.1504 21.9238 -55.5176 24.8047 -55.5176 L 35.0098 -55.5176 C 38.4277 -55.5176 40.0879 -56.1035 42.041 -58.1543 L 44.7754 -61.0352 C 46.8262 -63.1836 48.0957 -63.8184 51.416 -63.8184 L 60.9375 -63.8184 C 64.3066 -63.8184 65.5273 -63.1836 67.5293 -61.084 L 70.3125 -58.1543 C 72.2656 -56.1035 73.9258 -55.5176 77.3438 -55.5176 L 87.5977 -55.5176 C 90.4785 -55.5176 92.041 -54.1504 92.041 -51.0742 L 92.041 -13.4277 C 92.041 -10.3516 90.4785 -8.93555 87.5977 -8.93555 Z M 56.1523 -13.7695 C 67.3828 -13.7695 76.3672 -22.7539 76.3672 -33.9844 C 76.3672 -45.2148 67.3828 -54.1992 56.1523 -54.1992 C 44.9707 -54.1992 35.9863 -45.2148 35.9863 -33.9844 C 35.9863 -22.7539 44.9707 -13.7695 56.1523 -13.7695 Z M 82.4707 -41.0645 C 85.4004 -41.0645 87.7441 -43.4082 87.7441 -46.2891 C 87.7441 -49.2188 85.4004 -51.5625 82.4707 -51.5625 C 79.541 -51.5625 77.1973 -49.2188 77.1973 -46.2891 C 77.1973 -43.4082 79.541 -41.0645 82.4707 -41.0645 Z M 56.1523 -22.998 C 50.1465 -22.998 45.2148 -27.9297 45.2148 -33.9844 C 45.2148 -40.0879 50.0977 -44.9707 56.1523 -44.9707 C 62.2559 -44.9707 67.1387 -40.0879 67.1387 -33.9844 C 67.1387 -27.9297 62.2559 -22.998 56.1523 -22.998 Z"/>
  </g>
  <g id="Semibold-S" transform="matrix(1 0 0 1 1987.55 696)">
   <path d="M 23.0957 1.17188 L 88.3301 1.17188 C 97.0215 1.17188 101.66 -3.36914 101.66 -12.0117 L 101.66 -52.1973 C 101.66 -60.8398 97.0215 -65.3809 88.3301 -65.3809 L 80.2734 -65.3809 C 77.3438 -65.3809 76.2695 -65.918 74.4141 -67.8223 L 71.4355 -70.8984 C 69.3848 -72.9492 67.2852 -74.0234 63.3789 -74.0234 L 48.0469 -74.0234 C 44.1406 -74.0234 41.9922 -72.9492 39.9902 -70.8984 L 37.0117 -67.8223 C 35.1074 -65.918 34.082 -65.3809 31.1035 -65.3809 L 23.0957 -65.3809 C 14.4043 -65.3809 9.76562 -60.8398 9.76562 -52.1973 L 9.76562 -12.0117 C 9.76562 -3.36914 14.4043 1.17188 23.0957 1.17188 Z M 23.877 -8.10547 C 20.8008 -8.10547 19.0918 -9.7168 19.0918 -12.9883 L 19.0918 -51.2207 C 19.0918 -54.4922 20.8008 -56.1035 23.877 -56.1035 L 34.082 -56.1035 C 37.5 -56.1035 39.2578 -56.7383 41.1621 -58.7891 L 43.9941 -61.8164 C 46.0938 -64.0625 47.2656 -64.7461 50.6836 -64.7461 L 60.6934 -64.7461 C 64.1113 -64.7461 65.332 -64.0625 67.3828 -61.8652 L 70.2148 -58.7891 C 72.1191 -56.7383 73.877 -56.1035 77.2949 -56.1035 L 87.5488 -56.1035 C 90.6738 -56.1035 92.3828 -54.4922 92.3828 -51.2207 L 92.3828 -12.9883 C 92.3828 -9.7168 90.6738 -8.10547 87.5488 -8.10547 Z M 55.7129 -13.2324 C 67.041 -13.2324 76.123 -22.3145 76.123 -33.6914 C 76.123 -45.0195 67.041 -54.1016 55.7129 -54.1016 C 44.3848 -54.1016 35.3027 -45.0195 35.3027 -33.6914 C 35.3027 -22.3145 44.3848 -13.2324 55.7129 -13.2324 Z M 82.4219 -41.5039 C 85.3027 -41.5039 87.5977 -43.7988 87.5977 -46.6309 C 87.5977 -49.5117 85.3027 -51.8066 82.4219 -51.8066 C 79.5898 -51.8066 77.2949 -49.5117 77.2949 -46.6309 C 77.2949 -43.7988 79.5898 -41.5039 82.4219 -41.5039 Z M 55.7129 -21.4844 C 49.0234 -21.4844 43.5547 -26.9043 43.5547 -33.6914 C 43.5547 -40.4297 48.9746 -45.8496 55.7129 -45.8496 C 62.4512 -45.8496 67.8711 -40.4297 67.8711 -33.6914 C 67.8711 -26.9043 62.4512 -21.4844 55.7129 -21.4844 Z"/>
  </g>
  <g id="Medium-S" transform="matrix(1 0 0 1 1691.21 696)">
   <path d="M 22.7051 0.830078 L 87.9883 0.830078 C 96.5332 0.830078 100.928 -3.51562 100.928 -11.9629 L 100.928 -52.0508 C 100.928 -60.498 96.5332 -64.8438 87.9883 -64.8438 L 79.7363 -64.8438 C 76.8066 -64.8438 75.7812 -65.4785 74.0234 -67.334 L 71.0449 -70.5078 C 69.0918 -72.5586 66.9922 -73.7305 63.0371 -73.7305 L 47.6562 -73.7305 C 43.6523 -73.7305 41.6016 -72.5586 39.5996 -70.5078 L 36.6211 -67.334 C 34.8633 -65.4785 33.8379 -64.8438 30.9082 -64.8438 L 22.7051 -64.8438 C 14.209 -64.8438 9.76562 -60.498 9.76562 -52.0508 L 9.76562 -11.9629 C 9.76562 -3.51562 14.209 0.830078 22.7051 0.830078 Z M 23.1934 -7.4707 C 19.9219 -7.4707 18.0664 -9.22852 18.0664 -12.6953 L 18.0664 -51.3184 C 18.0664 -54.7852 19.9219 -56.543 23.1934 -56.543 L 33.3984 -56.543 C 36.8164 -56.543 38.623 -57.1777 40.5273 -59.2773 L 43.3594 -62.4023 C 45.5078 -64.7461 46.6797 -65.4297 50.1465 -65.4297 L 60.498 -65.4297 C 63.9648 -65.4297 65.1367 -64.7461 67.2363 -62.4023 L 70.1172 -59.2773 C 72.0215 -57.1777 73.8281 -56.543 77.2949 -56.543 L 87.5 -56.543 C 90.7715 -56.543 92.627 -54.7852 92.627 -51.3184 L 92.627 -12.6953 C 92.627 -9.22852 90.7715 -7.4707 87.5 -7.4707 Z M 55.3223 -12.793 C 66.748 -12.793 75.9277 -21.9727 75.9277 -33.4473 C 75.9277 -44.873 66.748 -54.0527 55.3223 -54.0527 C 43.9453 -54.0527 34.7656 -44.873 34.7656 -33.4473 C 34.7656 -21.9727 43.9453 -12.793 55.3223 -12.793 Z M 82.4219 -41.8457 C 85.2051 -41.8457 87.5 -44.0918 87.5 -46.875 C 87.5 -49.707 85.2051 -51.9531 82.4219 -51.9531 C 79.5898 -51.9531 77.2949 -49.707 77.2949 -46.875 C 77.2949 -44.0918 79.5898 -41.8457 82.4219 -41.8457 Z M 55.3223 -20.3613 C 48.1934 -20.3613 42.2852 -26.1719 42.2852 -33.4473 C 42.2852 -40.6738 48.1445 -46.4844 55.3223 -46.4844 C 62.5488 -46.4844 68.4082 -40.6738 68.4082 -33.4473 C 68.4082 -26.1719 62.5488 -20.3613 55.3223 -20.3613 Z"/>
  </g>
  <g id="Regular-S" transform="matrix(1 0 0 1 1394.96 696)">
   <path d="M 22.2168 0.390625 L 87.5488 0.390625 C 95.8496 0.390625 100 -3.71094 100 -11.9141 L 100 -51.8555 C 100 -60.0586 95.8496 -64.1113 87.5488 -64.1113 L 79.1016 -64.1113 C 76.123 -64.1113 75.1953 -64.8438 73.5352 -66.6504 L 70.5566 -70.0195 C 68.6523 -72.0703 66.6016 -73.3398 62.5977 -73.3398 L 47.1191 -73.3398 C 43.1152 -73.3398 41.0156 -72.0703 39.1602 -70.0195 L 36.1816 -66.6504 C 34.5215 -64.8438 33.5449 -64.1113 30.6152 -64.1113 L 22.2168 -64.1113 C 13.916 -64.1113 9.76562 -60.0586 9.76562 -51.8555 L 9.76562 -11.9141 C 9.76562 -3.71094 13.916 0.390625 22.2168 0.390625 Z M 22.3145 -6.68945 C 18.7988 -6.68945 16.7969 -8.54492 16.7969 -12.2559 L 16.7969 -51.4648 C 16.7969 -55.1758 18.7988 -57.0801 22.3145 -57.0801 L 32.4707 -57.0801 C 35.8887 -57.0801 37.793 -57.8125 39.6973 -59.9121 L 42.5781 -63.1836 C 44.7754 -65.625 45.8984 -66.3086 49.4141 -66.3086 L 60.2539 -66.3086 C 63.7695 -66.3086 64.8926 -65.625 67.0898 -63.1836 L 70.0195 -59.9121 C 71.875 -57.8125 73.8281 -57.0801 77.2461 -57.0801 L 87.4512 -57.0801 C 90.9668 -57.0801 92.9688 -55.1758 92.9688 -51.4648 L 92.9688 -12.2559 C 92.9688 -8.54492 90.9668 -6.68945 87.4512 -6.68945 Z M 54.8828 -12.3047 C 66.4062 -12.3047 75.6836 -21.5332 75.6836 -33.1055 C 75.6836 -44.7266 66.4062 -53.9551 54.8828 -53.9551 C 43.3594 -53.9551 34.082 -44.7266 34.082 -33.1055 C 34.082 -21.5332 43.3594 -12.3047 54.8828 -12.3047 Z M 82.373 -42.2852 C 85.1074 -42.2852 87.3535 -44.4824 87.3535 -47.2168 C 87.3535 -50 85.1074 -52.1973 82.373 -52.1973 C 79.6387 -52.1973 77.3926 -50 77.3926 -47.2168 C 77.3926 -44.4824 79.6387 -42.2852 82.373 -42.2852 Z M 54.8828 -18.8965 C 47.0703 -18.8965 40.625 -25.1953 40.625 -33.1055 C 40.625 -41.0156 47.0215 -47.3633 54.8828 -47.3633 C 62.7441 -47.3633 69.1406 -41.0156 69.1406 -33.1055 C 69.1406 -25.1953 62.7441 -18.8965 54.8828 -18.8965 Z"/>
  </g>
  <g id="Light-S" transform="matrix(1 0 0 1 1098.54 696)">
   <path d="M 21.3867 -0.292969 L 87.793 -0.292969 C 95.5078 -0.292969 99.4141 -4.15039 99.4141 -11.7676 L 99.4141 -51.9043 C 99.4141 -59.5215 95.5078 -63.3789 87.793 -63.3789 L 78.418 -63.3789 C 75.3906 -63.3789 74.5117 -63.916 72.7539 -65.918 L 69.5801 -69.3848 C 67.6758 -71.5332 65.8203 -72.5586 61.9141 -72.5586 L 46.8262 -72.5586 C 42.9688 -72.5586 41.1133 -71.5332 39.1602 -69.3848 L 36.0352 -65.918 C 34.2773 -63.916 33.3496 -63.3789 30.3223 -63.3789 L 21.3867 -63.3789 C 13.6719 -63.3789 9.76562 -59.5215 9.76562 -51.9043 L 9.76562 -11.7676 C 9.76562 -4.15039 13.6719 -0.292969 21.3867 -0.292969 Z M 21.4844 -5.71289 C 17.4805 -5.71289 15.1855 -7.86133 15.1855 -12.0605 L 15.1855 -51.6113 C 15.1855 -55.8105 17.4805 -57.959 21.4844 -57.959 L 31.5918 -57.959 C 35.0586 -57.959 36.8164 -58.5449 38.7695 -60.7422 L 41.8457 -64.1602 C 44.043 -66.6016 45.166 -67.1387 48.4375 -67.1387 L 60.3516 -67.1387 C 63.623 -67.1387 64.7461 -66.6016 66.8945 -64.1602 L 69.9707 -60.7422 C 71.9238 -58.5449 73.7305 -57.959 77.1973 -57.959 L 87.6953 -57.959 C 91.6992 -57.959 93.9941 -55.8105 93.9941 -51.6113 L 93.9941 -12.0605 C 93.9941 -7.86133 91.6992 -5.71289 87.6953 -5.71289 Z M 54.5898 -12.207 C 66.2109 -12.207 75.5371 -21.4844 75.5371 -33.1543 C 75.5371 -44.873 66.2109 -54.1504 54.5898 -54.1504 C 42.9688 -54.1504 33.6426 -44.873 33.6426 -33.1543 C 33.6426 -21.4844 42.9688 -12.207 54.5898 -12.207 Z M 82.0801 -42.6758 C 84.5703 -42.6758 86.6211 -44.6777 86.6211 -47.168 C 86.6211 -49.707 84.5703 -51.709 82.0801 -51.709 C 79.5898 -51.709 77.5391 -49.707 77.5391 -47.168 C 77.5391 -44.6777 79.5898 -42.6758 82.0801 -42.6758 Z M 54.5898 -17.334 C 45.8984 -17.334 38.8184 -24.4141 38.8184 -33.1543 C 38.8184 -41.9434 45.8496 -49.0234 54.5898 -49.0234 C 63.3301 -49.0234 70.3613 -41.9434 70.3613 -33.1543 C 70.3613 -24.4141 63.3301 -17.334 54.5898 -17.334 Z"/>
  </g>
  <g id="Thin-S" transform="matrix(1 0 0 1 802.223 696)">
   <path d="M 20.3125 -1.12305 L 88.0859 -1.12305 C 95.0195 -1.12305 98.6328 -4.78516 98.6328 -11.6211 L 98.6328 -51.9043 C 98.6328 -58.7891 95.0195 -62.4512 88.0859 -62.4512 L 77.5879 -62.4512 C 74.4629 -62.4512 73.6328 -62.6953 71.6797 -64.8926 L 68.3594 -68.6035 C 66.3086 -70.8008 64.7461 -71.5332 61.0352 -71.5332 L 46.4844 -71.5332 C 42.7734 -71.5332 41.2109 -70.8008 39.1602 -68.6035 L 35.8398 -64.8926 C 33.9355 -62.7441 33.0566 -62.4512 29.9316 -62.4512 L 20.3125 -62.4512 C 13.3789 -62.4512 9.76562 -58.7891 9.76562 -51.9043 L 9.76562 -11.6211 C 9.76562 -4.78516 13.3789 -1.12305 20.3125 -1.12305 Z M 20.4102 -4.44336 C 15.7715 -4.44336 13.0859 -6.93359 13.0859 -11.8164 L 13.0859 -51.7578 C 13.0859 -56.5918 15.7715 -59.1309 20.4102 -59.1309 L 30.4199 -59.1309 C 33.9355 -59.1309 35.5469 -59.5215 37.5977 -61.8164 L 40.8691 -65.4785 C 43.0176 -67.8711 44.1406 -68.2617 47.0703 -68.2617 L 60.4492 -68.2617 C 63.3789 -68.2617 64.502 -67.8711 66.6504 -65.4785 L 69.9707 -61.8164 C 71.9727 -59.5215 73.6328 -59.1309 77.0996 -59.1309 L 87.9883 -59.1309 C 92.627 -59.1309 95.3125 -56.5918 95.3125 -51.7578 L 95.3125 -11.8164 C 95.3125 -6.93359 92.627 -4.44336 87.9883 -4.44336 Z M 54.1992 -12.0605 C 65.918 -12.0605 75.3418 -21.4844 75.3418 -33.252 C 75.3418 -45.0195 65.9668 -54.4434 54.1992 -54.4434 C 42.4805 -54.4434 33.0566 -45.0195 33.0566 -33.252 C 33.0566 -21.4844 42.4805 -12.0605 54.1992 -12.0605 Z M 54.1992 -15.332 C 44.3359 -15.332 36.377 -23.3398 36.377 -33.252 C 36.377 -43.1641 44.3359 -51.1719 54.1992 -51.1719 C 64.0625 -51.1719 72.0215 -43.1641 72.0215 -33.252 C 72.0215 -23.3398 64.0625 -15.332 54.1992 -15.332 Z M 81.6895 -43.2617 C 83.8379 -43.2617 85.5957 -44.9707 85.5957 -47.168 C 85.5957 -49.3164 83.8379 -51.0742 81.6895 -51.0742 C 79.541 -51.0742 77.7832 -49.3164 77.7832 -47.168 C 77.7832 -44.9707 79.541 -43.2617 81.6895 -43.2617 Z"/>
  </g>
  <g id="Ultralight-S" transform="matrix(1 0 0 1 505.707 696)">
   <path d="M 19.7754 -1.5625 L 88.2324 -1.5625 C 94.7754 -1.5625 98.2422 -5.12695 98.2422 -11.5234 L 98.2422 -51.9531 C 98.2422 -58.3984 94.7754 -61.9141 88.2324 -61.9141 L 77.1484 -61.9141 C 73.9258 -61.9141 73.1934 -62.0605 71.1426 -64.3555 L 67.7246 -68.1641 C 65.625 -70.459 64.209 -70.9961 60.5957 -70.9961 L 46.2891 -70.9961 C 42.6758 -70.9961 41.2598 -70.459 39.1602 -68.1641 L 35.7422 -64.3555 C 33.7891 -62.1582 32.9102 -61.9141 29.7363 -61.9141 L 19.7754 -61.9141 C 13.2324 -61.9141 9.76562 -58.3984 9.76562 -51.9531 L 9.76562 -11.5234 C 9.76562 -5.12695 13.2324 -1.5625 19.7754 -1.5625 Z M 19.873 -3.75977 C 14.8438 -3.75977 11.9629 -6.44531 11.9629 -11.6699 L 11.9629 -51.8555 C 11.9629 -57.0312 14.8438 -59.7168 19.873 -59.7168 L 29.834 -59.7168 C 33.3496 -59.7168 34.8633 -60.0586 36.9629 -62.3535 L 40.332 -66.1621 C 42.4805 -68.5547 43.6035 -68.7988 46.3867 -68.7988 L 60.498 -68.7988 C 63.2812 -68.7988 64.4043 -68.5547 66.5527 -66.1621 L 69.9219 -62.3535 C 72.0215 -60.0586 73.5352 -59.7168 77.0508 -59.7168 L 88.1348 -59.7168 C 93.1641 -59.7168 96.0449 -57.0312 96.0449 -51.8555 L 96.0449 -11.6699 C 96.0449 -6.44531 93.1641 -3.75977 88.1348 -3.75977 Z M 54.0039 -11.9629 C 65.7715 -11.9629 75.2441 -21.4355 75.2441 -33.3008 C 75.2441 -45.166 65.8691 -54.5898 54.0039 -54.5898 C 42.2363 -54.5898 32.7148 -45.166 32.7148 -33.3008 C 32.7148 -21.4355 42.2363 -11.9629 54.0039 -11.9629 Z M 54.0039 -14.3066 C 43.5547 -14.3066 35.1074 -22.8027 35.1074 -33.3008 C 35.1074 -43.7988 43.5547 -52.2949 54.0039 -52.2949 C 64.4531 -52.2949 72.9004 -43.7988 72.9004 -33.3008 C 72.9004 -22.8027 64.4531 -14.3066 54.0039 -14.3066 Z M 81.4941 -43.5547 C 83.4961 -43.5547 85.0586 -45.1172 85.0586 -47.1191 C 85.0586 -49.1211 83.4961 -50.7324 81.4941 -50.7324 C 79.4922 -50.7324 77.8809 -49.1211 77.8809 -47.1191 C 77.8809 -45.1172 79.4922 -43.5547 81.4941 -43.5547 Z"/>
  </g>
 </g>
</svg>
