<?xml version="1.0" encoding="UTF-8"?>
<!--Generator: Apple Native CoreSVG 123-->
<!DOCTYPE svg
PUBLIC "-//W3C//DTD SVG 1.1//EN"
       "http://www.w3.org/Graphics/SVG/1.1/DTD/svg11.dtd">
<svg version="1.1" xmlns="http://www.w3.org/2000/svg" xmlns:xlink="http://www.w3.org/1999/xlink" width="3300" height="2200">
 <!--glyph: "uni10074B.medium", point size: 100.000000, font version: "Version 15.0d7e11", template writer version: "5"-->
 <g id="Notes">
  <rect height="2200" id="artboard" style="fill:white;opacity:1" width="3300" x="0" y="0"/>
  <line id="" style="fill:none;stroke:black;opacity:1;stroke-width:0.5;" x1="263" x2="3036" y1="292" y2="292"/>
  <text style="stroke:none;fill:black;font-family:-apple-system,&quot;SF Pro Display&quot;,&quot;SF Pro Text&quot;,Helvetica,sans-serif;font-weight:bold;" transform="matrix(1 0 0 1 263 322)">Weight/Scale Variations</text>
  <text style="stroke:none;fill:black;font-family:-apple-system,&quot;SF Pro Display&quot;,&quot;SF Pro Text&quot;,Helvetica,sans-serif;text-anchor:middle;" transform="matrix(1 0 0 1 559.711 322)">Ultralight</text>
  <text style="stroke:none;fill:black;font-family:-apple-system,&quot;SF Pro Display&quot;,&quot;SF Pro Text&quot;,Helvetica,sans-serif;text-anchor:middle;" transform="matrix(1 0 0 1 856.422 322)">Thin</text>
  <text style="stroke:none;fill:black;font-family:-apple-system,&quot;SF Pro Display&quot;,&quot;SF Pro Text&quot;,Helvetica,sans-serif;text-anchor:middle;" transform="matrix(1 0 0 1 1153.13 322)">Light</text>
  <text style="stroke:none;fill:black;font-family:-apple-system,&quot;SF Pro Display&quot;,&quot;SF Pro Text&quot;,Helvetica,sans-serif;text-anchor:middle;" transform="matrix(1 0 0 1 1449.84 322)">Regular</text>
  <text style="stroke:none;fill:black;font-family:-apple-system,&quot;SF Pro Display&quot;,&quot;SF Pro Text&quot;,Helvetica,sans-serif;text-anchor:middle;" transform="matrix(1 0 0 1 1746.56 322)">Medium</text>
  <text style="stroke:none;fill:black;font-family:-apple-system,&quot;SF Pro Display&quot;,&quot;SF Pro Text&quot;,Helvetica,sans-serif;text-anchor:middle;" transform="matrix(1 0 0 1 2043.27 322)">Semibold</text>
  <text style="stroke:none;fill:black;font-family:-apple-system,&quot;SF Pro Display&quot;,&quot;SF Pro Text&quot;,Helvetica,sans-serif;text-anchor:middle;" transform="matrix(1 0 0 1 2339.98 322)">Bold</text>
  <text style="stroke:none;fill:black;font-family:-apple-system,&quot;SF Pro Display&quot;,&quot;SF Pro Text&quot;,Helvetica,sans-serif;text-anchor:middle;" transform="matrix(1 0 0 1 2636.69 322)">Heavy</text>
  <text style="stroke:none;fill:black;font-family:-apple-system,&quot;SF Pro Display&quot;,&quot;SF Pro Text&quot;,Helvetica,sans-serif;text-anchor:middle;" transform="matrix(1 0 0 1 2933.4 322)">Black</text>
  <line id="" style="fill:none;stroke:black;opacity:1;stroke-width:0.5;" x1="263" x2="3036" y1="1903" y2="1903"/>
  <g id="" transform="matrix(1 0 0 1 263 1933)">
   <path d="M 9.24805 0.830078 C 13.5547 0.830078 17.1387 -2.74414 17.1387 -7.05078 C 17.1387 -11.3574 13.5449 -14.9316 9.23828 -14.9316 C 4.94141 -14.9316 1.36719 -11.3574 1.36719 -7.05078 C 1.36719 -2.74414 4.95117 0.830078 9.24805 0.830078 Z M 9.24805 -0.654297 C 5.70312 -0.654297 2.87109 -3.49609 2.87109 -7.05078 C 2.87109 -10.6055 5.69336 -13.4473 9.23828 -13.4473 C 12.793 -13.4473 15.6348 -10.6055 15.6445 -7.05078 C 15.6543 -3.49609 12.8027 -0.654297 9.24805 -0.654297 Z M 9.22852 -3.42773 C 9.69727 -3.42773 9.9707 -3.74023 9.9707 -4.25781 L 9.9707 -6.31836 L 12.1973 -6.31836 C 12.6953 -6.31836 13.0371 -6.57227 13.0371 -7.04102 C 13.0371 -7.51953 12.7148 -7.7832 12.1973 -7.7832 L 9.9707 -7.7832 L 9.9707 -10.0098 C 9.9707 -10.5273 9.69727 -10.8496 9.22852 -10.8496 C 8.75977 -10.8496 8.50586 -10.5078 8.50586 -10.0098 L 8.50586 -7.7832 L 6.29883 -7.7832 C 5.78125 -7.7832 5.44922 -7.51953 5.44922 -7.04102 C 5.44922 -6.57227 5.80078 -6.31836 6.29883 -6.31836 L 8.50586 -6.31836 L 8.50586 -4.25781 C 8.50586 -3.75977 8.75977 -3.42773 9.22852 -3.42773 Z"/>
  </g>
  <g id="" transform="matrix(1 0 0 1 281.506 1933)">
   <path d="M 11.709 2.91016 C 17.1582 2.91016 21.6699 -1.60156 21.6699 -7.05078 C 21.6699 -12.4902 17.1484 -17.0117 11.6992 -17.0117 C 6.25977 -17.0117 1.74805 -12.4902 1.74805 -7.05078 C 1.74805 -1.60156 6.26953 2.91016 11.709 2.91016 Z M 11.709 1.25 C 7.09961 1.25 3.41797 -2.44141 3.41797 -7.05078 C 3.41797 -11.6504 7.08984 -15.3516 11.6992 -15.3516 C 16.3086 -15.3516 20 -11.6504 20.0098 -7.05078 C 20.0195 -2.44141 16.3184 1.25 11.709 1.25 Z M 11.6895 -2.41211 C 12.207 -2.41211 12.5195 -2.77344 12.5195 -3.33984 L 12.5195 -6.23047 L 15.5762 -6.23047 C 16.123 -6.23047 16.5039 -6.51367 16.5039 -7.03125 C 16.5039 -7.55859 16.1426 -7.86133 15.5762 -7.86133 L 12.5195 -7.86133 L 12.5195 -10.9277 C 12.5195 -11.5039 12.207 -11.8555 11.6895 -11.8555 C 11.1719 -11.8555 10.8789 -11.4844 10.8789 -10.9277 L 10.8789 -7.86133 L 7.83203 -7.86133 C 7.26562 -7.86133 6.89453 -7.55859 6.89453 -7.03125 C 6.89453 -6.51367 7.28516 -6.23047 7.83203 -6.23047 L 10.8789 -6.23047 L 10.8789 -3.33984 C 10.8789 -2.79297 11.1719 -2.41211 11.6895 -2.41211 Z"/>
  </g>
  <g id="" transform="matrix(1 0 0 1 304.924 1933)">
   <path d="M 14.9707 5.67383 C 21.9336 5.67383 27.6953 -0.078125 27.6953 -7.04102 C 27.6953 -14.0039 21.9238 -19.7559 14.9609 -19.7559 C 8.00781 -19.7559 2.25586 -14.0039 2.25586 -7.04102 C 2.25586 -0.078125 8.01758 5.67383 14.9707 5.67383 Z M 14.9707 3.85742 C 8.93555 3.85742 4.08203 -1.00586 4.08203 -7.04102 C 4.08203 -13.0762 8.92578 -17.9395 14.9609 -17.9395 C 21.0059 -17.9395 25.8594 -13.0762 25.8691 -7.04102 C 25.8789 -1.00586 21.0156 3.85742 14.9707 3.85742 Z M 14.9512 -1.06445 C 15.5176 -1.06445 15.8691 -1.45508 15.8691 -2.06055 L 15.8691 -6.13281 L 20.1074 -6.13281 C 20.6934 -6.13281 21.1133 -6.46484 21.1133 -7.02148 C 21.1133 -7.59766 20.7227 -7.93945 20.1074 -7.93945 L 15.8691 -7.93945 L 15.8691 -12.1875 C 15.8691 -12.8027 15.5176 -13.1934 14.9512 -13.1934 C 14.3848 -13.1934 14.0625 -12.7832 14.0625 -12.1875 L 14.0625 -7.93945 L 9.83398 -7.93945 C 9.21875 -7.93945 8.80859 -7.59766 8.80859 -7.02148 C 8.80859 -6.46484 9.23828 -6.13281 9.83398 -6.13281 L 14.0625 -6.13281 L 14.0625 -2.06055 C 14.0625 -1.47461 14.3848 -1.06445 14.9512 -1.06445 Z"/>
  </g>
  <text style="stroke:none;fill:black;font-family:-apple-system,&quot;SF Pro Display&quot;,&quot;SF Pro Text&quot;,Helvetica,sans-serif;font-weight:bold;" transform="matrix(1 0 0 1 263 1953)">Design Variations</text>
  <text style="stroke:none;fill:black;font-family:-apple-system,&quot;SF Pro Display&quot;,&quot;SF Pro Text&quot;,Helvetica,sans-serif;" transform="matrix(1 0 0 1 263 1971)">Symbols are supported in up to nine weights and three scales.</text>
  <text style="stroke:none;fill:black;font-family:-apple-system,&quot;SF Pro Display&quot;,&quot;SF Pro Text&quot;,Helvetica,sans-serif;" transform="matrix(1 0 0 1 263 1989)">For optimal layout with text and other symbols, vertically align</text>
  <text style="stroke:none;fill:black;font-family:-apple-system,&quot;SF Pro Display&quot;,&quot;SF Pro Text&quot;,Helvetica,sans-serif;" transform="matrix(1 0 0 1 263 2007)">symbols with the adjacent text.</text>
  <rect height="14" id="" style="fill:#00AEEF;stroke:none;opacity:0.4;" width="3" x="776" y="1919"/>
  <g id="" transform="matrix(1 0 0 1 779 1933)">
   <path d="M 10.5273 0 L 12.373 0 L 7.17773 -14.0918 L 5.43945 -14.0918 L 0.244141 0 L 2.08984 0 L 3.50586 -4.0332 L 9.11133 -4.0332 Z M 6.2793 -11.9531 L 6.33789 -11.9531 L 8.59375 -5.52734 L 4.02344 -5.52734 Z"/>
  </g>
  <rect height="14" id="" style="fill:#00AEEF;stroke:none;opacity:0.4;" width="3" x="791.617" y="1919"/>
  <text style="stroke:none;fill:black;font-family:-apple-system,&quot;SF Pro Display&quot;,&quot;SF Pro Text&quot;,Helvetica,sans-serif;font-weight:bold;" transform="matrix(1 0 0 1 776 1953)">Margins</text>
  <text style="stroke:none;fill:black;font-family:-apple-system,&quot;SF Pro Display&quot;,&quot;SF Pro Text&quot;,Helvetica,sans-serif;" transform="matrix(1 0 0 1 776 1971)">Leading and trailing margins on the left and right side of each symbol</text>
  <text style="stroke:none;fill:black;font-family:-apple-system,&quot;SF Pro Display&quot;,&quot;SF Pro Text&quot;,Helvetica,sans-serif;" transform="matrix(1 0 0 1 776 1989)">can be adjusted by modifying the width of the blue rectangles.</text>
  <text style="stroke:none;fill:black;font-family:-apple-system,&quot;SF Pro Display&quot;,&quot;SF Pro Text&quot;,Helvetica,sans-serif;" transform="matrix(1 0 0 1 776 2007)">Modifications are automatically applied proportionally to all</text>
  <text style="stroke:none;fill:black;font-family:-apple-system,&quot;SF Pro Display&quot;,&quot;SF Pro Text&quot;,Helvetica,sans-serif;" transform="matrix(1 0 0 1 776 2025)">scales and weights.</text>
  <g id="" transform="matrix(1 0 0 1 1289 1933)">
   <path d="M 2.83203 3.11523 L 4.375 4.6582 C 5.22461 5.48828 6.19141 5.41992 7.06055 4.46289 L 17.2754 -6.66016 C 17.7051 -6.36719 18.0957 -6.37695 18.5645 -6.47461 L 19.6094 -6.68945 L 20.3027 -5.99609 L 20.2539 -5.47852 C 20.1855 -4.95117 20.3516 -4.53125 20.8496 -4.0332 L 21.6602 -3.22266 C 22.168 -2.71484 22.8223 -2.68555 23.3008 -3.16406 L 26.5527 -6.41602 C 27.0312 -6.89453 27.0117 -7.54883 26.5039 -8.05664 L 25.6836 -8.87695 C 25.1855 -9.375 24.7754 -9.55078 24.2383 -9.47266 L 23.7109 -9.41406 L 23.0566 -10.0781 L 23.3398 -11.2207 C 23.4863 -11.7871 23.3398 -12.2559 22.7148 -12.8613 L 20.3027 -15.2539 C 16.7578 -18.7793 12.2266 -18.6719 9.11133 -15.5371 C 8.69141 -15.1074 8.64258 -14.5215 8.91602 -14.0918 C 9.15039 -13.7207 9.62891 -13.4961 10.2734 -13.6621 C 11.7871 -14.043 13.3008 -13.9258 14.7852 -12.9199 L 14.1602 -11.3379 C 13.9258 -10.752 13.9453 -10.2734 14.1797 -9.83398 L 3.01758 0.439453 C 2.08008 1.30859 1.97266 2.25586 2.83203 3.11523 Z M 10.6738 -15.1465 C 13.3398 -17.1387 16.6504 -16.8262 19.0527 -14.4141 L 21.6797 -11.8066 C 21.9141 -11.5723 21.9434 -11.3867 21.8848 -11.0938 L 21.5039 -9.53125 L 23.0762 -7.95898 L 24.043 -8.04688 C 24.3262 -8.07617 24.4141 -8.05664 24.6387 -7.83203 L 25.2637 -7.20703 L 22.5098 -4.46289 L 21.8848 -5.07812 C 21.6602 -5.30273 21.6406 -5.40039 21.6699 -5.68359 L 21.7578 -6.64062 L 20.1953 -8.20312 L 18.5742 -7.89062 C 18.291 -7.83203 18.1445 -7.83203 17.9102 -8.07617 L 15.7324 -10.2539 C 15.5078 -10.4883 15.4785 -10.625 15.6055 -10.9473 L 16.5527 -13.2227 C 14.9512 -14.7559 12.8418 -15.6055 10.8008 -14.9512 C 10.7129 -14.9219 10.6445 -14.9414 10.6152 -14.9805 C 10.5859 -15.0293 10.5859 -15.0781 10.6738 -15.1465 Z M 4.10156 2.41211 C 3.61328 1.91406 3.78906 1.61133 4.12109 1.30859 L 15.0781 -8.80859 L 16.3086 -7.57812 L 6.15234 3.34961 C 5.84961 3.68164 5.46875 3.7793 5.06836 3.37891 Z"/>
  </g>
  <text style="stroke:none;fill:black;font-family:-apple-system,&quot;SF Pro Display&quot;,&quot;SF Pro Text&quot;,Helvetica,sans-serif;font-weight:bold;" transform="matrix(1 0 0 1 1289 1953)">Exporting</text>
  <text style="stroke:none;fill:black;font-family:-apple-system,&quot;SF Pro Display&quot;,&quot;SF Pro Text&quot;,Helvetica,sans-serif;" transform="matrix(1 0 0 1 1289 1971)">Symbols should be outlined when exporting to ensure the</text>
  <text style="stroke:none;fill:black;font-family:-apple-system,&quot;SF Pro Display&quot;,&quot;SF Pro Text&quot;,Helvetica,sans-serif;" transform="matrix(1 0 0 1 1289 1989)">design is preserved when submitting to Xcode.</text>
  <text id="template-version" style="stroke:none;fill:black;font-family:-apple-system,&quot;SF Pro Display&quot;,&quot;SF Pro Text&quot;,Helvetica,sans-serif;text-anchor:end;" transform="matrix(1 0 0 1 3036 1933)">Template v.1.0</text>
  <text style="stroke:none;fill:black;font-family:-apple-system,&quot;SF Pro Display&quot;,&quot;SF Pro Text&quot;,Helvetica,sans-serif;text-anchor:end;" transform="matrix(1 0 0 1 3036 1951)">Generated from person.3.fill</text>
  <text style="stroke:none;fill:black;font-family:-apple-system,&quot;SF Pro Display&quot;,&quot;SF Pro Text&quot;,Helvetica,sans-serif;text-anchor:end;" transform="matrix(1 0 0 1 3036 1969)">Typeset at 100 points</text>
  <text style="stroke:none;fill:black;font-family:-apple-system,&quot;SF Pro Display&quot;,&quot;SF Pro Text&quot;,Helvetica,sans-serif;" transform="matrix(1 0 0 1 263 726)">Small</text>
  <text style="stroke:none;fill:black;font-family:-apple-system,&quot;SF Pro Display&quot;,&quot;SF Pro Text&quot;,Helvetica,sans-serif;" transform="matrix(1 0 0 1 263 1156)">Medium</text>
  <text style="stroke:none;fill:black;font-family:-apple-system,&quot;SF Pro Display&quot;,&quot;SF Pro Text&quot;,Helvetica,sans-serif;" transform="matrix(1 0 0 1 263 1586)">Large</text>
 </g>
 <g id="Guides">
  <g id="H-reference" style="fill:#27AAE1;stroke:none;" transform="matrix(1 0 0 1 339 696)">
   <path d="M 54.9316 0 L 57.666 0 L 30.5664 -70.459 L 28.0762 -70.459 L 0.976562 0 L 3.66211 0 L 12.9395 -24.4629 L 45.7031 -24.4629 Z M 29.1992 -67.0898 L 29.4434 -67.0898 L 44.8242 -26.709 L 13.8184 -26.709 Z"/>
  </g>
  <line id="Baseline-S" style="fill:none;stroke:#27AAE1;opacity:1;stroke-width:0.577;" x1="263" x2="3036" y1="696" y2="696"/>
  <line id="Capline-S" style="fill:none;stroke:#27AAE1;opacity:1;stroke-width:0.577;" x1="263" x2="3036" y1="625.541" y2="625.541"/>
  <g id="H-reference" style="fill:#27AAE1;stroke:none;" transform="matrix(1 0 0 1 339 1126)">
   <path d="M 54.9316 0 L 57.666 0 L 30.5664 -70.459 L 28.0762 -70.459 L 0.976562 0 L 3.66211 0 L 12.9395 -24.4629 L 45.7031 -24.4629 Z M 29.1992 -67.0898 L 29.4434 -67.0898 L 44.8242 -26.709 L 13.8184 -26.709 Z"/>
  </g>
  <line id="Baseline-M" style="fill:none;stroke:#27AAE1;opacity:1;stroke-width:0.577;" x1="263" x2="3036" y1="1126" y2="1126"/>
  <line id="Capline-M" style="fill:none;stroke:#27AAE1;opacity:1;stroke-width:0.577;" x1="263" x2="3036" y1="1055.54" y2="1055.54"/>
  <g id="H-reference" style="fill:#27AAE1;stroke:none;" transform="matrix(1 0 0 1 339 1556)">
   <path d="M 54.9316 0 L 57.666 0 L 30.5664 -70.459 L 28.0762 -70.459 L 0.976562 0 L 3.66211 0 L 12.9395 -24.4629 L 45.7031 -24.4629 Z M 29.1992 -67.0898 L 29.4434 -67.0898 L 44.8242 -26.709 L 13.8184 -26.709 Z"/>
  </g>
  <line id="Baseline-L" style="fill:none;stroke:#27AAE1;opacity:1;stroke-width:0.577;" x1="263" x2="3036" y1="1556" y2="1556"/>
  <line id="Capline-L" style="fill:none;stroke:#27AAE1;opacity:1;stroke-width:0.577;" x1="263" x2="3036" y1="1485.54" y2="1485.54"/>
  <rect height="119.336" id="left-margin" style="fill:#00AEEF;stroke:none;opacity:0.4;" width="12.4512" x="1345.38" y="1030.79"/>
  <rect height="119.336" id="right-margin" style="fill:#00AEEF;stroke:none;opacity:0.4;" width="12.4512" x="1541.86" y="1030.79"/>
 </g>
 <g id="Symbols">
  <g id="Black-L" transform="matrix(1 0 0 1 2796.56 1556)">
   <path d="M 136.816 -35.6934 C 151.367 -35.6934 162.988 -48.3398 162.988 -64.2578 C 162.988 -79.541 151.221 -92.2363 136.816 -92.2363 C 122.412 -92.2363 110.596 -79.4434 110.645 -64.209 C 110.693 -48.3398 122.266 -35.6934 136.816 -35.6934 Z M 63.0371 -34.3262 C 75.6836 -34.3262 85.8887 -45.3613 85.8887 -59.1797 C 85.8887 -72.5098 75.5859 -83.5938 63.0371 -83.5938 C 50.5371 -83.5938 40.2344 -72.4609 40.2832 -59.1309 C 40.332 -45.3613 50.3906 -34.3262 63.0371 -34.3262 Z M 210.645 -34.3262 C 223.291 -34.3262 233.35 -45.3613 233.398 -59.1309 C 233.496 -72.4609 223.193 -83.5938 210.645 -83.5938 C 198.096 -83.5938 187.842 -72.5098 187.842 -59.1797 C 187.842 -45.3613 197.998 -34.3262 210.645 -34.3262 Z M 29.6387 23.9746 L 74.3652 23.9746 C 67.1387 13.5742 72.6562 -5.22461 88.7695 -18.3594 C 82.1289 -22.1191 73.1445 -24.9512 63.0371 -24.9512 C 35.7422 -24.9512 16.0645 -4.83398 16.0645 11.1328 C 16.0645 19.0918 19.3848 23.9746 29.6387 23.9746 Z M 244.043 23.9746 C 254.297 23.9746 257.617 19.0918 257.617 11.1328 C 257.617 -4.83398 237.939 -24.9512 210.645 -24.9512 C 200.537 -24.9512 191.553 -22.1191 184.961 -18.3594 C 201.074 -5.22461 206.543 13.5742 199.316 23.9746 Z M 98.7305 23.9258 L 174.902 23.9258 C 186.963 23.9258 190.82 19.7266 190.82 13.0371 C 190.82 -2.97852 169.531 -24.8535 136.816 -24.8535 C 104.102 -24.8535 82.8125 -2.97852 82.8125 13.0371 C 82.8125 19.7266 86.6699 23.9258 98.7305 23.9258 Z"/>
  </g>
  <g id="Heavy-L" transform="matrix(1 0 0 1 2500.36 1556)">
   <path d="M 136.328 -35.7422 C 150.635 -35.7422 162.207 -48.2422 162.207 -64.0625 C 162.207 -79.3945 150.488 -91.7969 136.328 -91.7969 C 122.119 -91.7969 110.352 -79.248 110.4 -64.0137 C 110.449 -48.2422 121.973 -35.7422 136.328 -35.7422 Z M 62.8418 -34.3262 C 75.293 -34.3262 85.4004 -45.2637 85.4004 -59.0332 C 85.4004 -72.3633 75.1953 -83.2031 62.8418 -83.2031 C 50.4883 -83.2031 40.2344 -72.2656 40.2832 -58.9355 C 40.332 -45.2637 50.3906 -34.3262 62.8418 -34.3262 Z M 209.814 -34.3262 C 222.266 -34.3262 232.324 -45.2637 232.373 -58.9355 C 232.422 -72.2656 222.168 -83.2031 209.814 -83.2031 C 197.461 -83.2031 187.256 -72.3633 187.256 -59.0332 C 187.256 -45.2637 197.363 -34.3262 209.814 -34.3262 Z M 28.9062 23.5352 L 74.8047 23.5352 C 67.6758 13.623 73.584 -5.22461 89.1602 -17.8223 C 82.4219 -21.875 73.3887 -24.9023 62.8418 -24.9023 C 35.2539 -24.9023 16.0645 -4.63867 16.0645 11.7188 C 16.0645 19.1406 19.3359 23.5352 28.9062 23.5352 Z M 243.75 23.5352 C 253.32 23.5352 256.592 19.1406 256.592 11.7188 C 256.592 -4.63867 237.402 -24.9023 209.863 -24.9023 C 199.268 -24.9023 190.234 -21.875 183.496 -17.8223 C 199.072 -5.22461 204.98 13.623 197.852 23.5352 Z M 97.7051 23.4863 L 174.902 23.4863 C 186.279 23.4863 190.039 19.6777 190.039 13.2812 C 190.039 -2.7832 168.945 -24.7559 136.279 -24.7559 C 103.613 -24.7559 82.5684 -2.7832 82.5684 13.2812 C 82.5684 19.6777 86.3281 23.4863 97.7051 23.4863 Z"/>
  </g>
  <g id="Bold-L" transform="matrix(1 0 0 1 2204.21 1556)">
   <path d="M 135.742 -35.7422 C 149.805 -35.7422 161.328 -48.0957 161.328 -63.8672 C 161.328 -79.1504 149.707 -91.3574 135.742 -91.3574 C 121.777 -91.3574 110.107 -79.0039 110.156 -63.8184 C 110.156 -48.0957 121.68 -35.7422 135.742 -35.7422 Z M 62.5977 -34.3262 C 74.8047 -34.3262 84.8633 -45.1172 84.8633 -58.8379 C 84.8633 -72.168 74.707 -82.7637 62.5977 -82.7637 C 50.4395 -82.7637 40.2344 -72.0215 40.2832 -58.7402 C 40.332 -45.1172 50.3418 -34.3262 62.5977 -34.3262 Z M 208.936 -34.3262 C 221.143 -34.3262 231.201 -45.1172 231.201 -58.7402 C 231.25 -72.0215 221.045 -82.7637 208.936 -82.7637 C 196.777 -82.7637 186.621 -72.168 186.621 -58.8379 C 186.621 -45.1172 196.68 -34.3262 208.936 -34.3262 Z M 28.0762 23.0469 L 75.2441 23.0469 C 68.3105 13.7207 74.6582 -5.22461 89.5996 -17.1875 C 82.7637 -21.582 73.6816 -24.8535 62.5488 -24.8535 C 34.7168 -24.8535 16.0645 -4.39453 16.0645 12.3535 C 16.0645 19.1895 19.2383 23.0469 28.0762 23.0469 Z M 243.408 23.0469 C 252.246 23.0469 255.469 19.1895 255.469 12.3535 C 255.469 -4.39453 236.768 -24.8535 208.936 -24.8535 C 197.852 -24.8535 188.721 -21.582 181.934 -17.1875 C 196.826 -5.22461 203.223 13.7207 196.24 23.0469 Z M 96.5332 23.0469 L 174.902 23.0469 C 185.449 23.0469 189.111 19.6289 189.111 13.5742 C 189.111 -2.53906 168.359 -24.6582 135.693 -24.6582 C 103.076 -24.6582 82.2754 -2.53906 82.2754 13.5742 C 82.2754 19.6289 85.9863 23.0469 96.5332 23.0469 Z"/>
  </g>
  <g id="Semibold-L" transform="matrix(1 0 0 1 1907.92 1556)">
   <path d="M 135.352 -35.7422 C 149.219 -35.7422 160.742 -47.998 160.742 -63.7207 C 160.742 -79.0527 149.121 -91.0156 135.352 -91.0156 C 121.582 -91.0156 109.912 -78.8574 109.961 -63.6719 C 110.01 -47.998 121.436 -35.7422 135.352 -35.7422 Z M 62.4023 -34.3262 C 74.5117 -34.3262 84.5215 -45.0195 84.5215 -58.6914 C 84.5215 -72.0703 74.4141 -82.4707 62.4023 -82.4707 C 50.4395 -82.4707 40.2344 -71.875 40.332 -58.6426 C 40.332 -45.0195 50.3418 -34.3262 62.4023 -34.3262 Z M 208.301 -34.3262 C 220.361 -34.3262 230.371 -45.0195 230.42 -58.6426 C 230.42 -71.875 220.264 -82.4707 208.301 -82.4707 C 196.338 -82.4707 186.182 -72.0703 186.182 -58.6914 C 186.182 -45.0195 196.191 -34.3262 208.301 -34.3262 Z M 27.5391 22.7539 L 75.5371 22.7539 C 68.7012 13.7695 75.3906 -5.22461 89.8926 -16.7969 C 83.0078 -21.3867 73.877 -24.8047 62.3535 -24.8047 C 34.375 -24.8047 16.0645 -4.24805 16.0645 12.793 C 16.0645 19.1895 19.2383 22.7539 27.5391 22.7539 Z M 243.164 22.7539 C 251.514 22.7539 254.639 19.1895 254.639 12.793 C 254.639 -4.24805 236.328 -24.8047 208.35 -24.8047 C 196.875 -24.8047 187.744 -21.3867 180.859 -16.7969 C 195.312 -5.22461 202.002 13.7695 195.166 22.7539 Z M 95.752 22.7051 L 174.902 22.7051 C 184.912 22.7051 188.525 19.6289 188.525 13.7695 C 188.525 -2.39258 167.92 -24.6094 135.303 -24.6094 C 102.686 -24.6094 82.0801 -2.39258 82.0801 13.7695 C 82.0801 19.6289 85.6934 22.7051 95.752 22.7051 Z"/>
  </g>
  <g id="Medium-L" transform="matrix(1 0 0 1 1611.5 1556)">
   <path d="M 135.059 -35.7422 C 148.828 -35.7422 160.254 -47.9492 160.254 -63.623 C 160.254 -78.9062 148.73 -90.7715 135.059 -90.7715 C 121.387 -90.7715 109.766 -78.7598 109.814 -63.5254 C 109.863 -47.9492 121.289 -35.7422 135.059 -35.7422 Z M 62.3047 -34.375 C 74.2676 -34.375 84.2773 -44.9707 84.2773 -58.6426 C 84.2773 -71.9727 74.1699 -82.2266 62.3047 -82.2266 C 50.4395 -82.2266 40.2832 -71.7773 40.332 -58.5449 C 40.332 -44.9707 50.3418 -34.375 62.3047 -34.375 Z M 207.812 -34.375 C 219.775 -34.375 229.785 -44.9707 229.785 -58.5449 C 229.785 -71.7773 219.678 -82.2266 207.812 -82.2266 C 195.947 -82.2266 185.84 -71.9727 185.84 -58.6426 C 185.84 -44.9707 195.85 -34.375 207.812 -34.375 Z M 27.0996 22.5098 L 75.7812 22.5098 C 69.043 13.8184 75.9766 -5.22461 90.0879 -16.4551 C 83.1543 -21.2402 74.0234 -24.7559 62.2559 -24.7559 C 34.082 -24.7559 16.0645 -4.10156 16.0645 13.1348 C 16.0645 19.2383 19.1895 22.5098 27.0996 22.5098 Z M 243.018 22.5098 C 250.928 22.5098 254.053 19.2383 254.053 13.1348 C 254.053 -4.10156 236.035 -24.7559 207.861 -24.7559 C 196.094 -24.7559 186.963 -21.2402 180.029 -16.4551 C 194.141 -5.22461 201.074 13.8184 194.336 22.5098 Z M 95.1172 22.4609 L 174.854 22.4609 C 184.473 22.4609 188.037 19.5801 188.037 13.916 C 188.037 -2.29492 167.578 -24.5605 135.01 -24.5605 C 102.393 -24.5605 81.9336 -2.29492 81.9336 13.916 C 81.9336 19.5801 85.498 22.4609 95.1172 22.4609 Z"/>
  </g>
  <g id="Regular-L" transform="matrix(1 0 0 1 1315.18 1556)">
   <path d="M 134.668 -35.791 C 148.242 -35.791 159.668 -47.8516 159.668 -63.5254 C 159.668 -78.8086 148.145 -90.4785 134.668 -90.4785 C 121.191 -90.4785 109.57 -78.5645 109.668 -63.3789 C 109.668 -47.8516 121.094 -35.791 134.668 -35.791 Z M 62.1094 -34.375 C 73.9258 -34.375 83.8867 -44.873 83.8867 -58.4961 C 83.8867 -71.8262 73.8281 -81.9336 62.1094 -81.9336 C 50.3906 -81.9336 40.2832 -71.6309 40.332 -58.3984 C 40.332 -44.873 50.293 -34.375 62.1094 -34.375 Z M 207.227 -34.375 C 219.043 -34.375 229.004 -44.873 229.004 -58.3984 C 229.004 -71.6309 218.945 -81.9336 207.227 -81.9336 C 195.459 -81.9336 185.449 -71.8262 185.449 -58.4961 C 185.449 -44.873 195.41 -34.375 207.227 -34.375 Z M 26.5625 22.168 L 76.123 22.168 C 69.4336 13.916 76.709 -5.22461 90.4297 -16.0645 C 83.3984 -21.0449 74.1699 -24.707 62.0605 -24.707 C 33.7402 -24.707 16.0645 -3.95508 16.0645 13.5742 C 16.0645 19.2383 19.1406 22.168 26.5625 22.168 Z M 242.773 22.168 C 250.195 22.168 253.271 19.2383 253.271 13.5742 C 253.271 -3.95508 235.596 -24.707 207.275 -24.707 C 195.117 -24.707 185.938 -21.0449 178.906 -16.0645 C 192.627 -5.22461 199.854 13.916 193.213 22.168 Z M 94.3359 22.168 L 174.854 22.168 C 183.936 22.168 187.451 19.5801 187.451 14.0625 C 187.451 -2.14844 167.188 -24.4629 134.619 -24.4629 C 102.051 -24.4629 81.7871 -2.14844 81.7871 14.0625 C 81.7871 19.5801 85.2539 22.168 94.3359 22.168 Z"/>
  </g>
  <g id="Light-L" transform="matrix(1 0 0 1 1018.66 1556)">
   <path d="M 134.473 -35.6445 C 148.145 -35.6445 159.229 -47.6074 159.229 -63.1836 C 159.229 -78.125 147.998 -89.9902 134.473 -89.9902 C 120.947 -89.9902 109.57 -77.9785 109.668 -63.0859 C 109.668 -47.6074 120.801 -35.6445 134.473 -35.6445 Z M 61.9141 -34.2285 C 73.8281 -34.2285 83.4961 -44.6289 83.4961 -58.2031 C 83.4961 -71.2402 73.6816 -81.543 61.9141 -81.543 C 50.1465 -81.543 40.2832 -71.0938 40.3809 -58.1543 C 40.3809 -44.6289 50 -34.2285 61.9141 -34.2285 Z M 206.982 -34.2285 C 218.896 -34.2285 228.564 -44.6289 228.564 -58.1543 C 228.564 -71.0938 218.75 -81.543 206.982 -81.543 C 195.264 -81.543 185.449 -71.2402 185.449 -58.2031 C 185.449 -44.6289 195.068 -34.2285 206.982 -34.2285 Z M 25.6836 21.8262 L 77.6367 21.8262 C 70.8496 15.1855 77.0508 -3.85742 90.918 -15.2344 C 83.9355 -20.6055 74.4629 -24.6094 61.8164 -24.6094 C 33.6426 -24.6094 16.0645 -4.10156 16.0645 13.5742 C 16.0645 19.1895 19.0918 21.8262 25.6836 21.8262 Z M 243.213 21.8262 C 249.805 21.8262 252.881 19.1895 252.881 13.5742 C 252.881 -4.10156 235.303 -24.6094 207.08 -24.6094 C 194.434 -24.6094 185.01 -20.6055 178.027 -15.2344 C 191.895 -3.85742 198.096 15.1855 191.309 21.8262 Z M 93.1641 21.8262 L 175.586 21.8262 C 183.447 21.8262 186.963 19.5312 186.963 14.0625 C 186.963 -2.05078 166.797 -24.3164 134.375 -24.3164 C 101.953 -24.3164 81.7871 -2.05078 81.7871 14.0625 C 81.7871 19.5312 85.2539 21.8262 93.1641 21.8262 Z"/>
  </g>
  <g id="Thin-L" transform="matrix(1 0 0 1 722.218 1556)">
   <path d="M 134.18 -35.498 C 147.998 -35.498 158.643 -47.3145 158.643 -62.7441 C 158.643 -77.2461 147.754 -89.4043 134.18 -89.4043 C 120.605 -89.4043 109.57 -77.1973 109.717 -62.6953 C 109.717 -47.3145 120.41 -35.498 134.18 -35.498 Z M 61.6699 -34.082 C 73.6816 -34.082 82.959 -44.3359 82.959 -57.8125 C 82.959 -70.459 73.4863 -81.0059 61.6699 -81.0059 C 49.8535 -81.0059 40.2832 -70.4102 40.4297 -57.8125 C 40.4297 -44.3359 49.6094 -34.082 61.6699 -34.082 Z M 206.738 -34.082 C 218.75 -34.082 227.979 -44.3359 227.979 -57.8125 C 227.979 -70.4102 218.555 -81.0059 206.738 -81.0059 C 194.922 -81.0059 185.449 -70.459 185.449 -57.8125 C 185.449 -44.3359 194.678 -34.082 206.738 -34.082 Z M 24.5605 21.3379 L 79.6387 21.3379 C 72.6562 16.9434 77.4902 -2.09961 91.5527 -14.1602 C 84.6191 -20.0684 74.8535 -24.4629 61.5234 -24.4629 C 33.4961 -24.4629 16.0645 -4.3457 16.0645 13.5742 C 16.0645 19.0918 19.043 21.3379 24.5605 21.3379 Z M 243.799 21.3379 C 249.316 21.3379 252.344 19.0918 252.344 13.5742 C 252.344 -4.3457 234.912 -24.4629 206.885 -24.4629 C 193.555 -24.4629 183.74 -20.0684 176.807 -14.1602 C 190.918 -2.09961 195.703 16.9434 188.77 21.3379 Z M 91.6016 21.3379 L 176.514 21.3379 C 182.861 21.3379 186.328 19.4336 186.328 14.0137 C 186.328 -2.00195 166.26 -24.1211 134.033 -24.1211 C 101.807 -24.1211 81.7871 -2.00195 81.7871 14.0137 C 81.7871 19.4336 85.2539 21.3379 91.6016 21.3379 Z"/>
  </g>
  <g id="Ultralight-L" transform="matrix(1 0 0 1 425.653 1556)">
   <path d="M 134.033 -35.4004 C 147.9 -35.4004 158.35 -47.168 158.35 -62.5 C 158.35 -76.8066 147.656 -89.0625 134.033 -89.0625 C 120.459 -89.0625 109.57 -76.8066 109.766 -62.5 C 109.766 -47.168 120.215 -35.4004 134.033 -35.4004 Z M 61.5234 -34.0332 C 73.6328 -34.0332 82.666 -44.1895 82.666 -57.6172 C 82.666 -70.0684 73.3398 -80.7129 61.5234 -80.7129 C 49.6582 -80.7129 40.2832 -70.0684 40.4297 -57.6172 C 40.4297 -44.1895 49.4141 -34.0332 61.5234 -34.0332 Z M 206.592 -34.0332 C 218.701 -34.0332 227.686 -44.1895 227.686 -57.6172 C 227.686 -70.0684 218.408 -80.7129 206.592 -80.7129 C 194.775 -80.7129 185.449 -70.0684 185.449 -57.6172 C 185.449 -44.1895 194.482 -34.0332 206.592 -34.0332 Z M 23.9746 21.0449 L 80.6641 21.0449 C 73.6328 17.8223 77.6855 -1.2207 91.8945 -13.623 C 85.0098 -19.7754 75 -24.3652 61.3281 -24.3652 C 33.3984 -24.3652 16.0645 -4.44336 16.0645 13.5254 C 16.0645 19.0918 19.043 21.0449 23.9746 21.0449 Z M 244.141 21.0449 C 249.072 21.0449 252.051 19.0918 252.051 13.5254 C 252.051 -4.44336 234.717 -24.3652 206.787 -24.3652 C 193.066 -24.3652 183.105 -19.7754 176.221 -13.623 C 190.43 -1.2207 194.482 17.8223 187.451 21.0449 Z M 90.7715 21.0449 L 176.953 21.0449 C 182.52 21.0449 185.986 19.3848 185.986 14.0137 C 185.986 -1.95312 166.016 -24.0234 133.887 -24.0234 C 101.758 -24.0234 81.7871 -1.95312 81.7871 14.0137 C 81.7871 19.3848 85.2051 21.0449 90.7715 21.0449 Z"/>
  </g>
  <g id="Black-M" transform="matrix(1 0 0 1 2826.76 1126)">
   <path d="M 106.592 -35.498 C 118.213 -35.498 127.148 -45.4102 127.148 -57.7637 C 127.148 -69.4824 118.115 -79.7363 106.592 -79.7363 C 95.1172 -79.7363 86.0352 -69.4824 86.084 -57.7637 C 86.1328 -45.4102 94.9707 -35.498 106.592 -35.498 Z M 49.0723 -34.4238 C 59.1797 -34.4238 66.9434 -43.1152 66.9434 -53.8574 C 66.9434 -64.0625 59.0332 -72.998 49.0723 -72.998 C 39.0625 -72.998 31.1523 -64.0625 31.2012 -53.8574 C 31.2988 -43.1152 38.916 -34.4238 49.0723 -34.4238 Z M 164.209 -34.4238 C 174.365 -34.4238 181.982 -43.1152 182.08 -53.8574 C 182.129 -64.0625 174.219 -72.998 164.209 -72.998 C 154.248 -72.998 146.338 -64.0625 146.338 -53.8574 C 146.338 -43.1152 154.102 -34.4238 164.209 -34.4238 Z M 23.5352 11.0352 L 57.9102 11.0352 C 52.0508 3.17383 55.1758 -11.2793 68.5059 -22.4609 C 63.5254 -25.1953 56.4941 -27.2949 49.0723 -27.2949 C 28.2715 -27.2949 12.4512 -12.0605 12.4512 -0.0976562 C 12.4512 6.78711 15.0879 11.0352 23.5352 11.0352 Z M 189.746 11.0352 C 198.193 11.0352 200.83 6.78711 200.83 -0.0976562 C 200.83 -12.0605 185.01 -27.2949 164.209 -27.2949 C 156.787 -27.2949 149.756 -25.1953 144.775 -22.4609 C 158.105 -11.2793 161.23 3.17383 155.371 11.0352 Z M 77.2461 10.9375 L 135.938 10.9375 C 145.654 10.9375 148.682 7.37305 148.682 1.85547 C 148.682 -10.498 131.885 -27.2461 106.592 -27.2461 C 81.2988 -27.2461 64.502 -10.498 64.502 1.85547 C 64.502 7.37305 67.5781 10.9375 77.2461 10.9375 Z"/>
  </g>
  <g id="Heavy-M" transform="matrix(1 0 0 1 2530.56 1126)">
   <path d="M 106.104 -35.5469 C 117.48 -35.5469 126.416 -45.3613 126.416 -57.666 C 126.416 -69.4336 117.334 -79.3945 106.104 -79.3945 C 94.873 -79.3945 85.7422 -69.3848 85.8398 -57.6172 C 85.8887 -45.3613 94.7754 -35.5469 106.104 -35.5469 Z M 48.877 -34.4727 C 58.7402 -34.4727 66.5527 -43.0664 66.5527 -53.7598 C 66.5527 -64.0137 58.6426 -72.6562 48.877 -72.6562 C 39.1113 -72.6562 31.1523 -63.9648 31.2012 -53.7109 C 31.25 -43.0664 38.9648 -34.4727 48.877 -34.4727 Z M 163.379 -34.4727 C 173.291 -34.4727 181.006 -43.0664 181.055 -53.7109 C 181.104 -63.9648 173.193 -72.6562 163.379 -72.6562 C 153.613 -72.6562 145.703 -64.0137 145.703 -53.7598 C 145.703 -43.0664 153.516 -34.4727 163.379 -34.4727 Z M 22.9492 10.6445 L 57.959 10.6445 C 52.2461 2.92969 56.1523 -11.6211 68.7988 -22.0703 C 63.7207 -25 56.6895 -27.2461 48.877 -27.2461 C 27.7832 -27.2461 12.4512 -11.7676 12.4512 0.537109 C 12.4512 6.83594 15.0391 10.6445 22.9492 10.6445 Z M 189.307 10.6445 C 197.217 10.6445 199.805 6.83594 199.805 0.537109 C 199.805 -11.7676 184.473 -27.2461 163.379 -27.2461 C 155.566 -27.2461 148.535 -25 143.457 -22.0703 C 156.104 -11.6211 160.01 2.92969 154.297 10.6445 Z M 76.4648 10.5957 L 135.742 10.5957 C 144.971 10.5957 147.949 7.32422 147.949 2.14844 C 147.949 -10.2539 131.396 -27.1484 106.104 -27.1484 C 80.8105 -27.1484 64.2578 -10.2539 64.2578 2.14844 C 64.2578 7.32422 67.2363 10.5957 76.4648 10.5957 Z"/>
  </g>
  <g id="Bold-M" transform="matrix(1 0 0 1 2234.41 1126)">
   <path d="M 105.566 -35.5957 C 116.602 -35.5957 125.586 -45.2637 125.586 -57.5684 C 125.586 -69.4336 116.504 -79.0039 105.566 -79.0039 C 94.5801 -79.0039 85.498 -69.3359 85.498 -57.5195 C 85.5469 -45.2637 94.4824 -35.5957 105.566 -35.5957 Z M 48.6328 -34.5215 C 58.252 -34.5215 66.1133 -42.9688 66.1133 -53.6133 C 66.1133 -64.0137 58.2031 -72.3145 48.6328 -72.3145 C 39.1113 -72.3145 31.2012 -63.916 31.2012 -53.5645 C 31.25 -42.9688 39.0625 -34.5215 48.6328 -34.5215 Z M 162.451 -34.5215 C 172.07 -34.5215 179.883 -42.9688 179.883 -53.5645 C 179.932 -63.916 171.973 -72.3145 162.451 -72.3145 C 152.93 -72.3145 145.02 -64.0137 145.02 -53.6133 C 145.02 -42.9688 152.832 -34.5215 162.451 -34.5215 Z M 22.2656 10.2539 L 58.0078 10.2539 C 52.5391 2.63672 57.2266 -12.0117 69.1406 -21.6309 C 63.916 -24.8047 56.9336 -27.1973 48.6328 -27.1973 C 27.2461 -27.1973 12.4512 -11.4746 12.4512 1.26953 C 12.4512 6.93359 14.9414 10.2539 22.2656 10.2539 Z M 188.818 10.2539 C 196.143 10.2539 198.682 6.93359 198.682 1.26953 C 198.682 -11.4746 183.887 -27.1973 162.5 -27.1973 C 154.199 -27.1973 147.168 -24.8047 141.992 -21.6309 C 153.906 -12.0117 158.594 2.63672 153.125 10.2539 Z M 75.5371 10.2051 L 135.547 10.2051 C 144.238 10.2051 147.119 7.32422 147.119 2.44141 C 147.119 -10.0586 130.859 -27.0996 105.518 -27.0996 C 80.2246 -27.0996 63.9648 -10.0586 63.9648 2.44141 C 63.9648 7.32422 66.8457 10.2051 75.5371 10.2051 Z"/>
  </g>
  <g id="Semibold-M" transform="matrix(1 0 0 1 1938.09 1126)">
   <path d="M 105.176 -35.6445 C 116.016 -35.6445 125 -45.2148 125 -57.4707 C 125 -69.3848 115.918 -78.7598 105.176 -78.7598 C 94.3848 -78.7598 85.3027 -69.2871 85.3027 -57.4219 C 85.3516 -45.2148 94.3359 -35.6445 105.176 -35.6445 Z M 48.5352 -34.5703 C 57.959 -34.5703 65.7715 -42.9199 65.7715 -53.5645 C 65.7715 -63.9648 57.8613 -72.0703 48.5352 -72.0703 C 39.1602 -72.0703 31.2012 -63.8184 31.25 -53.5156 C 31.25 -42.9199 39.0625 -34.5703 48.5352 -34.5703 Z M 161.816 -34.5703 C 171.24 -34.5703 179.102 -42.9199 179.102 -53.5156 C 179.102 -63.8184 171.191 -72.0703 161.816 -72.0703 C 152.441 -72.0703 144.531 -63.9648 144.531 -53.5645 C 144.531 -42.9199 152.393 -34.5703 161.816 -34.5703 Z M 21.8262 9.96094 L 58.0566 9.96094 C 52.7344 2.44141 57.959 -12.2559 69.3848 -21.3379 C 64.0625 -24.707 57.0801 -27.1973 48.4863 -27.1973 C 26.8555 -27.1973 12.4512 -11.2793 12.4512 1.75781 C 12.4512 6.93359 14.9414 9.96094 21.8262 9.96094 Z M 188.477 9.96094 C 195.41 9.96094 197.9 6.93359 197.9 1.75781 C 197.9 -11.2793 183.496 -27.1973 161.816 -27.1973 C 153.271 -27.1973 146.24 -24.707 140.967 -21.3379 C 152.393 -12.2559 157.617 2.44141 152.295 9.96094 Z M 74.9023 9.96094 L 135.4 9.96094 C 143.701 9.96094 146.533 7.27539 146.533 2.63672 C 146.533 -9.86328 130.469 -27.0508 105.127 -27.0508 C 79.834 -27.0508 63.7207 -9.86328 63.7207 2.63672 C 63.7207 7.27539 66.5527 9.96094 74.9023 9.96094 Z"/>
  </g>
  <g id="Medium-M" transform="matrix(1 0 0 1 1641.7 1126)">
   <path d="M 104.883 -35.6934 C 115.527 -35.6934 124.561 -45.166 124.561 -57.4219 C 124.561 -69.3848 115.479 -78.5645 104.883 -78.5645 C 94.2383 -78.5645 85.1074 -69.2383 85.1562 -57.3242 C 85.1562 -45.166 94.1895 -35.6934 104.883 -35.6934 Z M 48.3887 -34.5703 C 57.7148 -34.5703 65.5762 -42.8711 65.5762 -53.5156 C 65.5762 -63.9648 57.6172 -71.9238 48.3887 -71.9238 C 39.1602 -71.9238 31.2012 -63.8184 31.25 -53.418 C 31.25 -42.8711 39.1113 -34.5703 48.3887 -34.5703 Z M 161.328 -34.5703 C 170.605 -34.5703 178.516 -42.8711 178.516 -53.418 C 178.516 -63.8184 170.557 -71.9238 161.328 -71.9238 C 152.1 -71.9238 144.189 -63.9648 144.189 -53.5156 C 144.189 -42.8711 152.051 -34.5703 161.328 -34.5703 Z M 21.4844 9.76562 L 58.1055 9.76562 C 52.8809 2.29492 58.4961 -12.4512 69.5312 -21.1426 C 64.1602 -24.6094 57.1777 -27.1484 48.3887 -27.1484 C 26.5625 -27.1484 12.4512 -11.084 12.4512 2.14844 C 12.4512 6.98242 14.8926 9.76562 21.4844 9.76562 Z M 188.232 9.76562 C 194.824 9.76562 197.266 6.98242 197.266 2.14844 C 197.266 -11.084 183.154 -27.1484 161.377 -27.1484 C 152.539 -27.1484 145.557 -24.6094 140.186 -21.1426 C 151.221 -12.4512 156.885 2.29492 151.66 9.76562 Z M 74.4141 9.7168 L 135.254 9.7168 C 143.311 9.7168 146.094 7.27539 146.094 2.7832 C 146.094 -9.76562 130.176 -27.0508 104.834 -27.0508 C 79.541 -27.0508 63.5742 -9.76562 63.5742 2.7832 C 63.5742 7.27539 66.3574 9.7168 74.4141 9.7168 Z"/>
  </g>
  <g id="Regular-M" transform="matrix(1 0 0 1 1345.38 1126)">
   <path d="M 104.492 -35.7422 C 114.941 -35.7422 123.975 -45.1172 123.975 -57.3242 C 123.975 -69.3848 114.893 -78.3203 104.492 -78.3203 C 94.043 -78.3203 84.9121 -69.1895 84.9609 -57.2266 C 84.9609 -45.1172 93.9941 -35.7422 104.492 -35.7422 Z M 48.2422 -34.6191 C 57.373 -34.6191 65.2344 -42.8223 65.2344 -53.418 C 65.2344 -63.916 57.3242 -71.6797 48.2422 -71.6797 C 39.209 -71.6797 31.2012 -63.7207 31.25 -53.3203 C 31.25 -42.8223 39.1602 -34.6191 48.2422 -34.6191 Z M 160.693 -34.6191 C 169.824 -34.6191 177.734 -42.8223 177.734 -53.3203 C 177.734 -63.7207 169.775 -71.6797 160.693 -71.6797 C 151.611 -71.6797 143.701 -63.916 143.701 -53.418 C 143.701 -42.8223 151.611 -34.6191 160.693 -34.6191 Z M 21.0449 9.47266 L 58.1055 9.47266 C 53.0273 2.09961 59.2285 -12.7441 69.7754 -20.8496 C 64.3066 -24.4629 57.3242 -27.1484 48.2422 -27.1484 C 26.2207 -27.1484 12.4512 -10.8887 12.4512 2.63672 C 12.4512 7.03125 14.8438 9.47266 21.0449 9.47266 Z M 187.891 9.47266 C 194.092 9.47266 196.484 7.03125 196.484 2.63672 C 196.484 -10.8887 182.764 -27.1484 160.742 -27.1484 C 151.611 -27.1484 144.629 -24.4629 139.16 -20.8496 C 149.707 -12.7441 155.908 2.09961 150.83 9.47266 Z M 73.7793 9.47266 L 135.107 9.47266 C 142.822 9.47266 145.557 7.27539 145.557 2.97852 C 145.557 -9.61914 129.785 -27.002 104.443 -27.002 C 79.1504 -27.002 63.3789 -9.61914 63.3789 2.97852 C 63.3789 7.27539 66.1133 9.47266 73.7793 9.47266 Z"/>
  </g>
  <g id="Light-M" transform="matrix(1 0 0 1 1048.84 1126)">
   <path d="M 104.297 -35.5957 C 114.844 -35.5957 123.584 -44.9219 123.584 -57.0312 C 123.584 -68.75 114.746 -77.8809 104.297 -77.8809 C 93.8477 -77.8809 84.9121 -68.6523 85.0098 -56.9824 C 85.0098 -44.9219 93.75 -35.5957 104.297 -35.5957 Z M 48.0957 -34.5215 C 57.2754 -34.5215 64.8926 -42.627 64.8926 -53.1738 C 64.8926 -63.3789 57.1777 -71.2891 48.0957 -71.2891 C 38.9648 -71.2891 31.2012 -63.2812 31.25 -53.0762 C 31.25 -42.627 38.916 -34.5215 48.0957 -34.5215 Z M 160.498 -34.5215 C 169.678 -34.5215 177.344 -42.627 177.344 -53.0762 C 177.344 -63.2812 169.629 -71.2891 160.498 -71.2891 C 151.416 -71.2891 143.701 -63.3789 143.701 -53.1738 C 143.701 -42.627 151.318 -34.5215 160.498 -34.5215 Z M 20.3125 9.13086 L 59.4727 9.13086 C 54.2969 3.27148 59.5703 -11.5234 70.2148 -20.1172 C 64.7949 -24.1211 57.5684 -27.0508 47.998 -27.0508 C 26.123 -27.0508 12.4512 -11.0352 12.4512 2.58789 C 12.4512 6.98242 14.8438 9.13086 20.3125 9.13086 Z M 188.281 9.13086 C 193.75 9.13086 196.143 6.98242 196.143 2.58789 C 196.143 -11.0352 182.471 -27.0508 160.596 -27.0508 C 151.025 -27.0508 143.799 -24.1211 138.379 -20.1172 C 149.023 -11.5234 154.297 3.27148 149.121 9.13086 Z M 72.7051 9.13086 L 135.742 9.13086 C 142.383 9.13086 145.117 7.22656 145.117 2.97852 C 145.117 -9.57031 129.443 -26.8555 104.248 -26.8555 C 79.0527 -26.8555 63.3789 -9.57031 63.3789 2.97852 C 63.3789 7.22656 66.0645 9.13086 72.7051 9.13086 Z"/>
  </g>
  <g id="Thin-M" transform="matrix(1 0 0 1 752.369 1126)">
   <path d="M 104.053 -35.4492 C 114.746 -35.4492 123.096 -44.6777 123.096 -56.6406 C 123.096 -67.9688 114.551 -77.3438 104.053 -77.3438 C 93.5547 -77.3438 84.9121 -67.9199 85.0586 -56.5918 C 85.0586 -44.6777 93.4082 -35.4492 104.053 -35.4492 Z M 47.8516 -34.375 C 57.1289 -34.375 64.4043 -42.3828 64.4043 -52.832 C 64.4043 -62.6953 56.9824 -70.8496 47.8516 -70.8496 C 38.7207 -70.8496 31.2012 -62.6465 31.2988 -52.7832 C 31.2988 -42.3828 38.5254 -34.375 47.8516 -34.375 Z M 160.254 -34.375 C 169.58 -34.375 176.807 -42.3828 176.807 -52.7832 C 176.807 -62.6465 169.434 -70.8496 160.254 -70.8496 C 151.123 -70.8496 143.701 -62.6953 143.701 -52.832 C 143.701 -42.3828 150.977 -34.375 160.254 -34.375 Z M 19.2871 8.69141 L 61.2793 8.69141 C 55.9082 4.83398 59.9609 -9.96094 70.8008 -19.1406 C 65.4297 -23.584 57.9102 -26.9043 47.7539 -26.9043 C 25.9766 -26.9043 12.4512 -11.2305 12.4512 2.58789 C 12.4512 6.88477 14.7949 8.69141 19.2871 8.69141 Z M 188.818 8.69141 C 193.359 8.69141 195.654 6.88477 195.654 2.58789 C 195.654 -11.2305 182.129 -26.9043 160.4 -26.9043 C 150.195 -26.9043 142.676 -23.584 137.305 -19.1406 C 148.193 -9.96094 152.197 4.83398 146.826 8.69141 Z M 71.3379 8.69141 L 136.572 8.69141 C 141.846 8.69141 144.531 7.12891 144.531 2.97852 C 144.531 -9.47266 128.955 -26.6602 103.955 -26.6602 C 78.9551 -26.6602 63.3789 -9.47266 63.3789 2.97852 C 63.3789 7.12891 66.0645 8.69141 71.3379 8.69141 Z"/>
  </g>
  <g id="Ultralight-M" transform="matrix(1 0 0 1 455.78 1126)">
   <path d="M 103.955 -35.4004 C 114.648 -35.4004 122.803 -44.5312 122.803 -56.4453 C 122.803 -67.5781 114.453 -77.0508 103.955 -77.0508 C 93.4082 -77.0508 84.9121 -67.5781 85.0586 -56.4453 C 85.0586 -44.5312 93.2129 -35.4004 103.955 -35.4004 Z M 47.7051 -34.3262 C 57.0801 -34.3262 64.1602 -42.2363 64.1602 -52.6367 C 64.1602 -62.3535 56.8848 -70.5566 47.7051 -70.5566 C 38.5742 -70.5566 31.2012 -62.3535 31.3477 -52.6367 C 31.3477 -42.2363 38.3789 -34.3262 47.7051 -34.3262 Z M 160.156 -34.3262 C 169.482 -34.3262 176.514 -42.2363 176.514 -52.6367 C 176.514 -62.3535 169.336 -70.5566 160.156 -70.5566 C 150.977 -70.5566 143.701 -62.3535 143.701 -52.6367 C 143.701 -42.2363 150.781 -34.3262 160.156 -34.3262 Z M 18.75 8.49609 L 62.207 8.49609 C 56.7871 5.61523 60.1562 -9.13086 71.1426 -18.6523 C 65.7715 -23.3398 58.1055 -26.8555 47.6074 -26.8555 C 25.9277 -26.8555 12.4512 -11.3281 12.4512 2.58789 C 12.4512 6.88477 14.7461 8.49609 18.75 8.49609 Z M 189.111 8.49609 C 193.115 8.49609 195.41 6.88477 195.41 2.58789 C 195.41 -11.3281 181.982 -26.8555 160.254 -26.8555 C 149.756 -26.8555 142.09 -23.3398 136.768 -18.6523 C 147.705 -9.13086 151.074 5.61523 145.654 8.49609 Z M 70.6055 8.49609 L 137.012 8.49609 C 141.553 8.49609 144.238 7.12891 144.238 2.92969 C 144.238 -9.47266 128.711 -26.6113 103.809 -26.6113 C 78.9062 -26.6113 63.3789 -9.47266 63.3789 2.92969 C 63.3789 7.12891 66.0645 8.49609 70.6055 8.49609 Z"/>
  </g>
  <g id="Black-S" transform="matrix(1 0 0 1 2849.88 696)">
   <path d="M 83.4961 -35.4492 C 92.5781 -35.4492 99.5605 -43.2129 99.5605 -52.8809 C 99.5605 -62.0605 92.4805 -70.0684 83.4961 -70.0684 C 74.5117 -70.0684 67.3828 -62.0605 67.4316 -52.8809 C 67.4805 -43.2129 74.4141 -35.4492 83.4961 -35.4492 Z M 38.4277 -34.6191 C 46.3379 -34.6191 52.4414 -41.4062 52.4414 -49.8047 C 52.4414 -57.8125 46.2402 -64.7949 38.4277 -64.7949 C 30.6152 -64.7949 24.4141 -57.8125 24.4629 -49.8047 C 24.5117 -41.4062 30.5176 -34.6191 38.4277 -34.6191 Z M 128.613 -34.6191 C 136.523 -34.6191 142.529 -41.4062 142.578 -49.8047 C 142.627 -57.8125 136.426 -64.7949 128.613 -64.7949 C 120.801 -64.7949 114.6 -57.8125 114.6 -49.8047 C 114.6 -41.4062 120.703 -34.6191 128.613 -34.6191 Z M 18.4082 0.976562 L 45.3613 0.976562 C 40.7715 -5.17578 43.3105 -16.5039 53.7109 -25.1953 C 49.8047 -27.3438 44.2871 -29.0039 38.4277 -29.0039 C 22.1191 -29.0039 9.76562 -17.041 9.76562 -7.66602 C 9.76562 -2.29492 11.8164 0.976562 18.4082 0.976562 Z M 148.633 0.976562 C 155.225 0.976562 157.275 -2.29492 157.275 -7.66602 C 157.275 -17.041 144.922 -29.0039 128.613 -29.0039 C 122.754 -29.0039 117.236 -27.3438 113.33 -25.1953 C 123.73 -16.5039 126.27 -5.17578 121.68 0.976562 Z M 60.498 0.927734 L 106.494 0.927734 C 114.062 0.927734 116.455 -1.85547 116.455 -6.15234 C 116.455 -15.8203 103.32 -28.9551 83.4961 -28.9551 C 63.6719 -28.9551 50.5371 -15.8203 50.5371 -6.15234 C 50.5371 -1.85547 52.9297 0.927734 60.498 0.927734 Z"/>
  </g>
  <g id="Heavy-S" transform="matrix(1 0 0 1 2553.53 696)">
   <path d="M 83.1543 -35.498 C 91.9922 -35.498 99.0234 -43.1641 99.0234 -52.832 C 99.0234 -62.1094 91.9434 -69.873 83.1543 -69.873 C 74.3652 -69.873 67.1875 -62.0605 67.2363 -52.832 C 67.2852 -43.1641 74.2676 -35.498 83.1543 -35.498 Z M 38.3301 -34.668 C 46.0449 -34.668 52.1973 -41.3574 52.1973 -49.7559 C 52.1973 -57.8613 45.9473 -64.5996 38.3301 -64.5996 C 30.6641 -64.5996 24.4141 -57.8125 24.4629 -49.7559 C 24.5117 -41.3574 30.5664 -34.668 38.3301 -34.668 Z M 127.979 -34.668 C 135.693 -34.668 141.797 -41.3574 141.846 -49.7559 C 141.895 -57.8125 135.645 -64.5996 127.979 -64.5996 C 120.361 -64.5996 114.111 -57.8613 114.111 -49.7559 C 114.111 -41.3574 120.264 -34.668 127.979 -34.668 Z M 18.0664 0.732422 L 45.2637 0.732422 C 40.8203 -5.51758 43.9941 -16.8945 53.9062 -25 C 49.9023 -27.2461 44.4336 -29.0039 38.2812 -29.0039 C 21.7773 -29.0039 9.76562 -16.7969 9.76562 -7.17773 C 9.76562 -2.24609 11.7676 0.732422 18.0664 0.732422 Z M 148.242 0.732422 C 154.541 0.732422 156.543 -2.24609 156.543 -7.17773 C 156.543 -16.7969 144.531 -29.0039 127.979 -29.0039 C 121.875 -29.0039 116.406 -27.2461 112.402 -25 C 122.266 -16.8945 125.488 -5.51758 121.045 0.732422 Z M 60.0098 0.683594 L 106.299 0.683594 C 113.574 0.683594 115.918 -1.85547 115.918 -5.95703 C 115.918 -15.6738 102.979 -28.9062 83.1543 -28.9062 C 63.2812 -28.9062 50.3418 -15.6738 50.3418 -5.95703 C 50.3418 -1.85547 52.6855 0.683594 60.0098 0.683594 Z"/>
  </g>
  <g id="Bold-S" transform="matrix(1 0 0 1 2257.24 696)">
   <path d="M 82.7148 -35.5469 C 91.3574 -35.5469 98.4375 -43.1641 98.4375 -52.7832 C 98.4375 -62.1582 91.3086 -69.6289 82.7148 -69.6289 C 74.1699 -69.6289 66.9922 -62.0605 66.9922 -52.7344 C 67.041 -43.1641 74.1211 -35.5469 82.7148 -35.5469 Z M 38.1836 -34.7168 C 45.6543 -34.7168 51.8555 -41.3574 51.8555 -49.707 C 51.8555 -57.9102 45.6055 -64.3555 38.1836 -64.3555 C 30.7129 -64.3555 24.4629 -57.8125 24.4629 -49.6582 C 24.5117 -41.3574 30.6641 -34.7168 38.1836 -34.7168 Z M 127.295 -34.7168 C 134.814 -34.7168 140.967 -41.3574 141.016 -49.6582 C 141.016 -57.8125 134.766 -64.3555 127.295 -64.3555 C 119.873 -64.3555 113.623 -57.9102 113.623 -49.707 C 113.623 -41.3574 119.824 -34.7168 127.295 -34.7168 Z M 17.627 0.439453 L 45.1172 0.439453 C 40.8691 -5.85938 44.7754 -17.334 54.1016 -24.7559 C 50 -27.1484 44.5312 -28.9551 38.1836 -28.9551 C 21.3379 -28.9551 9.76562 -16.5527 9.76562 -6.64062 C 9.76562 -2.19727 11.7188 0.439453 17.627 0.439453 Z M 147.852 0.439453 C 153.711 0.439453 155.713 -2.19727 155.713 -6.64062 C 155.713 -16.5527 144.141 -28.9551 127.295 -28.9551 C 120.947 -28.9551 115.479 -27.1484 111.377 -24.7559 C 120.654 -17.334 124.609 -5.85938 120.361 0.439453 Z M 59.4238 0.439453 L 106.055 0.439453 C 113.086 0.439453 115.332 -1.9043 115.332 -5.71289 C 115.332 -15.4785 102.588 -28.9062 82.7148 -28.9062 C 62.8418 -28.9062 50.0977 -15.4785 50.0977 -5.71289 C 50.0977 -1.9043 52.3438 0.439453 59.4238 0.439453 Z"/>
  </g>
  <g id="Semibold-S" transform="matrix(1 0 0 1 1960.82 696)">
   <path d="M 82.4219 -35.5957 C 90.918 -35.5957 98.0469 -43.1152 98.0469 -52.7344 C 98.0469 -62.207 90.8691 -69.4824 82.4219 -69.4824 C 74.0234 -69.4824 66.7969 -62.0605 66.8457 -52.6855 C 66.8457 -43.1152 73.9746 -35.5957 82.4219 -35.5957 Z M 38.0859 -34.7656 C 45.4102 -34.7656 51.6602 -41.3086 51.6602 -49.6582 C 51.6602 -57.9102 45.4102 -64.209 38.0859 -64.209 C 30.7617 -64.209 24.4629 -57.8125 24.4629 -49.6094 C 24.4629 -41.3086 30.7129 -34.7656 38.0859 -34.7656 Z M 126.807 -34.7656 C 134.18 -34.7656 140.43 -41.3086 140.43 -49.6094 C 140.43 -57.8125 134.131 -64.209 126.807 -64.209 C 119.531 -64.209 113.232 -57.9102 113.232 -49.6582 C 113.232 -41.3086 119.482 -34.7656 126.807 -34.7656 Z M 17.3828 0.292969 L 45.0195 0.292969 C 40.918 -6.10352 45.3613 -17.627 54.248 -24.6094 C 50.0488 -27.0996 44.6289 -28.9551 38.0859 -28.9551 C 21.0938 -28.9551 9.76562 -16.4062 9.76562 -6.25 C 9.76562 -2.14844 11.7188 0.292969 17.3828 0.292969 Z M 147.559 0.292969 C 153.174 0.292969 155.127 -2.14844 155.127 -6.25 C 155.127 -16.4062 143.848 -28.9551 126.855 -28.9551 C 120.264 -28.9551 114.844 -27.0996 110.693 -24.6094 C 119.58 -17.627 124.023 -6.10352 119.873 0.292969 Z M 59.0332 0.244141 L 105.859 0.244141 C 112.744 0.244141 114.941 -1.9043 114.941 -5.56641 C 114.941 -15.3809 102.295 -28.8574 82.4219 -28.8574 C 62.5488 -28.8574 49.9512 -15.3809 49.9512 -5.56641 C 49.9512 -1.9043 52.1484 0.244141 59.0332 0.244141 Z"/>
  </g>
  <g id="Medium-S" transform="matrix(1 0 0 1 1664.33 696)">
   <path d="M 82.2266 -35.6445 C 90.5762 -35.6445 97.7539 -43.1152 97.7539 -52.7344 C 97.7539 -62.207 90.5273 -69.3359 82.2266 -69.3359 C 73.9258 -69.3359 66.6992 -62.0605 66.6992 -52.6367 C 66.748 -43.1152 73.877 -35.6445 82.2266 -35.6445 Z M 37.9883 -34.7656 C 45.2637 -34.7656 51.5137 -41.3086 51.5137 -49.6582 C 51.5137 -57.959 45.2148 -64.1113 37.9883 -64.1113 C 30.8105 -64.1113 24.4629 -57.8125 24.4629 -49.5605 C 24.4629 -41.3086 30.7617 -34.7656 37.9883 -34.7656 Z M 126.465 -34.7656 C 133.691 -34.7656 139.99 -41.3086 139.99 -49.5605 C 139.99 -57.8125 133.691 -64.1113 126.465 -64.1113 C 119.238 -64.1113 112.939 -57.959 112.939 -49.6582 C 112.939 -41.3086 119.238 -34.7656 126.465 -34.7656 Z M 17.1387 0.146484 L 44.9707 0.146484 C 40.918 -6.29883 45.752 -17.8711 54.3457 -24.4629 C 50.0977 -27.0508 44.7266 -28.9551 37.9883 -28.9551 C 20.8496 -28.9551 9.76562 -16.2598 9.76562 -5.95703 C 9.76562 -2.14844 11.6699 0.146484 17.1387 0.146484 Z M 147.314 0.146484 C 152.783 0.146484 154.688 -2.14844 154.688 -5.95703 C 154.688 -16.2598 143.604 -28.9551 126.465 -28.9551 C 119.775 -28.9551 114.355 -27.0508 110.156 -24.4629 C 118.701 -17.8711 123.535 -6.29883 119.482 0.146484 Z M 58.7402 0.146484 L 105.713 0.146484 C 112.451 0.146484 114.648 -1.9043 114.648 -5.41992 C 114.648 -15.2832 102.1 -28.8574 82.2266 -28.8574 C 62.3535 -28.8574 49.8047 -15.2832 49.8047 -5.41992 C 49.8047 -1.9043 52.002 0.146484 58.7402 0.146484 Z"/>
  </g>
  <g id="Regular-S" transform="matrix(1 0 0 1 1367.89 696)">
   <path d="M 81.9336 -35.6934 C 90.1367 -35.6934 97.3633 -43.0664 97.3633 -52.6855 C 97.3633 -62.2559 90.1367 -69.1895 81.9336 -69.1895 C 73.7793 -69.1895 66.5527 -62.0605 66.5527 -52.5879 C 66.5527 -43.0664 73.7793 -35.6934 81.9336 -35.6934 Z M 37.8906 -34.8145 C 45.0195 -34.8145 51.3184 -41.2598 51.3184 -49.6094 C 51.3184 -57.959 45.0195 -63.9648 37.8906 -63.9648 C 30.8105 -63.9648 24.4629 -57.8125 24.4629 -49.5117 C 24.4629 -41.2598 30.8105 -34.8145 37.8906 -34.8145 Z M 125.977 -34.8145 C 133.105 -34.8145 139.453 -41.2598 139.453 -49.5117 C 139.453 -57.8125 133.105 -63.9648 125.977 -63.9648 C 118.896 -63.9648 112.598 -57.959 112.598 -49.6094 C 112.598 -41.2598 118.896 -34.8145 125.977 -34.8145 Z M 16.8945 -0.0488281 L 44.873 -0.0488281 C 40.9668 -6.54297 46.2891 -18.1641 54.4434 -24.3164 C 50.1953 -27.002 44.8242 -28.9551 37.8906 -28.9551 C 20.6055 -28.9551 9.76562 -16.0645 9.76562 -5.56641 C 9.76562 -2.09961 11.6699 -0.0488281 16.8945 -0.0488281 Z M 147.021 -0.0488281 C 152.246 -0.0488281 154.15 -2.09961 154.15 -5.56641 C 154.15 -16.0645 143.311 -28.9551 126.025 -28.9551 C 119.092 -28.9551 113.721 -27.002 109.424 -24.3164 C 117.627 -18.1641 122.949 -6.54297 119.043 -0.0488281 Z M 58.3496 -0.0488281 L 105.566 -0.0488281 C 112.109 -0.0488281 114.258 -1.9043 114.258 -5.27344 C 114.258 -15.1855 101.855 -28.8574 81.9336 -28.8574 C 62.0605 -28.8574 49.6582 -15.1855 49.6582 -5.27344 C 49.6582 -1.9043 51.8066 -0.0488281 58.3496 -0.0488281 Z"/>
  </g>
  <g id="Light-S" transform="matrix(1 0 0 1 1071.35 696)">
   <path d="M 81.7871 -35.5957 C 90.0391 -35.5957 97.0215 -42.9199 97.0215 -52.4414 C 97.0215 -61.7188 89.9902 -68.7988 81.7871 -68.7988 C 73.584 -68.7988 66.5527 -61.6211 66.6016 -52.3438 C 66.6016 -42.9199 73.5352 -35.5957 81.7871 -35.5957 Z M 37.7441 -34.7168 C 44.9219 -34.7168 50.9766 -41.1133 50.9766 -49.3652 C 50.9766 -57.5195 44.873 -63.623 37.7441 -63.623 C 30.6152 -63.623 24.4629 -57.373 24.5117 -49.3164 C 24.5117 -41.1133 30.5664 -34.7168 37.7441 -34.7168 Z M 125.83 -34.7168 C 133.008 -34.7168 139.111 -41.1133 139.111 -49.3164 C 139.111 -57.373 132.959 -63.623 125.83 -63.623 C 118.701 -63.623 112.598 -57.5195 112.598 -49.3652 C 112.598 -41.1133 118.652 -34.7168 125.83 -34.7168 Z M 16.2109 -0.341797 L 46.0938 -0.341797 C 42.041 -5.51758 46.5332 -17.1387 54.8828 -23.6328 C 50.5859 -26.6602 45.0195 -28.8574 37.6953 -28.8574 C 20.5078 -28.8574 9.76562 -16.2109 9.76562 -5.56641 C 9.76562 -2.14844 11.6211 -0.341797 16.2109 -0.341797 Z M 147.363 -0.341797 C 151.953 -0.341797 153.809 -2.14844 153.809 -5.56641 C 153.809 -16.2109 143.066 -28.8574 125.879 -28.8574 C 118.555 -28.8574 112.988 -26.6602 108.74 -23.6328 C 117.041 -17.1387 121.533 -5.51758 117.48 -0.341797 Z M 57.373 -0.341797 L 106.104 -0.341797 C 111.719 -0.341797 113.867 -1.95312 113.867 -5.27344 C 113.867 -15.1367 101.562 -28.7109 81.7383 -28.7109 C 61.9629 -28.7109 49.6582 -15.1367 49.6582 -5.27344 C 49.6582 -1.95312 51.8066 -0.341797 57.373 -0.341797 Z"/>
  </g>
  <g id="Thin-S" transform="matrix(1 0 0 1 774.83 696)">
   <path d="M 81.5918 -35.4492 C 89.9414 -35.4492 96.5332 -42.6758 96.5332 -52.0996 C 96.5332 -61.0352 89.7949 -68.3105 81.5918 -68.3105 C 73.3398 -68.3105 66.5527 -60.9863 66.6016 -52.0508 C 66.6016 -42.6758 73.2422 -35.4492 81.5918 -35.4492 Z M 37.5488 -34.6191 C 44.8242 -34.6191 50.5859 -40.8691 50.5859 -49.0723 C 50.5859 -56.8848 44.6777 -63.2324 37.5488 -63.2324 C 30.3711 -63.2324 24.4629 -56.8359 24.5117 -49.0723 C 24.5117 -40.8691 30.2734 -34.6191 37.5488 -34.6191 Z M 125.635 -34.6191 C 132.91 -34.6191 138.623 -40.8691 138.623 -49.0723 C 138.623 -56.8359 132.764 -63.2324 125.635 -63.2324 C 118.457 -63.2324 112.598 -56.8848 112.598 -49.0723 C 112.598 -40.8691 118.359 -34.6191 125.635 -34.6191 Z M 15.332 -0.732422 L 47.6562 -0.732422 C 43.5059 -4.15039 46.875 -15.7227 55.3711 -22.8027 C 51.1719 -26.2207 45.3125 -28.7598 37.4512 -28.7598 C 20.4102 -28.7598 9.76562 -16.4062 9.76562 -5.61523 C 9.76562 -2.19727 11.6211 -0.732422 15.332 -0.732422 Z M 147.852 -0.732422 C 151.562 -0.732422 153.418 -2.19727 153.418 -5.61523 C 153.418 -16.4062 142.773 -28.7598 125.684 -28.7598 C 117.822 -28.7598 112.012 -26.2207 107.764 -22.8027 C 116.26 -15.7227 119.629 -4.15039 115.479 -0.732422 Z M 56.1523 -0.732422 L 106.836 -0.732422 C 111.23 -0.732422 113.379 -2.00195 113.379 -5.32227 C 113.379 -15.0879 101.123 -28.5645 81.4941 -28.5645 C 61.8652 -28.5645 49.6582 -15.0879 49.6582 -5.32227 C 49.6582 -2.00195 51.7578 -0.732422 56.1523 -0.732422 Z"/>
  </g>
  <g id="Ultralight-S" transform="matrix(1 0 0 1 478.241 696)">
   <path d="M 81.4941 -35.3516 C 89.8438 -35.3516 96.2891 -42.5781 96.2891 -51.9043 C 96.2891 -60.6934 89.6973 -68.0664 81.4941 -68.0664 C 73.2422 -68.0664 66.5527 -60.6445 66.6504 -51.9043 C 66.6504 -42.5781 73.0957 -35.3516 81.4941 -35.3516 Z M 37.4512 -34.5215 C 44.7266 -34.5215 50.3418 -40.7715 50.3418 -48.9258 C 50.3418 -56.543 44.5801 -62.9883 37.4512 -62.9883 C 30.2734 -62.9883 24.4629 -56.543 24.5605 -48.9258 C 24.5605 -40.7715 30.127 -34.5215 37.4512 -34.5215 Z M 125.537 -34.5215 C 132.812 -34.5215 138.379 -40.7715 138.379 -48.9258 C 138.379 -56.543 132.666 -62.9883 125.537 -62.9883 C 118.359 -62.9883 112.598 -56.543 112.598 -48.9258 C 112.598 -40.7715 118.213 -34.5215 125.537 -34.5215 Z M 14.8438 -0.927734 L 48.4863 -0.927734 C 44.2383 -3.41797 47.0703 -14.9902 55.6641 -22.3633 C 51.4648 -25.9766 45.459 -28.6621 37.3535 -28.6621 C 20.3125 -28.6621 9.76562 -16.5039 9.76562 -5.61523 C 9.76562 -2.24609 11.5723 -0.927734 14.8438 -0.927734 Z M 148.096 -0.927734 C 151.367 -0.927734 153.174 -2.24609 153.174 -5.61523 C 153.174 -16.5039 142.627 -28.6621 125.586 -28.6621 C 117.48 -28.6621 111.475 -25.9766 107.275 -22.3633 C 115.869 -14.9902 118.701 -3.41797 114.453 -0.927734 Z M 55.5176 -0.927734 L 107.227 -0.927734 C 110.986 -0.927734 113.086 -2.05078 113.086 -5.32227 C 113.086 -15.0391 100.928 -28.4668 81.3965 -28.4668 C 61.8164 -28.4668 49.6582 -15.0391 49.6582 -5.32227 C 49.6582 -2.05078 51.7578 -0.927734 55.5176 -0.927734 Z"/>
  </g>
 </g>
</svg>
