<?xml version="1.0" encoding="UTF-8"?>
<!--Generator: Apple Native CoreSVG 123-->
<!DOCTYPE svg
PUBLIC "-//W3C//DTD SVG 1.1//EN"
       "http://www.w3.org/Graphics/SVG/1.1/DTD/svg11.dtd">
<svg version="1.1" xmlns="http://www.w3.org/2000/svg" xmlns:xlink="http://www.w3.org/1999/xlink" width="3300" height="2200">
 <!--glyph: "uni10057B.medium", point size: 100.000000, font version: "Version 15.0d7e11", template writer version: "5"-->
 <g id="Notes">
  <rect height="2200" id="artboard" style="fill:white;opacity:1" width="3300" x="0" y="0"/>
  <line id="" style="fill:none;stroke:black;opacity:1;stroke-width:0.5;" x1="263" x2="3036" y1="292" y2="292"/>
  <text style="stroke:none;fill:black;font-family:-apple-system,&quot;SF Pro Display&quot;,&quot;SF Pro Text&quot;,Helvetica,sans-serif;font-weight:bold;" transform="matrix(1 0 0 1 263 322)">Weight/Scale Variations</text>
  <text style="stroke:none;fill:black;font-family:-apple-system,&quot;SF Pro Display&quot;,&quot;SF Pro Text&quot;,Helvetica,sans-serif;text-anchor:middle;" transform="matrix(1 0 0 1 559.711 322)">Ultralight</text>
  <text style="stroke:none;fill:black;font-family:-apple-system,&quot;SF Pro Display&quot;,&quot;SF Pro Text&quot;,Helvetica,sans-serif;text-anchor:middle;" transform="matrix(1 0 0 1 856.422 322)">Thin</text>
  <text style="stroke:none;fill:black;font-family:-apple-system,&quot;SF Pro Display&quot;,&quot;SF Pro Text&quot;,Helvetica,sans-serif;text-anchor:middle;" transform="matrix(1 0 0 1 1153.13 322)">Light</text>
  <text style="stroke:none;fill:black;font-family:-apple-system,&quot;SF Pro Display&quot;,&quot;SF Pro Text&quot;,Helvetica,sans-serif;text-anchor:middle;" transform="matrix(1 0 0 1 1449.84 322)">Regular</text>
  <text style="stroke:none;fill:black;font-family:-apple-system,&quot;SF Pro Display&quot;,&quot;SF Pro Text&quot;,Helvetica,sans-serif;text-anchor:middle;" transform="matrix(1 0 0 1 1746.56 322)">Medium</text>
  <text style="stroke:none;fill:black;font-family:-apple-system,&quot;SF Pro Display&quot;,&quot;SF Pro Text&quot;,Helvetica,sans-serif;text-anchor:middle;" transform="matrix(1 0 0 1 2043.27 322)">Semibold</text>
  <text style="stroke:none;fill:black;font-family:-apple-system,&quot;SF Pro Display&quot;,&quot;SF Pro Text&quot;,Helvetica,sans-serif;text-anchor:middle;" transform="matrix(1 0 0 1 2339.98 322)">Bold</text>
  <text style="stroke:none;fill:black;font-family:-apple-system,&quot;SF Pro Display&quot;,&quot;SF Pro Text&quot;,Helvetica,sans-serif;text-anchor:middle;" transform="matrix(1 0 0 1 2636.69 322)">Heavy</text>
  <text style="stroke:none;fill:black;font-family:-apple-system,&quot;SF Pro Display&quot;,&quot;SF Pro Text&quot;,Helvetica,sans-serif;text-anchor:middle;" transform="matrix(1 0 0 1 2933.4 322)">Black</text>
  <line id="" style="fill:none;stroke:black;opacity:1;stroke-width:0.5;" x1="263" x2="3036" y1="1903" y2="1903"/>
  <g id="" transform="matrix(1 0 0 1 263 1933)">
   <path d="M 9.24805 0.830078 C 13.5547 0.830078 17.1387 -2.74414 17.1387 -7.05078 C 17.1387 -11.3574 13.5449 -14.9316 9.23828 -14.9316 C 4.94141 -14.9316 1.36719 -11.3574 1.36719 -7.05078 C 1.36719 -2.74414 4.95117 0.830078 9.24805 0.830078 Z M 9.24805 -0.654297 C 5.70312 -0.654297 2.87109 -3.49609 2.87109 -7.05078 C 2.87109 -10.6055 5.69336 -13.4473 9.23828 -13.4473 C 12.793 -13.4473 15.6348 -10.6055 15.6445 -7.05078 C 15.6543 -3.49609 12.8027 -0.654297 9.24805 -0.654297 Z M 9.22852 -3.42773 C 9.69727 -3.42773 9.9707 -3.74023 9.9707 -4.25781 L 9.9707 -6.31836 L 12.1973 -6.31836 C 12.6953 -6.31836 13.0371 -6.57227 13.0371 -7.04102 C 13.0371 -7.51953 12.7148 -7.7832 12.1973 -7.7832 L 9.9707 -7.7832 L 9.9707 -10.0098 C 9.9707 -10.5273 9.69727 -10.8496 9.22852 -10.8496 C 8.75977 -10.8496 8.50586 -10.5078 8.50586 -10.0098 L 8.50586 -7.7832 L 6.29883 -7.7832 C 5.78125 -7.7832 5.44922 -7.51953 5.44922 -7.04102 C 5.44922 -6.57227 5.80078 -6.31836 6.29883 -6.31836 L 8.50586 -6.31836 L 8.50586 -4.25781 C 8.50586 -3.75977 8.75977 -3.42773 9.22852 -3.42773 Z"/>
  </g>
  <g id="" transform="matrix(1 0 0 1 281.506 1933)">
   <path d="M 11.709 2.91016 C 17.1582 2.91016 21.6699 -1.60156 21.6699 -7.05078 C 21.6699 -12.4902 17.1484 -17.0117 11.6992 -17.0117 C 6.25977 -17.0117 1.74805 -12.4902 1.74805 -7.05078 C 1.74805 -1.60156 6.26953 2.91016 11.709 2.91016 Z M 11.709 1.25 C 7.09961 1.25 3.41797 -2.44141 3.41797 -7.05078 C 3.41797 -11.6504 7.08984 -15.3516 11.6992 -15.3516 C 16.3086 -15.3516 20 -11.6504 20.0098 -7.05078 C 20.0195 -2.44141 16.3184 1.25 11.709 1.25 Z M 11.6895 -2.41211 C 12.207 -2.41211 12.5195 -2.77344 12.5195 -3.33984 L 12.5195 -6.23047 L 15.5762 -6.23047 C 16.123 -6.23047 16.5039 -6.51367 16.5039 -7.03125 C 16.5039 -7.55859 16.1426 -7.86133 15.5762 -7.86133 L 12.5195 -7.86133 L 12.5195 -10.9277 C 12.5195 -11.5039 12.207 -11.8555 11.6895 -11.8555 C 11.1719 -11.8555 10.8789 -11.4844 10.8789 -10.9277 L 10.8789 -7.86133 L 7.83203 -7.86133 C 7.26562 -7.86133 6.89453 -7.55859 6.89453 -7.03125 C 6.89453 -6.51367 7.28516 -6.23047 7.83203 -6.23047 L 10.8789 -6.23047 L 10.8789 -3.33984 C 10.8789 -2.79297 11.1719 -2.41211 11.6895 -2.41211 Z"/>
  </g>
  <g id="" transform="matrix(1 0 0 1 304.924 1933)">
   <path d="M 14.9707 5.67383 C 21.9336 5.67383 27.6953 -0.078125 27.6953 -7.04102 C 27.6953 -14.0039 21.9238 -19.7559 14.9609 -19.7559 C 8.00781 -19.7559 2.25586 -14.0039 2.25586 -7.04102 C 2.25586 -0.078125 8.01758 5.67383 14.9707 5.67383 Z M 14.9707 3.85742 C 8.93555 3.85742 4.08203 -1.00586 4.08203 -7.04102 C 4.08203 -13.0762 8.92578 -17.9395 14.9609 -17.9395 C 21.0059 -17.9395 25.8594 -13.0762 25.8691 -7.04102 C 25.8789 -1.00586 21.0156 3.85742 14.9707 3.85742 Z M 14.9512 -1.06445 C 15.5176 -1.06445 15.8691 -1.45508 15.8691 -2.06055 L 15.8691 -6.13281 L 20.1074 -6.13281 C 20.6934 -6.13281 21.1133 -6.46484 21.1133 -7.02148 C 21.1133 -7.59766 20.7227 -7.93945 20.1074 -7.93945 L 15.8691 -7.93945 L 15.8691 -12.1875 C 15.8691 -12.8027 15.5176 -13.1934 14.9512 -13.1934 C 14.3848 -13.1934 14.0625 -12.7832 14.0625 -12.1875 L 14.0625 -7.93945 L 9.83398 -7.93945 C 9.21875 -7.93945 8.80859 -7.59766 8.80859 -7.02148 C 8.80859 -6.46484 9.23828 -6.13281 9.83398 -6.13281 L 14.0625 -6.13281 L 14.0625 -2.06055 C 14.0625 -1.47461 14.3848 -1.06445 14.9512 -1.06445 Z"/>
  </g>
  <text style="stroke:none;fill:black;font-family:-apple-system,&quot;SF Pro Display&quot;,&quot;SF Pro Text&quot;,Helvetica,sans-serif;font-weight:bold;" transform="matrix(1 0 0 1 263 1953)">Design Variations</text>
  <text style="stroke:none;fill:black;font-family:-apple-system,&quot;SF Pro Display&quot;,&quot;SF Pro Text&quot;,Helvetica,sans-serif;" transform="matrix(1 0 0 1 263 1971)">Symbols are supported in up to nine weights and three scales.</text>
  <text style="stroke:none;fill:black;font-family:-apple-system,&quot;SF Pro Display&quot;,&quot;SF Pro Text&quot;,Helvetica,sans-serif;" transform="matrix(1 0 0 1 263 1989)">For optimal layout with text and other symbols, vertically align</text>
  <text style="stroke:none;fill:black;font-family:-apple-system,&quot;SF Pro Display&quot;,&quot;SF Pro Text&quot;,Helvetica,sans-serif;" transform="matrix(1 0 0 1 263 2007)">symbols with the adjacent text.</text>
  <rect height="14" id="" style="fill:#00AEEF;stroke:none;opacity:0.4;" width="3" x="776" y="1919"/>
  <g id="" transform="matrix(1 0 0 1 779 1933)">
   <path d="M 10.5273 0 L 12.373 0 L 7.17773 -14.0918 L 5.43945 -14.0918 L 0.244141 0 L 2.08984 0 L 3.50586 -4.0332 L 9.11133 -4.0332 Z M 6.2793 -11.9531 L 6.33789 -11.9531 L 8.59375 -5.52734 L 4.02344 -5.52734 Z"/>
  </g>
  <rect height="14" id="" style="fill:#00AEEF;stroke:none;opacity:0.4;" width="3" x="791.617" y="1919"/>
  <text style="stroke:none;fill:black;font-family:-apple-system,&quot;SF Pro Display&quot;,&quot;SF Pro Text&quot;,Helvetica,sans-serif;font-weight:bold;" transform="matrix(1 0 0 1 776 1953)">Margins</text>
  <text style="stroke:none;fill:black;font-family:-apple-system,&quot;SF Pro Display&quot;,&quot;SF Pro Text&quot;,Helvetica,sans-serif;" transform="matrix(1 0 0 1 776 1971)">Leading and trailing margins on the left and right side of each symbol</text>
  <text style="stroke:none;fill:black;font-family:-apple-system,&quot;SF Pro Display&quot;,&quot;SF Pro Text&quot;,Helvetica,sans-serif;" transform="matrix(1 0 0 1 776 1989)">can be adjusted by modifying the width of the blue rectangles.</text>
  <text style="stroke:none;fill:black;font-family:-apple-system,&quot;SF Pro Display&quot;,&quot;SF Pro Text&quot;,Helvetica,sans-serif;" transform="matrix(1 0 0 1 776 2007)">Modifications are automatically applied proportionally to all</text>
  <text style="stroke:none;fill:black;font-family:-apple-system,&quot;SF Pro Display&quot;,&quot;SF Pro Text&quot;,Helvetica,sans-serif;" transform="matrix(1 0 0 1 776 2025)">scales and weights.</text>
  <g id="" transform="matrix(1 0 0 1 1289 1933)">
   <path d="M 2.83203 3.11523 L 4.375 4.6582 C 5.22461 5.48828 6.19141 5.41992 7.06055 4.46289 L 17.2754 -6.66016 C 17.7051 -6.36719 18.0957 -6.37695 18.5645 -6.47461 L 19.6094 -6.68945 L 20.3027 -5.99609 L 20.2539 -5.47852 C 20.1855 -4.95117 20.3516 -4.53125 20.8496 -4.0332 L 21.6602 -3.22266 C 22.168 -2.71484 22.8223 -2.68555 23.3008 -3.16406 L 26.5527 -6.41602 C 27.0312 -6.89453 27.0117 -7.54883 26.5039 -8.05664 L 25.6836 -8.87695 C 25.1855 -9.375 24.7754 -9.55078 24.2383 -9.47266 L 23.7109 -9.41406 L 23.0566 -10.0781 L 23.3398 -11.2207 C 23.4863 -11.7871 23.3398 -12.2559 22.7148 -12.8613 L 20.3027 -15.2539 C 16.7578 -18.7793 12.2266 -18.6719 9.11133 -15.5371 C 8.69141 -15.1074 8.64258 -14.5215 8.91602 -14.0918 C 9.15039 -13.7207 9.62891 -13.4961 10.2734 -13.6621 C 11.7871 -14.043 13.3008 -13.9258 14.7852 -12.9199 L 14.1602 -11.3379 C 13.9258 -10.752 13.9453 -10.2734 14.1797 -9.83398 L 3.01758 0.439453 C 2.08008 1.30859 1.97266 2.25586 2.83203 3.11523 Z M 10.6738 -15.1465 C 13.3398 -17.1387 16.6504 -16.8262 19.0527 -14.4141 L 21.6797 -11.8066 C 21.9141 -11.5723 21.9434 -11.3867 21.8848 -11.0938 L 21.5039 -9.53125 L 23.0762 -7.95898 L 24.043 -8.04688 C 24.3262 -8.07617 24.4141 -8.05664 24.6387 -7.83203 L 25.2637 -7.20703 L 22.5098 -4.46289 L 21.8848 -5.07812 C 21.6602 -5.30273 21.6406 -5.40039 21.6699 -5.68359 L 21.7578 -6.64062 L 20.1953 -8.20312 L 18.5742 -7.89062 C 18.291 -7.83203 18.1445 -7.83203 17.9102 -8.07617 L 15.7324 -10.2539 C 15.5078 -10.4883 15.4785 -10.625 15.6055 -10.9473 L 16.5527 -13.2227 C 14.9512 -14.7559 12.8418 -15.6055 10.8008 -14.9512 C 10.7129 -14.9219 10.6445 -14.9414 10.6152 -14.9805 C 10.5859 -15.0293 10.5859 -15.0781 10.6738 -15.1465 Z M 4.10156 2.41211 C 3.61328 1.91406 3.78906 1.61133 4.12109 1.30859 L 15.0781 -8.80859 L 16.3086 -7.57812 L 6.15234 3.34961 C 5.84961 3.68164 5.46875 3.7793 5.06836 3.37891 Z"/>
  </g>
  <text style="stroke:none;fill:black;font-family:-apple-system,&quot;SF Pro Display&quot;,&quot;SF Pro Text&quot;,Helvetica,sans-serif;font-weight:bold;" transform="matrix(1 0 0 1 1289 1953)">Exporting</text>
  <text style="stroke:none;fill:black;font-family:-apple-system,&quot;SF Pro Display&quot;,&quot;SF Pro Text&quot;,Helvetica,sans-serif;" transform="matrix(1 0 0 1 1289 1971)">Symbols should be outlined when exporting to ensure the</text>
  <text style="stroke:none;fill:black;font-family:-apple-system,&quot;SF Pro Display&quot;,&quot;SF Pro Text&quot;,Helvetica,sans-serif;" transform="matrix(1 0 0 1 1289 1989)">design is preserved when submitting to Xcode.</text>
  <text id="template-version" style="stroke:none;fill:black;font-family:-apple-system,&quot;SF Pro Display&quot;,&quot;SF Pro Text&quot;,Helvetica,sans-serif;text-anchor:end;" transform="matrix(1 0 0 1 3036 1933)">Template v.1.0</text>
  <text style="stroke:none;fill:black;font-family:-apple-system,&quot;SF Pro Display&quot;,&quot;SF Pro Text&quot;,Helvetica,sans-serif;text-anchor:end;" transform="matrix(1 0 0 1 3036 1951)">Generated from ellipses.bubble.fill</text>
  <text style="stroke:none;fill:black;font-family:-apple-system,&quot;SF Pro Display&quot;,&quot;SF Pro Text&quot;,Helvetica,sans-serif;text-anchor:end;" transform="matrix(1 0 0 1 3036 1969)">Typeset at 100 points</text>
  <text style="stroke:none;fill:black;font-family:-apple-system,&quot;SF Pro Display&quot;,&quot;SF Pro Text&quot;,Helvetica,sans-serif;" transform="matrix(1 0 0 1 263 726)">Small</text>
  <text style="stroke:none;fill:black;font-family:-apple-system,&quot;SF Pro Display&quot;,&quot;SF Pro Text&quot;,Helvetica,sans-serif;" transform="matrix(1 0 0 1 263 1156)">Medium</text>
  <text style="stroke:none;fill:black;font-family:-apple-system,&quot;SF Pro Display&quot;,&quot;SF Pro Text&quot;,Helvetica,sans-serif;" transform="matrix(1 0 0 1 263 1586)">Large</text>
 </g>
 <g id="Guides">
  <g id="H-reference" style="fill:#27AAE1;stroke:none;" transform="matrix(1 0 0 1 339 696)">
   <path d="M 54.9316 0 L 57.666 0 L 30.5664 -70.459 L 28.0762 -70.459 L 0.976562 0 L 3.66211 0 L 12.9395 -24.4629 L 45.7031 -24.4629 Z M 29.1992 -67.0898 L 29.4434 -67.0898 L 44.8242 -26.709 L 13.8184 -26.709 Z"/>
  </g>
  <line id="Baseline-S" style="fill:none;stroke:#27AAE1;opacity:1;stroke-width:0.577;" x1="263" x2="3036" y1="696" y2="696"/>
  <line id="Capline-S" style="fill:none;stroke:#27AAE1;opacity:1;stroke-width:0.577;" x1="263" x2="3036" y1="625.541" y2="625.541"/>
  <g id="H-reference" style="fill:#27AAE1;stroke:none;" transform="matrix(1 0 0 1 339 1126)">
   <path d="M 54.9316 0 L 57.666 0 L 30.5664 -70.459 L 28.0762 -70.459 L 0.976562 0 L 3.66211 0 L 12.9395 -24.4629 L 45.7031 -24.4629 Z M 29.1992 -67.0898 L 29.4434 -67.0898 L 44.8242 -26.709 L 13.8184 -26.709 Z"/>
  </g>
  <line id="Baseline-M" style="fill:none;stroke:#27AAE1;opacity:1;stroke-width:0.577;" x1="263" x2="3036" y1="1126" y2="1126"/>
  <line id="Capline-M" style="fill:none;stroke:#27AAE1;opacity:1;stroke-width:0.577;" x1="263" x2="3036" y1="1055.54" y2="1055.54"/>
  <g id="H-reference" style="fill:#27AAE1;stroke:none;" transform="matrix(1 0 0 1 339 1556)">
   <path d="M 54.9316 0 L 57.666 0 L 30.5664 -70.459 L 28.0762 -70.459 L 0.976562 0 L 3.66211 0 L 12.9395 -24.4629 L 45.7031 -24.4629 Z M 29.1992 -67.0898 L 29.4434 -67.0898 L 44.8242 -26.709 L 13.8184 -26.709 Z"/>
  </g>
  <line id="Baseline-L" style="fill:none;stroke:#27AAE1;opacity:1;stroke-width:0.577;" x1="263" x2="3036" y1="1556" y2="1556"/>
  <line id="Capline-L" style="fill:none;stroke:#27AAE1;opacity:1;stroke-width:0.577;" x1="263" x2="3036" y1="1485.54" y2="1485.54"/>
  <rect height="119.336" id="left-margin" style="fill:#00AEEF;stroke:none;opacity:0.4;" width="12.4512" x="1383.58" y="1030.79"/>
  <rect height="119.336" id="right-margin" style="fill:#00AEEF;stroke:none;opacity:0.4;" width="12.4512" x="1503.65" y="1030.79"/>
 </g>
 <g id="Symbols">
  <g id="Black-L" transform="matrix(1 0 0 1 2846.24 1556)">
   <path d="M 55.1758 39.0625 C 58.3496 39.0625 60.9863 37.8418 64.8926 34.375 L 89.4043 12.8418 L 125.83 12.8418 C 145.703 12.8906 158.252 0.195312 158.252 -19.5801 L 158.252 -70.1172 C 158.252 -89.8926 145.703 -102.539 125.83 -102.539 L 48.4863 -102.539 C 28.6133 -102.539 16.0645 -89.8926 16.0645 -70.1172 L 16.0645 -19.5801 C 16.0645 0.195312 29.7852 12.8418 46.7285 12.8418 L 47.6562 12.8418 L 47.6562 30.8105 C 47.6562 35.9375 50.5371 39.0625 55.1758 39.0625 Z M 65.4785 -41.9434 C 65.4785 -35.6934 60.1074 -30.5664 54.0527 -30.5664 C 47.7539 -30.5664 42.5293 -35.6934 42.5293 -41.9434 C 42.5293 -48.0957 47.7539 -53.3203 54.0527 -53.3203 C 60.1074 -53.3203 65.4785 -48.0957 65.4785 -41.9434 Z M 98.5352 -41.9434 C 98.5352 -35.6934 93.4082 -30.5664 87.1582 -30.5664 C 80.957 -30.5664 75.8301 -35.6934 75.8301 -41.9434 C 75.8301 -48.0957 80.957 -53.3203 87.1582 -53.3203 C 93.4082 -53.3203 98.5352 -48.0957 98.5352 -41.9434 Z M 131.836 -41.9434 C 131.836 -35.6934 126.611 -30.5664 120.264 -30.5664 C 114.258 -30.5664 108.838 -35.6934 108.838 -41.9434 C 108.838 -48.0957 114.258 -53.3203 120.264 -53.3203 C 126.611 -53.3203 131.836 -48.0957 131.836 -41.9434 Z"/>
  </g>
  <g id="Heavy-L" transform="matrix(1 0 0 1 2550.07 1556)">
   <path d="M 54.4434 37.6953 C 57.4219 37.6953 59.8145 36.5234 63.3789 33.3008 L 87.5 12.0117 L 125.879 12.0117 C 145.264 12.0605 157.178 -0.0488281 157.178 -19.2383 L 157.178 -69.6289 C 157.178 -88.8184 145.264 -100.879 125.879 -100.879 L 47.3145 -100.879 C 27.9785 -100.879 16.0645 -88.8672 16.0645 -69.6289 L 16.0645 -19.2383 C 16.0645 0 28.8574 12.0117 45.9961 12.0117 L 47.5586 12.0117 L 47.5586 30.0781 C 47.5586 34.7656 50.1465 37.6953 54.4434 37.6953 Z M 65.0879 -41.6504 C 65.0879 -35.8398 60.0098 -30.9082 54.248 -30.9082 C 48.3398 -30.9082 43.4082 -35.8398 43.4082 -41.6504 C 43.4082 -47.4609 48.291 -52.4414 54.248 -52.4414 C 60.0098 -52.4414 65.0879 -47.4609 65.0879 -41.6504 Z M 97.5586 -41.6504 C 97.5586 -35.8398 92.6758 -30.9082 86.8164 -30.9082 C 80.957 -30.9082 76.0742 -35.8398 76.0742 -41.6504 C 76.0742 -47.4609 80.9082 -52.4414 86.8164 -52.4414 C 92.6758 -52.4414 97.5586 -47.4609 97.5586 -41.6504 Z M 130.225 -41.6504 C 130.225 -35.8398 125.293 -30.9082 119.336 -30.9082 C 113.623 -30.9082 108.545 -35.8398 108.545 -41.6504 C 108.545 -47.4609 113.574 -52.4414 119.336 -52.4414 C 125.293 -52.4414 130.225 -47.4609 130.225 -41.6504 Z"/>
  </g>
  <g id="Bold-L" transform="matrix(1 0 0 1 2253.97 1556)">
   <path d="M 53.6621 36.1816 C 56.3477 36.1816 58.4473 35.0098 61.6699 32.0801 L 85.3027 11.0352 L 125.977 11.084 C 144.727 11.1328 155.957 -0.292969 155.957 -18.8965 L 155.957 -69.043 C 155.957 -87.6465 144.727 -99.0234 125.977 -99.0234 L 46.0449 -99.0234 C 27.2461 -99.0234 16.0645 -87.6953 16.0645 -69.043 L 16.0645 -18.8965 C 16.0645 -0.244141 27.832 11.084 45.166 11.0352 L 47.4121 11.0352 L 47.4121 29.1992 C 47.4121 33.4961 49.7559 36.1816 53.6621 36.1816 Z M 64.5996 -41.3574 C 64.5996 -35.9375 59.8633 -31.3477 54.4922 -31.3477 C 48.9746 -31.3477 44.3848 -35.9375 44.3848 -41.3574 C 44.3848 -46.8262 48.877 -51.4648 54.4922 -51.4648 C 59.8633 -51.4648 64.5996 -46.7773 64.5996 -41.3574 Z M 96.4355 -41.3574 C 96.4355 -35.9375 91.8457 -31.3477 86.377 -31.3477 C 80.957 -31.3477 76.3672 -35.9375 76.3672 -41.3574 C 76.3672 -46.8262 80.8594 -51.4648 86.377 -51.4648 C 91.8457 -51.4648 96.4355 -46.7773 96.4355 -41.3574 Z M 128.418 -41.3574 C 128.418 -35.9375 123.828 -31.3477 118.311 -31.3477 C 112.939 -31.3477 108.203 -35.9375 108.203 -41.3574 C 108.203 -46.8262 112.842 -51.4648 118.311 -51.4648 C 123.828 -51.4648 128.418 -46.7773 128.418 -41.3574 Z"/>
  </g>
  <g id="Semibold-L" transform="matrix(1 0 0 1 1957.7 1556)">
   <path d="M 53.0762 35.1074 C 55.6152 35.1074 57.5195 33.9355 60.4492 31.25 L 83.8379 10.4004 L 126.025 10.4492 C 144.385 10.498 155.078 -0.439453 155.078 -18.6035 L 155.078 -68.6523 C 155.078 -86.8164 144.385 -97.7539 126.025 -97.7539 L 45.166 -97.7539 C 26.7578 -97.7539 16.0645 -86.8652 16.0645 -68.6523 L 16.0645 -18.6035 C 16.0645 -0.390625 27.1484 10.4492 44.5801 10.4004 L 47.3633 10.4004 L 47.3633 28.6133 C 47.3633 32.5684 49.5117 35.1074 53.0762 35.1074 Z M 64.2578 -41.1621 C 64.2578 -36.0352 59.7656 -31.5918 54.6387 -31.5918 C 49.4141 -31.5918 45.0195 -36.0352 45.0195 -41.1621 C 45.0195 -46.3379 49.3164 -50.7812 54.6387 -50.7812 C 59.7656 -50.7812 64.2578 -46.3379 64.2578 -41.1621 Z M 95.6543 -41.1621 C 95.6543 -36.0352 91.3086 -31.5918 86.084 -31.5918 C 80.957 -31.5918 76.5625 -36.0352 76.5625 -41.1621 C 76.5625 -46.3379 80.8594 -50.7812 86.084 -50.7812 C 91.3086 -50.7812 95.6543 -46.3379 95.6543 -41.1621 Z M 127.197 -41.1621 C 127.197 -36.0352 122.803 -31.5918 117.578 -31.5918 C 112.451 -31.5918 107.959 -36.0352 107.959 -41.1621 C 107.959 -46.3379 112.354 -50.7812 117.578 -50.7812 C 122.803 -50.7812 127.197 -46.3379 127.197 -41.1621 Z"/>
  </g>
  <g id="Medium-L" transform="matrix(1 0 0 1 1661.3 1556)">
   <path d="M 52.6855 34.3262 C 55.0293 34.3262 56.7871 33.1543 59.5703 30.6152 L 82.7148 9.91211 L 126.025 9.96094 C 144.092 10.0098 154.443 -0.585938 154.443 -18.457 L 154.443 -68.3594 C 154.443 -86.2305 144.092 -96.7773 126.025 -96.7773 L 44.4824 -96.7773 C 26.3672 -96.7773 16.0645 -86.2793 16.0645 -68.3594 L 16.0645 -18.457 C 16.0645 -0.537109 26.6113 9.96094 44.1406 9.91211 L 47.2656 9.91211 L 47.2656 28.1738 C 47.2656 31.8848 49.3164 34.3262 52.6855 34.3262 Z M 64.0137 -41.0156 C 64.0137 -36.084 59.7168 -31.7871 54.7363 -31.7871 C 49.7559 -31.7871 45.5566 -36.084 45.5566 -41.0156 C 45.5566 -45.9961 49.6094 -50.293 54.7363 -50.293 C 59.7168 -50.293 64.0137 -45.9473 64.0137 -41.0156 Z M 95.1172 -41.0156 C 95.1172 -36.084 90.8691 -31.7871 85.8887 -31.7871 C 80.957 -31.7871 76.709 -36.084 76.709 -41.0156 C 76.709 -45.9961 80.8105 -50.293 85.8887 -50.293 C 90.8691 -50.293 95.1172 -45.9473 95.1172 -41.0156 Z M 126.27 -41.0156 C 126.27 -36.084 122.021 -31.7871 117.041 -31.7871 C 112.109 -31.7871 107.764 -36.084 107.764 -41.0156 C 107.764 -45.9961 111.963 -50.293 117.041 -50.293 C 122.021 -50.293 126.27 -45.9473 126.27 -41.0156 Z"/>
  </g>
  <g id="Regular-L" transform="matrix(1 0 0 1 1365.01 1556)">
   <path d="M 52.1484 33.252 C 54.2969 33.252 55.9082 32.1289 58.3984 29.834 L 81.2012 9.27734 L 126.074 9.32617 C 143.75 9.375 153.613 -0.78125 153.613 -18.1641 L 153.613 -67.9688 C 153.613 -85.4004 143.75 -95.5078 126.074 -95.5078 L 43.6035 -95.5078 C 25.8789 -95.5078 16.0645 -85.4492 16.0645 -67.9688 L 16.0645 -18.1641 C 16.0645 -0.683594 25.8789 9.32617 43.6035 9.27734 L 47.2168 9.27734 L 47.2168 27.5879 C 47.2168 31.0059 49.0234 33.252 52.1484 33.252 Z M 63.7207 -40.8203 C 63.7207 -36.1816 59.6191 -32.0801 54.9316 -32.0801 C 50.1953 -32.0801 46.1914 -36.1816 46.1914 -40.8203 C 46.1914 -45.5566 50.0488 -49.6582 54.9316 -49.6582 C 59.6191 -49.6582 63.7207 -45.5078 63.7207 -40.8203 Z M 94.3359 -40.8203 C 94.3359 -36.1816 90.2832 -32.0801 85.5957 -32.0801 C 80.957 -32.0801 76.9043 -36.1816 76.9043 -40.8203 C 76.9043 -45.5566 80.8105 -49.6582 85.5957 -49.6582 C 90.2832 -49.6582 94.3359 -45.5078 94.3359 -40.8203 Z M 125.049 -40.8203 C 125.049 -36.1816 121.045 -32.0801 116.309 -32.0801 C 111.621 -32.0801 107.568 -36.1816 107.568 -40.8203 C 107.568 -45.5566 111.475 -49.6582 116.309 -49.6582 C 121.045 -49.6582 125.049 -45.5078 125.049 -40.8203 Z"/>
  </g>
  <g id="Light-L" transform="matrix(1 0 0 1 1069.2 1556)">
   <path d="M 50.293 31.7871 C 52.0508 31.7871 53.3691 30.8105 55.2734 29.1016 L 78.125 8.93555 L 126.074 8.98438 C 142.334 9.0332 151.807 -0.683594 151.807 -16.6992 L 151.807 -68.6035 C 151.807 -84.6191 142.334 -94.2871 126.074 -94.2871 L 41.7969 -94.2871 C 25.5371 -94.2871 16.0645 -84.7168 16.0645 -68.6035 L 16.0645 -16.6992 C 16.0645 -0.585938 25.5371 8.98438 41.7969 8.93555 L 46.2891 8.93555 L 46.2891 27.2461 C 46.2891 29.9805 47.8516 31.7871 50.293 31.7871 Z M 63.5742 -40.8203 C 63.5742 -36.6699 59.8633 -32.9102 55.6152 -32.9102 C 51.416 -32.9102 47.7539 -36.6699 47.7539 -40.8203 C 47.7539 -45.166 51.1719 -48.8281 55.6152 -48.8281 C 59.8633 -48.8281 63.5742 -45.0684 63.5742 -40.8203 Z M 93.0664 -40.8203 C 93.0664 -36.6699 89.4043 -32.9102 85.1562 -32.9102 C 81.0059 -32.9102 77.2949 -36.6699 77.2949 -40.8203 C 77.2949 -45.166 80.7129 -48.8281 85.1562 -48.8281 C 89.4043 -48.8281 93.0664 -45.0684 93.0664 -40.8203 Z M 122.607 -40.8203 C 122.607 -36.6699 118.945 -32.9102 114.697 -32.9102 C 110.498 -32.9102 106.787 -36.6699 106.787 -40.8203 C 106.787 -45.166 110.254 -48.8281 114.697 -48.8281 C 118.945 -48.8281 122.607 -45.0684 122.607 -40.8203 Z"/>
  </g>
  <g id="Thin-L" transform="matrix(1 0 0 1 773.683 1556)">
   <path d="M 47.8516 29.834 C 49.0234 29.834 50 29.1016 51.123 28.1738 L 74.0234 8.49609 L 126.074 8.54492 C 140.43 8.54492 149.414 -0.634766 149.414 -14.7949 L 149.414 -69.3848 C 149.414 -83.5449 140.43 -92.7246 126.074 -92.7246 L 39.3555 -92.7246 C 25.0488 -92.7246 16.0645 -83.6914 16.0645 -69.3848 L 16.0645 -14.7949 C 16.0645 -0.488281 25.0488 8.54492 39.3555 8.49609 L 45.0684 8.49609 L 45.0684 26.709 C 45.0684 28.6133 46.2402 29.834 47.8516 29.834 Z M 63.3789 -40.8203 C 63.3789 -37.3535 60.2051 -34.0332 56.5918 -34.0332 C 53.0273 -34.0332 49.8535 -37.3535 49.8535 -40.8203 C 49.8535 -44.6777 52.6855 -47.7051 56.5918 -47.7051 C 60.2051 -47.7051 63.3789 -44.4824 63.3789 -40.8203 Z M 91.4062 -40.8203 C 91.4062 -37.3535 88.1836 -34.0332 84.5703 -34.0332 C 81.0547 -34.0332 77.832 -37.3535 77.832 -40.8203 C 77.832 -44.6777 80.6641 -47.7051 84.5703 -47.7051 C 88.1836 -47.7051 91.4062 -44.4824 91.4062 -40.8203 Z M 119.385 -40.8203 C 119.385 -37.3535 116.211 -34.0332 112.549 -34.0332 C 109.033 -34.0332 105.811 -37.3535 105.811 -40.8203 C 105.811 -44.6777 108.643 -47.7051 112.549 -47.7051 C 116.211 -47.7051 119.385 -44.4824 119.385 -40.8203 Z"/>
  </g>
  <g id="Ultralight-L" transform="matrix(1 0 0 1 477.607 1556)">
   <path d="M 46.582 28.8086 C 47.5098 28.8086 48.291 28.2227 48.9746 27.7344 L 71.9238 8.30078 L 126.074 8.30078 C 139.453 8.30078 148.145 -0.585938 148.145 -13.8184 L 148.145 -69.8242 C 148.145 -83.0078 139.453 -91.8945 126.074 -91.8945 L 38.1348 -91.8945 C 24.8047 -91.8945 16.0645 -83.2031 16.0645 -69.8242 L 16.0645 -13.8184 C 16.0645 -0.439453 24.8047 8.30078 38.1348 8.30078 L 44.4824 8.30078 L 44.4824 26.4648 C 44.4824 27.9297 45.4102 28.8086 46.582 28.8086 Z M 63.3301 -40.8203 C 63.3301 -37.6953 60.4004 -34.5703 57.0801 -34.5703 C 53.8574 -34.5703 50.9277 -37.6953 50.9277 -40.8203 C 50.9277 -44.3848 53.418 -47.1191 57.0801 -47.1191 C 60.4004 -47.1191 63.3301 -44.2383 63.3301 -40.8203 Z M 90.5273 -40.8203 C 90.5273 -37.6953 87.5977 -34.5703 84.2773 -34.5703 C 81.0547 -34.5703 78.125 -37.6953 78.125 -40.8203 C 78.125 -44.3848 80.6152 -47.1191 84.2773 -47.1191 C 87.5977 -47.1191 90.5273 -44.2383 90.5273 -40.8203 Z M 117.725 -40.8203 C 117.725 -37.6953 114.795 -34.5703 111.475 -34.5703 C 108.252 -34.5703 105.322 -37.6953 105.322 -40.8203 C 105.322 -44.3848 107.812 -47.1191 111.475 -47.1191 C 114.795 -47.1191 117.725 -44.2383 117.725 -40.8203 Z"/>
  </g>
  <g id="Black-M" transform="matrix(1 0 0 1 2865.58 1126)">
   <path d="M 42.7246 23.3887 C 45.3125 23.3887 47.5586 22.5586 50.6836 19.7754 L 70.2637 2.97852 L 97.4609 2.97852 C 112.793 2.97852 123.193 -7.42188 123.193 -22.7539 L 123.193 -63.2812 C 123.193 -78.6133 112.793 -89.0137 97.4609 -89.0137 L 38.1836 -89.0137 C 22.8516 -89.0137 12.4512 -78.6133 12.4512 -63.2812 L 12.4512 -22.7539 C 12.4512 -7.42188 24.1211 2.97852 36.2793 2.97852 L 36.6211 2.97852 L 36.6211 16.7969 C 36.6211 20.8984 38.9648 23.3887 42.7246 23.3887 Z M 51.2695 -40.7715 C 51.2695 -35.6934 46.875 -31.5918 41.9922 -31.5918 C 36.8652 -31.5918 32.6172 -35.6934 32.6172 -40.7715 C 32.6172 -45.8008 36.8652 -49.9512 41.9922 -49.9512 C 46.875 -49.9512 51.2695 -45.8008 51.2695 -40.7715 Z M 77.002 -40.7715 C 77.002 -35.6934 72.9004 -31.5918 67.8223 -31.5918 C 62.7441 -31.5918 58.6426 -35.6934 58.6426 -40.7715 C 58.6426 -45.8008 62.7441 -49.9512 67.8223 -49.9512 C 72.9004 -49.9512 77.002 -45.8008 77.002 -40.7715 Z M 103.027 -40.7715 C 103.027 -35.6934 98.7793 -31.5918 93.6523 -31.5918 C 88.7695 -31.5918 84.375 -35.6934 84.375 -40.7715 C 84.375 -45.8008 88.7695 -49.9512 93.6523 -49.9512 C 98.7793 -49.9512 103.027 -45.8008 103.027 -40.7715 Z"/>
  </g>
  <g id="Heavy-M" transform="matrix(1 0 0 1 2569.23 1126)">
   <path d="M 42.4316 22.3145 C 44.873 22.3145 46.875 21.3867 49.8047 18.7988 L 68.9453 2.14844 L 97.5098 2.14844 C 112.646 2.14844 122.461 -7.71484 122.461 -22.8027 L 122.461 -62.5488 C 122.461 -77.6367 112.646 -87.5 97.5098 -87.5 L 37.4023 -87.5 C 22.2656 -87.5 12.4512 -77.6367 12.4512 -62.5488 L 12.4512 -22.8027 C 12.4512 -7.71484 23.2422 2.14844 35.9375 2.14844 L 36.7188 2.14844 L 36.7188 16.0645 C 36.7188 19.9219 38.916 22.3145 42.4316 22.3145 Z M 50.8301 -40.4785 C 50.8301 -35.6934 46.6797 -31.7383 42.041 -31.7383 C 37.207 -31.7383 33.1543 -35.6934 33.1543 -40.4785 C 33.1543 -45.2148 37.1582 -49.2188 42.041 -49.2188 C 46.6797 -49.2188 50.8301 -45.2148 50.8301 -40.4785 Z M 76.2695 -40.4785 C 76.2695 -35.6934 72.3145 -31.7383 67.5293 -31.7383 C 62.7441 -31.7383 58.7891 -35.6934 58.7891 -40.4785 C 58.7891 -45.2148 62.7441 -49.2188 67.5293 -49.2188 C 72.3145 -49.2188 76.2695 -45.2148 76.2695 -40.4785 Z M 101.904 -40.4785 C 101.904 -35.6934 97.8516 -31.7383 93.0176 -31.7383 C 88.3789 -31.7383 84.2285 -35.6934 84.2285 -40.4785 C 84.2285 -45.2148 88.3789 -49.2188 93.0176 -49.2188 C 97.8516 -49.2188 101.904 -45.2148 101.904 -40.4785 Z"/>
  </g>
  <g id="Bold-M" transform="matrix(1 0 0 1 2272.94 1126)">
   <path d="M 42.0898 21.0449 C 44.3359 21.0449 46.1426 20.1172 48.877 17.6758 L 67.4805 1.2207 L 97.5586 1.2207 C 112.5 1.26953 121.631 -8.00781 121.631 -22.8027 L 121.631 -61.7676 C 121.631 -76.5625 112.5 -85.791 97.5586 -85.791 L 36.4746 -85.791 C 21.582 -85.791 12.4512 -76.6113 12.4512 -61.7676 L 12.4512 -22.8027 C 12.4512 -7.95898 22.2168 1.2207 35.5469 1.2207 L 36.8652 1.2207 L 36.8652 15.2344 C 36.8652 18.7988 38.8184 21.0449 42.0898 21.0449 Z M 50.3418 -40.1855 C 50.3418 -35.6934 46.4844 -31.9336 42.0898 -31.9336 C 37.5488 -31.9336 33.7891 -35.6934 33.7891 -40.1855 C 33.7891 -44.6289 37.5 -48.4375 42.0898 -48.4375 C 46.4844 -48.4375 50.3418 -44.5801 50.3418 -40.1855 Z M 75.4395 -40.1855 C 75.4395 -35.6934 71.6797 -31.9336 67.1875 -31.9336 C 62.7441 -31.9336 58.9844 -35.6934 58.9844 -40.1855 C 58.9844 -44.6289 62.6953 -48.4375 67.1875 -48.4375 C 71.6797 -48.4375 75.4395 -44.5801 75.4395 -40.1855 Z M 100.635 -40.1855 C 100.635 -35.6934 96.875 -31.9336 92.334 -31.9336 C 87.9395 -31.9336 84.082 -35.6934 84.082 -40.1855 C 84.082 -44.6289 87.9395 -48.4375 92.334 -48.4375 C 96.875 -48.4375 100.635 -44.5801 100.635 -40.1855 Z"/>
  </g>
  <g id="Semibold-M" transform="matrix(1 0 0 1 1976.52 1126)">
   <path d="M 41.8457 20.2148 C 43.9941 20.2148 45.6543 19.2383 48.1934 16.9434 L 66.4551 0.585938 L 97.6074 0.585938 C 112.402 0.634766 121.045 -8.20312 121.045 -22.8027 L 121.045 -61.2305 C 121.045 -75.8301 112.402 -84.668 97.6074 -84.668 L 35.8887 -84.668 C 21.0938 -84.668 12.4512 -75.8789 12.4512 -61.2305 L 12.4512 -22.8027 C 12.4512 -8.1543 21.4844 0.585938 35.2539 0.585938 L 36.9141 0.585938 L 36.9141 14.6973 C 36.9141 18.0664 38.7695 20.2148 41.8457 20.2148 Z M 50 -39.9414 C 50 -35.6934 46.2891 -32.0801 42.0898 -32.0801 C 37.793 -32.0801 34.1797 -35.6934 34.1797 -39.9414 C 34.1797 -44.1895 37.7441 -47.8516 42.0898 -47.8516 C 46.2891 -47.8516 50 -44.1895 50 -39.9414 Z M 74.8535 -39.9414 C 74.8535 -35.6934 71.2402 -32.0801 66.9922 -32.0801 C 62.7441 -32.0801 59.1309 -35.6934 59.1309 -39.9414 C 59.1309 -44.1895 62.6953 -47.8516 66.9922 -47.8516 C 71.2402 -47.8516 74.8535 -44.1895 74.8535 -39.9414 Z M 99.8047 -39.9414 C 99.8047 -35.6934 96.1914 -32.0801 91.8945 -32.0801 C 87.6465 -32.0801 83.9844 -35.6934 83.9844 -39.9414 C 83.9844 -44.1895 87.6465 -47.8516 91.8945 -47.8516 C 96.1914 -47.8516 99.8047 -44.1895 99.8047 -39.9414 Z"/>
  </g>
  <g id="Medium-M" transform="matrix(1 0 0 1 1680.03 1126)">
   <path d="M 41.6992 19.5312 C 43.75 19.5312 45.2637 18.5547 47.7051 16.3574 L 65.7227 0.0976562 L 97.6562 0.146484 C 112.354 0.146484 120.605 -8.34961 120.605 -22.8516 L 120.605 -60.791 C 120.605 -75.293 112.354 -83.7891 97.6562 -83.7891 L 35.4004 -83.7891 C 20.752 -83.7891 12.4512 -75.293 12.4512 -60.791 L 12.4512 -22.8516 C 12.4512 -8.30078 20.9961 0.146484 35.0586 0.0976562 L 37.0117 0.0976562 L 37.0117 14.2578 C 37.0117 17.4805 38.7207 19.5312 41.6992 19.5312 Z M 49.7559 -39.7949 C 49.7559 -35.6934 46.1914 -32.1777 42.1387 -32.1777 C 37.9883 -32.1777 34.5215 -35.6934 34.5215 -39.7949 C 34.5215 -43.8477 37.8906 -47.4121 42.1387 -47.4121 C 46.1914 -47.4121 49.7559 -43.8477 49.7559 -39.7949 Z M 74.4141 -39.7949 C 74.4141 -35.6934 70.9473 -32.1777 66.7969 -32.1777 C 62.6953 -32.1777 59.2285 -35.6934 59.2285 -39.7949 C 59.2285 -43.8477 62.6465 -47.4121 66.7969 -47.4121 C 70.9473 -47.4121 74.4141 -43.8477 74.4141 -39.7949 Z M 99.1211 -39.7949 C 99.1211 -35.6934 95.6543 -32.1777 91.5039 -32.1777 C 87.4512 -32.1777 83.8867 -35.6934 83.8867 -39.7949 C 83.8867 -43.8477 87.4023 -47.4121 91.5039 -47.4121 C 95.6543 -47.4121 99.1211 -43.8477 99.1211 -39.7949 Z"/>
  </g>
  <g id="Regular-M" transform="matrix(1 0 0 1 1383.58 1126)">
   <path d="M 41.4551 18.7012 C 43.3594 18.7012 44.7754 17.7246 47.0703 15.5762 L 64.6973 -0.537109 L 97.7051 -0.488281 C 112.256 -0.439453 120.068 -8.54492 120.068 -22.8516 L 120.068 -60.2539 C 120.068 -74.5605 112.256 -82.6172 97.7051 -82.6172 L 34.8145 -82.6172 C 20.2637 -82.6172 12.4512 -74.6094 12.4512 -60.2539 L 12.4512 -22.8516 C 12.4512 -8.49609 20.2637 -0.488281 34.8145 -0.537109 L 37.1094 -0.537109 L 37.1094 13.6719 C 37.1094 16.6992 38.6719 18.7012 41.4551 18.7012 Z M 49.4629 -39.5508 C 49.4629 -35.6934 46.0449 -32.3242 42.1387 -32.3242 C 38.2324 -32.3242 34.9121 -35.6934 34.9121 -39.5508 C 34.9121 -43.457 38.1348 -46.875 42.1387 -46.875 C 46.0449 -46.875 49.4629 -43.4082 49.4629 -39.5508 Z M 73.8281 -39.5508 C 73.8281 -35.6934 70.5078 -32.3242 66.6016 -32.3242 C 62.6953 -32.3242 59.375 -35.6934 59.375 -39.5508 C 59.375 -43.457 62.6465 -46.875 66.6016 -46.875 C 70.5078 -46.875 73.8281 -43.4082 73.8281 -39.5508 Z M 98.291 -39.5508 C 98.291 -35.6934 95.0195 -32.3242 91.0645 -32.3242 C 87.1582 -32.3242 83.7891 -35.6934 83.7891 -39.5508 C 83.7891 -43.457 87.1094 -46.875 91.0645 -46.875 C 95.0195 -46.875 98.291 -43.4082 98.291 -39.5508 Z"/>
  </g>
  <g id="Light-M" transform="matrix(1 0 0 1 1087.68 1126)">
   <path d="M 39.7949 17.3828 C 41.3574 17.3828 42.4805 16.5527 44.2383 14.9414 L 61.9141 -0.830078 L 97.7051 -0.830078 C 110.938 -0.78125 118.457 -8.49609 118.457 -21.5332 L 118.457 -60.791 C 118.457 -73.877 110.938 -81.543 97.7051 -81.543 L 33.2031 -81.543 C 19.9707 -81.543 12.4512 -73.9258 12.4512 -60.791 L 12.4512 -21.5332 C 12.4512 -8.44727 19.9707 -0.830078 33.2031 -0.830078 L 36.2793 -0.830078 L 36.2793 13.3301 C 36.2793 15.7715 37.5977 17.3828 39.7949 17.3828 Z M 49.3164 -39.5508 C 49.3164 -36.1328 46.2891 -33.0566 42.7734 -33.0566 C 39.3066 -33.0566 36.3281 -36.1328 36.3281 -39.5508 C 36.3281 -43.1152 39.1602 -46.1426 42.7734 -46.1426 C 46.2891 -46.1426 49.3164 -43.0664 49.3164 -39.5508 Z M 72.7051 -39.5508 C 72.7051 -36.1328 69.6777 -33.0566 66.2109 -33.0566 C 62.7441 -33.0566 59.7168 -36.1328 59.7168 -39.5508 C 59.7168 -43.1152 62.5977 -46.1426 66.2109 -46.1426 C 69.6777 -46.1426 72.7051 -43.0664 72.7051 -39.5508 Z M 96.0938 -39.5508 C 96.0938 -36.1328 93.1152 -33.0566 89.5996 -33.0566 C 86.1328 -33.0566 83.1055 -36.1328 83.1055 -39.5508 C 83.1055 -43.1152 85.9863 -46.1426 89.5996 -46.1426 C 93.1152 -46.1426 96.0938 -43.0664 96.0938 -39.5508 Z"/>
  </g>
  <g id="Thin-M" transform="matrix(1 0 0 1 792.042 1126)">
   <path d="M 37.5977 15.625 C 38.6719 15.625 39.502 14.9902 40.5273 14.1113 L 58.252 -1.2207 L 97.7051 -1.2207 C 109.229 -1.2207 116.309 -8.44727 116.309 -19.8242 L 116.309 -61.5234 C 116.309 -72.9004 109.229 -80.127 97.7051 -80.127 L 31.0547 -80.127 C 19.5312 -80.127 12.4512 -72.998 12.4512 -61.5234 L 12.4512 -19.8242 C 12.4512 -8.34961 19.5312 -1.2207 31.0547 -1.2207 L 35.2051 -1.2207 L 35.2051 12.8906 C 35.2051 14.5508 36.1816 15.625 37.5977 15.625 Z M 49.1699 -39.5508 C 49.1699 -36.7188 46.582 -34.0332 43.6523 -34.0332 C 40.7715 -34.0332 38.1836 -36.7188 38.1836 -39.5508 C 38.1836 -42.627 40.4785 -45.1172 43.6523 -45.1172 C 46.582 -45.1172 49.1699 -42.5293 49.1699 -39.5508 Z M 71.1914 -39.5508 C 71.1914 -36.7188 68.6035 -34.0332 65.6738 -34.0332 C 62.793 -34.0332 60.2051 -36.7188 60.2051 -39.5508 C 60.2051 -42.627 62.5488 -45.1172 65.6738 -45.1172 C 68.6035 -45.1172 71.1914 -42.5293 71.1914 -39.5508 Z M 93.2129 -39.5508 C 93.2129 -36.7188 90.625 -34.0332 87.6953 -34.0332 C 84.8145 -34.0332 82.2266 -36.7188 82.2266 -39.5508 C 82.2266 -42.627 84.5703 -45.1172 87.6953 -45.1172 C 90.625 -45.1172 93.2129 -42.5293 93.2129 -39.5508 Z"/>
  </g>
  <g id="Ultralight-M" transform="matrix(1 0 0 1 495.893 1126)">
   <path d="M 36.4746 14.6973 C 37.2559 14.6973 37.9395 14.209 38.5742 13.6719 L 56.3477 -1.41602 L 97.7051 -1.41602 C 108.35 -1.41602 115.186 -8.39844 115.186 -18.9453 L 115.186 -61.9141 C 115.186 -72.4121 108.35 -79.3945 97.7051 -79.3945 L 29.9316 -79.3945 C 19.2871 -79.3945 12.4512 -72.5586 12.4512 -61.9141 L 12.4512 -18.9453 C 12.4512 -8.25195 19.2871 -1.41602 29.9316 -1.41602 L 34.668 -1.41602 L 34.668 12.6465 C 34.668 13.916 35.4492 14.6973 36.4746 14.6973 Z M 49.0723 -39.5508 C 49.0723 -37.0117 46.7285 -34.5703 44.0918 -34.5703 C 41.5039 -34.5703 39.1602 -37.0117 39.1602 -39.5508 C 39.1602 -42.4316 41.1621 -44.6289 44.0918 -44.6289 C 46.7285 -44.6289 49.0723 -42.2852 49.0723 -39.5508 Z M 70.4102 -39.5508 C 70.4102 -37.0117 68.0664 -34.5703 65.3809 -34.5703 C 62.793 -34.5703 60.4492 -37.0117 60.4492 -39.5508 C 60.4492 -42.4316 62.5 -44.6289 65.3809 -44.6289 C 68.0664 -44.6289 70.4102 -42.2852 70.4102 -39.5508 Z M 91.748 -39.5508 C 91.748 -37.0117 89.4043 -34.5703 86.7188 -34.5703 C 84.1309 -34.5703 81.7871 -37.0117 81.7871 -39.5508 C 81.7871 -42.4316 83.8379 -44.6289 86.7188 -44.6289 C 89.4043 -44.6289 91.748 -42.2852 91.748 -39.5508 Z"/>
  </g>
  <g id="Black-S" transform="matrix(1 0 0 1 2880.28 696)">
   <path d="M 33.4961 10.6445 C 35.498 10.6445 37.2559 9.96094 39.6973 7.8125 L 54.9805 -5.37109 L 76.3672 -5.37109 C 88.3789 -5.37109 96.4844 -13.4766 96.4844 -25.4883 L 96.4844 -57.1289 C 96.4844 -69.1406 88.3789 -77.2461 76.3672 -77.2461 L 29.8828 -77.2461 C 17.8711 -77.2461 9.76562 -69.1406 9.76562 -57.1289 L 9.76562 -25.4883 C 9.76562 -13.4766 18.8477 -5.37109 28.418 -5.37109 L 28.7109 -5.37109 L 28.7109 5.46875 C 28.7109 8.69141 30.5664 10.6445 33.4961 10.6445 Z M 40.1367 -39.5508 C 40.1367 -35.5957 36.7188 -32.373 32.9102 -32.373 C 28.9062 -32.373 25.5859 -35.5957 25.5859 -39.5508 C 25.5859 -43.457 28.9062 -46.7285 32.9102 -46.7285 C 36.7188 -46.7285 40.1367 -43.457 40.1367 -39.5508 Z M 60.3027 -39.5508 C 60.3027 -35.5957 57.0801 -32.373 53.125 -32.373 C 49.1699 -32.373 45.9473 -35.5957 45.9473 -39.5508 C 45.9473 -43.457 49.1699 -46.7285 53.125 -46.7285 C 57.0801 -46.7285 60.3027 -43.457 60.3027 -39.5508 Z M 80.6641 -39.5508 C 80.6641 -35.5957 77.3438 -32.373 73.3398 -32.373 C 69.5312 -32.373 66.1133 -35.5957 66.1133 -39.5508 C 66.1133 -43.457 69.5312 -46.7285 73.3398 -46.7285 C 77.3438 -46.7285 80.6641 -43.457 80.6641 -39.5508 Z"/>
  </g>
  <g id="Heavy-S" transform="matrix(1 0 0 1 2583.76 696)">
   <path d="M 33.4473 9.96094 C 35.4004 9.96094 37.0117 9.22852 39.3555 7.12891 L 54.2969 -5.95703 L 76.416 -5.95703 C 88.4277 -5.95703 96.0938 -13.6719 96.0938 -25.6348 L 96.0938 -56.543 C 96.0938 -68.5059 88.4277 -76.2207 76.416 -76.2207 L 29.4434 -76.2207 C 17.4316 -76.2207 9.76562 -68.5059 9.76562 -56.543 L 9.76562 -25.6348 C 9.76562 -13.6719 18.2129 -5.95703 28.3203 -5.95703 L 28.9062 -5.95703 L 28.9062 4.93164 C 28.9062 8.05664 30.6152 9.96094 33.4473 9.96094 Z M 39.8438 -39.3555 C 39.8438 -35.5469 36.5234 -32.4219 32.8613 -32.4219 C 29.0039 -32.4219 25.8301 -35.5469 25.8301 -39.3555 C 25.8301 -43.0664 29.0039 -46.2402 32.8613 -46.2402 C 36.5234 -46.2402 39.8438 -43.0664 39.8438 -39.3555 Z M 59.8633 -39.3555 C 59.8633 -35.5469 56.7383 -32.4219 52.9297 -32.4219 C 49.1699 -32.4219 46.0449 -35.5469 46.0449 -39.3555 C 46.0449 -43.0664 49.1699 -46.2402 52.9297 -46.2402 C 56.7383 -46.2402 59.8633 -43.0664 59.8633 -39.3555 Z M 80.0781 -39.3555 C 80.0781 -35.5469 76.8555 -32.4219 73.0469 -32.4219 C 69.3359 -32.4219 66.0645 -35.5469 66.0645 -39.3555 C 66.0645 -43.0664 69.3359 -46.2402 73.0469 -46.2402 C 76.8555 -46.2402 80.0781 -43.0664 80.0781 -39.3555 Z"/>
  </g>
  <g id="Bold-S" transform="matrix(1 0 0 1 2287.27 696)">
   <path d="M 33.3984 9.13086 C 35.2539 9.13086 36.7188 8.39844 38.9648 6.34766 L 53.5156 -6.64062 L 76.4648 -6.64062 C 88.4766 -6.5918 95.6543 -13.916 95.6543 -25.8301 L 95.6543 -55.8594 C 95.6543 -67.7734 88.4766 -75.0488 76.4648 -75.0488 L 28.9551 -75.0488 C 16.9434 -75.0488 9.76562 -67.7734 9.76562 -55.8594 L 9.76562 -25.8301 C 9.76562 -13.916 17.4316 -6.64062 28.2227 -6.64062 L 29.1016 -6.64062 L 29.1016 4.3457 C 29.1016 7.32422 30.7129 9.13086 33.3984 9.13086 Z M 39.4531 -39.1113 C 39.4531 -35.498 36.3281 -32.4707 32.8125 -32.4707 C 29.1504 -32.4707 26.123 -35.498 26.123 -39.1113 C 26.123 -42.627 29.1504 -45.7031 32.8125 -45.7031 C 36.3281 -45.7031 39.4531 -42.627 39.4531 -39.1113 Z M 59.375 -39.1113 C 59.375 -35.498 56.3477 -32.4707 52.7344 -32.4707 C 49.1699 -32.4707 46.1426 -35.498 46.1426 -39.1113 C 46.1426 -42.627 49.1211 -45.7031 52.7344 -45.7031 C 56.3477 -45.7031 59.375 -42.627 59.375 -39.1113 Z M 79.3945 -39.1113 C 79.3945 -35.498 76.3672 -32.4707 72.7051 -32.4707 C 69.1406 -32.4707 66.0156 -35.498 66.0156 -39.1113 C 66.0156 -42.627 69.1406 -45.7031 72.7051 -45.7031 C 76.3672 -45.7031 79.3945 -42.627 79.3945 -39.1113 Z"/>
  </g>
  <g id="Semibold-S" transform="matrix(1 0 0 1 1990.7 696)">
   <path d="M 33.3496 8.59375 C 35.1562 8.59375 36.5234 7.8125 38.7207 5.81055 L 52.9785 -7.08008 L 76.5137 -7.08008 C 88.5254 -7.03125 95.3613 -14.0625 95.3613 -25.9277 L 95.3613 -55.3711 C 95.3613 -67.2852 88.5254 -74.2676 76.5137 -74.2676 L 28.6621 -74.2676 C 16.6504 -74.2676 9.76562 -67.2852 9.76562 -55.3711 L 9.76562 -25.9277 C 9.76562 -14.0625 16.9434 -7.08008 28.1738 -7.08008 L 29.248 -7.08008 L 29.248 3.95508 C 29.248 6.78711 30.7617 8.59375 33.3496 8.59375 Z M 39.209 -38.916 C 39.209 -35.4492 36.2305 -32.5195 32.7637 -32.5195 C 29.248 -32.5195 26.3184 -35.4492 26.3184 -38.916 C 26.3184 -42.334 29.248 -45.3613 32.7637 -45.3613 C 36.2305 -45.3613 39.209 -42.334 39.209 -38.916 Z M 59.0332 -38.916 C 59.0332 -35.4492 56.1035 -32.5195 52.6367 -32.5195 C 49.1211 -32.5195 46.2402 -35.4492 46.2402 -38.916 C 46.2402 -42.334 49.1211 -45.3613 52.6367 -45.3613 C 56.1035 -45.3613 59.0332 -42.334 59.0332 -38.916 Z M 78.9062 -38.916 C 78.9062 -35.4492 75.9766 -32.5195 72.4609 -32.5195 C 69.043 -32.5195 66.0156 -35.4492 66.0156 -38.916 C 66.0156 -42.334 68.9941 -45.3613 72.4609 -45.3613 C 75.9766 -45.3613 78.9062 -42.334 78.9062 -38.916 Z"/>
  </g>
  <g id="Medium-S" transform="matrix(1 0 0 1 1694.09 696)">
   <path d="M 33.3496 8.20312 C 35.0586 8.20312 36.377 7.37305 38.4766 5.41992 L 52.5879 -7.4707 L 76.5137 -7.42188 C 88.5254 -7.37305 95.166 -14.209 95.166 -26.0254 L 95.166 -55.0293 C 95.166 -66.8945 88.5254 -73.6816 76.5137 -73.6816 L 28.418 -73.6816 C 16.4062 -73.6816 9.76562 -66.8945 9.76562 -55.0293 L 9.76562 -26.0254 C 9.76562 -14.209 16.5527 -7.42188 28.125 -7.4707 L 29.3457 -7.4707 L 29.3457 3.66211 C 29.3457 6.39648 30.8105 8.20312 33.3496 8.20312 Z M 39.0625 -38.7695 C 39.0625 -35.4004 36.084 -32.5684 32.7637 -32.5684 C 29.3457 -32.5684 26.4648 -35.4004 26.4648 -38.7695 C 26.4648 -42.1387 29.2969 -45.0684 32.7637 -45.0684 C 36.084 -45.0684 39.0625 -42.1387 39.0625 -38.7695 Z M 58.7402 -38.7695 C 58.7402 -35.4004 55.9082 -32.5684 52.4902 -32.5684 C 49.1211 -32.5684 46.2891 -35.4004 46.2891 -38.7695 C 46.2891 -42.1387 49.1211 -45.0684 52.4902 -45.0684 C 55.9082 -45.0684 58.7402 -42.1387 58.7402 -38.7695 Z M 78.5645 -38.7695 C 78.5645 -35.4004 75.6836 -32.5684 72.2656 -32.5684 C 68.9453 -32.5684 65.9668 -35.4004 65.9668 -38.7695 C 65.9668 -42.1387 68.8965 -45.0684 72.2656 -45.0684 C 75.6836 -45.0684 78.5645 -42.1387 78.5645 -38.7695 Z"/>
  </g>
  <g id="Regular-S" transform="matrix(1 0 0 1 1397.53 696)">
   <path d="M 33.3008 7.66602 C 35.0098 7.66602 36.1816 6.78711 38.2324 4.88281 L 52.0508 -7.91016 L 76.5625 -7.86133 C 88.5742 -7.8125 94.873 -14.3555 94.873 -26.1719 L 94.873 -54.5898 C 94.873 -66.4062 88.5742 -72.9004 76.5625 -72.9004 L 28.0762 -72.9004 C 16.0645 -72.9004 9.76562 -66.4062 9.76562 -54.5898 L 9.76562 -26.1719 C 9.76562 -14.3555 16.0645 -7.86133 28.0762 -7.91016 L 29.4434 -7.91016 L 29.4434 3.27148 C 29.4434 5.9082 30.8594 7.66602 33.3008 7.66602 Z M 38.8184 -38.623 C 38.8184 -35.3516 35.9863 -32.5684 32.7148 -32.5684 C 29.3945 -32.5684 26.6602 -35.3516 26.6602 -38.623 C 26.6602 -41.8457 29.3945 -44.7266 32.7148 -44.7266 C 35.9863 -44.7266 38.8184 -41.8457 38.8184 -38.623 Z M 58.3984 -38.623 C 58.3984 -35.3516 55.6152 -32.5684 52.3926 -32.5684 C 49.1211 -32.5684 46.3379 -35.3516 46.3379 -38.623 C 46.3379 -41.8457 49.1211 -44.7266 52.3926 -44.7266 C 55.6152 -44.7266 58.3984 -41.8457 58.3984 -38.623 Z M 78.0762 -38.623 C 78.0762 -35.3516 75.3418 -32.5684 72.0215 -32.5684 C 68.7988 -32.5684 65.9668 -35.3516 65.9668 -38.623 C 65.9668 -41.8457 68.7988 -44.7266 72.0215 -44.7266 C 75.3418 -44.7266 78.0762 -41.8457 78.0762 -38.623 Z"/>
  </g>
  <g id="Light-S" transform="matrix(1 0 0 1 1101.55 696)">
   <path d="M 31.8359 6.49414 C 33.2031 6.49414 34.1797 5.76172 35.7422 4.3457 L 49.6094 -8.1543 L 76.5625 -8.1543 C 87.4023 -8.10547 93.4082 -14.3066 93.4082 -25 L 93.4082 -55.0781 C 93.4082 -65.7715 87.4023 -71.9238 76.5625 -71.9238 L 26.6113 -71.9238 C 15.7715 -71.9238 9.76562 -65.8203 9.76562 -55.0781 L 9.76562 -25 C 9.76562 -14.2578 15.7715 -8.1543 26.6113 -8.1543 L 28.7598 -8.1543 L 28.7598 2.97852 C 28.7598 5.07812 29.8828 6.49414 31.8359 6.49414 Z M 38.7207 -38.623 C 38.7207 -35.791 36.1816 -33.252 33.3008 -33.252 C 30.3711 -33.252 27.9297 -35.791 27.9297 -38.623 C 27.9297 -41.5527 30.3223 -44.043 33.3008 -44.043 C 36.1816 -44.043 38.7207 -41.5039 38.7207 -38.623 Z M 57.4219 -38.623 C 57.4219 -35.791 54.9316 -33.252 52.0508 -33.252 C 49.1699 -33.252 46.6797 -35.791 46.6797 -38.623 C 46.6797 -41.5527 49.0723 -44.043 52.0508 -44.043 C 54.9316 -44.043 57.4219 -41.5039 57.4219 -38.623 Z M 76.123 -38.623 C 76.123 -35.791 73.6816 -33.252 70.752 -33.252 C 67.8711 -33.252 65.3809 -35.791 65.3809 -38.623 C 65.3809 -41.5527 67.8223 -44.043 70.752 -44.043 C 73.6816 -44.043 76.123 -41.5039 76.123 -38.623 Z"/>
  </g>
  <g id="Thin-S" transform="matrix(1 0 0 1 805.763 696)">
   <path d="M 29.8828 4.93164 C 30.8105 4.93164 31.4941 4.44336 32.4707 3.61328 L 46.3379 -8.49609 L 76.5625 -8.49609 C 85.9375 -8.49609 91.5527 -14.2578 91.5527 -23.4863 L 91.5527 -55.7129 C 91.5527 -64.9414 85.9375 -70.6543 76.5625 -70.6543 L 24.7559 -70.6543 C 15.3809 -70.6543 9.76562 -64.9902 9.76562 -55.7129 L 9.76562 -23.4863 C 9.76562 -14.1602 15.3809 -8.49609 24.7559 -8.49609 L 27.7832 -8.49609 L 27.7832 2.53906 C 27.7832 4.00391 28.6133 4.93164 29.8828 4.93164 Z M 38.5742 -38.623 C 38.5742 -36.2793 36.4258 -34.1309 34.0332 -34.1309 C 31.6406 -34.1309 29.5898 -36.2793 29.5898 -38.623 C 29.5898 -41.1133 31.4941 -43.1641 34.0332 -43.1641 C 36.4258 -43.1641 38.5742 -41.0645 38.5742 -38.623 Z M 56.0547 -38.623 C 56.0547 -36.2793 53.9551 -34.1309 51.5625 -34.1309 C 49.1699 -34.1309 47.0703 -36.2793 47.0703 -38.623 C 47.0703 -41.1133 49.0234 -43.1641 51.5625 -43.1641 C 53.9551 -43.1641 56.0547 -41.0645 56.0547 -38.623 Z M 73.584 -38.623 C 73.584 -36.2793 71.4844 -34.1309 69.0918 -34.1309 C 66.6992 -34.1309 64.5996 -36.2793 64.5996 -38.623 C 64.5996 -41.1133 66.5527 -43.1641 69.0918 -43.1641 C 71.4844 -43.1641 73.584 -41.0645 73.584 -38.623 Z"/>
  </g>
  <g id="Ultralight-S" transform="matrix(1 0 0 1 509.54 696)">
   <path d="M 28.9062 4.15039 C 29.5898 4.15039 30.127 3.71094 30.7617 3.22266 L 44.6777 -8.69141 L 76.5625 -8.69141 C 85.1562 -8.69141 90.5762 -14.209 90.5762 -22.7051 L 90.5762 -56.0059 C 90.5762 -64.502 85.1562 -70.0195 76.5625 -70.0195 L 23.7793 -70.0195 C 15.1855 -70.0195 9.76562 -64.5996 9.76562 -56.0059 L 9.76562 -22.7051 C 9.76562 -14.1113 15.1855 -8.69141 23.7793 -8.69141 L 27.2949 -8.69141 L 27.2949 2.34375 C 27.2949 3.4668 27.9785 4.15039 28.9062 4.15039 Z M 38.4766 -38.623 C 38.4766 -36.5723 36.5723 -34.5703 34.4238 -34.5703 C 32.3242 -34.5703 30.4199 -36.5723 30.4199 -38.623 C 30.4199 -40.918 32.0801 -42.7246 34.4238 -42.7246 C 36.5723 -42.7246 38.4766 -40.8203 38.4766 -38.623 Z M 55.3711 -38.623 C 55.3711 -36.5723 53.4668 -34.5703 51.3184 -34.5703 C 49.2188 -34.5703 47.3145 -36.5723 47.3145 -38.623 C 47.3145 -40.918 48.9746 -42.7246 51.3184 -42.7246 C 53.4668 -42.7246 55.3711 -40.8203 55.3711 -38.623 Z M 72.2656 -38.623 C 72.2656 -36.5723 70.3613 -34.5703 68.2129 -34.5703 C 66.1133 -34.5703 64.209 -36.5723 64.209 -38.623 C 64.209 -40.918 65.8691 -42.7246 68.2129 -42.7246 C 70.3613 -42.7246 72.2656 -40.8203 72.2656 -38.623 Z"/>
  </g>
 </g>
</svg>
