<?xml version="1.0" encoding="UTF-8"?>
<!--Generator: Apple Native CoreSVG 123-->
<!DOCTYPE svg
PUBLIC "-//W3C//DTD SVG 1.1//EN"
       "http://www.w3.org/Graphics/SVG/1.1/DTD/svg11.dtd">
<svg version="1.1" xmlns="http://www.w3.org/2000/svg" xmlns:xlink="http://www.w3.org/1999/xlink" width="3300" height="2200">
 <!--glyph: "uni1004E6.medium", point size: 100.000000, font version: "Version 15.0d7e11", template writer version: "5"-->
 <g id="Notes">
  <rect height="2200" id="artboard" style="fill:white;opacity:1" width="3300" x="0" y="0"/>
  <line id="" style="fill:none;stroke:black;opacity:1;stroke-width:0.5;" x1="263" x2="3036" y1="292" y2="292"/>
  <text style="stroke:none;fill:black;font-family:-apple-system,&quot;SF Pro Display&quot;,&quot;SF Pro Text&quot;,Helvetica,sans-serif;font-weight:bold;" transform="matrix(1 0 0 1 263 322)">Weight/Scale Variations</text>
  <text style="stroke:none;fill:black;font-family:-apple-system,&quot;SF Pro Display&quot;,&quot;SF Pro Text&quot;,Helvetica,sans-serif;text-anchor:middle;" transform="matrix(1 0 0 1 559.711 322)">Ultralight</text>
  <text style="stroke:none;fill:black;font-family:-apple-system,&quot;SF Pro Display&quot;,&quot;SF Pro Text&quot;,Helvetica,sans-serif;text-anchor:middle;" transform="matrix(1 0 0 1 856.422 322)">Thin</text>
  <text style="stroke:none;fill:black;font-family:-apple-system,&quot;SF Pro Display&quot;,&quot;SF Pro Text&quot;,Helvetica,sans-serif;text-anchor:middle;" transform="matrix(1 0 0 1 1153.13 322)">Light</text>
  <text style="stroke:none;fill:black;font-family:-apple-system,&quot;SF Pro Display&quot;,&quot;SF Pro Text&quot;,Helvetica,sans-serif;text-anchor:middle;" transform="matrix(1 0 0 1 1449.84 322)">Regular</text>
  <text style="stroke:none;fill:black;font-family:-apple-system,&quot;SF Pro Display&quot;,&quot;SF Pro Text&quot;,Helvetica,sans-serif;text-anchor:middle;" transform="matrix(1 0 0 1 1746.56 322)">Medium</text>
  <text style="stroke:none;fill:black;font-family:-apple-system,&quot;SF Pro Display&quot;,&quot;SF Pro Text&quot;,Helvetica,sans-serif;text-anchor:middle;" transform="matrix(1 0 0 1 2043.27 322)">Semibold</text>
  <text style="stroke:none;fill:black;font-family:-apple-system,&quot;SF Pro Display&quot;,&quot;SF Pro Text&quot;,Helvetica,sans-serif;text-anchor:middle;" transform="matrix(1 0 0 1 2339.98 322)">Bold</text>
  <text style="stroke:none;fill:black;font-family:-apple-system,&quot;SF Pro Display&quot;,&quot;SF Pro Text&quot;,Helvetica,sans-serif;text-anchor:middle;" transform="matrix(1 0 0 1 2636.69 322)">Heavy</text>
  <text style="stroke:none;fill:black;font-family:-apple-system,&quot;SF Pro Display&quot;,&quot;SF Pro Text&quot;,Helvetica,sans-serif;text-anchor:middle;" transform="matrix(1 0 0 1 2933.4 322)">Black</text>
  <line id="" style="fill:none;stroke:black;opacity:1;stroke-width:0.5;" x1="263" x2="3036" y1="1903" y2="1903"/>
  <g id="" transform="matrix(1 0 0 1 263 1933)">
   <path d="M 9.24805 0.830078 C 13.5547 0.830078 17.1387 -2.74414 17.1387 -7.05078 C 17.1387 -11.3574 13.5449 -14.9316 9.23828 -14.9316 C 4.94141 -14.9316 1.36719 -11.3574 1.36719 -7.05078 C 1.36719 -2.74414 4.95117 0.830078 9.24805 0.830078 Z M 9.24805 -0.654297 C 5.70312 -0.654297 2.87109 -3.49609 2.87109 -7.05078 C 2.87109 -10.6055 5.69336 -13.4473 9.23828 -13.4473 C 12.793 -13.4473 15.6348 -10.6055 15.6445 -7.05078 C 15.6543 -3.49609 12.8027 -0.654297 9.24805 -0.654297 Z M 9.22852 -3.42773 C 9.69727 -3.42773 9.9707 -3.74023 9.9707 -4.25781 L 9.9707 -6.31836 L 12.1973 -6.31836 C 12.6953 -6.31836 13.0371 -6.57227 13.0371 -7.04102 C 13.0371 -7.51953 12.7148 -7.7832 12.1973 -7.7832 L 9.9707 -7.7832 L 9.9707 -10.0098 C 9.9707 -10.5273 9.69727 -10.8496 9.22852 -10.8496 C 8.75977 -10.8496 8.50586 -10.5078 8.50586 -10.0098 L 8.50586 -7.7832 L 6.29883 -7.7832 C 5.78125 -7.7832 5.44922 -7.51953 5.44922 -7.04102 C 5.44922 -6.57227 5.80078 -6.31836 6.29883 -6.31836 L 8.50586 -6.31836 L 8.50586 -4.25781 C 8.50586 -3.75977 8.75977 -3.42773 9.22852 -3.42773 Z"/>
  </g>
  <g id="" transform="matrix(1 0 0 1 281.506 1933)">
   <path d="M 11.709 2.91016 C 17.1582 2.91016 21.6699 -1.60156 21.6699 -7.05078 C 21.6699 -12.4902 17.1484 -17.0117 11.6992 -17.0117 C 6.25977 -17.0117 1.74805 -12.4902 1.74805 -7.05078 C 1.74805 -1.60156 6.26953 2.91016 11.709 2.91016 Z M 11.709 1.25 C 7.09961 1.25 3.41797 -2.44141 3.41797 -7.05078 C 3.41797 -11.6504 7.08984 -15.3516 11.6992 -15.3516 C 16.3086 -15.3516 20 -11.6504 20.0098 -7.05078 C 20.0195 -2.44141 16.3184 1.25 11.709 1.25 Z M 11.6895 -2.41211 C 12.207 -2.41211 12.5195 -2.77344 12.5195 -3.33984 L 12.5195 -6.23047 L 15.5762 -6.23047 C 16.123 -6.23047 16.5039 -6.51367 16.5039 -7.03125 C 16.5039 -7.55859 16.1426 -7.86133 15.5762 -7.86133 L 12.5195 -7.86133 L 12.5195 -10.9277 C 12.5195 -11.5039 12.207 -11.8555 11.6895 -11.8555 C 11.1719 -11.8555 10.8789 -11.4844 10.8789 -10.9277 L 10.8789 -7.86133 L 7.83203 -7.86133 C 7.26562 -7.86133 6.89453 -7.55859 6.89453 -7.03125 C 6.89453 -6.51367 7.28516 -6.23047 7.83203 -6.23047 L 10.8789 -6.23047 L 10.8789 -3.33984 C 10.8789 -2.79297 11.1719 -2.41211 11.6895 -2.41211 Z"/>
  </g>
  <g id="" transform="matrix(1 0 0 1 304.924 1933)">
   <path d="M 14.9707 5.67383 C 21.9336 5.67383 27.6953 -0.078125 27.6953 -7.04102 C 27.6953 -14.0039 21.9238 -19.7559 14.9609 -19.7559 C 8.00781 -19.7559 2.25586 -14.0039 2.25586 -7.04102 C 2.25586 -0.078125 8.01758 5.67383 14.9707 5.67383 Z M 14.9707 3.85742 C 8.93555 3.85742 4.08203 -1.00586 4.08203 -7.04102 C 4.08203 -13.0762 8.92578 -17.9395 14.9609 -17.9395 C 21.0059 -17.9395 25.8594 -13.0762 25.8691 -7.04102 C 25.8789 -1.00586 21.0156 3.85742 14.9707 3.85742 Z M 14.9512 -1.06445 C 15.5176 -1.06445 15.8691 -1.45508 15.8691 -2.06055 L 15.8691 -6.13281 L 20.1074 -6.13281 C 20.6934 -6.13281 21.1133 -6.46484 21.1133 -7.02148 C 21.1133 -7.59766 20.7227 -7.93945 20.1074 -7.93945 L 15.8691 -7.93945 L 15.8691 -12.1875 C 15.8691 -12.8027 15.5176 -13.1934 14.9512 -13.1934 C 14.3848 -13.1934 14.0625 -12.7832 14.0625 -12.1875 L 14.0625 -7.93945 L 9.83398 -7.93945 C 9.21875 -7.93945 8.80859 -7.59766 8.80859 -7.02148 C 8.80859 -6.46484 9.23828 -6.13281 9.83398 -6.13281 L 14.0625 -6.13281 L 14.0625 -2.06055 C 14.0625 -1.47461 14.3848 -1.06445 14.9512 -1.06445 Z"/>
  </g>
  <text style="stroke:none;fill:black;font-family:-apple-system,&quot;SF Pro Display&quot;,&quot;SF Pro Text&quot;,Helvetica,sans-serif;font-weight:bold;" transform="matrix(1 0 0 1 263 1953)">Design Variations</text>
  <text style="stroke:none;fill:black;font-family:-apple-system,&quot;SF Pro Display&quot;,&quot;SF Pro Text&quot;,Helvetica,sans-serif;" transform="matrix(1 0 0 1 263 1971)">Symbols are supported in up to nine weights and three scales.</text>
  <text style="stroke:none;fill:black;font-family:-apple-system,&quot;SF Pro Display&quot;,&quot;SF Pro Text&quot;,Helvetica,sans-serif;" transform="matrix(1 0 0 1 263 1989)">For optimal layout with text and other symbols, vertically align</text>
  <text style="stroke:none;fill:black;font-family:-apple-system,&quot;SF Pro Display&quot;,&quot;SF Pro Text&quot;,Helvetica,sans-serif;" transform="matrix(1 0 0 1 263 2007)">symbols with the adjacent text.</text>
  <rect height="14" id="" style="fill:#00AEEF;stroke:none;opacity:0.4;" width="3" x="776" y="1919"/>
  <g id="" transform="matrix(1 0 0 1 779 1933)">
   <path d="M 10.5273 0 L 12.373 0 L 7.17773 -14.0918 L 5.43945 -14.0918 L 0.244141 0 L 2.08984 0 L 3.50586 -4.0332 L 9.11133 -4.0332 Z M 6.2793 -11.9531 L 6.33789 -11.9531 L 8.59375 -5.52734 L 4.02344 -5.52734 Z"/>
  </g>
  <rect height="14" id="" style="fill:#00AEEF;stroke:none;opacity:0.4;" width="3" x="791.617" y="1919"/>
  <text style="stroke:none;fill:black;font-family:-apple-system,&quot;SF Pro Display&quot;,&quot;SF Pro Text&quot;,Helvetica,sans-serif;font-weight:bold;" transform="matrix(1 0 0 1 776 1953)">Margins</text>
  <text style="stroke:none;fill:black;font-family:-apple-system,&quot;SF Pro Display&quot;,&quot;SF Pro Text&quot;,Helvetica,sans-serif;" transform="matrix(1 0 0 1 776 1971)">Leading and trailing margins on the left and right side of each symbol</text>
  <text style="stroke:none;fill:black;font-family:-apple-system,&quot;SF Pro Display&quot;,&quot;SF Pro Text&quot;,Helvetica,sans-serif;" transform="matrix(1 0 0 1 776 1989)">can be adjusted by modifying the width of the blue rectangles.</text>
  <text style="stroke:none;fill:black;font-family:-apple-system,&quot;SF Pro Display&quot;,&quot;SF Pro Text&quot;,Helvetica,sans-serif;" transform="matrix(1 0 0 1 776 2007)">Modifications are automatically applied proportionally to all</text>
  <text style="stroke:none;fill:black;font-family:-apple-system,&quot;SF Pro Display&quot;,&quot;SF Pro Text&quot;,Helvetica,sans-serif;" transform="matrix(1 0 0 1 776 2025)">scales and weights.</text>
  <g id="" transform="matrix(1 0 0 1 1289 1933)">
   <path d="M 2.83203 3.11523 L 4.375 4.6582 C 5.22461 5.48828 6.19141 5.41992 7.06055 4.46289 L 17.2754 -6.66016 C 17.7051 -6.36719 18.0957 -6.37695 18.5645 -6.47461 L 19.6094 -6.68945 L 20.3027 -5.99609 L 20.2539 -5.47852 C 20.1855 -4.95117 20.3516 -4.53125 20.8496 -4.0332 L 21.6602 -3.22266 C 22.168 -2.71484 22.8223 -2.68555 23.3008 -3.16406 L 26.5527 -6.41602 C 27.0312 -6.89453 27.0117 -7.54883 26.5039 -8.05664 L 25.6836 -8.87695 C 25.1855 -9.375 24.7754 -9.55078 24.2383 -9.47266 L 23.7109 -9.41406 L 23.0566 -10.0781 L 23.3398 -11.2207 C 23.4863 -11.7871 23.3398 -12.2559 22.7148 -12.8613 L 20.3027 -15.2539 C 16.7578 -18.7793 12.2266 -18.6719 9.11133 -15.5371 C 8.69141 -15.1074 8.64258 -14.5215 8.91602 -14.0918 C 9.15039 -13.7207 9.62891 -13.4961 10.2734 -13.6621 C 11.7871 -14.043 13.3008 -13.9258 14.7852 -12.9199 L 14.1602 -11.3379 C 13.9258 -10.752 13.9453 -10.2734 14.1797 -9.83398 L 3.01758 0.439453 C 2.08008 1.30859 1.97266 2.25586 2.83203 3.11523 Z M 10.6738 -15.1465 C 13.3398 -17.1387 16.6504 -16.8262 19.0527 -14.4141 L 21.6797 -11.8066 C 21.9141 -11.5723 21.9434 -11.3867 21.8848 -11.0938 L 21.5039 -9.53125 L 23.0762 -7.95898 L 24.043 -8.04688 C 24.3262 -8.07617 24.4141 -8.05664 24.6387 -7.83203 L 25.2637 -7.20703 L 22.5098 -4.46289 L 21.8848 -5.07812 C 21.6602 -5.30273 21.6406 -5.40039 21.6699 -5.68359 L 21.7578 -6.64062 L 20.1953 -8.20312 L 18.5742 -7.89062 C 18.291 -7.83203 18.1445 -7.83203 17.9102 -8.07617 L 15.7324 -10.2539 C 15.5078 -10.4883 15.4785 -10.625 15.6055 -10.9473 L 16.5527 -13.2227 C 14.9512 -14.7559 12.8418 -15.6055 10.8008 -14.9512 C 10.7129 -14.9219 10.6445 -14.9414 10.6152 -14.9805 C 10.5859 -15.0293 10.5859 -15.0781 10.6738 -15.1465 Z M 4.10156 2.41211 C 3.61328 1.91406 3.78906 1.61133 4.12109 1.30859 L 15.0781 -8.80859 L 16.3086 -7.57812 L 6.15234 3.34961 C 5.84961 3.68164 5.46875 3.7793 5.06836 3.37891 Z"/>
  </g>
  <text style="stroke:none;fill:black;font-family:-apple-system,&quot;SF Pro Display&quot;,&quot;SF Pro Text&quot;,Helvetica,sans-serif;font-weight:bold;" transform="matrix(1 0 0 1 1289 1953)">Exporting</text>
  <text style="stroke:none;fill:black;font-family:-apple-system,&quot;SF Pro Display&quot;,&quot;SF Pro Text&quot;,Helvetica,sans-serif;" transform="matrix(1 0 0 1 1289 1971)">Symbols should be outlined when exporting to ensure the</text>
  <text style="stroke:none;fill:black;font-family:-apple-system,&quot;SF Pro Display&quot;,&quot;SF Pro Text&quot;,Helvetica,sans-serif;" transform="matrix(1 0 0 1 1289 1989)">design is preserved when submitting to Xcode.</text>
  <text id="template-version" style="stroke:none;fill:black;font-family:-apple-system,&quot;SF Pro Display&quot;,&quot;SF Pro Text&quot;,Helvetica,sans-serif;text-anchor:end;" transform="matrix(1 0 0 1 3036 1933)">Template v.1.0</text>
  <text style="stroke:none;fill:black;font-family:-apple-system,&quot;SF Pro Display&quot;,&quot;SF Pro Text&quot;,Helvetica,sans-serif;text-anchor:end;" transform="matrix(1 0 0 1 3036 1951)">Generated from person.2.square.stack.fill</text>
  <text style="stroke:none;fill:black;font-family:-apple-system,&quot;SF Pro Display&quot;,&quot;SF Pro Text&quot;,Helvetica,sans-serif;text-anchor:end;" transform="matrix(1 0 0 1 3036 1969)">Typeset at 100 points</text>
  <text style="stroke:none;fill:black;font-family:-apple-system,&quot;SF Pro Display&quot;,&quot;SF Pro Text&quot;,Helvetica,sans-serif;" transform="matrix(1 0 0 1 263 726)">Small</text>
  <text style="stroke:none;fill:black;font-family:-apple-system,&quot;SF Pro Display&quot;,&quot;SF Pro Text&quot;,Helvetica,sans-serif;" transform="matrix(1 0 0 1 263 1156)">Medium</text>
  <text style="stroke:none;fill:black;font-family:-apple-system,&quot;SF Pro Display&quot;,&quot;SF Pro Text&quot;,Helvetica,sans-serif;" transform="matrix(1 0 0 1 263 1586)">Large</text>
 </g>
 <g id="Guides">
  <g id="H-reference" style="fill:#27AAE1;stroke:none;" transform="matrix(1 0 0 1 339 696)">
   <path d="M 54.9316 0 L 57.666 0 L 30.5664 -70.459 L 28.0762 -70.459 L 0.976562 0 L 3.66211 0 L 12.9395 -24.4629 L 45.7031 -24.4629 Z M 29.1992 -67.0898 L 29.4434 -67.0898 L 44.8242 -26.709 L 13.8184 -26.709 Z"/>
  </g>
  <line id="Baseline-S" style="fill:none;stroke:#27AAE1;opacity:1;stroke-width:0.577;" x1="263" x2="3036" y1="696" y2="696"/>
  <line id="Capline-S" style="fill:none;stroke:#27AAE1;opacity:1;stroke-width:0.577;" x1="263" x2="3036" y1="625.541" y2="625.541"/>
  <g id="H-reference" style="fill:#27AAE1;stroke:none;" transform="matrix(1 0 0 1 339 1126)">
   <path d="M 54.9316 0 L 57.666 0 L 30.5664 -70.459 L 28.0762 -70.459 L 0.976562 0 L 3.66211 0 L 12.9395 -24.4629 L 45.7031 -24.4629 Z M 29.1992 -67.0898 L 29.4434 -67.0898 L 44.8242 -26.709 L 13.8184 -26.709 Z"/>
  </g>
  <line id="Baseline-M" style="fill:none;stroke:#27AAE1;opacity:1;stroke-width:0.577;" x1="263" x2="3036" y1="1126" y2="1126"/>
  <line id="Capline-M" style="fill:none;stroke:#27AAE1;opacity:1;stroke-width:0.577;" x1="263" x2="3036" y1="1055.54" y2="1055.54"/>
  <g id="H-reference" style="fill:#27AAE1;stroke:none;" transform="matrix(1 0 0 1 339 1556)">
   <path d="M 54.9316 0 L 57.666 0 L 30.5664 -70.459 L 28.0762 -70.459 L 0.976562 0 L 3.66211 0 L 12.9395 -24.4629 L 45.7031 -24.4629 Z M 29.1992 -67.0898 L 29.4434 -67.0898 L 44.8242 -26.709 L 13.8184 -26.709 Z"/>
  </g>
  <line id="Baseline-L" style="fill:none;stroke:#27AAE1;opacity:1;stroke-width:0.577;" x1="263" x2="3036" y1="1556" y2="1556"/>
  <line id="Capline-L" style="fill:none;stroke:#27AAE1;opacity:1;stroke-width:0.577;" x1="263" x2="3036" y1="1485.54" y2="1485.54"/>
  <rect height="119.336" id="left-margin" style="fill:#00AEEF;stroke:none;opacity:0.4;" width="12.4512" x="1394.13" y="1030.79"/>
  <rect height="119.336" id="right-margin" style="fill:#00AEEF;stroke:none;opacity:0.4;" width="12.4512" x="1493.11" y="1030.79"/>
 </g>
 <g id="Symbols">
  <g id="Black-L" transform="matrix(1 0 0 1 2857.94 1556)">
   <path d="M 41.5527 -109.814 L 107.031 -109.814 C 106.445 -116.699 101.953 -120.605 94.6777 -120.605 L 53.9062 -120.605 C 46.6309 -120.605 42.1387 -116.699 41.5527 -109.814 Z M 30.957 -88.3789 L 117.432 -88.3789 C 116.65 -95.6055 112.5 -100 104.004 -100 L 44.3848 -100 C 35.8887 -100 31.7871 -95.6055 30.957 -88.3789 Z M 39.9902 41.748 L 111.621 41.748 C 126.221 41.748 134.863 33.1543 134.863 17.9199 L 134.863 -53.2227 C 134.863 -68.4082 126.221 -77.0508 110.986 -77.0508 L 39.9902 -77.0508 C 24.7559 -77.0508 16.0645 -68.4082 16.0645 -53.2227 L 16.0645 17.9199 C 16.0645 33.1543 24.7559 41.748 39.9902 41.748 Z M 91.3574 -8.98438 C 83.9844 -8.98438 78.1738 -15.3809 78.1738 -23.3887 C 78.1738 -31.2012 84.0332 -37.5488 91.3574 -37.5488 C 98.7305 -37.5488 104.639 -31.25 104.639 -23.3887 C 104.639 -15.3809 98.7793 -8.98438 91.3574 -8.98438 Z M 54.0039 -8.30078 C 47.6562 -8.30078 42.5293 -13.8184 42.4805 -20.8496 C 42.4316 -27.5879 47.7051 -33.1543 54.0039 -33.1543 C 60.4004 -33.1543 65.5273 -27.6367 65.5273 -20.8496 C 65.5273 -13.8184 60.498 -8.30078 54.0039 -8.30078 Z M 38.7695 25.5859 C 33.1543 25.5859 32.1777 24.5605 32.1777 19.0918 L 32.1777 7.51953 C 36.1816 1.70898 44.2383 -3.36914 54.0039 -3.36914 C 58.3984 -3.36914 62.3535 -2.29492 65.4297 -0.732422 C 57.0801 6.00586 54.1992 20.3613 57.9102 25.5859 Z M 67.5781 25.5859 C 65.9668 25.5859 64.2578 23.4863 64.2578 20.166 C 64.2578 7.91016 74.9512 -3.27148 91.3574 -3.27148 C 103.369 -3.27148 112.402 2.53906 116.406 8.83789 L 116.406 19.0918 C 116.406 24.6094 115.381 25.5859 110.449 25.5859 Z"/>
  </g>
  <g id="Heavy-L" transform="matrix(1 0 0 1 2562.25 1556)">
   <path d="M 41.4062 -107.715 L 105.469 -107.715 C 104.932 -114.062 100.879 -117.627 94.1895 -117.627 L 52.6855 -117.627 C 45.9473 -117.627 41.8945 -114.062 41.4062 -107.715 Z M 30.7617 -87.4512 L 115.82 -87.4512 C 115.039 -94.0918 111.328 -98.1445 103.613 -98.1445 L 43.0176 -98.1445 C 35.2539 -98.1445 31.543 -94.0918 30.7617 -87.4512 Z M 38.8184 40.4297 L 110.938 40.4297 C 124.707 40.4297 132.812 32.3242 132.812 17.7734 L 132.812 -53.7109 C 132.812 -68.2617 124.707 -76.3672 110.059 -76.3672 L 38.8184 -76.3672 C 24.2188 -76.3672 16.0645 -68.2617 16.0645 -53.7109 L 16.0645 17.7734 C 16.0645 32.3242 24.2188 40.4297 38.8184 40.4297 Z M 91.1621 -8.88672 C 83.6914 -8.88672 77.6855 -15.4297 77.6855 -23.6328 C 77.6855 -31.6895 83.7402 -38.1348 91.1621 -38.1348 C 98.6328 -38.1348 104.688 -31.7383 104.688 -23.6816 C 104.688 -15.4297 98.6816 -8.88672 91.1621 -8.88672 Z M 52.832 -8.20312 C 46.3379 -8.20312 41.1133 -13.8184 41.0645 -21.0449 C 41.0156 -27.9785 46.3867 -33.6426 52.832 -33.6426 C 59.2773 -33.6426 64.5508 -28.0273 64.5508 -21.0449 C 64.5508 -13.8184 59.375 -8.20312 52.832 -8.20312 Z M 37.8906 25.8789 C 31.8359 25.8789 30.5664 24.5605 30.5664 18.6523 L 30.5664 8.34961 C 34.2285 2.53906 42.3828 -3.07617 52.7832 -3.07617 C 57.6172 -3.07617 61.7188 -1.85547 64.9902 0 C 56.6895 6.64062 53.4668 20.8984 57.2266 25.8789 Z M 66.9922 25.8789 C 65.2832 25.8789 63.4766 23.9258 63.4766 20.6055 C 63.4766 8.59375 74.3164 -2.97852 91.1621 -2.97852 C 103.467 -2.97852 112.695 3.125 116.504 9.375 L 116.504 18.6523 C 116.504 24.6094 115.186 25.8789 110.059 25.8789 Z"/>
  </g>
  <g id="Bold-L" transform="matrix(1 0 0 1 2266.69 1556)">
   <path d="M 41.2109 -105.42 L 103.662 -105.42 C 103.223 -111.133 99.6582 -114.355 93.5547 -114.355 L 51.3184 -114.355 C 45.2148 -114.355 41.6504 -111.133 41.2109 -105.42 Z M 30.5176 -86.377 L 114.062 -86.377 C 113.281 -92.3828 110.059 -96.0449 103.125 -96.0449 L 41.4551 -96.0449 C 34.5703 -96.0449 31.2988 -92.3828 30.5176 -86.377 Z M 37.5 38.916 L 110.156 38.916 C 123.047 38.916 130.518 31.3965 130.518 17.5781 L 130.518 -54.248 C 130.518 -68.0664 122.998 -75.5859 109.082 -75.5859 L 37.5 -75.5859 C 23.6328 -75.5859 16.0645 -68.0664 16.0645 -54.248 L 16.0645 17.5781 C 16.0645 31.4453 23.6328 38.916 37.5 38.916 Z M 90.9668 -8.83789 C 83.3496 -8.83789 77.1973 -15.4785 77.1973 -23.9258 C 77.1973 -32.1777 83.4473 -38.8184 90.9668 -38.8184 C 98.5352 -38.8184 104.736 -32.3242 104.736 -24.0234 C 104.736 -15.4785 98.584 -8.83789 90.9668 -8.83789 Z M 51.4648 -8.10547 C 44.873 -8.10547 39.4531 -13.8184 39.4531 -21.2402 C 39.4043 -28.418 44.9219 -34.1797 51.4648 -34.1797 C 58.0566 -34.1797 63.4766 -28.5156 63.4766 -21.2891 C 63.4766 -13.8184 58.1055 -8.10547 51.4648 -8.10547 Z M 36.9141 26.2207 C 30.3223 26.2207 28.7598 24.5117 28.7598 18.1641 L 28.7598 9.32617 C 32.0801 3.4668 40.2832 -2.7832 51.4648 -2.7832 C 56.7871 -2.7832 61.0352 -1.36719 64.5508 0.830078 C 56.2012 7.32422 52.6855 21.5332 56.4941 26.2207 Z M 66.3574 26.2207 C 64.502 26.2207 62.6465 24.4141 62.6465 21.1426 C 62.6465 9.32617 73.6328 -2.68555 90.918 -2.68555 C 103.564 -2.68555 113.086 3.80859 116.65 10.0098 L 116.65 18.1641 C 116.65 24.5605 114.99 26.2207 109.57 26.2207 Z"/>
  </g>
  <g id="Semibold-L" transform="matrix(1 0 0 1 1970.76 1556)">
   <path d="M 41.0645 -103.809 L 102.441 -103.809 C 102.051 -109.082 98.8281 -112.061 93.1641 -112.061 L 50.3906 -112.061 C 44.6777 -112.061 41.4551 -109.082 41.0645 -103.809 Z M 30.3711 -85.6445 L 112.842 -85.6445 C 112.109 -91.2598 109.131 -94.5801 102.832 -94.5801 L 40.3809 -94.5801 C 34.082 -94.5801 31.1035 -91.2598 30.3711 -85.6445 Z M 36.6211 37.8906 L 109.619 37.8906 C 121.875 37.8906 128.955 30.7617 128.955 17.4805 L 128.955 -54.6387 C 128.955 -67.9199 121.826 -75 108.398 -75 L 36.6211 -75 C 23.1934 -75 16.0645 -67.9688 16.0645 -54.6387 L 16.0645 17.4805 C 16.0645 30.8105 23.1934 37.8906 36.6211 37.8906 Z M 90.8203 -8.78906 C 83.1543 -8.78906 76.8066 -15.5273 76.8066 -24.1211 C 76.8066 -32.5684 83.2031 -39.2578 90.8203 -39.2578 C 98.4375 -39.2578 104.785 -32.666 104.785 -24.2188 C 104.785 -15.5273 98.4863 -8.78906 90.8203 -8.78906 Z M 50.5371 -8.00781 C 43.8965 -8.00781 38.3789 -13.8672 38.3301 -21.4355 C 38.3301 -28.7109 43.9453 -34.5215 50.5371 -34.5215 C 57.1777 -34.5215 62.6953 -28.8086 62.6953 -21.4355 C 62.6953 -13.8672 57.2266 -8.00781 50.5371 -8.00781 Z M 36.2305 26.416 C 29.2969 26.416 27.4902 24.5117 27.4902 17.8711 L 27.4902 9.96094 C 30.6152 4.10156 38.8184 -2.53906 50.5371 -2.53906 C 56.2012 -2.53906 60.5469 -1.02539 64.209 1.36719 C 55.8594 7.8125 52.1484 21.9727 55.957 26.416 Z M 65.918 26.416 C 63.9648 26.416 62.0117 24.7559 62.0117 21.5332 C 62.0117 9.86328 73.1445 -2.44141 90.7715 -2.44141 C 103.613 -2.44141 113.33 4.24805 116.748 10.4492 L 116.748 17.8711 C 116.748 24.5605 114.844 26.416 109.229 26.416 Z"/>
  </g>
  <g id="Medium-L" transform="matrix(1 0 0 1 1674.63 1556)">
   <path d="M 40.9668 -102.588 L 101.514 -102.588 C 101.172 -107.568 98.1934 -110.352 92.8711 -110.352 L 49.6582 -110.352 C 44.2871 -110.352 41.3574 -107.568 40.9668 -102.588 Z M 30.2246 -85.1074 L 111.914 -85.1074 C 111.182 -90.3809 108.447 -93.457 102.588 -93.457 L 39.5996 -93.457 C 33.6914 -93.457 31.0059 -90.3809 30.2246 -85.1074 Z M 35.9375 37.1094 L 109.229 37.1094 C 120.996 37.1094 127.783 30.3223 127.783 17.3828 L 127.783 -54.8828 C 127.783 -67.8223 120.947 -74.6094 107.861 -74.6094 L 35.9375 -74.6094 C 22.9004 -74.6094 16.0645 -67.8711 16.0645 -54.8828 L 16.0645 17.3828 C 16.0645 30.3711 22.9004 37.1094 35.9375 37.1094 Z M 90.7227 -8.74023 C 82.959 -8.74023 76.5625 -15.5762 76.5625 -24.2676 C 76.5625 -32.8613 83.0078 -39.5996 90.7227 -39.5996 C 98.3887 -39.5996 104.785 -32.959 104.785 -24.3652 C 104.785 -15.5762 98.4375 -8.74023 90.7227 -8.74023 Z M 49.8535 -7.95898 C 43.1152 -7.95898 37.5 -13.8672 37.5 -21.5332 C 37.5 -28.9551 43.1641 -34.7656 49.8535 -34.7656 C 56.543 -34.7656 62.1582 -29.0527 62.1582 -21.582 C 62.1582 -13.8672 56.5918 -7.95898 49.8535 -7.95898 Z M 35.6934 26.5625 C 28.5156 26.5625 26.5137 24.4629 26.5137 17.5781 L 26.5137 10.4492 C 29.4922 4.58984 37.6953 -2.39258 49.8047 -2.39258 C 55.7129 -2.39258 60.1562 -0.78125 63.9648 1.80664 C 55.6152 8.20312 51.709 22.2656 55.5664 26.5625 Z M 65.5762 26.5625 C 63.5254 26.5625 61.5723 25 61.5723 21.7773 C 61.5723 10.2539 72.8027 -2.29492 90.6738 -2.29492 C 103.662 -2.29492 113.525 4.58984 116.846 10.7422 L 116.846 17.5781 C 116.846 24.5605 114.746 26.5625 108.984 26.5625 Z"/>
  </g>
  <g id="Regular-L" transform="matrix(1 0 0 1 1378.7 1556)">
   <path d="M 40.8691 -101.025 L 100.342 -101.025 C 100.049 -105.566 97.4121 -108.057 92.4805 -108.057 L 48.7305 -108.057 C 43.7988 -108.057 41.1621 -105.566 40.8691 -101.025 Z M 30.0781 -84.375 L 110.693 -84.375 C 109.961 -89.209 107.568 -92.041 102.246 -92.041 L 38.5254 -92.041 C 33.2031 -92.041 30.8105 -89.209 30.0781 -84.375 Z M 35.0586 36.084 L 108.691 36.084 C 119.824 36.084 126.221 29.6875 126.221 17.2363 L 126.221 -55.2734 C 126.221 -67.6758 119.775 -74.0723 107.178 -74.0723 L 35.0586 -74.0723 C 22.4609 -74.0723 16.0645 -67.7246 16.0645 -55.2734 L 16.0645 17.2363 C 16.0645 29.7363 22.4609 36.084 35.0586 36.084 Z M 90.5762 -8.69141 C 82.7148 -8.69141 76.2207 -15.625 76.2207 -24.5117 C 76.2207 -33.2031 82.8125 -40.0391 90.5762 -40.0391 C 98.3398 -40.0391 104.834 -33.3496 104.834 -24.6094 C 104.834 -15.625 98.3887 -8.69141 90.5762 -8.69141 Z M 48.9258 -7.86133 C 42.1387 -7.86133 36.4258 -13.8672 36.4258 -21.6797 C 36.4258 -29.248 42.1387 -35.1562 48.9258 -35.1562 C 55.6641 -35.1562 61.377 -29.3457 61.377 -21.7285 C 61.377 -13.8672 55.7129 -7.86133 48.9258 -7.86133 Z M 35.0098 26.8066 C 27.4902 26.8066 25.293 24.4629 25.293 17.2363 L 25.293 11.1328 C 28.0273 5.22461 36.2793 -2.19727 48.877 -2.19727 C 55.127 -2.19727 59.7168 -0.439453 63.6719 2.39258 C 55.3223 8.69141 51.1719 22.7051 55.0293 26.8066 Z M 65.1367 26.8066 C 62.9883 26.8066 60.9863 25.3418 60.9863 22.168 C 60.9863 10.7422 72.3633 -2.09961 90.5273 -2.09961 C 103.711 -2.09961 113.77 5.07812 116.943 11.1816 L 116.943 17.2363 C 116.943 24.5605 114.6 26.8066 108.691 26.8066 Z"/>
  </g>
  <g id="Light-L" transform="matrix(1 0 0 1 1083.02 1556)">
   <path d="M 39.4531 -100.195 L 100.098 -100.195 C 99.9512 -103.711 97.8516 -105.859 94.0918 -105.859 L 45.459 -105.859 C 41.6992 -105.859 39.5996 -103.711 39.4531 -100.195 Z M 29.248 -84.668 L 110.059 -84.668 C 109.619 -88.3301 107.666 -90.6738 103.662 -90.6738 L 35.6445 -90.6738 C 31.6406 -90.6738 29.6875 -88.3301 29.248 -84.668 Z M 34.0332 34.1309 L 107.129 34.1309 C 118.066 34.1309 124.17 27.9297 124.17 16.2598 L 124.17 -56.1523 C 124.17 -67.8223 118.066 -73.9746 106.201 -73.9746 L 34.0332 -73.9746 C 22.168 -73.9746 16.0645 -67.9199 16.0645 -56.1523 L 16.0645 16.2598 C 16.0645 28.0273 22.168 34.1309 34.0332 34.1309 Z M 90.5762 -9.32617 C 82.4219 -9.32617 75.9277 -16.4062 75.9277 -25.5371 C 75.9277 -34.375 82.5195 -41.5039 90.5762 -41.5039 C 98.584 -41.5039 105.176 -34.4727 105.176 -25.5859 C 105.176 -16.4062 98.6816 -9.32617 90.5762 -9.32617 Z M 47.6074 -8.49609 C 40.4785 -8.49609 34.7656 -14.5996 34.7656 -22.6562 C 34.7656 -30.3223 40.5273 -36.4746 47.6074 -36.4746 C 54.541 -36.4746 60.3027 -30.4199 60.3027 -22.6562 C 60.3027 -14.5996 54.6387 -8.49609 47.6074 -8.49609 Z M 34.0332 26.5137 C 26.3184 26.5137 23.6328 23.7305 23.6328 16.2598 L 23.6328 10.5957 C 25.8301 5.37109 34.1309 -2.88086 47.5098 -2.88086 C 54.4434 -2.88086 59.375 -0.78125 63.4277 2.44141 C 54.8828 9.22852 51.2207 23.0469 55.3223 26.5137 Z M 64.8926 26.5137 C 62.1582 26.5137 60.1074 25.1465 60.1074 21.9238 C 60.1074 10.4492 71.8262 -2.7832 90.5273 -2.7832 C 103.564 -2.7832 113.867 4.49219 116.553 9.96094 L 116.553 16.2598 C 116.553 23.7793 113.77 26.5137 107.129 26.5137 Z"/>
  </g>
  <g id="Thin-L" transform="matrix(1 0 0 1 787.648 1556)">
   <path d="M 37.5488 -99.1699 L 99.8535 -99.1699 C 99.8047 -101.221 98.4375 -102.881 96.2402 -102.881 L 41.1621 -102.881 C 38.9648 -102.881 37.5977 -101.221 37.5488 -99.1699 Z M 28.125 -85.1074 L 109.229 -85.1074 C 109.131 -87.207 107.812 -88.916 105.566 -88.916 L 31.7871 -88.916 C 29.541 -88.916 28.2227 -87.207 28.125 -85.1074 Z M 32.666 31.543 L 105.078 31.543 C 115.771 31.543 121.484 25.6348 121.484 14.9414 L 121.484 -57.3242 C 121.484 -68.0176 115.771 -73.877 104.883 -73.877 L 32.666 -73.877 C 21.7773 -73.877 16.0645 -68.1641 16.0645 -57.3242 L 16.0645 14.9414 C 16.0645 25.7812 21.7773 31.543 32.666 31.543 Z M 90.625 -10.1074 C 81.9824 -10.1074 75.5371 -17.4805 75.5371 -26.9531 C 75.5371 -35.8887 82.1289 -43.457 90.625 -43.457 C 98.9746 -43.457 105.615 -35.9375 105.615 -26.9531 C 105.615 -17.4805 99.1211 -10.1074 90.625 -10.1074 Z M 45.8008 -9.32617 C 38.3301 -9.32617 32.6172 -15.625 32.6172 -23.9258 C 32.6172 -31.7383 38.4277 -38.1836 45.8008 -38.1836 C 53.0273 -38.1836 58.8867 -31.7871 58.8867 -23.9258 C 58.8867 -15.625 53.2227 -9.32617 45.8008 -9.32617 Z M 32.666 26.123 C 24.7559 26.123 21.4844 22.7539 21.4844 14.9414 L 21.4844 9.86328 C 22.9492 5.51758 31.2988 -3.80859 45.6543 -3.80859 C 53.4668 -3.80859 58.8867 -1.17188 63.1348 2.49023 C 54.3457 9.96094 51.3672 23.5352 55.7129 26.123 Z M 64.5508 26.123 C 61.084 26.123 58.9355 24.9512 58.9355 21.582 C 58.9355 10.0586 71.0938 -3.66211 90.5273 -3.66211 C 103.369 -3.66211 113.965 3.75977 116.064 8.34961 L 116.064 14.9414 C 116.064 22.7539 112.646 26.123 105.078 26.123 Z"/>
  </g>
  <g id="Ultralight-L" transform="matrix(1 0 0 1 491.62 1556)">
   <path d="M 36.5723 -98.6328 L 99.707 -98.6328 C 99.7559 -99.9512 98.7305 -101.367 97.3145 -101.367 L 38.9648 -101.367 C 37.5977 -101.367 36.5723 -99.9512 36.5723 -98.6328 Z M 27.5391 -85.3027 L 108.838 -85.3027 C 108.936 -86.6211 107.861 -87.9883 106.543 -87.9883 L 29.834 -87.9883 C 28.5156 -87.9883 27.4414 -86.6211 27.5391 -85.3027 Z M 31.9824 30.1758 L 104.004 30.1758 C 114.551 30.1758 120.117 24.4629 120.117 14.2578 L 120.117 -57.9102 C 120.117 -68.1152 114.551 -73.8281 104.199 -73.8281 L 31.9824 -73.8281 C 21.582 -73.8281 16.0645 -68.3105 16.0645 -57.9102 L 16.0645 14.2578 C 16.0645 24.6582 21.582 30.1758 31.9824 30.1758 Z M 90.625 -10.5469 C 81.7383 -10.5469 75.3418 -18.0176 75.3418 -27.6367 C 75.3418 -36.7188 81.9336 -44.4336 90.625 -44.4336 C 99.1699 -44.4336 105.859 -36.6699 105.859 -27.6367 C 105.859 -18.0176 99.3164 -10.5469 90.625 -10.5469 Z M 44.873 -9.7168 C 37.2559 -9.7168 31.543 -16.1133 31.543 -24.5605 C 31.543 -32.4707 37.3535 -39.0625 44.873 -39.0625 C 52.2949 -39.0625 58.1543 -32.4707 58.1543 -24.5605 C 58.1543 -16.1133 52.4414 -9.7168 44.873 -9.7168 Z M 31.9824 25.9277 C 23.9746 25.9277 20.3613 22.2168 20.3613 14.2578 L 20.3613 9.52148 C 21.4844 5.61523 29.834 -4.29688 44.7266 -4.29688 C 52.9785 -4.29688 58.6426 -1.36719 62.9395 2.53906 C 54.0527 10.3516 51.416 23.7793 55.8594 25.9277 Z M 64.4043 25.9277 C 60.498 25.9277 58.3008 24.8535 58.3008 21.4355 C 58.3008 9.81445 70.752 -4.15039 90.5273 -4.15039 C 103.271 -4.15039 114.062 3.36914 115.82 7.51953 L 115.82 14.2578 C 115.82 22.2168 112.061 25.9277 104.004 25.9277 Z"/>
  </g>
  <g id="Black-M" transform="matrix(1 0 0 1 2874.07 1126)">
   <path d="M 31.6895 -95.4102 L 84.9609 -95.4102 C 84.4727 -100.928 80.7129 -104.15 74.9512 -104.15 L 41.6504 -104.15 C 35.9375 -104.15 32.1777 -100.928 31.6895 -95.4102 Z M 23.8281 -77.8809 L 92.8223 -77.8809 C 92.334 -83.5449 88.8184 -87.2559 81.9336 -87.2559 L 34.7168 -87.2559 C 27.832 -87.2559 24.3164 -83.5449 23.8281 -77.8809 Z M 31.9824 25.1953 L 86.6211 25.1953 C 98.9258 25.1953 106.201 17.9199 106.201 5.66406 L 106.201 -49.0234 C 106.201 -61.2793 98.9258 -68.5547 86.6699 -68.5547 L 31.9824 -68.5547 C 19.7266 -68.5547 12.4512 -61.2793 12.4512 -49.0234 L 12.4512 5.66406 C 12.4512 17.9199 19.7266 25.1953 31.9824 25.1953 Z M 71.0449 -15.2832 C 65.332 -15.2832 61.0352 -20.2148 61.0352 -26.2207 C 61.0352 -32.0801 65.3809 -37.0117 71.0449 -37.0117 C 76.8066 -37.0117 81.2012 -32.0801 81.2012 -26.2207 C 81.2012 -20.2148 76.8555 -15.2832 71.0449 -15.2832 Z M 42.7734 -14.8438 C 37.8418 -14.8438 34.0332 -19.043 33.9844 -24.3164 C 33.9355 -29.3457 37.8906 -33.6914 42.7734 -33.6914 C 47.7539 -33.6914 51.5137 -29.3457 51.5137 -24.3164 C 51.5137 -19.043 47.8027 -14.8438 42.7734 -14.8438 Z M 30.7129 11.377 C 26.9043 11.377 26.2695 10.791 26.2695 6.93359 L 26.2695 -3.51562 C 29.4434 -7.66602 35.6934 -11.2793 42.7734 -11.2793 C 45.8984 -11.2793 48.9746 -10.4492 51.123 -9.47266 C 44.5801 -3.80859 43.0176 7.32422 45.9473 11.377 Z M 53.0273 11.377 C 51.6113 11.377 50.3906 9.61914 50.3906 6.93359 C 50.3906 -2.88086 58.5938 -11.1816 71.0449 -11.1816 C 79.9316 -11.1816 86.7188 -7.03125 89.8438 -2.49023 L 89.8438 6.93359 C 89.8438 10.7422 89.209 11.377 85.3516 11.377 Z"/>
  </g>
  <g id="Heavy-M" transform="matrix(1 0 0 1 2578.22 1126)">
   <path d="M 31.8359 -93.3594 L 83.3008 -93.3594 C 82.8613 -98.5352 79.3945 -101.514 73.9746 -101.514 L 41.2109 -101.514 C 35.7422 -101.514 32.3242 -98.5352 31.8359 -93.3594 Z M 23.8281 -76.7578 L 91.2598 -76.7578 C 90.6738 -82.1289 87.5 -85.5469 81.1035 -85.5469 L 33.9844 -85.5469 C 27.5391 -85.5469 24.3652 -82.1289 23.8281 -76.7578 Z M 31.0059 24.2188 L 86.2793 24.2188 C 97.7539 24.2188 104.492 17.4805 104.492 5.76172 L 104.492 -49.3164 C 104.492 -61.0352 97.7051 -67.8223 85.9375 -67.8223 L 31.0059 -67.8223 C 19.2383 -67.8223 12.4512 -61.0352 12.4512 -49.3164 L 12.4512 5.76172 C 12.4512 17.4805 19.2383 24.2188 31.0059 24.2188 Z M 70.8496 -15.0391 C 65.0879 -15.0391 60.5957 -20.0684 60.5957 -26.2695 C 60.5957 -32.2754 65.1367 -37.2559 70.8496 -37.2559 C 76.6113 -37.2559 81.1523 -32.3242 81.1523 -26.2695 C 81.1523 -20.0684 76.6602 -15.0391 70.8496 -15.0391 Z M 41.7969 -14.5508 C 36.8164 -14.5508 32.9102 -18.8477 32.8613 -24.2676 C 32.8125 -29.4922 36.8652 -33.8867 41.7969 -33.8867 C 46.8262 -33.8867 50.7324 -29.541 50.7324 -24.2676 C 50.7324 -18.8477 46.875 -14.5508 41.7969 -14.5508 Z M 29.9805 11.7676 C 25.7324 11.7676 24.9023 10.9375 24.9023 6.73828 L 24.9023 -2.44141 C 27.9297 -6.78711 34.1797 -10.791 41.7969 -10.791 C 45.2637 -10.791 48.3887 -9.91211 50.7324 -8.69141 C 44.2383 -3.27148 42.1875 7.8125 45.1172 11.7676 Z M 52.4414 11.7676 C 51.0742 11.7676 49.7559 10.1562 49.7559 7.51953 C 49.7559 -2.05078 58.1055 -10.6934 70.8496 -10.6934 C 80.0781 -10.6934 87.0605 -6.25 90.0879 -1.5625 L 90.0879 6.73828 C 90.0879 10.9375 89.2578 11.7676 85.3027 11.7676 Z"/>
  </g>
  <g id="Bold-M" transform="matrix(1 0 0 1 2282.46 1126)">
   <path d="M 32.0801 -91.0156 L 81.4453 -91.0156 C 81.0059 -95.8496 77.9785 -98.584 72.8516 -98.584 L 40.625 -98.584 C 35.5469 -98.584 32.4707 -95.8496 32.0801 -91.0156 Z M 23.8281 -75.4883 L 89.502 -75.4883 C 88.8672 -80.5664 86.084 -83.6426 80.1758 -83.6426 L 33.1055 -83.6426 C 27.2461 -83.6426 24.4141 -80.5664 23.8281 -75.4883 Z M 29.8828 23.1445 L 85.8887 23.1445 C 96.3867 23.1445 102.588 16.9922 102.588 5.85938 L 102.588 -49.6094 C 102.588 -60.791 96.3867 -66.9434 85.1562 -66.9434 L 29.8828 -66.9434 C 18.6523 -66.9434 12.4512 -60.791 12.4512 -49.6094 L 12.4512 5.85938 C 12.4512 16.9922 18.6523 23.1445 29.8828 23.1445 Z M 70.6055 -14.7949 C 64.7949 -14.7949 60.1562 -19.873 60.1562 -26.2695 C 60.1562 -32.5195 64.8438 -37.5488 70.6055 -37.5488 C 76.416 -37.5488 81.1523 -32.6172 81.1523 -26.3184 C 81.1523 -19.873 76.4648 -14.7949 70.6055 -14.7949 Z M 40.7227 -14.2578 C 35.6934 -14.2578 31.5918 -18.6523 31.543 -24.2676 C 31.543 -29.6875 35.7422 -34.082 40.7227 -34.082 C 45.752 -34.082 49.8535 -29.7363 49.8535 -24.2676 C 49.8535 -18.6523 45.8008 -14.2578 40.7227 -14.2578 Z M 29.1992 12.207 C 24.4141 12.207 23.3887 11.084 23.3887 6.49414 L 23.3887 -1.26953 C 26.2207 -5.81055 32.5195 -10.2539 40.7227 -10.2539 C 44.5312 -10.2539 47.7051 -9.27734 50.293 -7.8125 C 43.8477 -2.68555 41.3086 8.39844 44.2383 12.207 Z M 51.8066 12.207 C 50.4883 12.207 49.0723 10.6934 49.0723 8.1543 C 49.0723 -1.12305 57.4707 -10.1562 70.6055 -10.1562 C 80.1758 -10.1562 87.4023 -5.37109 90.332 -0.537109 L 90.332 6.49414 C 90.332 11.1328 89.2578 12.207 85.2051 12.207 Z"/>
  </g>
  <g id="Semibold-M" transform="matrix(1 0 0 1 1986.41 1126)">
   <path d="M 32.2266 -89.4531 L 80.127 -89.4531 C 79.7852 -93.9941 76.9531 -96.5332 72.0703 -96.5332 L 40.2832 -96.5332 C 35.4004 -96.5332 32.5684 -93.9941 32.2266 -89.4531 Z M 23.8281 -74.6582 L 88.2812 -74.6582 C 87.5977 -79.4922 85.0586 -82.3242 79.541 -82.3242 L 32.5195 -82.3242 C 27.002 -82.3242 24.4629 -79.4922 23.8281 -74.6582 Z M 29.1016 22.4121 L 85.5957 22.4121 C 95.459 22.4121 101.27 16.6504 101.27 5.9082 L 101.27 -49.8535 C 101.27 -60.5957 95.459 -66.4062 84.6191 -66.4062 L 29.1016 -66.4062 C 18.2617 -66.4062 12.4512 -60.6445 12.4512 -49.8535 L 12.4512 5.9082 C 12.4512 16.6992 18.2617 22.4121 29.1016 22.4121 Z M 70.459 -14.6484 C 64.6484 -14.6484 59.8145 -19.7754 59.8145 -26.2695 C 59.8145 -32.7148 64.6484 -37.793 70.459 -37.793 C 76.2695 -37.793 81.1035 -32.8125 81.1035 -26.3672 C 81.1035 -19.7754 76.3184 -14.6484 70.459 -14.6484 Z M 39.9902 -14.0625 C 34.9121 -14.0625 30.7129 -18.5059 30.6641 -24.2188 C 30.6641 -29.7852 34.9609 -34.1797 39.9902 -34.1797 C 45.0195 -34.1797 49.2676 -29.834 49.2676 -24.2676 C 49.2676 -18.5059 45.0684 -14.0625 39.9902 -14.0625 Z M 28.6621 12.5 C 23.5352 12.5 22.3633 11.2305 22.3633 6.29883 L 22.3633 -0.439453 C 25 -5.12695 31.3477 -9.86328 39.9902 -9.86328 C 44.043 -9.86328 47.2656 -8.83789 50 -7.17773 C 43.6035 -2.24609 40.6738 8.78906 43.6035 12.5 Z M 51.3672 12.5 C 50.0488 12.5 48.584 11.084 48.584 8.59375 C 48.584 -0.488281 57.0801 -9.81445 70.459 -9.81445 C 80.2734 -9.81445 87.6465 -4.78516 90.5273 0.195312 L 90.5273 6.29883 C 90.5273 11.2793 89.2578 12.5 85.2051 12.5 Z"/>
  </g>
  <g id="Medium-M" transform="matrix(1 0 0 1 1690.21 1126)">
   <path d="M 32.3242 -88.2324 L 79.1504 -88.2324 C 78.8086 -92.627 76.2207 -94.9707 71.4844 -94.9707 L 39.9902 -94.9707 C 35.2539 -94.9707 32.666 -92.627 32.3242 -88.2324 Z M 23.8281 -73.9746 L 87.3535 -73.9746 C 86.6699 -78.6621 84.3262 -81.3477 79.0527 -81.3477 L 32.0801 -81.3477 C 26.8555 -81.3477 24.5117 -78.6621 23.8281 -73.9746 Z M 28.5156 21.875 L 85.4004 21.875 C 94.7754 21.875 100.244 16.4062 100.244 5.95703 L 100.244 -50 C 100.244 -60.498 94.7266 -65.9668 84.1797 -65.9668 L 28.5156 -65.9668 C 17.9688 -65.9668 12.4512 -60.498 12.4512 -50 L 12.4512 5.95703 C 12.4512 16.4062 17.9688 21.875 28.5156 21.875 Z M 70.3125 -14.502 C 64.502 -14.502 59.5703 -19.6777 59.5703 -26.3184 C 59.5703 -32.8125 64.502 -37.9395 70.3125 -37.9395 C 76.1719 -37.9395 81.1035 -32.959 81.1035 -26.3672 C 81.1035 -19.6777 76.2207 -14.502 70.3125 -14.502 Z M 39.4531 -13.8672 C 34.3262 -13.8672 30.0293 -18.3594 30.0293 -24.2188 C 30.0293 -29.8828 34.375 -34.2773 39.4531 -34.2773 C 44.4824 -34.2773 48.7793 -29.9805 48.7793 -24.2676 C 48.7793 -18.3594 44.5312 -13.8672 39.4531 -13.8672 Z M 28.2715 12.6953 C 22.8516 12.6953 21.582 11.3281 21.582 6.20117 L 21.582 0.195312 C 24.1211 -4.58984 30.4688 -9.57031 39.4043 -9.57031 C 43.6523 -9.57031 46.9238 -8.54492 49.7559 -6.73828 C 43.3594 -1.95312 40.2344 9.08203 43.1152 12.6953 Z M 51.0254 12.6953 C 49.707 12.6953 48.2422 11.4258 48.2422 8.93555 C 48.2422 -0.0488281 56.7871 -9.52148 70.3125 -9.52148 C 80.3711 -9.52148 87.8418 -4.29688 90.6738 0.732422 L 90.6738 6.20117 C 90.6738 11.377 89.3066 12.6953 85.1562 12.6953 Z"/>
  </g>
  <g id="Regular-M" transform="matrix(1 0 0 1 1394.13 1126)">
   <path d="M 32.4707 -86.6699 L 77.8809 -86.6699 C 77.5879 -90.8203 75.2441 -92.9688 70.752 -92.9688 L 39.5996 -92.9688 C 35.1074 -92.9688 32.7637 -90.8203 32.4707 -86.6699 Z M 23.7793 -73.1445 L 86.1328 -73.1445 C 85.4492 -77.5879 83.3008 -80.0293 78.418 -80.0293 L 31.4941 -80.0293 C 26.6113 -80.0293 24.5117 -77.5879 23.7793 -73.1445 Z M 27.7832 21.1426 L 85.1074 21.1426 C 93.8477 21.1426 98.9746 16.0645 98.9746 6.00586 L 98.9746 -50.2441 C 98.9746 -60.3027 93.7988 -65.3809 83.6426 -65.3809 L 27.7832 -65.3809 C 17.5781 -65.3809 12.4512 -60.3027 12.4512 -50.2441 L 12.4512 6.00586 C 12.4512 16.1133 17.5781 21.1426 27.7832 21.1426 Z M 70.166 -14.3066 C 64.3066 -14.3066 59.2285 -19.5801 59.2285 -26.3184 C 59.2285 -33.0078 64.3555 -38.1348 70.166 -38.1348 C 76.0254 -38.1348 81.0547 -33.1543 81.0547 -26.416 C 81.0547 -19.5801 76.0742 -14.3066 70.166 -14.3066 Z M 38.7207 -13.6719 C 33.5938 -13.6719 29.1504 -18.2617 29.1504 -24.1699 C 29.1504 -29.9805 33.5938 -34.4238 38.7207 -34.4238 C 43.7988 -34.4238 48.1934 -30.0781 48.1934 -24.2188 C 48.1934 -18.2617 43.7988 -13.6719 38.7207 -13.6719 Z M 27.7344 12.9883 C 21.9727 12.9883 20.5566 11.4258 20.5566 6.00586 L 20.5566 0.976562 C 22.9492 -3.95508 29.3457 -9.22852 38.6719 -9.22852 C 43.1641 -9.22852 46.4844 -8.10547 49.4629 -6.10352 C 43.1152 -1.51367 39.5996 9.42383 42.5293 12.9883 Z M 50.5859 12.9883 C 49.3164 12.9883 47.7539 11.8164 47.7539 9.375 C 47.7539 0.585938 56.3477 -9.13086 70.166 -9.13086 C 80.4688 -9.13086 88.1348 -3.71094 90.8203 1.41602 L 90.8203 6.00586 C 90.8203 11.5234 89.3066 12.9883 85.1074 12.9883 Z"/>
  </g>
  <g id="Light-M" transform="matrix(1 0 0 1 1098.35 1126)">
   <path d="M 31.2012 -85.9375 L 77.6855 -85.9375 C 77.4902 -89.1113 75.6348 -90.9668 72.168 -90.9668 L 36.7188 -90.9668 C 33.252 -90.9668 31.3965 -89.1113 31.2012 -85.9375 Z M 23.0469 -73.4375 L 85.5957 -73.4375 C 85.1074 -76.8066 83.3984 -78.8086 79.6875 -78.8086 L 28.9062 -78.8086 C 25.2441 -78.8086 23.5352 -76.8066 23.0469 -73.4375 Z M 26.8555 19.3848 L 83.6914 19.3848 C 92.2852 19.3848 97.1191 14.502 97.1191 5.12695 L 97.1191 -51.0254 C 97.1191 -60.4492 92.2852 -65.2832 82.7637 -65.2832 L 26.8555 -65.2832 C 17.334 -65.2832 12.4512 -60.498 12.4512 -51.0254 L 12.4512 5.12695 C 12.4512 14.5508 17.334 19.3848 26.8555 19.3848 Z M 70.2148 -14.8926 C 64.0137 -14.8926 58.9844 -20.3125 58.9844 -27.2461 C 58.9844 -34.0332 64.0625 -39.4531 70.2148 -39.4531 C 76.2695 -39.4531 81.3477 -34.1309 81.3477 -27.2949 C 81.3477 -20.3125 76.3672 -14.8926 70.2148 -14.8926 Z M 37.5 -14.209 C 32.1289 -14.209 27.6855 -18.8965 27.6855 -25.0488 C 27.6855 -30.957 32.1289 -35.5957 37.5 -35.5957 C 42.7734 -35.5957 47.2168 -31.0059 47.2168 -25.0977 C 47.2168 -18.8965 42.8223 -14.209 37.5 -14.209 Z M 26.8066 12.7441 C 20.9473 12.7441 19.043 10.791 19.043 5.12695 L 19.043 0.537109 C 20.9961 -3.80859 27.3926 -9.86328 37.4512 -9.86328 C 42.4805 -9.86328 46.1426 -8.39844 49.2676 -6.05469 C 42.7246 -1.02539 39.6973 9.76562 42.7734 12.7441 Z M 50.3906 12.7441 C 48.5352 12.7441 46.9727 11.6699 46.9727 9.17969 C 46.9727 0.292969 55.9082 -9.76562 70.166 -9.76562 C 80.3223 -9.76562 88.1836 -4.19922 90.4785 0.341797 L 90.4785 5.12695 C 90.4785 10.8398 88.5254 12.7441 83.6914 12.7441 Z"/>
  </g>
  <g id="Thin-M" transform="matrix(1 0 0 1 802.833 1126)">
   <path d="M 29.4922 -85.0098 L 77.4414 -85.0098 C 77.3926 -86.9141 76.1719 -88.2812 74.1211 -88.2812 L 32.8613 -88.2812 C 30.8105 -88.2812 29.5898 -86.9141 29.4922 -85.0098 Z M 22.0215 -73.7793 L 84.8633 -73.7793 C 84.7168 -75.7812 83.4961 -77.1973 81.3965 -77.1973 L 25.4883 -77.1973 C 23.3398 -77.1973 22.168 -75.7812 22.0215 -73.7793 Z M 25.6348 17.041 L 81.8848 17.041 C 90.2344 17.041 94.7266 12.4512 94.7266 3.95508 L 94.7266 -52.0996 C 94.7266 -60.5957 90.1855 -65.2344 81.543 -65.2344 L 25.6348 -65.2344 C 16.9922 -65.2344 12.4512 -60.6934 12.4512 -52.0996 L 12.4512 3.95508 C 12.4512 12.5488 16.9922 17.041 25.6348 17.041 Z M 70.2148 -15.5762 C 63.623 -15.5762 58.5938 -21.2402 58.5938 -28.5156 C 58.5938 -35.4004 63.7207 -41.1621 70.2148 -41.1621 C 76.6113 -41.1621 81.7383 -35.4492 81.7383 -28.5156 C 81.7383 -21.2402 76.709 -15.5762 70.2148 -15.5762 Z M 35.8887 -14.9902 C 30.1758 -14.9902 25.7812 -19.8242 25.7812 -26.1719 C 25.7812 -32.2266 30.2246 -37.1582 35.8887 -37.1582 C 41.4551 -37.1582 45.9473 -32.2754 45.9473 -26.2207 C 45.9473 -19.8242 41.5527 -14.9902 35.8887 -14.9902 Z M 25.5859 12.4023 C 19.5312 12.4023 17.0898 9.91211 17.0898 3.95508 L 17.0898 -0.146484 C 18.4082 -3.66211 24.8535 -10.6934 35.791 -10.6934 C 41.6504 -10.6934 45.752 -8.74023 48.9746 -6.00586 C 42.2363 -0.341797 39.7461 10.2051 43.0664 12.4023 Z M 50.0977 12.4023 C 47.5586 12.4023 45.8984 11.4746 45.8984 8.88672 C 45.8984 -0.0488281 55.2734 -10.5957 70.166 -10.5957 C 80.1758 -10.5957 88.3301 -4.83398 90.0879 -1.12305 L 90.0879 3.95508 C 90.0879 9.91211 87.5488 12.4023 81.8848 12.4023 Z"/>
  </g>
  <g id="Ultralight-M" transform="matrix(1 0 0 1 506.733 1126)">
   <path d="M 28.6621 -84.5215 L 77.3438 -84.5215 C 77.3438 -85.791 76.416 -86.9629 75.0977 -86.9629 L 30.8594 -86.9629 C 29.541 -86.9629 28.6621 -85.791 28.6621 -84.5215 Z M 21.4844 -73.9746 L 84.4727 -73.9746 C 84.4727 -75.2441 83.5449 -76.3672 82.2754 -76.3672 L 23.7305 -76.3672 C 22.4121 -76.3672 21.4844 -75.2441 21.4844 -73.9746 Z M 25 15.8691 L 80.9082 15.8691 C 89.1602 15.8691 93.5059 11.377 93.5059 3.32031 L 93.5059 -52.6367 C 93.5059 -60.6934 89.1602 -65.1855 80.957 -65.1855 L 25 -65.1855 C 16.7969 -65.1855 12.4512 -60.8398 12.4512 -52.6367 L 12.4512 3.32031 C 12.4512 11.5234 16.7969 15.8691 25 15.8691 Z M 70.2148 -15.9668 C 63.4277 -15.9668 58.4473 -21.7285 58.4473 -29.1504 C 58.4473 -36.1328 63.5254 -42.041 70.2148 -42.041 C 76.8066 -42.041 81.9824 -36.1328 81.9824 -29.1504 C 81.9824 -21.7285 76.9043 -15.9668 70.2148 -15.9668 Z M 35.0586 -15.332 C 29.1992 -15.332 24.7559 -20.2637 24.7559 -26.7578 C 24.7559 -32.8613 29.248 -37.9395 35.0586 -37.9395 C 40.7715 -37.9395 45.3125 -32.8613 45.3125 -26.7578 C 45.3125 -20.2637 40.8691 -15.332 35.0586 -15.332 Z M 25 12.207 C 18.7988 12.207 16.1133 9.47266 16.1133 3.32031 L 16.1133 -0.439453 C 17.0898 -3.61328 23.584 -11.1328 34.9609 -11.1328 C 41.2109 -11.1328 45.5078 -8.93555 48.8281 -5.95703 C 41.9922 0 39.7949 10.4492 43.2617 12.207 Z M 49.9512 12.207 C 47.0703 12.207 45.3613 11.3281 45.3613 8.74023 C 45.3613 -0.244141 54.9316 -10.9863 70.166 -10.9863 C 80.0781 -10.9863 88.3789 -5.17578 89.8438 -1.85547 L 89.8438 3.32031 C 89.8438 9.47266 87.0117 12.207 80.9082 12.207 Z"/>
  </g>
  <g id="Black-S" transform="matrix(1 0 0 1 2886.96 696)">
   <path d="M 24.8535 -82.2266 L 66.4551 -82.2266 C 66.0645 -86.5234 63.1348 -89.0625 58.6426 -89.0625 L 32.666 -89.0625 C 28.1738 -89.0625 25.2441 -86.5234 24.8535 -82.2266 Z M 18.7012 -68.5547 L 72.6074 -68.5547 C 72.2168 -72.998 69.4824 -75.8789 64.1113 -75.8789 L 27.1973 -75.8789 C 21.8262 -75.8789 19.0918 -72.998 18.7012 -68.5547 Z M 25 12.0605 L 67.8711 12.0605 C 77.4414 12.0605 83.1055 6.39648 83.1055 -3.17383 L 83.1055 -46.0449 C 83.1055 -55.6152 77.4414 -61.2793 67.8711 -61.2793 L 25 -61.2793 C 15.4297 -61.2793 9.76562 -55.6152 9.76562 -46.0449 L 9.76562 -3.17383 C 9.76562 6.39648 15.4297 12.0605 25 12.0605 Z M 55.6641 -19.5801 C 51.1719 -19.5801 47.8027 -23.4375 47.8027 -28.1738 C 47.8027 -32.7637 51.2207 -36.6211 55.6641 -36.6211 C 60.1562 -36.6211 63.623 -32.7637 63.623 -28.1738 C 63.623 -23.4375 60.2051 -19.5801 55.6641 -19.5801 Z M 33.4473 -19.2383 C 29.5898 -19.2383 26.6113 -22.5098 26.5625 -26.6602 C 26.5137 -30.6152 29.6387 -34.0332 33.4473 -34.0332 C 37.3535 -34.0332 40.332 -30.6152 40.332 -26.6602 C 40.332 -22.5098 37.4023 -19.2383 33.4473 -19.2383 Z M 24.0234 1.31836 C 20.9961 1.31836 20.5078 0.830078 20.5078 -2.19727 L 20.5078 -10.3027 C 22.998 -13.5742 27.8809 -16.4062 33.4473 -16.4062 C 35.9375 -16.4062 38.3301 -15.7715 40.0391 -14.9902 C 34.9121 -10.5957 33.6426 -1.85547 35.9375 1.31836 Z M 41.5039 1.31836 C 40.4297 1.31836 39.4531 -0.0488281 39.4531 -2.14844 C 39.4531 -9.81445 45.8984 -16.3574 55.6641 -16.3574 C 62.6465 -16.3574 67.9688 -13.0859 70.4102 -9.47266 L 70.4102 -2.19727 C 70.4102 0.830078 69.9219 1.31836 66.8945 1.31836 Z"/>
  </g>
  <g id="Heavy-S" transform="matrix(1 0 0 1 2590.81 696)">
   <path d="M 25.1465 -80.7129 L 65.1855 -80.7129 C 64.8438 -84.8633 62.1094 -87.2559 57.7148 -87.2559 L 32.6172 -87.2559 C 28.2227 -87.2559 25.4883 -84.8633 25.1465 -80.7129 Z M 18.7988 -67.6758 L 71.4844 -67.6758 C 70.9961 -72.0215 68.5059 -74.707 63.3301 -74.707 L 26.9043 -74.707 C 21.7773 -74.707 19.2383 -72.0215 18.7988 -67.6758 Z M 24.3652 11.5234 L 67.7734 11.5234 C 76.709 11.5234 81.9824 6.25 81.9824 -3.02734 L 81.9824 -46.1914 C 81.9824 -55.4199 76.709 -60.6934 67.4316 -60.6934 L 24.3652 -60.6934 C 15.0879 -60.6934 9.76562 -55.4199 9.76562 -46.1914 L 9.76562 -3.02734 C 9.76562 6.25 15.0879 11.5234 24.3652 11.5234 Z M 55.5176 -19.3359 C 51.0254 -19.3359 47.5098 -23.2422 47.5098 -28.0762 C 47.5098 -32.8125 51.0742 -36.6699 55.5176 -36.6699 C 60.0098 -36.6699 63.5742 -32.8613 63.5742 -28.125 C 63.5742 -23.2422 60.0098 -19.3359 55.5176 -19.3359 Z M 32.8613 -18.9453 C 29.0039 -18.9453 25.8789 -22.3145 25.8301 -26.5625 C 25.8301 -30.6152 29.0039 -34.0332 32.8613 -34.0332 C 36.7676 -34.0332 39.8438 -30.6641 39.8438 -26.5625 C 39.8438 -22.3145 36.7676 -18.9453 32.8613 -18.9453 Z M 23.584 1.66016 C 20.2148 1.66016 19.6289 1.02539 19.6289 -2.24609 L 19.6289 -9.42383 C 22.0215 -12.8906 26.9531 -15.9668 32.8613 -15.9668 C 35.498 -15.9668 37.9395 -15.332 39.7461 -14.4043 C 34.668 -10.2539 33.0078 -1.51367 35.3027 1.66016 Z M 41.1133 1.66016 C 40.0879 1.66016 39.0625 0.341797 39.0625 -1.66016 C 39.0625 -9.17969 45.5566 -15.918 55.5176 -15.918 C 62.7441 -15.918 68.2129 -12.4023 70.6055 -8.64258 L 70.6055 -2.24609 C 70.6055 1.02539 70.0195 1.66016 66.9922 1.66016 Z"/>
  </g>
  <g id="Bold-S" transform="matrix(1 0 0 1 2294.71 696)">
   <path d="M 25.4395 -79.0527 L 63.7695 -79.0527 C 63.4277 -83.0566 60.9375 -85.2539 56.6895 -85.2539 L 32.5684 -85.2539 C 28.3203 -85.2539 25.7812 -83.0566 25.4395 -79.0527 Z M 18.8477 -66.6504 L 70.2148 -66.6504 C 69.6777 -70.8984 67.3828 -73.3887 62.5 -73.3887 L 26.5625 -73.3887 C 21.6797 -73.3887 19.3848 -70.8984 18.8477 -66.6504 Z M 23.6328 10.9375 L 67.627 10.9375 C 75.8789 10.9375 80.7617 6.05469 80.7617 -2.83203 L 80.7617 -46.3379 C 80.7617 -55.2246 75.8789 -60.0586 66.9434 -60.0586 L 23.6328 -60.0586 C 14.6973 -60.0586 9.76562 -55.2246 9.76562 -46.3379 L 9.76562 -2.83203 C 9.76562 6.05469 14.6973 10.9375 23.6328 10.9375 Z M 55.3223 -19.0918 C 50.8789 -19.0918 47.168 -23.0469 47.168 -27.9785 C 47.168 -32.8613 50.8789 -36.7676 55.3223 -36.7676 C 59.8145 -36.7676 63.4766 -32.959 63.4766 -28.0273 C 63.4766 -23.0469 59.8145 -19.0918 55.3223 -19.0918 Z M 32.1777 -18.6523 C 28.3203 -18.6523 25.0977 -22.0703 25.0488 -26.416 C 25.0488 -30.6641 28.3203 -34.0332 32.1777 -34.0332 C 36.084 -34.0332 39.2578 -30.6641 39.2578 -26.416 C 39.2578 -22.0703 36.084 -18.6523 32.1777 -18.6523 Z M 23.0957 2.00195 C 19.3848 2.00195 18.6523 1.2207 18.6523 -2.34375 L 18.6523 -8.44727 C 20.9473 -12.1582 25.8789 -15.4785 32.1777 -15.4785 C 35.0098 -15.4785 37.4512 -14.7949 39.4531 -13.7207 C 34.4238 -9.81445 32.3242 -1.12305 34.5703 2.00195 Z M 40.625 2.00195 C 39.6973 2.00195 38.623 0.830078 38.623 -1.17188 C 38.623 -8.39844 45.166 -15.4297 55.3223 -15.4297 C 62.8906 -15.4297 68.5059 -11.6699 70.8496 -7.71484 L 70.8496 -2.34375 C 70.8496 1.26953 70.1172 2.00195 67.1387 2.00195 Z"/>
  </g>
  <g id="Semibold-S" transform="matrix(1 0 0 1 1998.42 696)">
   <path d="M 25.6836 -77.8809 L 62.793 -77.8809 C 62.5 -81.7871 60.1562 -83.8379 55.957 -83.8379 L 32.5195 -83.8379 C 28.3203 -83.8379 25.9766 -81.7871 25.6836 -77.8809 Z M 18.8965 -65.9668 L 69.3359 -65.9668 C 68.7012 -70.1172 66.6016 -72.5098 61.8652 -72.5098 L 26.3672 -72.5098 C 21.6309 -72.5098 19.5312 -70.1172 18.8965 -65.9668 Z M 23.0957 10.498 L 67.5293 10.498 C 75.293 10.498 79.9316 5.9082 79.9316 -2.68555 L 79.9316 -46.4355 C 79.9316 -55.0781 75.293 -59.6191 66.6016 -59.6191 L 23.0957 -59.6191 C 14.4043 -59.6191 9.76562 -55.0781 9.76562 -46.4355 L 9.76562 -2.68555 C 9.76562 5.95703 14.4043 10.498 23.0957 10.498 Z M 55.1758 -18.8965 C 50.7324 -18.8965 46.9238 -22.9004 46.9238 -27.9297 C 46.9238 -32.9102 50.7812 -36.8164 55.1758 -36.8164 C 59.668 -36.8164 63.4766 -33.0078 63.4766 -27.9785 C 63.4766 -22.9004 59.7168 -18.8965 55.1758 -18.8965 Z M 31.7383 -18.4082 C 27.832 -18.4082 24.5117 -21.875 24.5117 -26.3184 C 24.5117 -30.6641 27.832 -34.0332 31.7383 -34.0332 C 35.5957 -34.0332 38.916 -30.7129 38.916 -26.3672 C 38.916 -21.875 35.6445 -18.4082 31.7383 -18.4082 Z M 22.7539 2.24609 C 18.7988 2.24609 17.9688 1.41602 17.9688 -2.39258 L 17.9688 -7.8125 C 20.2148 -11.6699 25.1953 -15.1367 31.7383 -15.1367 C 34.7168 -15.1367 37.1094 -14.4531 39.2578 -13.2324 C 34.2773 -9.52148 31.8359 -0.878906 34.082 2.24609 Z M 40.332 2.24609 C 39.4531 2.24609 38.3301 1.12305 38.3301 -0.830078 C 38.3301 -7.91016 44.873 -15.0879 55.1758 -15.0879 C 62.9883 -15.0879 68.7012 -11.1816 71.0449 -7.08008 L 71.0449 -2.39258 C 71.0449 1.46484 70.2148 2.24609 67.2363 2.24609 Z"/>
  </g>
  <g id="Medium-S" transform="matrix(1 0 0 1 1702.05 696)">
   <path d="M 25.8301 -77.002 L 62.0605 -77.002 C 61.7676 -80.8105 59.5215 -82.8125 55.4199 -82.8125 L 32.5195 -82.8125 C 28.3691 -82.8125 26.1719 -80.8105 25.8301 -77.002 Z M 18.9453 -65.4785 L 68.6523 -65.4785 C 68.0176 -69.5312 66.0156 -71.7773 61.4258 -71.7773 L 26.1719 -71.7773 C 21.6309 -71.7773 19.5801 -69.5312 18.9453 -65.4785 Z M 22.7051 10.2051 L 67.4316 10.2051 C 74.9023 10.2051 79.248 5.85938 79.248 -2.58789 L 79.248 -46.4844 C 79.248 -54.9316 74.8535 -59.3262 66.3086 -59.3262 L 22.7051 -59.3262 C 14.209 -59.3262 9.76562 -54.9316 9.76562 -46.4844 L 9.76562 -2.58789 C 9.76562 5.85938 14.209 10.2051 22.7051 10.2051 Z M 55.127 -18.75 C 50.6348 -18.75 46.7773 -22.7539 46.7773 -27.832 C 46.7773 -32.959 50.6836 -36.8164 55.127 -36.8164 C 59.5703 -36.8164 63.4277 -33.0566 63.4277 -27.9297 C 63.4277 -22.7539 59.6191 -18.75 55.127 -18.75 Z M 31.3477 -18.2617 C 27.4902 -18.2617 24.1211 -21.7773 24.0723 -26.2695 C 24.0723 -30.6641 27.4902 -34.0332 31.3477 -34.0332 C 35.2539 -34.0332 38.623 -30.7129 38.623 -26.2695 C 38.623 -21.7773 35.2539 -18.2617 31.3477 -18.2617 Z M 22.5098 2.44141 C 18.3594 2.44141 17.4805 1.51367 17.4805 -2.44141 L 17.4805 -7.27539 C 19.6777 -11.2793 24.6094 -14.8926 31.3477 -14.8926 C 34.4727 -14.8926 36.8652 -14.209 39.1113 -12.8906 C 34.1309 -9.32617 31.4941 -0.634766 33.6914 2.44141 Z M 40.0879 2.44141 C 39.2578 2.44141 38.1348 1.36719 38.1348 -0.537109 C 38.1348 -7.51953 44.6777 -14.8438 55.127 -14.8438 C 63.0371 -14.8438 68.7988 -10.791 71.1914 -6.5918 L 71.1914 -2.44141 C 71.1914 1.5625 70.2637 2.44141 67.2852 2.44141 Z"/>
  </g>
  <g id="Regular-S" transform="matrix(1 0 0 1 1405.75 696)">
   <path d="M 26.0742 -75.8789 L 61.084 -75.8789 C 60.8398 -79.5898 58.7402 -81.4453 54.7363 -81.4453 L 32.4707 -81.4453 C 28.418 -81.4453 26.3672 -79.5898 26.0742 -75.8789 Z M 19.043 -64.7949 L 67.7734 -64.7949 C 67.0898 -68.7988 65.2344 -70.8984 60.8398 -70.8984 L 25.9766 -70.8984 C 21.582 -70.8984 19.7266 -68.7988 19.043 -64.7949 Z M 22.2168 9.76562 L 67.3828 9.76562 C 74.3164 9.76562 78.418 5.71289 78.418 -2.49023 L 78.418 -46.6309 C 78.418 -54.7852 74.2676 -58.8867 65.9668 -58.8867 L 22.2168 -58.8867 C 13.916 -58.8867 9.76562 -54.834 9.76562 -46.6309 L 9.76562 -2.49023 C 9.76562 5.71289 13.916 9.76562 22.2168 9.76562 Z M 54.9805 -18.6035 C 50.5371 -18.6035 46.5332 -22.6074 46.5332 -27.7832 C 46.5332 -32.959 50.5371 -36.8652 54.9805 -36.8652 C 59.4727 -36.8652 63.3789 -33.1055 63.3789 -27.8809 C 63.3789 -22.6074 59.4727 -18.6035 54.9805 -18.6035 Z M 30.9082 -18.0664 C 27.002 -18.0664 23.5352 -21.582 23.5352 -26.1719 C 23.5352 -30.6641 27.002 -34.0332 30.9082 -34.0332 C 34.8145 -34.0332 38.2324 -30.7617 38.2324 -26.2207 C 38.2324 -21.582 34.8145 -18.0664 30.9082 -18.0664 Z M 22.168 2.68555 C 17.7734 2.68555 16.7969 1.66016 16.7969 -2.49023 L 16.7969 -6.64062 C 18.9453 -10.791 23.9258 -14.5508 30.9082 -14.5508 C 34.1309 -14.5508 36.5723 -13.8672 38.8672 -12.4512 C 33.9844 -9.0332 31.0059 -0.390625 33.2031 2.68555 Z M 39.7461 2.68555 C 39.0137 2.68555 37.793 1.70898 37.793 -0.195312 C 37.793 -7.03125 44.3848 -14.502 54.9805 -14.502 C 63.1348 -14.502 68.9941 -10.3027 71.3379 -5.95703 L 71.3379 -2.49023 C 71.3379 1.75781 70.3613 2.68555 67.3828 2.68555 Z"/>
  </g>
  <g id="Light-S" transform="matrix(1 0 0 1 1109.85 696)">
   <path d="M 24.9512 -75.2441 L 60.9375 -75.2441 C 60.7422 -78.0762 59.082 -79.6387 56.0059 -79.6387 L 29.8828 -79.6387 C 26.7578 -79.6387 25.1465 -78.0762 24.9512 -75.2441 Z M 18.3594 -65.0391 L 67.2852 -65.0391 C 66.7969 -68.0664 65.332 -69.8242 61.9629 -69.8242 L 23.6816 -69.8242 C 20.3125 -69.8242 18.7988 -68.0664 18.3594 -65.0391 Z M 21.3867 8.25195 L 66.1133 8.25195 C 72.9004 8.25195 76.8066 4.3457 76.8066 -3.27148 L 76.8066 -47.3145 C 76.8066 -54.9316 72.9004 -58.8379 65.1855 -58.8379 L 21.3867 -58.8379 C 13.6719 -58.8379 9.76562 -54.9805 9.76562 -47.3145 L 9.76562 -3.27148 C 9.76562 4.39453 13.6719 8.25195 21.3867 8.25195 Z M 54.9805 -19.0918 C 50.293 -19.0918 46.2891 -23.2422 46.2891 -28.6133 C 46.2891 -33.8867 50.293 -38.0371 54.9805 -38.0371 C 59.668 -38.0371 63.623 -33.9844 63.623 -28.6621 C 63.623 -23.2422 59.7168 -19.0918 54.9805 -19.0918 Z M 29.834 -18.5547 C 25.7324 -18.5547 22.2656 -22.168 22.2656 -26.9043 C 22.2656 -31.4941 25.7324 -35.0586 29.834 -35.0586 C 33.8867 -35.0586 37.4023 -31.5918 37.4023 -26.9531 C 37.4023 -22.168 33.9355 -18.5547 29.834 -18.5547 Z M 21.3867 2.44141 C 16.7969 2.44141 15.5273 1.07422 15.5273 -3.27148 L 15.5273 -7.03125 C 17.1875 -10.6934 22.2168 -15.0879 29.834 -15.0879 C 33.5449 -15.0879 36.2793 -14.1113 38.6719 -12.4023 C 33.6426 -8.59375 31.0547 -0.0976562 33.3984 2.44141 Z M 39.5508 2.44141 C 38.3301 2.44141 37.1094 1.5625 37.1094 -0.390625 C 37.1094 -7.27539 43.9941 -15.0391 54.9805 -15.0391 C 62.9883 -15.0391 69.0918 -10.7422 71.0449 -6.93359 L 71.0449 -3.27148 C 71.0449 1.12305 69.6777 2.44141 66.1133 2.44141 Z"/>
  </g>
  <g id="Thin-S" transform="matrix(1 0 0 1 814.186 696)">
   <path d="M 23.4375 -74.4141 L 60.7422 -74.4141 C 60.6445 -76.123 59.5703 -77.2949 57.7148 -77.2949 L 26.4648 -77.2949 C 24.6094 -77.2949 23.5352 -76.123 23.4375 -74.4141 Z M 17.4805 -65.3809 L 66.6504 -65.3809 C 66.4551 -67.1875 65.4297 -68.4082 63.4766 -68.4082 L 20.6055 -68.4082 C 18.6523 -68.4082 17.627 -67.1875 17.4805 -65.3809 Z M 20.3125 6.20117 L 64.502 6.20117 C 71.0938 6.20117 74.707 2.53906 74.707 -4.29688 L 74.707 -48.2422 C 74.707 -55.0781 71.0938 -58.7402 64.1602 -58.7402 L 20.3125 -58.7402 C 13.3789 -58.7402 9.76562 -55.127 9.76562 -48.2422 L 9.76562 -4.29688 C 9.76562 2.58789 13.3789 6.20117 20.3125 6.20117 Z M 55.0293 -19.7266 C 49.9512 -19.7266 45.9961 -24.0723 45.9961 -29.7363 C 45.9961 -35.1074 50 -39.5508 55.0293 -39.5508 C 59.9609 -39.5508 63.9648 -35.1562 63.9648 -29.7363 C 63.9648 -24.0723 60.0586 -19.7266 55.0293 -19.7266 Z M 28.418 -19.1895 C 24.0234 -19.1895 20.5566 -22.998 20.5566 -27.9297 C 20.5566 -32.6172 24.0723 -36.4258 28.418 -36.4258 C 32.7148 -36.4258 36.2793 -32.666 36.2793 -27.9297 C 36.2793 -22.998 32.8125 -19.1895 28.418 -19.1895 Z M 20.3125 2.14844 C 15.5762 2.14844 13.7695 0.292969 13.7695 -4.29688 L 13.7695 -7.61719 C 14.9414 -10.5469 19.9707 -15.8203 28.3691 -15.8203 C 32.8125 -15.8203 35.9375 -14.4043 38.4277 -12.3535 C 33.2031 -8.05664 31.1523 0.292969 33.6914 2.14844 Z M 39.3066 2.14844 C 37.4512 2.14844 36.1816 1.36719 36.1816 -0.634766 C 36.1816 -7.61719 43.4082 -15.7715 54.9805 -15.7715 C 62.8418 -15.7715 69.1895 -11.2793 70.6543 -8.20312 L 70.6543 -4.29688 C 70.6543 0.341797 68.7988 2.14844 64.502 2.14844 Z"/>
  </g>
  <g id="Ultralight-S" transform="matrix(1 0 0 1 518.036 696)">
   <path d="M 22.7051 -73.9746 L 60.6445 -73.9746 C 60.5957 -75.1465 59.8145 -76.123 58.5938 -76.123 L 24.707 -76.123 C 23.4863 -76.123 22.7051 -75.1465 22.7051 -73.9746 Z M 16.9922 -65.5273 L 66.3086 -65.5273 C 66.2598 -66.6992 65.4785 -67.6758 64.209 -67.6758 L 19.043 -67.6758 C 17.8223 -67.6758 17.041 -66.6992 16.9922 -65.5273 Z M 19.7754 5.12695 L 63.6719 5.12695 C 70.1172 5.12695 73.584 1.5625 73.584 -4.83398 L 73.584 -48.7305 C 73.584 -55.1758 70.1172 -58.6914 63.623 -58.6914 L 19.7754 -58.6914 C 13.2324 -58.6914 9.76562 -55.2734 9.76562 -48.7305 L 9.76562 -4.83398 C 9.76562 1.66016 13.2324 5.12695 19.7754 5.12695 Z M 55.0293 -20.0195 C 49.7559 -20.0195 45.8496 -24.5117 45.8496 -30.2734 C 45.8496 -35.7422 49.8535 -40.332 55.0293 -40.332 C 60.1074 -40.332 64.1602 -35.7422 64.1602 -30.2734 C 64.1602 -24.5117 60.2051 -20.0195 55.0293 -20.0195 Z M 27.6855 -19.5312 C 23.1445 -19.5312 19.6777 -23.3887 19.6777 -28.4668 C 19.6777 -33.2031 23.1934 -37.1582 27.6855 -37.1582 C 32.1289 -37.1582 35.6934 -33.2031 35.6934 -28.4668 C 35.6934 -23.3887 32.2266 -19.5312 27.6855 -19.5312 Z M 19.7754 2.00195 C 14.9414 2.00195 12.8906 -0.0976562 12.8906 -4.83398 L 12.8906 -7.91016 C 13.7695 -10.4492 18.7988 -16.2109 27.6367 -16.2109 C 32.4219 -16.2109 35.7422 -14.5508 38.3301 -12.3047 C 32.959 -7.71484 31.2012 0.488281 33.8379 2.00195 Z M 39.209 2.00195 C 37.0117 2.00195 35.6934 1.26953 35.6934 -0.732422 C 35.6934 -7.76367 43.1152 -16.1133 54.9805 -16.1133 C 62.7441 -16.1133 69.2383 -11.6211 70.459 -8.88672 L 70.459 -4.83398 C 70.459 -0.0976562 68.3105 2.00195 63.6719 2.00195 Z"/>
  </g>
 </g>
</svg>
