<?xml version="1.0" encoding="UTF-8"?>
<!--Generator: Apple Native CoreSVG 123-->
<!DOCTYPE svg
PUBLIC "-//W3C//DTD SVG 1.1//EN"
       "http://www.w3.org/Graphics/SVG/1.1/DTD/svg11.dtd">
<svg version="1.1" xmlns="http://www.w3.org/2000/svg" xmlns:xlink="http://www.w3.org/1999/xlink" width="3300" height="2200">
 <!--glyph: "uni100245.medium", point size: 100.000000, font version: "Version 15.0d7e11", template writer version: "5"-->
 <g id="Notes">
  <rect height="2200" id="artboard" style="fill:white;opacity:1" width="3300" x="0" y="0"/>
  <line id="" style="fill:none;stroke:black;opacity:1;stroke-width:0.5;" x1="263" x2="3036" y1="292" y2="292"/>
  <text style="stroke:none;fill:black;font-family:-apple-system,&quot;SF Pro Display&quot;,&quot;SF Pro Text&quot;,Helvetica,sans-serif;font-weight:bold;" transform="matrix(1 0 0 1 263 322)">Weight/Scale Variations</text>
  <text style="stroke:none;fill:black;font-family:-apple-system,&quot;SF Pro Display&quot;,&quot;SF Pro Text&quot;,Helvetica,sans-serif;text-anchor:middle;" transform="matrix(1 0 0 1 559.711 322)">Ultralight</text>
  <text style="stroke:none;fill:black;font-family:-apple-system,&quot;SF Pro Display&quot;,&quot;SF Pro Text&quot;,Helvetica,sans-serif;text-anchor:middle;" transform="matrix(1 0 0 1 856.422 322)">Thin</text>
  <text style="stroke:none;fill:black;font-family:-apple-system,&quot;SF Pro Display&quot;,&quot;SF Pro Text&quot;,Helvetica,sans-serif;text-anchor:middle;" transform="matrix(1 0 0 1 1153.13 322)">Light</text>
  <text style="stroke:none;fill:black;font-family:-apple-system,&quot;SF Pro Display&quot;,&quot;SF Pro Text&quot;,Helvetica,sans-serif;text-anchor:middle;" transform="matrix(1 0 0 1 1449.84 322)">Regular</text>
  <text style="stroke:none;fill:black;font-family:-apple-system,&quot;SF Pro Display&quot;,&quot;SF Pro Text&quot;,Helvetica,sans-serif;text-anchor:middle;" transform="matrix(1 0 0 1 1746.56 322)">Medium</text>
  <text style="stroke:none;fill:black;font-family:-apple-system,&quot;SF Pro Display&quot;,&quot;SF Pro Text&quot;,Helvetica,sans-serif;text-anchor:middle;" transform="matrix(1 0 0 1 2043.27 322)">Semibold</text>
  <text style="stroke:none;fill:black;font-family:-apple-system,&quot;SF Pro Display&quot;,&quot;SF Pro Text&quot;,Helvetica,sans-serif;text-anchor:middle;" transform="matrix(1 0 0 1 2339.98 322)">Bold</text>
  <text style="stroke:none;fill:black;font-family:-apple-system,&quot;SF Pro Display&quot;,&quot;SF Pro Text&quot;,Helvetica,sans-serif;text-anchor:middle;" transform="matrix(1 0 0 1 2636.69 322)">Heavy</text>
  <text style="stroke:none;fill:black;font-family:-apple-system,&quot;SF Pro Display&quot;,&quot;SF Pro Text&quot;,Helvetica,sans-serif;text-anchor:middle;" transform="matrix(1 0 0 1 2933.4 322)">Black</text>
  <line id="" style="fill:none;stroke:black;opacity:1;stroke-width:0.5;" x1="263" x2="3036" y1="1903" y2="1903"/>
  <g id="" transform="matrix(1 0 0 1 263 1933)">
   <path d="M 9.24805 0.830078 C 13.5547 0.830078 17.1387 -2.74414 17.1387 -7.05078 C 17.1387 -11.3574 13.5449 -14.9316 9.23828 -14.9316 C 4.94141 -14.9316 1.36719 -11.3574 1.36719 -7.05078 C 1.36719 -2.74414 4.95117 0.830078 9.24805 0.830078 Z M 9.24805 -0.654297 C 5.70312 -0.654297 2.87109 -3.49609 2.87109 -7.05078 C 2.87109 -10.6055 5.69336 -13.4473 9.23828 -13.4473 C 12.793 -13.4473 15.6348 -10.6055 15.6445 -7.05078 C 15.6543 -3.49609 12.8027 -0.654297 9.24805 -0.654297 Z M 9.22852 -3.42773 C 9.69727 -3.42773 9.9707 -3.74023 9.9707 -4.25781 L 9.9707 -6.31836 L 12.1973 -6.31836 C 12.6953 -6.31836 13.0371 -6.57227 13.0371 -7.04102 C 13.0371 -7.51953 12.7148 -7.7832 12.1973 -7.7832 L 9.9707 -7.7832 L 9.9707 -10.0098 C 9.9707 -10.5273 9.69727 -10.8496 9.22852 -10.8496 C 8.75977 -10.8496 8.50586 -10.5078 8.50586 -10.0098 L 8.50586 -7.7832 L 6.29883 -7.7832 C 5.78125 -7.7832 5.44922 -7.51953 5.44922 -7.04102 C 5.44922 -6.57227 5.80078 -6.31836 6.29883 -6.31836 L 8.50586 -6.31836 L 8.50586 -4.25781 C 8.50586 -3.75977 8.75977 -3.42773 9.22852 -3.42773 Z"/>
  </g>
  <g id="" transform="matrix(1 0 0 1 281.506 1933)">
   <path d="M 11.709 2.91016 C 17.1582 2.91016 21.6699 -1.60156 21.6699 -7.05078 C 21.6699 -12.4902 17.1484 -17.0117 11.6992 -17.0117 C 6.25977 -17.0117 1.74805 -12.4902 1.74805 -7.05078 C 1.74805 -1.60156 6.26953 2.91016 11.709 2.91016 Z M 11.709 1.25 C 7.09961 1.25 3.41797 -2.44141 3.41797 -7.05078 C 3.41797 -11.6504 7.08984 -15.3516 11.6992 -15.3516 C 16.3086 -15.3516 20 -11.6504 20.0098 -7.05078 C 20.0195 -2.44141 16.3184 1.25 11.709 1.25 Z M 11.6895 -2.41211 C 12.207 -2.41211 12.5195 -2.77344 12.5195 -3.33984 L 12.5195 -6.23047 L 15.5762 -6.23047 C 16.123 -6.23047 16.5039 -6.51367 16.5039 -7.03125 C 16.5039 -7.55859 16.1426 -7.86133 15.5762 -7.86133 L 12.5195 -7.86133 L 12.5195 -10.9277 C 12.5195 -11.5039 12.207 -11.8555 11.6895 -11.8555 C 11.1719 -11.8555 10.8789 -11.4844 10.8789 -10.9277 L 10.8789 -7.86133 L 7.83203 -7.86133 C 7.26562 -7.86133 6.89453 -7.55859 6.89453 -7.03125 C 6.89453 -6.51367 7.28516 -6.23047 7.83203 -6.23047 L 10.8789 -6.23047 L 10.8789 -3.33984 C 10.8789 -2.79297 11.1719 -2.41211 11.6895 -2.41211 Z"/>
  </g>
  <g id="" transform="matrix(1 0 0 1 304.924 1933)">
   <path d="M 14.9707 5.67383 C 21.9336 5.67383 27.6953 -0.078125 27.6953 -7.04102 C 27.6953 -14.0039 21.9238 -19.7559 14.9609 -19.7559 C 8.00781 -19.7559 2.25586 -14.0039 2.25586 -7.04102 C 2.25586 -0.078125 8.01758 5.67383 14.9707 5.67383 Z M 14.9707 3.85742 C 8.93555 3.85742 4.08203 -1.00586 4.08203 -7.04102 C 4.08203 -13.0762 8.92578 -17.9395 14.9609 -17.9395 C 21.0059 -17.9395 25.8594 -13.0762 25.8691 -7.04102 C 25.8789 -1.00586 21.0156 3.85742 14.9707 3.85742 Z M 14.9512 -1.06445 C 15.5176 -1.06445 15.8691 -1.45508 15.8691 -2.06055 L 15.8691 -6.13281 L 20.1074 -6.13281 C 20.6934 -6.13281 21.1133 -6.46484 21.1133 -7.02148 C 21.1133 -7.59766 20.7227 -7.93945 20.1074 -7.93945 L 15.8691 -7.93945 L 15.8691 -12.1875 C 15.8691 -12.8027 15.5176 -13.1934 14.9512 -13.1934 C 14.3848 -13.1934 14.0625 -12.7832 14.0625 -12.1875 L 14.0625 -7.93945 L 9.83398 -7.93945 C 9.21875 -7.93945 8.80859 -7.59766 8.80859 -7.02148 C 8.80859 -6.46484 9.23828 -6.13281 9.83398 -6.13281 L 14.0625 -6.13281 L 14.0625 -2.06055 C 14.0625 -1.47461 14.3848 -1.06445 14.9512 -1.06445 Z"/>
  </g>
  <text style="stroke:none;fill:black;font-family:-apple-system,&quot;SF Pro Display&quot;,&quot;SF Pro Text&quot;,Helvetica,sans-serif;font-weight:bold;" transform="matrix(1 0 0 1 263 1953)">Design Variations</text>
  <text style="stroke:none;fill:black;font-family:-apple-system,&quot;SF Pro Display&quot;,&quot;SF Pro Text&quot;,Helvetica,sans-serif;" transform="matrix(1 0 0 1 263 1971)">Symbols are supported in up to nine weights and three scales.</text>
  <text style="stroke:none;fill:black;font-family:-apple-system,&quot;SF Pro Display&quot;,&quot;SF Pro Text&quot;,Helvetica,sans-serif;" transform="matrix(1 0 0 1 263 1989)">For optimal layout with text and other symbols, vertically align</text>
  <text style="stroke:none;fill:black;font-family:-apple-system,&quot;SF Pro Display&quot;,&quot;SF Pro Text&quot;,Helvetica,sans-serif;" transform="matrix(1 0 0 1 263 2007)">symbols with the adjacent text.</text>
  <rect height="14" id="" style="fill:#00AEEF;stroke:none;opacity:0.4;" width="3" x="776" y="1919"/>
  <g id="" transform="matrix(1 0 0 1 779 1933)">
   <path d="M 10.5273 0 L 12.373 0 L 7.17773 -14.0918 L 5.43945 -14.0918 L 0.244141 0 L 2.08984 0 L 3.50586 -4.0332 L 9.11133 -4.0332 Z M 6.2793 -11.9531 L 6.33789 -11.9531 L 8.59375 -5.52734 L 4.02344 -5.52734 Z"/>
  </g>
  <rect height="14" id="" style="fill:#00AEEF;stroke:none;opacity:0.4;" width="3" x="791.617" y="1919"/>
  <text style="stroke:none;fill:black;font-family:-apple-system,&quot;SF Pro Display&quot;,&quot;SF Pro Text&quot;,Helvetica,sans-serif;font-weight:bold;" transform="matrix(1 0 0 1 776 1953)">Margins</text>
  <text style="stroke:none;fill:black;font-family:-apple-system,&quot;SF Pro Display&quot;,&quot;SF Pro Text&quot;,Helvetica,sans-serif;" transform="matrix(1 0 0 1 776 1971)">Leading and trailing margins on the left and right side of each symbol</text>
  <text style="stroke:none;fill:black;font-family:-apple-system,&quot;SF Pro Display&quot;,&quot;SF Pro Text&quot;,Helvetica,sans-serif;" transform="matrix(1 0 0 1 776 1989)">can be adjusted by modifying the width of the blue rectangles.</text>
  <text style="stroke:none;fill:black;font-family:-apple-system,&quot;SF Pro Display&quot;,&quot;SF Pro Text&quot;,Helvetica,sans-serif;" transform="matrix(1 0 0 1 776 2007)">Modifications are automatically applied proportionally to all</text>
  <text style="stroke:none;fill:black;font-family:-apple-system,&quot;SF Pro Display&quot;,&quot;SF Pro Text&quot;,Helvetica,sans-serif;" transform="matrix(1 0 0 1 776 2025)">scales and weights.</text>
  <g id="" transform="matrix(1 0 0 1 1289 1933)">
   <path d="M 2.83203 3.11523 L 4.375 4.6582 C 5.22461 5.48828 6.19141 5.41992 7.06055 4.46289 L 17.2754 -6.66016 C 17.7051 -6.36719 18.0957 -6.37695 18.5645 -6.47461 L 19.6094 -6.68945 L 20.3027 -5.99609 L 20.2539 -5.47852 C 20.1855 -4.95117 20.3516 -4.53125 20.8496 -4.0332 L 21.6602 -3.22266 C 22.168 -2.71484 22.8223 -2.68555 23.3008 -3.16406 L 26.5527 -6.41602 C 27.0312 -6.89453 27.0117 -7.54883 26.5039 -8.05664 L 25.6836 -8.87695 C 25.1855 -9.375 24.7754 -9.55078 24.2383 -9.47266 L 23.7109 -9.41406 L 23.0566 -10.0781 L 23.3398 -11.2207 C 23.4863 -11.7871 23.3398 -12.2559 22.7148 -12.8613 L 20.3027 -15.2539 C 16.7578 -18.7793 12.2266 -18.6719 9.11133 -15.5371 C 8.69141 -15.1074 8.64258 -14.5215 8.91602 -14.0918 C 9.15039 -13.7207 9.62891 -13.4961 10.2734 -13.6621 C 11.7871 -14.043 13.3008 -13.9258 14.7852 -12.9199 L 14.1602 -11.3379 C 13.9258 -10.752 13.9453 -10.2734 14.1797 -9.83398 L 3.01758 0.439453 C 2.08008 1.30859 1.97266 2.25586 2.83203 3.11523 Z M 10.6738 -15.1465 C 13.3398 -17.1387 16.6504 -16.8262 19.0527 -14.4141 L 21.6797 -11.8066 C 21.9141 -11.5723 21.9434 -11.3867 21.8848 -11.0938 L 21.5039 -9.53125 L 23.0762 -7.95898 L 24.043 -8.04688 C 24.3262 -8.07617 24.4141 -8.05664 24.6387 -7.83203 L 25.2637 -7.20703 L 22.5098 -4.46289 L 21.8848 -5.07812 C 21.6602 -5.30273 21.6406 -5.40039 21.6699 -5.68359 L 21.7578 -6.64062 L 20.1953 -8.20312 L 18.5742 -7.89062 C 18.291 -7.83203 18.1445 -7.83203 17.9102 -8.07617 L 15.7324 -10.2539 C 15.5078 -10.4883 15.4785 -10.625 15.6055 -10.9473 L 16.5527 -13.2227 C 14.9512 -14.7559 12.8418 -15.6055 10.8008 -14.9512 C 10.7129 -14.9219 10.6445 -14.9414 10.6152 -14.9805 C 10.5859 -15.0293 10.5859 -15.0781 10.6738 -15.1465 Z M 4.10156 2.41211 C 3.61328 1.91406 3.78906 1.61133 4.12109 1.30859 L 15.0781 -8.80859 L 16.3086 -7.57812 L 6.15234 3.34961 C 5.84961 3.68164 5.46875 3.7793 5.06836 3.37891 Z"/>
  </g>
  <text style="stroke:none;fill:black;font-family:-apple-system,&quot;SF Pro Display&quot;,&quot;SF Pro Text&quot;,Helvetica,sans-serif;font-weight:bold;" transform="matrix(1 0 0 1 1289 1953)">Exporting</text>
  <text style="stroke:none;fill:black;font-family:-apple-system,&quot;SF Pro Display&quot;,&quot;SF Pro Text&quot;,Helvetica,sans-serif;" transform="matrix(1 0 0 1 1289 1971)">Symbols should be outlined when exporting to ensure the</text>
  <text style="stroke:none;fill:black;font-family:-apple-system,&quot;SF Pro Display&quot;,&quot;SF Pro Text&quot;,Helvetica,sans-serif;" transform="matrix(1 0 0 1 1289 1989)">design is preserved when submitting to Xcode.</text>
  <text id="template-version" style="stroke:none;fill:black;font-family:-apple-system,&quot;SF Pro Display&quot;,&quot;SF Pro Text&quot;,Helvetica,sans-serif;text-anchor:end;" transform="matrix(1 0 0 1 3036 1933)">Template v.1.0</text>
  <text style="stroke:none;fill:black;font-family:-apple-system,&quot;SF Pro Display&quot;,&quot;SF Pro Text&quot;,Helvetica,sans-serif;text-anchor:end;" transform="matrix(1 0 0 1 3036 1951)">Generated from doc.richtext</text>
  <text style="stroke:none;fill:black;font-family:-apple-system,&quot;SF Pro Display&quot;,&quot;SF Pro Text&quot;,Helvetica,sans-serif;text-anchor:end;" transform="matrix(1 0 0 1 3036 1969)">Typeset at 100 points</text>
  <text style="stroke:none;fill:black;font-family:-apple-system,&quot;SF Pro Display&quot;,&quot;SF Pro Text&quot;,Helvetica,sans-serif;" transform="matrix(1 0 0 1 263 726)">Small</text>
  <text style="stroke:none;fill:black;font-family:-apple-system,&quot;SF Pro Display&quot;,&quot;SF Pro Text&quot;,Helvetica,sans-serif;" transform="matrix(1 0 0 1 263 1156)">Medium</text>
  <text style="stroke:none;fill:black;font-family:-apple-system,&quot;SF Pro Display&quot;,&quot;SF Pro Text&quot;,Helvetica,sans-serif;" transform="matrix(1 0 0 1 263 1586)">Large</text>
 </g>
 <g id="Guides">
  <g id="H-reference" style="fill:#27AAE1;stroke:none;" transform="matrix(1 0 0 1 339 696)">
   <path d="M 54.9316 0 L 57.666 0 L 30.5664 -70.459 L 28.0762 -70.459 L 0.976562 0 L 3.66211 0 L 12.9395 -24.4629 L 45.7031 -24.4629 Z M 29.1992 -67.0898 L 29.4434 -67.0898 L 44.8242 -26.709 L 13.8184 -26.709 Z"/>
  </g>
  <line id="Baseline-S" style="fill:none;stroke:#27AAE1;opacity:1;stroke-width:0.577;" x1="263" x2="3036" y1="696" y2="696"/>
  <line id="Capline-S" style="fill:none;stroke:#27AAE1;opacity:1;stroke-width:0.577;" x1="263" x2="3036" y1="625.541" y2="625.541"/>
  <g id="H-reference" style="fill:#27AAE1;stroke:none;" transform="matrix(1 0 0 1 339 1126)">
   <path d="M 54.9316 0 L 57.666 0 L 30.5664 -70.459 L 28.0762 -70.459 L 0.976562 0 L 3.66211 0 L 12.9395 -24.4629 L 45.7031 -24.4629 Z M 29.1992 -67.0898 L 29.4434 -67.0898 L 44.8242 -26.709 L 13.8184 -26.709 Z"/>
  </g>
  <line id="Baseline-M" style="fill:none;stroke:#27AAE1;opacity:1;stroke-width:0.577;" x1="263" x2="3036" y1="1126" y2="1126"/>
  <line id="Capline-M" style="fill:none;stroke:#27AAE1;opacity:1;stroke-width:0.577;" x1="263" x2="3036" y1="1055.54" y2="1055.54"/>
  <g id="H-reference" style="fill:#27AAE1;stroke:none;" transform="matrix(1 0 0 1 339 1556)">
   <path d="M 54.9316 0 L 57.666 0 L 30.5664 -70.459 L 28.0762 -70.459 L 0.976562 0 L 3.66211 0 L 12.9395 -24.4629 L 45.7031 -24.4629 Z M 29.1992 -67.0898 L 29.4434 -67.0898 L 44.8242 -26.709 L 13.8184 -26.709 Z"/>
  </g>
  <line id="Baseline-L" style="fill:none;stroke:#27AAE1;opacity:1;stroke-width:0.577;" x1="263" x2="3036" y1="1556" y2="1556"/>
  <line id="Capline-L" style="fill:none;stroke:#27AAE1;opacity:1;stroke-width:0.577;" x1="263" x2="3036" y1="1485.54" y2="1485.54"/>
  <rect height="119.336" id="left-margin" style="fill:#00AEEF;stroke:none;opacity:0.4;" width="12.4512" x="1396.33" y="1030.79"/>
  <rect height="119.336" id="right-margin" style="fill:#00AEEF;stroke:none;opacity:0.4;" width="12.4512" x="1490.91" y="1030.79"/>
 </g>
 <g id="Symbols">
  <g id="Black-L" transform="matrix(1 0 0 1 2859.65 1556)">
   <path d="M 39.8926 35.2539 L 107.617 35.2539 C 122.803 35.2539 131.445 26.6113 131.445 11.377 L 131.445 -81.7383 C 131.445 -96.9727 122.803 -105.615 107.617 -105.615 L 39.8926 -105.615 C 24.707 -105.615 16.0645 -96.9727 16.0645 -81.7383 L 16.0645 11.377 C 16.0645 26.6113 24.707 35.2539 39.8926 35.2539 Z M 42.7246 15.0391 C 38.1836 15.0391 36.3281 12.8418 36.3281 8.64258 L 36.3281 -79.0039 C 36.3281 -83.252 38.1836 -85.4004 42.7246 -85.4004 L 104.785 -85.4004 C 109.326 -85.4004 111.23 -83.252 111.23 -79.0039 L 111.23 8.64258 C 111.23 12.8418 109.326 15.0391 104.785 15.0391 Z M 49.8535 -43.2617 C 52.2949 -43.2617 53.7598 -44.4336 54.3945 -47.168 L 55.1758 -49.8047 L 63.916 -49.8047 L 64.7461 -47.168 C 65.5273 -44.4336 66.748 -43.2617 69.1406 -43.2617 C 71.6309 -43.2617 73.1934 -44.873 73.1934 -47.2656 C 73.1934 -47.998 73.0469 -49.0234 72.7051 -50.0488 L 66.4062 -68.7012 C 65.1855 -72.3633 63.0371 -74.1699 59.4727 -74.1699 C 56.0059 -74.1699 53.9551 -72.4121 52.6855 -68.7012 L 46.4355 -50.0488 C 46.0938 -49.0234 45.8984 -47.998 45.8984 -47.2656 C 45.8984 -44.7754 47.6074 -43.2617 49.8535 -43.2617 Z M 83.4961 -63.3789 L 95.7031 -63.3789 C 98.291 -63.3789 100.195 -65.3809 100.195 -67.9688 C 100.195 -70.459 98.291 -72.3633 95.7031 -72.3633 L 83.4961 -72.3633 C 80.8594 -72.3633 78.9062 -70.459 78.9062 -67.9688 C 78.9062 -65.3809 80.8594 -63.3789 83.4961 -63.3789 Z M 56.6406 -56.1523 L 59.375 -66.3574 L 59.7168 -66.3574 L 62.5 -56.1523 Z M 83.4961 -45.1172 L 95.7031 -45.1172 C 98.291 -45.1172 100.195 -47.1191 100.195 -49.707 C 100.195 -52.1973 98.291 -54.1504 95.7031 -54.1504 L 83.4961 -54.1504 C 80.8594 -54.1504 78.9062 -52.1973 78.9062 -49.707 C 78.9062 -47.1191 80.8594 -45.1172 83.4961 -45.1172 Z M 46.5332 -1.26953 L 51.0742 -1.26953 L 57.5684 -8.05664 C 58.4473 -8.93555 59.4727 -9.32617 60.5469 -9.32617 C 61.5723 -9.32617 62.6953 -8.93555 63.7207 -8.05664 L 68.0664 -4.15039 L 78.7598 -13.6719 C 79.8828 -14.6973 81.0547 -15.1367 82.2754 -15.1367 C 83.5938 -15.1367 84.8145 -14.6973 85.7422 -13.6719 L 95.752 -1.95312 L 100.195 -1.95312 L 100.195 -26.5625 C 100.195 -31.3477 97.7539 -33.9355 92.8711 -33.9355 L 54.0039 -33.9355 C 49.3652 -33.9355 46.5332 -31.3477 46.5332 -26.5625 Z M 64.1602 -13.5742 C 61.084 -13.5742 58.5449 -16.2109 58.4473 -19.2871 C 58.3984 -22.3145 61.084 -25 64.1602 -24.9023 C 67.1875 -24.7559 69.7754 -22.3145 69.7754 -19.2871 C 69.7754 -16.2109 67.1875 -13.5742 64.1602 -13.5742 Z"/>
  </g>
  <g id="Heavy-L" transform="matrix(1 0 0 1 2564.18 1556)">
   <path d="M 38.7207 34.5215 L 106.348 34.5215 C 120.898 34.5215 128.955 26.416 128.955 11.7676 L 128.955 -82.1289 C 128.955 -96.7285 120.898 -104.883 106.348 -104.883 L 38.7207 -104.883 C 24.1699 -104.883 16.0645 -96.7285 16.0645 -82.1289 L 16.0645 11.7676 C 16.0645 26.416 24.1211 34.5215 38.7207 34.5215 Z M 40.9668 16.9922 C 35.8887 16.9922 33.5938 14.502 33.5938 9.66797 L 33.5938 -80.0293 C 33.5938 -84.8145 35.8887 -87.3535 41.0156 -87.3535 L 104.053 -87.3535 C 109.18 -87.3535 111.475 -84.8633 111.475 -80.0293 L 111.475 9.66797 C 111.475 14.502 109.18 16.9922 104.053 16.9922 Z M 47.4609 -43.3594 C 49.6582 -43.3594 51.0254 -44.3848 51.6602 -46.9238 L 52.832 -50.5859 L 62.4512 -50.5859 L 63.7207 -46.9238 C 64.4043 -44.4336 65.5762 -43.3594 67.7246 -43.3594 C 70.0684 -43.3594 71.5332 -44.8242 71.5332 -47.0703 C 71.5332 -47.7051 71.3379 -48.6328 71.0449 -49.6094 L 63.916 -70.166 C 62.793 -73.4863 60.8398 -75.1465 57.5684 -75.1465 C 54.3945 -75.1465 52.5391 -73.5352 51.3672 -70.166 L 44.2383 -49.6094 C 43.9453 -48.6816 43.75 -47.7051 43.75 -47.0703 C 43.75 -44.7266 45.3613 -43.3594 47.4609 -43.3594 Z M 82.1289 -64.3555 L 96.1426 -64.3555 C 98.584 -64.3555 100.391 -66.2598 100.391 -68.7012 C 100.391 -71.0449 98.584 -72.8516 96.1426 -72.8516 L 82.1289 -72.8516 C 79.5898 -72.8516 77.7832 -71.0449 77.7832 -68.7012 C 77.7832 -66.2598 79.5898 -64.3555 82.1289 -64.3555 Z M 54.2969 -56.543 L 57.4707 -67.627 L 57.8125 -67.627 L 61.0352 -56.543 Z M 82.1289 -45.2148 L 96.1426 -45.2148 C 98.584 -45.2148 100.391 -47.1191 100.391 -49.5117 C 100.391 -51.9043 98.584 -53.7109 96.1426 -53.7109 L 82.1289 -53.7109 C 79.5898 -53.7109 77.7832 -51.9043 77.7832 -49.5117 C 77.7832 -47.1191 79.5898 -45.2148 82.1289 -45.2148 Z M 43.7988 0.927734 L 48.1445 0.927734 L 55.2246 -6.34766 C 56.2012 -7.27539 57.3242 -7.71484 58.4473 -7.71484 C 59.5215 -7.71484 60.7422 -7.27539 61.8164 -6.34766 L 66.3574 -2.19727 L 77.7344 -12.3047 C 78.9551 -13.3789 80.2246 -13.8672 81.543 -13.8672 C 82.9102 -13.8672 84.2773 -13.3789 85.2539 -12.2559 L 96.0938 0.292969 L 100.391 0.292969 L 100.391 -25.9766 C 100.391 -30.957 97.8516 -33.5449 92.8223 -33.5449 L 51.4648 -33.5449 C 46.6309 -33.5449 43.7988 -30.957 43.7988 -25.9766 Z M 62.2559 -12.2559 C 58.9844 -12.2559 56.2988 -14.9902 56.25 -18.2617 C 56.2012 -21.5332 58.9844 -24.3164 62.2559 -24.2188 C 65.5273 -24.1211 68.2129 -21.5332 68.2129 -18.2617 C 68.2129 -14.9902 65.5273 -12.2559 62.2559 -12.2559 Z"/>
  </g>
  <g id="Bold-L" transform="matrix(1 0 0 1 2268.86 1556)">
   <path d="M 37.4023 33.6914 L 104.883 33.6914 C 118.701 33.6914 126.172 26.1719 126.172 12.2559 L 126.172 -82.5684 C 126.172 -96.4844 118.701 -104.053 104.883 -104.053 L 37.4023 -104.053 C 23.584 -104.053 16.0645 -96.4844 16.0645 -82.5684 L 16.0645 12.2559 C 16.0645 26.1719 23.5352 33.6914 37.4023 33.6914 Z M 39.0137 19.2383 C 33.252 19.2383 30.5176 16.3086 30.5176 10.791 L 30.5176 -81.1523 C 30.5176 -86.5723 33.252 -89.5996 39.0625 -89.5996 L 103.223 -89.5996 C 108.984 -89.5996 111.719 -86.6699 111.719 -81.1523 L 111.719 10.791 C 111.719 16.3086 108.984 19.2383 103.223 19.2383 Z M 44.8242 -43.4082 C 46.7773 -43.4082 47.998 -44.3848 48.5352 -46.6797 L 50.2441 -51.5137 L 60.791 -51.5137 L 62.5 -46.6797 C 63.1348 -44.3848 64.2578 -43.4082 66.1621 -43.4082 C 68.3594 -43.4082 69.6289 -44.7266 69.6289 -46.8262 C 69.6289 -47.4121 69.4824 -48.2422 69.2383 -49.1211 L 61.1328 -71.8262 C 60.1074 -74.7559 58.3496 -76.2207 55.4688 -76.2207 C 52.6367 -76.2207 50.9277 -74.8047 49.9023 -71.8262 L 41.7969 -49.1211 C 41.5527 -48.2422 41.3574 -47.4121 41.3574 -46.8262 C 41.3574 -44.6777 42.7734 -43.4082 44.8242 -43.4082 Z M 80.5176 -65.4785 L 96.6309 -65.4785 C 98.9258 -65.4785 100.635 -67.2363 100.635 -69.4824 C 100.635 -71.6797 98.9258 -73.3887 96.6309 -73.3887 L 80.5176 -73.3887 C 78.2227 -73.3887 76.5137 -71.6797 76.5137 -69.4824 C 76.5137 -67.2363 78.2227 -65.4785 80.5176 -65.4785 Z M 51.6602 -57.0312 L 55.3223 -69.043 L 55.6641 -69.043 L 59.4238 -57.0312 Z M 80.5176 -45.3125 L 96.6309 -45.3125 C 98.9258 -45.3125 100.635 -47.1191 100.635 -49.3652 C 100.635 -51.5137 98.9258 -53.2227 96.6309 -53.2227 L 80.5176 -53.2227 C 78.2227 -53.2227 76.5137 -51.5137 76.5137 -49.3652 C 76.5137 -47.1191 78.2227 -45.3125 80.5176 -45.3125 Z M 40.7227 3.36914 L 44.873 3.36914 L 52.6367 -4.39453 C 53.7109 -5.46875 54.8828 -5.9082 56.0547 -5.9082 C 57.2266 -5.9082 58.5449 -5.41992 59.668 -4.39453 L 64.502 -0.0488281 L 76.6113 -10.7422 C 77.9297 -11.9141 79.2969 -12.4512 80.6641 -12.4512 C 82.1777 -12.4512 83.6426 -11.9629 84.7168 -10.7422 L 96.4844 2.7832 L 100.635 2.7832 L 100.635 -25.3418 C 100.635 -30.5176 97.9492 -33.2031 92.7734 -33.2031 L 48.6328 -33.2031 C 43.6035 -33.2031 40.7227 -30.5176 40.7227 -25.3418 Z M 60.1074 -10.6934 C 56.6406 -10.6934 53.7598 -13.6719 53.7109 -17.0898 C 53.7109 -20.6055 56.6406 -23.584 60.1074 -23.4863 C 63.623 -23.3887 66.5039 -20.6055 66.5039 -17.0898 C 66.5039 -13.6719 63.623 -10.6934 60.1074 -10.6934 Z"/>
  </g>
  <g id="Semibold-L" transform="matrix(1 0 0 1 1973.1 1556)">
   <path d="M 36.4746 33.1055 L 103.857 33.1055 C 117.188 33.1055 124.268 26.0254 124.268 12.5488 L 124.268 -82.9102 C 124.268 -96.3379 117.188 -103.467 103.857 -103.467 L 36.4746 -103.467 C 23.1445 -103.467 16.0645 -96.3379 16.0645 -82.9102 L 16.0645 12.5488 C 16.0645 26.0254 23.0957 33.1055 36.4746 33.1055 Z M 37.6465 20.8008 C 31.4453 20.8008 28.418 17.5781 28.418 11.5723 L 28.418 -81.9336 C 28.418 -87.793 31.4453 -91.1133 37.6953 -91.1133 L 102.637 -91.1133 C 108.838 -91.1133 111.914 -87.8906 111.914 -81.9336 L 111.914 11.5723 C 111.914 17.5781 108.838 20.8008 102.686 20.8008 Z M 43.0176 -43.457 C 44.7754 -43.457 45.8984 -44.3359 46.4355 -46.4844 L 48.4375 -52.1484 L 59.668 -52.1484 L 61.7188 -46.4844 C 62.3047 -44.3848 63.3301 -43.457 65.0391 -43.457 C 67.1387 -43.457 68.3594 -44.6777 68.3594 -46.6309 C 68.3594 -47.168 68.2129 -47.9492 67.9688 -48.7793 L 59.1797 -72.9492 C 58.252 -75.6348 56.6406 -76.9531 54.0039 -76.9531 C 51.416 -76.9531 49.8535 -75.6836 48.9258 -72.9492 L 40.1367 -48.7793 C 39.8926 -47.998 39.7461 -47.168 39.7461 -46.6309 C 39.7461 -44.6289 41.0156 -43.457 43.0176 -43.457 Z M 79.4434 -66.2598 L 96.9727 -66.2598 C 99.1699 -66.2598 100.781 -67.9199 100.781 -70.0684 C 100.781 -72.1191 99.1699 -73.7305 96.9727 -73.7305 L 79.4434 -73.7305 C 77.2461 -73.7305 75.6348 -72.1191 75.6348 -70.0684 C 75.6348 -67.9199 77.2461 -66.2598 79.4434 -66.2598 Z M 49.8047 -57.373 L 53.8574 -70.0195 L 54.1992 -70.0195 L 58.3008 -57.373 Z M 79.4434 -45.4102 L 96.9727 -45.4102 C 99.1699 -45.4102 100.781 -47.0703 100.781 -49.2188 C 100.781 -51.2695 99.1699 -52.8809 96.9727 -52.8809 L 79.4434 -52.8809 C 77.2461 -52.8809 75.6348 -51.2695 75.6348 -49.2188 C 75.6348 -47.0703 77.2461 -45.4102 79.4434 -45.4102 Z M 38.5742 5.07812 L 42.627 5.07812 L 50.8301 -3.07617 C 51.9531 -4.19922 53.2227 -4.6875 54.4434 -4.6875 C 55.6641 -4.6875 56.9824 -4.15039 58.1543 -3.07617 L 63.1836 1.46484 L 75.7812 -9.66797 C 77.1973 -10.8887 78.6621 -11.4746 80.0781 -11.4746 C 81.6406 -11.4746 83.2031 -10.9375 84.375 -9.66797 L 96.7285 4.49219 L 100.781 4.49219 L 100.781 -24.9023 C 100.781 -30.1758 98.0469 -32.9102 92.7246 -32.9102 L 46.6797 -32.9102 C 41.5527 -32.9102 38.5742 -30.1758 38.5742 -24.9023 Z M 58.6426 -9.66797 C 55.0293 -9.66797 52.002 -12.7441 52.002 -16.3086 C 52.002 -19.9707 55.0293 -23.0469 58.6426 -22.9492 C 62.3047 -22.8516 65.2832 -19.9707 65.2832 -16.3086 C 65.2832 -12.7441 62.3047 -9.66797 58.6426 -9.66797 Z"/>
  </g>
  <g id="Medium-L" transform="matrix(1 0 0 1 1677.12 1556)">
   <path d="M 35.791 32.666 L 103.076 32.666 C 116.064 32.666 122.803 25.9277 122.803 12.793 L 122.803 -83.1055 C 122.803 -96.1914 116.064 -103.027 103.076 -103.027 L 35.791 -103.027 C 22.8516 -103.027 16.0645 -96.1914 16.0645 -83.1055 L 16.0645 12.793 C 16.0645 25.9277 22.8027 32.666 35.791 32.666 Z M 36.6211 21.9727 C 30.127 21.9727 26.8066 18.5059 26.8066 12.1582 L 26.8066 -82.5195 C 26.8066 -88.7207 30.127 -92.2852 36.6699 -92.2852 L 102.197 -92.2852 C 108.74 -92.2852 112.061 -88.8672 112.061 -82.5195 L 112.061 12.1582 C 112.061 18.5059 108.74 21.9727 102.246 21.9727 Z M 41.6504 -43.5059 C 43.2617 -43.5059 44.2871 -44.3359 44.7754 -46.3379 L 47.0703 -52.5879 L 58.7891 -52.5879 L 61.084 -46.3379 C 61.6211 -44.3848 62.6465 -43.5059 64.209 -43.5059 C 66.2598 -43.5059 67.3828 -44.6289 67.3828 -46.4844 C 67.3828 -47.0215 67.2363 -47.7051 66.9922 -48.5352 L 57.7148 -73.8281 C 56.8848 -76.3184 55.3711 -77.5391 52.8809 -77.5391 C 50.4883 -77.5391 49.0234 -76.3184 48.1445 -73.8281 L 38.8672 -48.5352 C 38.623 -47.7539 38.4766 -47.0215 38.4766 -46.4844 C 38.4766 -44.6289 39.6973 -43.5059 41.6504 -43.5059 Z M 78.6133 -66.8457 L 97.2656 -66.8457 C 99.3164 -66.8457 100.879 -68.457 100.879 -70.5078 C 100.879 -72.4609 99.3164 -74.0234 97.2656 -74.0234 L 78.6133 -74.0234 C 76.5137 -74.0234 74.9512 -72.4609 74.9512 -70.5078 C 74.9512 -68.457 76.5137 -66.8457 78.6133 -66.8457 Z M 48.4375 -57.6172 L 52.7344 -70.752 L 53.0762 -70.752 L 57.4219 -57.6172 Z M 78.6133 -45.459 L 97.2656 -45.459 C 99.3164 -45.459 100.879 -47.0703 100.879 -49.1211 C 100.879 -51.0742 99.3164 -52.6367 97.2656 -52.6367 L 78.6133 -52.6367 C 76.5137 -52.6367 74.9512 -51.0742 74.9512 -49.1211 C 74.9512 -47.0703 76.5137 -45.459 78.6133 -45.459 Z M 36.9629 6.34766 L 40.918 6.34766 L 49.4629 -2.09961 C 50.6348 -3.22266 51.9531 -3.71094 53.1738 -3.71094 C 54.4434 -3.71094 55.8594 -3.22266 57.0801 -2.09961 L 62.207 2.58789 L 75.1953 -8.83789 C 76.6602 -10.1074 78.1738 -10.7422 79.6387 -10.7422 C 81.25 -10.7422 82.8613 -10.2051 84.082 -8.83789 L 96.9238 5.81055 L 100.879 5.81055 L 100.879 -24.5605 C 100.879 -29.9316 98.0957 -32.7148 92.6758 -32.7148 L 45.2148 -32.7148 C 39.9414 -32.7148 36.9629 -29.9316 36.9629 -24.5605 Z M 57.5684 -8.88672 C 53.8086 -8.88672 50.6836 -12.0117 50.6836 -15.7227 C 50.6836 -19.4824 53.8086 -22.6562 57.5684 -22.5586 C 61.3281 -22.4609 64.4043 -19.4824 64.4043 -15.7227 C 64.4043 -12.0117 61.3281 -8.88672 57.5684 -8.88672 Z"/>
  </g>
  <g id="Regular-L" transform="matrix(1 0 0 1 1381.36 1556)">
   <path d="M 34.8633 32.1289 L 102.1 32.1289 C 114.6 32.1289 120.898 25.7324 120.898 13.1348 L 120.898 -83.4473 C 120.898 -96.0449 114.6 -102.441 102.1 -102.441 L 34.8633 -102.441 C 22.4609 -102.441 16.0645 -96.0449 16.0645 -83.4473 L 16.0645 13.1348 C 16.0645 25.7324 22.3633 32.1289 34.8633 32.1289 Z M 35.3027 23.4863 C 28.3203 23.4863 24.707 19.7754 24.707 12.9395 L 24.707 -83.252 C 24.707 -89.9414 28.3203 -93.7988 35.3516 -93.7988 L 101.611 -93.7988 C 108.643 -93.7988 112.256 -90.0879 112.256 -83.252 L 112.256 12.9395 C 112.256 19.7754 108.643 23.4863 101.66 23.4863 Z M 39.8438 -43.5547 C 41.2598 -43.5547 42.1875 -44.2871 42.6758 -46.1426 L 45.2637 -53.2227 L 57.666 -53.2227 L 60.3027 -46.1426 C 60.791 -44.3359 61.7676 -43.5547 63.1348 -43.5547 C 65.0391 -43.5547 66.1133 -44.5801 66.1133 -46.3379 C 66.1133 -46.7773 65.9668 -47.4609 65.7715 -48.1934 L 55.8105 -74.9512 C 55.0293 -77.1484 53.6621 -78.2715 51.416 -78.2715 C 49.2676 -78.2715 47.9492 -77.1484 47.168 -74.9512 L 37.207 -48.1934 C 37.0117 -47.5098 36.8652 -46.7773 36.8652 -46.3379 C 36.8652 -44.5801 37.9883 -43.5547 39.8438 -43.5547 Z M 77.5879 -67.627 L 97.6074 -67.627 C 99.5605 -67.627 101.025 -69.1406 101.025 -71.0449 C 101.025 -72.9004 99.5605 -74.3652 97.6074 -74.3652 L 77.5879 -74.3652 C 75.5859 -74.3652 74.1211 -72.9004 74.1211 -71.0449 C 74.1211 -69.1406 75.5859 -67.627 77.5879 -67.627 Z M 46.6309 -57.959 L 51.3184 -71.7285 L 51.6113 -71.7285 L 56.2988 -57.959 Z M 77.5879 -45.5566 L 97.6074 -45.5566 C 99.5605 -45.5566 101.025 -47.0703 101.025 -48.9746 C 101.025 -50.8301 99.5605 -52.2949 97.6074 -52.2949 L 77.5879 -52.2949 C 75.5859 -52.2949 74.1211 -50.8301 74.1211 -48.9746 C 74.1211 -47.0703 75.5859 -45.5566 77.5879 -45.5566 Z M 34.8633 8.00781 L 38.7207 8.00781 L 47.6562 -0.78125 C 48.9258 -1.95312 50.293 -2.49023 51.5625 -2.49023 C 52.8809 -2.49023 54.3457 -1.95312 55.6152 -0.78125 L 60.9375 4.05273 L 74.4141 -7.8125 C 75.9277 -9.13086 77.5391 -9.76562 79.0527 -9.76562 C 80.7129 -9.76562 82.4219 -9.17969 83.6914 -7.76367 L 97.168 7.51953 L 101.025 7.51953 L 101.025 -24.1211 C 101.025 -29.6387 98.1934 -32.4707 92.627 -32.4707 L 43.3105 -32.4707 C 37.8906 -32.4707 34.8633 -29.6387 34.8633 -24.1211 Z M 56.1035 -7.86133 C 52.1973 -7.86133 48.9746 -11.084 48.9746 -14.9414 C 48.9746 -18.8477 52.1973 -22.168 56.1035 -22.0703 C 60.0098 -21.9727 63.2324 -18.8477 63.2324 -14.9414 C 63.2324 -11.084 60.0098 -7.86133 56.1035 -7.86133 Z"/>
  </g>
  <g id="Light-L" transform="matrix(1 0 0 1 1085.43 1556)">
   <path d="M 33.9355 31.7871 L 101.514 31.7871 C 113.281 31.7871 119.336 25.6836 119.336 13.8184 L 119.336 -84.082 C 119.336 -95.9473 113.281 -102.051 101.514 -102.051 L 33.9355 -102.051 C 22.2168 -102.051 16.0645 -95.9473 16.0645 -84.082 L 16.0645 13.8184 C 16.0645 25.6836 22.1191 31.7871 33.9355 31.7871 Z M 34.2285 25.1953 C 26.6113 25.1953 22.7051 21.1914 22.7051 13.6719 L 22.7051 -83.9355 C 22.7051 -91.2598 26.6113 -95.459 34.2773 -95.459 L 101.172 -95.459 C 108.789 -95.459 112.744 -91.4551 112.744 -83.9355 L 112.744 13.6719 C 112.744 21.1914 108.789 25.1953 101.172 25.1953 Z M 38.7695 -44.7754 C 39.8926 -44.7754 40.6738 -45.3613 41.0645 -46.7773 L 44.1895 -55.0293 L 57.3242 -55.0293 L 60.4492 -46.7773 C 60.8887 -45.4102 61.6699 -44.7754 62.7441 -44.7754 C 64.3066 -44.7754 65.1855 -45.6543 65.1855 -47.0215 C 65.1855 -47.4121 65.0391 -47.9492 64.8926 -48.4863 L 54.0527 -76.8066 C 53.4668 -78.4668 52.4414 -79.2969 50.7324 -79.2969 C 49.1211 -79.2969 48.0469 -78.4668 47.4609 -76.8066 L 36.6211 -48.4863 C 36.4746 -47.998 36.377 -47.4121 36.377 -47.0215 C 36.377 -45.6543 37.2559 -44.7754 38.7695 -44.7754 Z M 77.0996 -69.043 L 99.1699 -69.043 C 100.732 -69.043 101.953 -70.2637 101.953 -71.7773 C 101.953 -73.291 100.732 -74.5117 99.1699 -74.5117 L 77.0996 -74.5117 C 75.4883 -74.5117 74.3164 -73.291 74.3164 -71.7773 C 74.3164 -70.2637 75.4883 -69.043 77.0996 -69.043 Z M 45.459 -59.082 L 50.6348 -73.5352 L 50.8789 -73.5352 L 56.0547 -59.082 Z M 77.0996 -46.875 L 99.1699 -46.875 C 100.732 -46.875 101.953 -48.0957 101.953 -49.6094 C 101.953 -51.123 100.732 -52.2949 99.1699 -52.2949 L 77.0996 -52.2949 C 75.4883 -52.2949 74.3164 -51.123 74.3164 -49.6094 C 74.3164 -48.0957 75.4883 -46.875 77.0996 -46.875 Z M 32.959 8.69141 L 36.0352 8.69141 L 45.9473 -0.683594 C 47.3633 -1.95312 48.7793 -2.58789 50.0977 -2.58789 C 51.5137 -2.58789 53.0273 -1.9043 54.3945 -0.683594 L 59.9121 4.3457 L 74.1699 -8.05664 C 75.8301 -9.47266 77.5391 -10.2051 79.1504 -10.2051 C 80.9082 -10.2051 82.8125 -9.57031 84.1797 -8.00781 L 98.877 8.39844 L 101.953 8.39844 L 101.953 -25.293 C 101.953 -30.8594 99.1211 -33.5938 93.6035 -33.5938 L 41.3574 -33.5938 C 35.8887 -33.5938 32.959 -30.8594 32.959 -25.293 Z M 54.8828 -8.1543 C 50.7812 -8.1543 47.3633 -11.5723 47.3633 -15.6738 C 47.3633 -19.8242 50.7812 -23.291 54.8828 -23.2422 C 59.0332 -23.1445 62.4512 -19.8242 62.4512 -15.6738 C 62.4512 -11.5723 59.0332 -8.1543 54.8828 -8.1543 Z"/>
  </g>
  <g id="Thin-L" transform="matrix(1 0 0 1 789.747 1556)">
   <path d="M 32.666 31.3477 L 100.732 31.3477 C 111.572 31.3477 117.285 25.6348 117.285 14.7461 L 117.285 -84.9609 C 117.285 -95.8496 111.572 -101.562 100.732 -101.562 L 32.666 -101.562 C 21.9238 -101.562 16.0645 -95.8496 16.0645 -84.9609 L 16.0645 14.7461 C 16.0645 25.6348 21.7773 31.3477 32.666 31.3477 Z M 32.8613 27.4414 C 24.3652 27.4414 19.9707 23.0469 19.9707 14.5996 L 19.9707 -84.8145 C 19.9707 -92.9688 24.3652 -97.6562 32.8613 -97.6562 L 100.537 -97.6562 C 108.984 -97.6562 113.379 -93.2617 113.379 -84.8145 L 113.379 14.5996 C 113.379 23.0469 108.984 27.4414 100.537 27.4414 Z M 37.4023 -46.4355 C 38.0859 -46.4355 38.623 -46.7773 38.916 -47.6074 L 42.7246 -57.4707 L 56.8848 -57.4707 L 60.6934 -47.6074 C 60.9863 -46.8262 61.5234 -46.4355 62.207 -46.4355 C 63.2812 -46.4355 63.916 -47.0215 63.916 -47.9492 C 63.916 -48.2422 63.8184 -48.584 63.7207 -48.9258 L 51.7578 -79.3457 C 51.416 -80.1758 50.7812 -80.6641 49.8535 -80.6641 C 48.9258 -80.6641 48.1934 -80.1758 47.9004 -79.3457 L 35.8887 -48.9258 C 35.791 -48.6328 35.6934 -48.2422 35.6934 -47.9492 C 35.6934 -47.0215 36.3281 -46.4355 37.4023 -46.4355 Z M 43.8965 -60.5957 L 49.7559 -75.9766 L 49.8535 -75.9766 L 55.7129 -60.5957 Z M 76.5137 -70.9473 L 101.221 -70.9473 C 102.344 -70.9473 103.174 -71.7773 103.174 -72.8027 C 103.174 -73.8281 102.344 -74.6582 101.221 -74.6582 L 76.5137 -74.6582 C 75.4395 -74.6582 74.6094 -73.8281 74.6094 -72.8027 C 74.6094 -71.7773 75.4395 -70.9473 76.5137 -70.9473 Z M 76.5137 -48.6328 L 101.221 -48.6328 C 102.344 -48.6328 103.174 -49.4629 103.174 -50.4883 C 103.174 -51.5137 102.344 -52.2949 101.221 -52.2949 L 76.5137 -52.2949 C 75.4395 -52.2949 74.6094 -51.5137 74.6094 -50.4883 C 74.6094 -49.4629 75.4395 -48.6328 76.5137 -48.6328 Z M 30.4688 9.61914 L 32.5195 9.61914 L 43.7012 -0.537109 C 45.2637 -1.95312 46.7773 -2.68555 48.1934 -2.68555 C 49.707 -2.68555 51.3184 -1.9043 52.7832 -0.537109 L 58.5449 4.73633 L 73.8281 -8.39844 C 75.6836 -9.96094 77.5879 -10.7422 79.248 -10.7422 C 81.1523 -10.7422 83.252 -10.0586 84.8145 -8.34961 L 101.123 9.52148 L 103.174 9.52148 L 103.174 -26.9043 C 103.174 -32.4219 100.391 -35.1074 94.873 -35.1074 L 38.7695 -35.1074 C 33.252 -35.1074 30.4688 -32.4219 30.4688 -26.9043 Z M 53.3203 -8.59375 C 48.877 -8.59375 45.2637 -12.2559 45.2637 -16.6992 C 45.2637 -21.0938 48.877 -24.7559 53.3203 -24.7559 C 57.7637 -24.707 61.377 -21.0938 61.377 -16.6992 C 61.377 -12.2559 57.7637 -8.59375 53.3203 -8.59375 Z"/>
  </g>
  <g id="Ultralight-L" transform="matrix(1 0 0 1 493.549 1556)">
   <path d="M 31.9824 31.1523 L 100.293 31.1523 C 110.693 31.1523 116.26 25.5859 116.26 15.2344 L 116.26 -85.4492 C 116.26 -95.8008 110.693 -101.318 100.293 -101.318 L 31.9824 -101.318 C 21.7773 -101.318 16.0645 -95.8008 16.0645 -85.4492 L 16.0645 15.2344 C 16.0645 25.5859 21.6309 31.1523 31.9824 31.1523 Z M 32.1289 28.5645 C 23.2422 28.5645 18.6035 23.9746 18.6035 15.0391 L 18.6035 -85.2539 C 18.6035 -93.8477 23.2422 -98.7793 32.1289 -98.7793 L 100.195 -98.7793 C 109.082 -98.7793 113.672 -94.1895 113.672 -85.2539 L 113.672 15.0391 C 113.672 23.9746 109.082 28.5645 100.195 28.5645 Z M 36.7188 -47.2656 C 37.1582 -47.2656 37.5977 -47.5098 37.793 -47.998 L 41.9922 -58.6914 L 56.6406 -58.6914 L 60.8398 -47.998 C 61.0352 -47.5098 61.4746 -47.2656 61.9141 -47.2656 C 62.793 -47.2656 63.2812 -47.7539 63.2812 -48.4375 C 63.2812 -48.6816 63.2324 -48.9258 63.1348 -49.1211 L 50.5371 -80.6152 C 50.3906 -81.0547 49.9023 -81.3477 49.3652 -81.3477 C 48.8281 -81.3477 48.291 -81.0547 48.0957 -80.6152 L 35.498 -49.1211 C 35.4492 -48.9258 35.3516 -48.6816 35.3516 -48.4375 C 35.3516 -47.7539 35.8398 -47.2656 36.7188 -47.2656 Z M 43.1152 -61.377 L 49.3164 -77.1973 L 49.3652 -77.1973 L 55.5664 -61.377 Z M 76.2207 -71.9238 L 102.295 -71.9238 C 103.174 -71.9238 103.76 -72.5586 103.76 -73.291 C 103.76 -74.0723 103.174 -74.707 102.295 -74.707 L 76.2207 -74.707 C 75.3906 -74.707 74.7559 -74.0723 74.7559 -73.291 C 74.7559 -72.5586 75.3906 -71.9238 76.2207 -71.9238 Z M 76.2207 -49.5605 L 102.295 -49.5605 C 103.174 -49.5605 103.76 -50.1465 103.76 -50.9277 C 103.76 -51.709 103.174 -52.2949 102.295 -52.2949 L 76.2207 -52.2949 C 75.3906 -52.2949 74.7559 -51.709 74.7559 -50.9277 C 74.7559 -50.1465 75.3906 -49.5605 76.2207 -49.5605 Z M 29.1992 10.0586 L 30.7129 10.0586 L 42.5293 -0.488281 C 44.1895 -1.95312 45.7031 -2.73438 47.168 -2.73438 C 48.7305 -2.73438 50.4395 -1.9043 51.9531 -0.488281 L 57.8613 4.98047 L 73.6328 -8.59375 C 75.6348 -10.2051 77.5879 -11.0352 79.2969 -11.0352 C 81.25 -11.0352 83.4961 -10.3027 85.1562 -8.49609 L 102.246 10.1074 L 103.76 10.1074 L 103.76 -27.6855 C 103.76 -33.252 101.074 -35.8887 95.5078 -35.8887 L 37.4512 -35.8887 C 31.8848 -35.8887 29.1992 -33.252 29.1992 -27.6855 Z M 52.4902 -8.83789 C 47.9492 -8.83789 44.1895 -12.5977 44.1895 -17.1875 C 44.1895 -21.7285 47.9492 -25.4883 52.4902 -25.4883 C 57.0801 -25.5371 60.8398 -21.7285 60.8398 -17.1875 C 60.8398 -12.5977 57.0801 -8.83789 52.4902 -8.83789 Z"/>
  </g>
  <g id="Black-M" transform="matrix(1 0 0 1 2874.98 1126)">
   <path d="M 31.9824 20.2148 L 84.8633 20.2148 C 97.1191 20.2148 104.395 12.9395 104.395 0.683594 L 104.395 -71.0938 C 104.395 -83.3496 97.1191 -90.625 84.8633 -90.625 L 31.9824 -90.625 C 19.7266 -90.625 12.4512 -83.3496 12.4512 -71.0938 L 12.4512 0.683594 C 12.4512 12.9395 19.7266 20.2148 31.9824 20.2148 Z M 34.9121 1.9043 C 31.8359 1.9043 30.7617 0.585938 30.7617 -2.24609 L 30.7617 -68.1641 C 30.7617 -70.9961 31.8359 -72.3145 34.9121 -72.3145 L 81.9336 -72.3145 C 85.0098 -72.3145 86.1328 -70.9961 86.1328 -68.1641 L 86.1328 -2.24609 C 86.1328 0.585938 85.0098 1.9043 81.9336 1.9043 Z M 41.2598 -42.041 C 43.2617 -42.041 44.5312 -42.9688 45.0195 -45.166 L 45.3125 -46.3867 L 51.3672 -46.3867 L 51.709 -45.166 C 52.3438 -42.9688 53.2715 -42.041 55.2734 -42.041 C 57.2266 -42.041 58.4473 -43.3594 58.4473 -45.2148 C 58.4473 -45.8496 58.3496 -46.6797 58.1055 -47.4609 L 53.9062 -60.1562 C 52.9297 -63.1836 51.1719 -64.6973 48.291 -64.6973 C 45.459 -64.6973 43.7988 -63.2324 42.7734 -60.1562 L 38.5742 -47.4609 C 38.3301 -46.6797 38.1348 -45.8496 38.1348 -45.2148 C 38.1348 -43.2129 39.5996 -42.041 41.2598 -42.041 Z M 66.3574 -56.4453 L 74.4141 -56.4453 C 76.416 -56.4453 77.9297 -58.0078 77.9297 -60.0098 C 77.9297 -61.9629 76.416 -63.4277 74.4141 -63.4277 L 66.3574 -63.4277 C 64.3066 -63.4277 62.8418 -61.9629 62.8418 -60.0098 C 62.8418 -58.0078 64.3066 -56.4453 66.3574 -56.4453 Z M 46.4355 -51.4648 L 48.2422 -58.6426 L 48.4863 -58.6426 L 50.2441 -51.4648 Z M 66.3574 -43.457 L 74.4141 -43.457 C 76.416 -43.457 77.9297 -45.0195 77.9297 -47.0215 C 77.9297 -48.9746 76.416 -50.4395 74.4141 -50.4395 L 66.3574 -50.4395 C 64.3066 -50.4395 62.8418 -48.9746 62.8418 -47.0215 C 62.8418 -45.0195 64.3066 -43.457 66.3574 -43.457 Z M 38.7695 -11.4746 L 42.0898 -11.4746 L 46.8262 -16.4551 C 47.4609 -17.041 48.1934 -17.3828 49.0234 -17.3828 C 49.7559 -17.3828 50.5859 -17.041 51.3184 -16.4551 L 54.4922 -13.5742 L 62.3047 -20.5078 C 63.0859 -21.2891 63.9648 -21.582 64.8438 -21.582 C 65.8203 -21.582 66.6992 -21.2891 67.3828 -20.5078 L 74.707 -11.9629 L 77.9297 -11.9629 L 77.9297 -29.9316 C 77.9297 -33.4473 76.123 -35.3027 72.5586 -35.3027 L 44.2383 -35.3027 C 40.8203 -35.3027 38.7695 -33.4473 38.7695 -29.9316 Z M 51.6113 -20.459 C 49.4141 -20.459 47.5098 -22.4121 47.4609 -24.6094 C 47.4121 -26.8555 49.4141 -28.7598 51.6113 -28.7109 C 53.8574 -28.6621 55.7129 -26.8555 55.7129 -24.6094 C 55.7129 -22.4121 53.8574 -20.459 51.6113 -20.459 Z"/>
  </g>
  <g id="Heavy-M" transform="matrix(1 0 0 1 2579.41 1126)">
   <path d="M 30.957 19.4824 L 83.5938 19.4824 C 95.3125 19.4824 102.1 12.7441 102.1 0.976562 L 102.1 -71.3379 C 102.1 -83.1055 95.3125 -89.8926 83.5938 -89.8926 L 30.957 -89.8926 C 19.1895 -89.8926 12.4512 -83.1055 12.4512 -71.3379 L 12.4512 0.976562 C 12.4512 12.7441 19.1895 19.4824 30.957 19.4824 Z M 33.252 3.66211 C 29.7363 3.66211 28.2715 2.00195 28.2715 -1.31836 L 28.2715 -69.0918 C 28.2715 -72.3633 29.7363 -74.0723 33.3008 -74.0723 L 81.25 -74.0723 C 84.8145 -74.0723 86.2793 -72.4121 86.2793 -69.0918 L 86.2793 -1.31836 C 86.2793 2.00195 84.8145 3.66211 81.25 3.66211 Z M 38.9648 -41.7969 C 40.8203 -41.7969 41.9434 -42.6758 42.4316 -44.7266 L 43.0664 -46.8262 L 49.8535 -46.8262 L 50.4883 -44.7266 C 51.0742 -42.6758 52.002 -41.7969 53.8574 -41.7969 C 55.7129 -41.7969 56.8848 -43.0176 56.8848 -44.8242 C 56.8848 -45.3613 56.7871 -46.1426 56.543 -46.9238 L 51.6113 -61.2793 C 50.6836 -64.0625 49.0723 -65.4785 46.3867 -65.4785 C 43.75 -65.4785 42.1875 -64.1113 41.2598 -61.2793 L 36.377 -46.9238 C 36.1328 -46.1426 35.9375 -45.3613 35.9375 -44.8242 C 35.9375 -42.9199 37.3047 -41.7969 38.9648 -41.7969 Z M 64.9414 -57.1777 L 74.5117 -57.1777 C 76.416 -57.1777 77.8809 -58.6914 77.8809 -60.5957 C 77.8809 -62.5 76.416 -63.916 74.5117 -63.916 L 64.9414 -63.916 C 62.9883 -63.916 61.5234 -62.5 61.5234 -60.5957 C 61.5234 -58.6914 62.9883 -57.1777 64.9414 -57.1777 Z M 44.1895 -51.6602 L 46.2891 -59.5215 L 46.582 -59.5215 L 48.7305 -51.6602 Z M 64.9414 -43.2129 L 74.5117 -43.2129 C 76.416 -43.2129 77.8809 -44.7266 77.8809 -46.6797 C 77.8809 -48.5352 76.416 -50 74.5117 -50 L 64.9414 -50 C 62.9883 -50 61.5234 -48.5352 61.5234 -46.6797 C 61.5234 -44.7266 62.9883 -43.2129 64.9414 -43.2129 Z M 36.2793 -9.27734 L 39.5996 -9.27734 L 44.7266 -14.5996 C 45.4102 -15.2832 46.2402 -15.5762 47.0703 -15.5762 C 47.9004 -15.5762 48.7305 -15.2832 49.5117 -14.5996 L 52.8809 -11.5234 L 61.2305 -18.9453 C 62.1094 -19.7266 63.0371 -20.0684 63.9648 -20.0684 C 65.0391 -20.0684 65.9668 -19.7754 66.6992 -18.9453 L 74.6094 -9.76562 L 77.8809 -9.76562 L 77.8809 -29.0039 C 77.8809 -32.666 75.9766 -34.6191 72.2656 -34.6191 L 41.9922 -34.6191 C 38.3789 -34.6191 36.2793 -32.666 36.2793 -29.0039 Z M 49.8535 -18.8965 C 47.4609 -18.8965 45.5078 -20.9473 45.459 -23.3398 C 45.4102 -25.7324 47.4609 -27.7832 49.8535 -27.6855 C 52.2461 -27.6367 54.248 -25.7324 54.248 -23.3398 C 54.248 -20.9473 52.2461 -18.8965 49.8535 -18.8965 Z"/>
  </g>
  <g id="Bold-M" transform="matrix(1 0 0 1 2284 1126)">
   <path d="M 29.7852 18.7012 L 82.1777 18.7012 C 93.3105 18.7012 99.5117 12.5 99.5117 1.26953 L 99.5117 -71.6309 C 99.5117 -82.8613 93.3105 -89.0625 82.1777 -89.0625 L 29.7852 -89.0625 C 18.6035 -89.0625 12.4512 -82.8613 12.4512 -71.6309 L 12.4512 1.26953 C 12.4512 12.5 18.6035 18.7012 29.7852 18.7012 Z M 31.4453 5.61523 C 27.3926 5.61523 25.5371 3.56445 25.5371 -0.244141 L 25.5371 -70.1172 C 25.5371 -73.9258 27.3926 -75.9766 31.4453 -75.9766 L 80.4688 -75.9766 C 84.5703 -75.9766 86.4258 -73.9746 86.4258 -70.1172 L 86.4258 -0.244141 C 86.4258 3.56445 84.5703 5.61523 80.5176 5.61523 Z M 36.377 -41.5039 C 38.0371 -41.5039 39.0625 -42.334 39.502 -44.2383 L 40.5273 -47.2656 L 48.0957 -47.2656 L 49.1699 -44.2383 C 49.707 -42.334 50.5859 -41.5039 52.2461 -41.5039 C 54.0527 -41.5039 55.127 -42.627 55.127 -44.3359 C 55.127 -44.8242 54.9805 -45.5566 54.7852 -46.2891 L 49.0723 -62.5488 C 48.2422 -65.0879 46.7285 -66.3574 44.2871 -66.3574 C 41.8457 -66.3574 40.4297 -65.1367 39.5508 -62.5488 L 33.8867 -46.2891 C 33.6426 -45.5566 33.4961 -44.8242 33.4961 -44.3359 C 33.4961 -42.5781 34.7168 -41.5039 36.377 -41.5039 Z M 63.3789 -57.959 L 74.5605 -57.959 C 76.416 -57.959 77.832 -59.4238 77.832 -61.2793 C 77.832 -63.0859 76.416 -64.4531 74.5605 -64.4531 L 63.3789 -64.4531 C 61.4746 -64.4531 60.0586 -63.0859 60.0586 -61.2793 C 60.0586 -59.4238 61.4746 -57.959 63.3789 -57.959 Z M 41.6504 -51.8066 L 44.1895 -60.5469 L 44.4336 -60.5469 L 47.0215 -51.8066 Z M 63.3789 -42.9688 L 74.5605 -42.9688 C 76.416 -42.9688 77.832 -44.4336 77.832 -46.2891 C 77.832 -48.0469 76.416 -49.4629 74.5605 -49.4629 L 63.3789 -49.4629 C 61.4746 -49.4629 60.0586 -48.0469 60.0586 -46.2891 C 60.0586 -44.4336 61.4746 -42.9688 63.3789 -42.9688 Z M 33.4473 -6.78711 L 36.7676 -6.78711 L 42.3828 -12.5 C 43.1641 -13.2812 43.9941 -13.5742 44.9219 -13.5742 C 45.752 -13.5742 46.7285 -13.2324 47.5586 -12.5 L 51.123 -9.27734 L 60.0586 -17.1875 C 60.9863 -18.0176 62.0117 -18.4082 63.0371 -18.4082 C 64.1113 -18.4082 65.1855 -18.0664 65.9668 -17.1875 L 74.5117 -7.27539 L 77.832 -7.27539 L 77.832 -27.9297 C 77.832 -31.8359 75.8301 -33.8379 71.9238 -33.8379 L 39.4531 -33.8379 C 35.6445 -33.8379 33.4473 -31.8359 33.4473 -27.9297 Z M 47.9004 -17.1387 C 45.3125 -17.1387 43.2129 -19.3359 43.1641 -21.875 C 43.1641 -24.4141 45.3125 -26.6113 47.9004 -26.5625 C 50.4395 -26.4648 52.5879 -24.4141 52.5879 -21.875 C 52.5879 -19.3359 50.4395 -17.1387 47.9004 -17.1387 Z"/>
  </g>
  <g id="Semibold-M" transform="matrix(1 0 0 1 1988.19 1126)">
   <path d="M 29.0039 18.1152 L 81.1523 18.1152 C 91.9434 18.1152 97.7051 12.3535 97.7051 1.46484 L 97.7051 -71.8262 C 97.7051 -82.666 91.9434 -88.5254 81.1523 -88.5254 L 29.0039 -88.5254 C 18.2129 -88.5254 12.4512 -82.666 12.4512 -71.8262 L 12.4512 1.46484 C 12.4512 12.3535 18.2129 18.1152 29.0039 18.1152 Z M 30.1758 6.93359 C 25.7324 6.93359 23.6328 4.6875 23.6328 0.439453 L 23.6328 -70.8496 C 23.6328 -75 25.7324 -77.3438 30.1758 -77.3438 L 79.9805 -77.3438 C 84.375 -77.3438 86.5234 -75.0488 86.5234 -70.8496 L 86.5234 0.439453 C 86.5234 4.6875 84.375 6.93359 79.9805 6.93359 Z M 34.5703 -41.3086 C 36.1328 -41.3086 37.0605 -42.0898 37.5 -43.8965 L 38.7695 -47.5586 L 46.9238 -47.5586 L 48.2422 -43.8965 C 48.7305 -42.0898 49.6094 -41.3086 51.123 -41.3086 C 52.8809 -41.3086 53.9062 -42.334 53.9062 -43.9941 C 53.9062 -44.4824 53.8086 -45.1172 53.5645 -45.8496 L 47.3145 -63.4277 C 46.5332 -65.7715 45.1172 -66.9434 42.8223 -66.9434 C 40.5762 -66.9434 39.209 -65.8203 38.3789 -63.4277 L 32.1777 -45.8496 C 31.9336 -45.166 31.7871 -44.4824 31.7871 -43.9941 C 31.7871 -42.334 32.9102 -41.3086 34.5703 -41.3086 Z M 62.2559 -58.5449 L 74.6582 -58.5449 C 76.4648 -58.5449 77.7832 -59.9609 77.7832 -61.7676 C 77.7832 -63.4766 76.4648 -64.8438 74.6582 -64.8438 L 62.2559 -64.8438 C 60.4004 -64.8438 59.0332 -63.4766 59.0332 -61.7676 C 59.0332 -59.9609 60.4004 -58.5449 62.2559 -58.5449 Z M 39.8926 -51.9531 L 42.7246 -61.2305 L 42.9688 -61.2305 L 45.8496 -51.9531 Z M 62.2559 -42.7734 L 74.6582 -42.7734 C 76.4648 -42.7734 77.7832 -44.1895 77.7832 -45.9961 C 77.7832 -47.7539 76.4648 -49.1211 74.6582 -49.1211 L 62.2559 -49.1211 C 60.4004 -49.1211 59.0332 -47.7539 59.0332 -45.9961 C 59.0332 -44.1895 60.4004 -42.7734 62.2559 -42.7734 Z M 31.4941 -5.07812 L 34.8633 -5.07812 L 40.7715 -11.084 C 41.6016 -11.8652 42.4805 -12.207 43.4082 -12.207 C 44.3359 -12.207 45.3125 -11.8652 46.1914 -11.084 L 49.9023 -7.71484 L 59.2285 -15.9668 C 60.2539 -16.8457 61.3281 -17.2852 62.4023 -17.2852 C 63.5254 -17.2852 64.6484 -16.8945 65.4785 -15.9668 L 74.4629 -5.56641 L 77.7832 -5.56641 L 77.7832 -27.1973 C 77.7832 -31.25 75.7324 -33.3496 71.6797 -33.3496 L 37.6953 -33.3496 C 33.7891 -33.3496 31.4941 -31.25 31.4941 -27.1973 Z M 46.5332 -15.918 C 43.8477 -15.918 41.6504 -18.2129 41.6016 -20.8496 C 41.6016 -23.5352 43.8477 -25.8301 46.5332 -25.7812 C 49.2188 -25.6836 51.4648 -23.5352 51.4648 -20.8496 C 51.4648 -18.2129 49.2188 -15.918 46.5332 -15.918 Z"/>
  </g>
  <g id="Medium-M" transform="matrix(1 0 0 1 1692.16 1126)">
   <path d="M 28.3691 17.7246 L 80.4199 17.7246 C 90.918 17.7246 96.3379 12.207 96.3379 1.61133 L 96.3379 -72.0215 C 96.3379 -82.5684 90.918 -88.0859 80.4199 -88.0859 L 28.3691 -88.0859 C 17.9199 -88.0859 12.4512 -82.5684 12.4512 -72.0215 L 12.4512 1.61133 C 12.4512 12.207 17.9199 17.7246 28.3691 17.7246 Z M 29.1992 7.95898 C 24.5117 7.95898 22.168 5.51758 22.168 0.976562 L 22.168 -71.3867 C 22.168 -75.8301 24.5117 -78.3691 29.248 -78.3691 L 79.541 -78.3691 C 84.2773 -78.3691 86.6211 -75.8789 86.6211 -71.3867 L 86.6211 0.976562 C 86.6211 5.51758 84.2773 7.95898 79.5898 7.95898 Z M 33.2031 -41.1621 C 34.668 -41.1621 35.5469 -41.8945 35.9863 -43.6523 L 37.4512 -47.8027 L 46.0449 -47.8027 L 47.5098 -43.6523 C 47.998 -41.9434 48.877 -41.1621 50.293 -41.1621 C 52.002 -41.1621 52.9785 -42.1387 52.9785 -43.75 C 52.9785 -44.1895 52.8809 -44.8242 52.6367 -45.5078 L 45.9961 -64.0625 C 45.2148 -66.3086 43.8965 -67.3828 41.6992 -67.3828 C 39.5508 -67.3828 38.2812 -66.3086 37.5 -64.0625 L 30.8594 -45.5078 C 30.6641 -44.873 30.5176 -44.1895 30.5176 -43.75 C 30.5176 -42.1387 31.5918 -41.1621 33.2031 -41.1621 Z M 61.4258 -58.9355 L 74.707 -58.9355 C 76.4648 -58.9355 77.7832 -60.3516 77.7832 -62.1094 C 77.7832 -63.8184 76.4648 -65.1367 74.707 -65.1367 L 61.4258 -65.1367 C 59.6191 -65.1367 58.3008 -63.8184 58.3008 -62.1094 C 58.3008 -60.3516 59.6191 -58.9355 61.4258 -58.9355 Z M 38.5742 -52.0508 L 41.6016 -61.7676 L 41.8945 -61.7676 L 44.9707 -52.0508 Z M 61.4258 -42.627 L 74.707 -42.627 C 76.4648 -42.627 77.7832 -44.043 77.7832 -45.8008 C 77.7832 -47.5098 76.4648 -48.8281 74.707 -48.8281 L 61.4258 -48.8281 C 59.6191 -48.8281 58.3008 -47.5098 58.3008 -45.8008 C 58.3008 -44.043 59.6191 -42.627 61.4258 -42.627 Z M 30.0293 -3.80859 L 33.3984 -3.80859 L 39.5508 -10.0098 C 40.3809 -10.8398 41.3574 -11.1816 42.2852 -11.1816 C 43.2129 -11.1816 44.2383 -10.791 45.1172 -10.0098 L 48.9746 -6.49414 L 58.6426 -15.0391 C 59.668 -15.9668 60.791 -16.4062 61.8652 -16.4062 C 63.0371 -16.4062 64.209 -16.0156 65.0879 -15.0391 L 74.4141 -4.29688 L 77.7832 -4.29688 L 77.7832 -26.6602 C 77.7832 -30.8105 75.6348 -32.959 71.4844 -32.959 L 36.377 -32.959 C 32.373 -32.959 30.0293 -30.8105 30.0293 -26.6602 Z M 45.5078 -14.9902 C 42.7246 -14.9902 40.4297 -17.334 40.4297 -20.1172 C 40.4297 -22.9004 42.7246 -25.2441 45.5078 -25.1465 C 48.291 -25.0488 50.5859 -22.9004 50.5859 -20.1172 C 50.5859 -17.334 48.291 -14.9902 45.5078 -14.9902 Z"/>
  </g>
  <g id="Regular-M" transform="matrix(1 0 0 1 1396.33 1126)">
   <path d="M 27.5879 17.1387 L 79.4434 17.1387 C 89.5508 17.1387 94.5801 12.0605 94.5801 1.85547 L 94.5801 -72.2168 C 94.5801 -82.373 89.5508 -87.5488 79.4434 -87.5488 L 27.5879 -87.5488 C 17.5293 -87.5488 12.4512 -82.373 12.4512 -72.2168 L 12.4512 1.85547 C 12.4512 12.0605 17.4805 17.1387 27.5879 17.1387 Z M 27.9297 9.27734 C 22.9004 9.27734 20.3125 6.5918 20.3125 1.70898 L 20.3125 -72.0703 C 20.3125 -76.9043 22.9004 -79.6875 27.9785 -79.6875 L 79.0527 -79.6875 C 84.1309 -79.6875 86.7188 -76.9531 86.7188 -72.0703 L 86.7188 1.70898 C 86.7188 6.5918 84.1309 9.27734 79.1016 9.27734 Z M 31.4453 -40.9668 C 32.7637 -40.9668 33.5938 -41.6504 34.0332 -43.3105 L 35.6934 -48.1445 L 44.873 -48.1445 L 46.6309 -43.3105 C 47.0703 -41.6992 47.9004 -40.9668 49.1699 -40.9668 C 50.8301 -40.9668 51.7578 -41.8945 51.7578 -43.457 C 51.7578 -43.7988 51.6602 -44.4336 51.4648 -45.0684 L 44.2383 -64.9414 C 43.5547 -66.9922 42.334 -67.9688 40.2344 -67.9688 C 38.2812 -67.9688 37.1094 -66.9922 36.377 -64.9414 L 29.1504 -45.0684 C 28.9551 -44.4824 28.8574 -43.7988 28.8574 -43.457 C 28.8574 -41.8945 29.834 -40.9668 31.4453 -40.9668 Z M 60.3516 -59.5215 L 74.7559 -59.5215 C 76.4648 -59.5215 77.7344 -60.8398 77.7344 -62.5488 C 77.7344 -64.209 76.4648 -65.5273 74.7559 -65.5273 L 60.3516 -65.5273 C 58.5938 -65.5273 57.3242 -64.209 57.3242 -62.5488 C 57.3242 -60.8398 58.5938 -59.5215 60.3516 -59.5215 Z M 36.8164 -52.1973 L 40.1367 -62.4512 L 40.4297 -62.4512 L 43.7988 -52.1973 Z M 60.3516 -42.4805 L 74.7559 -42.4805 C 76.4648 -42.4805 77.7344 -43.7988 77.7344 -45.5078 C 77.7344 -47.168 76.4648 -48.4863 74.7559 -48.4863 L 60.3516 -48.4863 C 58.5938 -48.4863 57.3242 -47.168 57.3242 -45.5078 C 57.3242 -43.7988 58.5938 -42.4805 60.3516 -42.4805 Z M 28.0762 -2.09961 L 31.4941 -2.09961 L 37.9395 -8.59375 C 38.8184 -9.47266 39.8438 -9.81445 40.8203 -9.81445 C 41.7969 -9.81445 42.8711 -9.42383 43.7988 -8.59375 L 47.8027 -4.93164 L 57.8125 -13.8184 C 58.9355 -14.7949 60.0586 -15.2344 61.2305 -15.2344 C 62.4512 -15.2344 63.6719 -14.8438 64.5996 -13.8184 L 74.3164 -2.58789 L 77.7344 -2.58789 L 77.7344 -25.9277 C 77.7344 -30.2246 75.5371 -32.4219 71.2402 -32.4219 L 34.668 -32.4219 C 30.5176 -32.4219 28.0762 -30.2246 28.0762 -25.9277 Z M 44.1895 -13.8184 C 41.2598 -13.8184 38.8672 -16.2598 38.8672 -19.0918 C 38.8672 -22.0215 41.2598 -24.4629 44.1895 -24.3652 C 47.0703 -24.2676 49.4629 -22.0215 49.4629 -19.0918 C 49.4629 -16.2598 47.0703 -13.8184 44.1895 -13.8184 Z"/>
  </g>
  <g id="Light-M" transform="matrix(1 0 0 1 1100.33 1126)">
   <path d="M 26.709 16.8457 L 78.9062 16.8457 C 88.3789 16.8457 93.1641 12.0117 93.1641 2.49023 L 93.1641 -72.8027 C 93.1641 -82.3242 88.3789 -87.207 78.9062 -87.207 L 26.709 -87.207 C 17.334 -87.207 12.4512 -82.3242 12.4512 -72.8027 L 12.4512 2.49023 C 12.4512 12.0117 17.2852 16.8457 26.709 16.8457 Z M 27.002 10.8398 C 21.3867 10.8398 18.5059 7.86133 18.5059 2.34375 L 18.5059 -72.6562 C 18.5059 -78.0762 21.3867 -81.1523 27.0508 -81.1523 L 78.6133 -81.1523 C 84.2285 -81.1523 87.1582 -78.1738 87.1582 -72.6562 L 87.1582 2.34375 C 87.1582 7.86133 84.2285 10.8398 78.6133 10.8398 Z M 30.5176 -42.0898 C 31.543 -42.0898 32.2266 -42.627 32.5684 -43.8965 L 34.7168 -49.7559 L 44.5801 -49.7559 L 46.7773 -43.8965 C 47.1191 -42.627 47.8027 -42.0898 48.8281 -42.0898 C 50.1465 -42.0898 50.9277 -42.8223 50.9277 -44.0918 C 50.9277 -44.3848 50.8301 -44.873 50.6836 -45.3613 L 42.6758 -66.6016 C 42.1387 -68.1641 41.2109 -68.8965 39.6484 -68.8965 C 38.1348 -68.8965 37.207 -68.1641 36.6699 -66.6016 L 28.6621 -45.3613 C 28.5156 -44.873 28.418 -44.3848 28.418 -44.0918 C 28.418 -42.8223 29.1992 -42.0898 30.5176 -42.0898 Z M 59.9609 -60.791 L 76.1719 -60.791 C 77.5391 -60.791 78.5645 -61.8652 78.5645 -63.2324 C 78.5645 -64.5508 77.5391 -65.625 76.1719 -65.625 L 59.9609 -65.625 C 58.5449 -65.625 57.5195 -64.5508 57.5195 -63.2324 C 57.5195 -61.8652 58.5449 -60.791 59.9609 -60.791 Z M 35.7422 -53.2227 L 39.5508 -64.1113 L 39.7461 -64.1113 L 43.5547 -53.2227 Z M 59.9609 -43.6523 L 76.1719 -43.6523 C 77.5391 -43.6523 78.5645 -44.7266 78.5645 -46.0938 C 78.5645 -47.4121 77.5391 -48.4863 76.1719 -48.4863 L 59.9609 -48.4863 C 58.5449 -48.4863 57.5195 -47.4121 57.5195 -46.0938 C 57.5195 -44.7266 58.5449 -43.6523 59.9609 -43.6523 Z M 26.416 -1.46484 L 29.1016 -1.46484 L 36.377 -8.49609 C 37.4023 -9.47266 38.4766 -9.91211 39.502 -9.91211 C 40.5273 -9.91211 41.6992 -9.42383 42.6758 -8.49609 L 46.875 -4.6875 L 57.5684 -14.0625 C 58.8379 -15.0879 60.1074 -15.625 61.3281 -15.625 C 62.5977 -15.625 64.0137 -15.1855 65.0391 -14.0137 L 75.8789 -1.80664 L 78.5645 -1.80664 L 78.5645 -27.002 C 78.5645 -31.2988 76.416 -33.4473 72.1191 -33.4473 L 32.9102 -33.4473 C 28.7109 -33.4473 26.416 -31.2988 26.416 -27.002 Z M 43.0664 -14.1113 C 39.9902 -14.1113 37.4512 -16.6992 37.4512 -19.7754 C 37.4512 -22.8516 39.9902 -25.4883 43.0664 -25.3906 C 46.1914 -25.3418 48.7305 -22.8516 48.7305 -19.7754 C 48.7305 -16.6992 46.1914 -14.1113 43.0664 -14.1113 Z"/>
  </g>
  <g id="Thin-M" transform="matrix(1 0 0 1 804.518 1126)">
   <path d="M 25.5859 16.4551 L 78.2227 16.4551 C 86.8164 16.4551 91.3574 11.9629 91.3574 3.32031 L 91.3574 -73.584 C 91.3574 -82.2266 86.8164 -86.7676 78.2227 -86.7676 L 25.5859 -86.7676 C 17.041 -86.7676 12.4512 -82.2266 12.4512 -73.584 L 12.4512 3.32031 C 12.4512 11.9629 16.9434 16.4551 25.5859 16.4551 Z M 25.7324 12.8418 C 19.3848 12.8418 16.0645 9.52148 16.0645 3.17383 L 16.0645 -73.4863 C 16.0645 -79.5898 19.3848 -83.1543 25.7812 -83.1543 L 78.0273 -83.1543 C 84.4238 -83.1543 87.7441 -79.7852 87.7441 -73.4863 L 87.7441 3.17383 C 87.7441 9.52148 84.4238 12.8418 78.0273 12.8418 Z M 29.2969 -43.5547 C 29.9316 -43.5547 30.3711 -43.8965 30.6152 -44.6289 L 33.4473 -51.9531 L 44.1895 -51.9531 L 47.0215 -44.6289 C 47.2168 -43.8965 47.7051 -43.5547 48.3398 -43.5547 C 49.2676 -43.5547 49.8047 -44.0918 49.8047 -44.9219 C 49.8047 -45.1172 49.7559 -45.459 49.6582 -45.752 L 40.625 -68.8477 C 40.2832 -69.6777 39.6973 -70.166 38.8184 -70.166 C 37.9395 -70.166 37.3047 -69.6777 37.0117 -68.8477 L 27.9785 -45.752 C 27.8809 -45.459 27.832 -45.1172 27.832 -44.9219 C 27.832 -44.0918 28.3691 -43.5547 29.2969 -43.5547 Z M 34.375 -54.541 L 38.7695 -66.2598 L 38.8672 -66.2598 L 43.2617 -54.541 Z M 59.4238 -62.5 L 78.0273 -62.5 C 78.9551 -62.5 79.6875 -63.2324 79.6875 -64.1113 C 79.6875 -65.0391 78.9551 -65.7227 78.0273 -65.7227 L 59.4238 -65.7227 C 58.4961 -65.7227 57.7637 -65.0391 57.7637 -64.1113 C 57.7637 -63.2324 58.4961 -62.5 59.4238 -62.5 Z M 59.4238 -45.2148 L 78.0273 -45.2148 C 78.9551 -45.2148 79.6875 -45.9473 79.6875 -46.875 C 79.6875 -47.7539 78.9551 -48.4863 78.0273 -48.4863 L 59.4238 -48.4863 C 58.4961 -48.4863 57.7637 -47.7539 57.7637 -46.875 C 57.7637 -45.9473 58.4961 -45.2148 59.4238 -45.2148 Z M 24.1699 -0.683594 L 25.9766 -0.683594 L 34.375 -8.39844 C 35.5469 -9.47266 36.6699 -9.96094 37.7441 -9.96094 C 38.916 -9.96094 40.1367 -9.42383 41.2598 -8.39844 L 45.6543 -4.3457 L 57.2754 -14.3555 C 58.6914 -15.5273 60.1074 -16.1621 61.377 -16.1621 C 62.8418 -16.1621 64.4043 -15.625 65.5762 -14.3066 L 77.8809 -0.78125 L 79.6875 -0.78125 L 79.6875 -28.418 C 79.6875 -32.7148 77.5391 -34.8145 73.2422 -34.8145 L 30.6152 -34.8145 C 26.3184 -34.8145 24.1699 -32.7148 24.1699 -28.418 Z M 41.6504 -14.502 C 38.2812 -14.502 35.5469 -17.2852 35.5469 -20.6543 C 35.5469 -24.0234 38.2812 -26.8066 41.6504 -26.7578 C 45.0195 -26.7578 47.8027 -24.0234 47.8027 -20.6543 C 47.8027 -17.2852 45.0195 -14.502 41.6504 -14.502 Z"/>
  </g>
  <g id="Ultralight-M" transform="matrix(1 0 0 1 508.295 1126)">
   <path d="M 25 16.2598 L 77.8809 16.2598 C 86.0352 16.2598 90.3809 11.9141 90.3809 3.71094 L 90.3809 -73.9746 C 90.3809 -82.1777 86.0352 -86.5234 77.8809 -86.5234 L 25 -86.5234 C 16.9434 -86.5234 12.4512 -82.1777 12.4512 -73.9746 L 12.4512 3.71094 C 12.4512 11.9141 16.7969 16.2598 25 16.2598 Z M 25.0977 13.8672 C 18.3594 13.8672 14.8438 10.3516 14.8438 3.61328 L 14.8438 -73.877 C 14.8438 -80.3711 18.3594 -84.1309 25.0977 -84.1309 L 77.7344 -84.1309 C 84.5215 -84.1309 87.9883 -80.6152 87.9883 -73.877 L 87.9883 3.61328 C 87.9883 10.3516 84.5215 13.8672 77.7344 13.8672 Z M 28.6621 -44.2871 C 29.1016 -44.2871 29.4434 -44.5312 29.6387 -45.0195 L 32.7637 -53.0273 L 43.9941 -53.0273 L 47.1191 -45.0195 C 47.3145 -44.5312 47.6562 -44.2871 48.0957 -44.2871 C 48.8281 -44.2871 49.2188 -44.7266 49.2188 -45.3125 C 49.2188 -45.5078 49.1699 -45.752 49.1211 -45.9473 L 39.5508 -70.0195 C 39.3555 -70.459 38.916 -70.752 38.4277 -70.752 C 37.8906 -70.752 37.4023 -70.459 37.207 -70.0195 L 27.6367 -45.9473 C 27.5879 -45.752 27.4902 -45.5078 27.4902 -45.3125 C 27.4902 -44.7266 27.9297 -44.2871 28.6621 -44.2871 Z M 33.6426 -55.2734 L 38.3301 -67.3828 L 38.3789 -67.3828 L 43.1152 -55.2734 Z M 59.1797 -63.3789 L 78.9551 -63.3789 C 79.6875 -63.3789 80.2246 -63.916 80.2246 -64.5996 C 80.2246 -65.2344 79.6875 -65.8203 78.9551 -65.8203 L 59.1797 -65.8203 C 58.4473 -65.8203 57.9102 -65.2344 57.9102 -64.5996 C 57.9102 -63.916 58.4473 -63.3789 59.1797 -63.3789 Z M 59.1797 -46.0449 L 78.9551 -46.0449 C 79.6875 -46.0449 80.2246 -46.582 80.2246 -47.2656 C 80.2246 -47.9492 79.6875 -48.4863 78.9551 -48.4863 L 59.1797 -48.4863 C 58.4473 -48.4863 57.9102 -47.9492 57.9102 -47.2656 C 57.9102 -46.582 58.4473 -46.0449 59.1797 -46.0449 Z M 22.998 -0.244141 L 24.3652 -0.244141 L 33.3008 -8.34961 C 34.5703 -9.47266 35.7422 -10.0098 36.8652 -10.0098 C 38.0371 -10.0098 39.3555 -9.375 40.4785 -8.34961 L 45.0684 -4.15039 L 57.1289 -14.502 C 58.6426 -15.7715 60.1074 -16.4062 61.4258 -16.4062 C 62.9395 -16.4062 64.6484 -15.8203 65.8691 -14.4531 L 78.9062 -0.244141 L 80.2246 -0.244141 L 80.2246 -29.1504 C 80.2246 -33.4473 78.125 -35.498 73.8281 -35.498 L 29.4434 -35.498 C 25.1465 -35.498 22.998 -33.4473 22.998 -29.1504 Z M 40.918 -14.6973 C 37.4512 -14.6973 34.5703 -17.5781 34.5703 -21.0938 C 34.5703 -24.6094 37.4512 -27.4414 40.918 -27.4414 C 44.4336 -27.4902 47.3145 -24.6094 47.3145 -21.0938 C 47.3145 -17.5781 44.4336 -14.6973 40.918 -14.6973 Z"/>
  </g>
  <g id="Black-S" transform="matrix(1 0 0 1 2887.7 696)">
   <path d="M 25 8.1543 L 66.4062 8.1543 C 75.9766 8.1543 81.6406 2.49023 81.6406 -7.08008 L 81.6406 -63.3301 C 81.6406 -72.9004 75.9766 -78.5645 66.4062 -78.5645 L 25 -78.5645 C 15.4297 -78.5645 9.76562 -72.9004 9.76562 -63.3301 L 9.76562 -7.08008 C 9.76562 2.49023 15.4297 8.1543 25 8.1543 Z M 27.2461 -6.00586 C 24.8047 -6.00586 23.9258 -7.08008 23.9258 -9.32617 L 23.9258 -61.084 C 23.9258 -63.3301 24.8047 -64.4043 27.2461 -64.4043 L 64.1602 -64.4043 C 66.6016 -64.4043 67.4805 -63.3301 67.4805 -61.084 L 67.4805 -9.32617 C 67.4805 -7.08008 66.6016 -6.00586 64.1602 -6.00586 Z M 32.1777 -40.5273 C 33.7402 -40.5273 34.7168 -41.2598 35.1074 -42.9688 L 35.3516 -43.9941 L 40.1367 -43.9941 L 40.4297 -42.9688 C 40.918 -41.2598 41.6504 -40.5273 43.2129 -40.5273 C 44.7266 -40.5273 45.7031 -41.5527 45.7031 -43.0176 C 45.7031 -43.5059 45.6055 -44.1406 45.4102 -44.7754 L 42.0898 -54.834 C 41.3086 -57.1777 39.9414 -58.3496 37.6953 -58.3496 C 35.498 -58.3496 34.1797 -57.2266 33.3984 -54.834 L 30.0781 -44.7754 C 29.8828 -44.1406 29.7363 -43.5059 29.7363 -43.0176 C 29.7363 -41.4551 30.8594 -40.5273 32.1777 -40.5273 Z M 51.9043 -51.9043 L 58.3008 -51.9043 C 59.8633 -51.9043 61.0352 -53.125 61.0352 -54.6875 C 61.0352 -56.2012 59.8633 -57.373 58.3008 -57.373 L 51.9043 -57.373 C 50.293 -57.373 49.1211 -56.2012 49.1211 -54.6875 C 49.1211 -53.125 50.293 -51.9043 51.9043 -51.9043 Z M 36.2305 -47.9492 L 37.6465 -53.6133 L 37.8418 -53.6133 L 39.2578 -47.9492 Z M 51.9043 -41.6504 L 58.3008 -41.6504 C 59.8633 -41.6504 61.0352 -42.8711 61.0352 -44.4336 C 61.0352 -45.9473 59.8633 -47.1191 58.3008 -47.1191 L 51.9043 -47.1191 C 50.293 -47.1191 49.1211 -45.9473 49.1211 -44.4336 C 49.1211 -42.8711 50.293 -41.6504 51.9043 -41.6504 Z M 30.2246 -16.4551 L 32.8125 -16.4551 L 36.5723 -20.3613 C 37.0605 -20.8496 37.6465 -21.0938 38.2812 -21.0938 C 38.8672 -21.0938 39.502 -20.8496 40.0879 -20.3613 L 42.5781 -18.1152 L 48.7305 -23.584 C 49.3652 -24.1699 50.0488 -24.4141 50.7324 -24.4141 C 51.5137 -24.4141 52.1973 -24.1699 52.7344 -23.584 L 58.4961 -16.8457 L 61.0352 -16.8457 L 61.0352 -31.0059 C 61.0352 -33.7402 59.6191 -35.2051 56.8359 -35.2051 L 34.5215 -35.2051 C 31.8359 -35.2051 30.2246 -33.7402 30.2246 -31.0059 Z M 40.332 -23.5352 C 38.5742 -23.5352 37.1094 -25.0488 37.0605 -26.8066 C 37.0117 -28.5645 38.5742 -30.0781 40.332 -30.0293 C 42.0898 -29.9805 43.5547 -28.5645 43.5547 -26.8066 C 43.5547 -25.0488 42.0898 -23.5352 40.332 -23.5352 Z"/>
  </g>
  <g id="Heavy-S" transform="matrix(1 0 0 1 2591.79 696)">
   <path d="M 24.3164 7.61719 L 65.4785 7.61719 C 74.7559 7.61719 80.0293 2.34375 80.0293 -6.93359 L 80.0293 -63.4766 C 80.0293 -72.7539 74.7559 -78.0273 65.4785 -78.0273 L 24.3164 -78.0273 C 15.0391 -78.0273 9.76562 -72.7539 9.76562 -63.4766 L 9.76562 -6.93359 C 9.76562 2.34375 15.0391 7.61719 24.3164 7.61719 Z M 26.0742 -4.83398 C 23.3887 -4.83398 22.2656 -6.15234 22.2656 -8.69141 L 22.2656 -61.7188 C 22.2656 -64.2578 23.3887 -65.5762 26.123 -65.5762 L 63.6719 -65.5762 C 66.4062 -65.5762 67.5293 -64.2578 67.5293 -61.7188 L 67.5293 -8.69141 C 67.5293 -6.15234 66.4062 -4.83398 63.6719 -4.83398 Z M 30.5176 -40.2344 C 31.9824 -40.2344 32.9102 -40.918 33.3008 -42.5781 L 33.7402 -44.1406 L 39.0137 -44.1406 L 39.502 -42.5781 C 39.9414 -40.918 40.6738 -40.2344 42.1387 -40.2344 C 43.6523 -40.2344 44.5801 -41.1621 44.5801 -42.627 C 44.5801 -43.0664 44.4824 -43.7012 44.2871 -44.3359 L 40.5273 -55.5176 C 39.7949 -57.7148 38.4766 -58.8379 36.3281 -58.8379 C 34.2285 -58.8379 32.959 -57.7637 32.2266 -55.5176 L 28.418 -44.3359 C 28.2227 -43.7012 28.125 -43.0664 28.125 -42.627 C 28.125 -41.1133 29.1504 -40.2344 30.5176 -40.2344 Z M 50.8789 -52.2949 L 58.2031 -52.2949 C 59.7656 -52.2949 60.9375 -53.5156 60.9375 -55.0781 C 60.9375 -56.5918 59.7656 -57.7148 58.2031 -57.7148 L 50.8789 -57.7148 C 49.2676 -57.7148 48.0957 -56.5918 48.0957 -55.0781 C 48.0957 -53.5156 49.2676 -52.2949 50.8789 -52.2949 Z M 34.6191 -47.9492 L 36.2305 -54.1016 L 36.4746 -54.1016 L 38.1348 -47.9492 Z M 50.8789 -41.3574 L 58.2031 -41.3574 C 59.7656 -41.3574 60.9375 -42.5293 60.9375 -44.0918 C 60.9375 -45.6055 59.7656 -46.7773 58.2031 -46.7773 L 50.8789 -46.7773 C 49.2676 -46.7773 48.0957 -45.6055 48.0957 -44.0918 C 48.0957 -42.5293 49.2676 -41.3574 50.8789 -41.3574 Z M 28.4668 -14.8438 L 31.1523 -14.8438 L 35.1562 -18.9453 C 35.6445 -19.4824 36.2793 -19.7266 36.9629 -19.7266 C 37.5488 -19.7266 38.2324 -19.4824 38.8672 -18.9453 L 41.4551 -16.6016 L 47.9492 -22.3633 C 48.6328 -22.9492 49.3652 -23.2422 50.0977 -23.2422 C 50.8789 -23.2422 51.6113 -22.9492 52.1973 -22.3633 L 58.252 -15.2344 L 60.9375 -15.2344 L 60.9375 -30.1758 C 60.9375 -33.0566 59.4238 -34.5703 56.4941 -34.5703 L 32.959 -34.5703 C 30.1758 -34.5703 28.4668 -33.0566 28.4668 -30.1758 Z M 39.1113 -22.3145 C 37.2559 -22.3145 35.6934 -23.877 35.6934 -25.7324 C 35.6445 -27.5879 37.2559 -29.1992 39.1113 -29.1504 C 40.9668 -29.0527 42.4805 -27.5879 42.4805 -25.7324 C 42.4805 -23.877 40.9668 -22.3145 39.1113 -22.3145 Z"/>
  </g>
  <g id="Bold-S" transform="matrix(1 0 0 1 2295.98 696)">
   <path d="M 23.5352 7.08008 L 64.4531 7.08008 C 73.3398 7.08008 78.2227 2.14844 78.2227 -6.78711 L 78.2227 -63.623 C 78.2227 -72.5586 73.3398 -77.4414 64.4531 -77.4414 L 23.5352 -77.4414 C 14.6484 -77.4414 9.76562 -72.5586 9.76562 -63.623 L 9.76562 -6.78711 C 9.76562 2.14844 14.6484 7.08008 23.5352 7.08008 Z M 24.8047 -3.56445 C 21.7773 -3.56445 20.3613 -5.07812 20.3613 -7.95898 L 20.3613 -62.4512 C 20.3613 -65.332 21.7773 -66.8457 24.8047 -66.8457 L 63.1348 -66.8457 C 66.2109 -66.8457 67.627 -65.332 67.627 -62.4512 L 67.627 -7.95898 C 67.627 -5.07812 66.2109 -3.56445 63.1836 -3.56445 Z M 28.6621 -39.8438 C 30.0293 -39.8438 30.8594 -40.5273 31.25 -42.1387 L 31.8848 -44.2871 L 37.7441 -44.2871 L 38.4277 -42.1387 C 38.8672 -40.5762 39.5996 -39.8438 40.9668 -39.8438 C 42.4316 -39.8438 43.3594 -40.7715 43.3594 -42.1875 C 43.3594 -42.5781 43.2617 -43.1641 43.0664 -43.7988 L 38.7695 -56.25 C 38.0371 -58.3496 36.8164 -59.375 34.7656 -59.375 C 32.7637 -59.375 31.5918 -58.3984 30.8594 -56.25 L 26.6113 -43.7988 C 26.416 -43.2129 26.2695 -42.5781 26.2695 -42.1875 C 26.2695 -40.7227 27.2949 -39.8438 28.6621 -39.8438 Z M 49.707 -52.7832 L 58.1055 -52.7832 C 59.6191 -52.7832 60.791 -53.9551 60.791 -55.5176 C 60.791 -56.9824 59.6191 -58.1543 58.1055 -58.1543 L 49.707 -58.1543 C 48.0957 -58.1543 46.9727 -56.9824 46.9727 -55.5176 C 46.9727 -53.9551 48.0957 -52.7832 49.707 -52.7832 Z M 32.8125 -47.998 L 34.7168 -54.6875 L 34.9121 -54.6875 L 36.8652 -47.998 Z M 49.707 -40.9668 L 58.1055 -40.9668 C 59.6191 -40.9668 60.791 -42.1875 60.791 -43.7012 C 60.791 -45.2148 59.6191 -46.3867 58.1055 -46.3867 L 49.707 -46.3867 C 48.0957 -46.3867 46.9727 -45.2148 46.9727 -43.7012 C 46.9727 -42.1875 48.0957 -40.9668 49.707 -40.9668 Z M 26.5137 -13.0371 L 29.3457 -13.0371 L 33.5449 -17.3828 C 34.082 -17.9688 34.7656 -18.2129 35.4492 -18.2129 C 36.1328 -18.2129 36.8164 -17.9199 37.4512 -17.3828 L 40.2344 -14.8926 L 47.0703 -20.9473 C 47.8027 -21.6309 48.584 -21.9238 49.3652 -21.9238 C 50.1953 -21.9238 50.9766 -21.6309 51.5625 -20.9473 L 58.0078 -13.4277 L 60.791 -13.4277 L 60.791 -29.1992 C 60.791 -32.2754 59.1797 -33.8867 56.1035 -33.8867 L 31.25 -33.8867 C 28.3203 -33.8867 26.5137 -32.2754 26.5137 -29.1992 Z M 37.7441 -20.8984 C 35.7422 -20.8984 34.1309 -22.6074 34.1309 -24.5605 C 34.082 -26.5137 35.7422 -28.2227 37.7441 -28.125 C 39.6973 -28.0762 41.3086 -26.5137 41.3086 -24.5605 C 41.3086 -22.6074 39.6973 -20.8984 37.7441 -20.8984 Z"/>
  </g>
  <g id="Semibold-S" transform="matrix(1 0 0 1 1999.91 696)">
   <path d="M 22.998 6.64062 L 63.7695 6.64062 C 72.4121 6.64062 76.9531 2.05078 76.9531 -6.68945 L 76.9531 -63.7207 C 76.9531 -72.4121 72.4121 -77.0508 63.7695 -77.0508 L 22.998 -77.0508 C 14.3555 -77.0508 9.76562 -72.4121 9.76562 -63.7207 L 9.76562 -6.68945 C 9.76562 2.05078 14.3555 6.64062 22.998 6.64062 Z M 23.9258 -2.63672 C 20.6543 -2.63672 19.0918 -4.3457 19.0918 -7.4707 L 19.0918 -62.9395 C 19.0918 -66.0645 20.6543 -67.7734 23.9258 -67.7734 L 62.793 -67.7734 C 66.0645 -67.7734 67.6758 -66.0645 67.6758 -62.9395 L 67.6758 -7.4707 C 67.6758 -4.3457 66.0645 -2.63672 62.793 -2.63672 Z M 27.3438 -39.5996 C 28.6621 -39.5996 29.4434 -40.2832 29.834 -41.8457 L 30.6641 -44.3848 L 36.8652 -44.3848 L 37.6953 -41.8457 C 38.1348 -40.2832 38.8672 -39.5996 40.1367 -39.5996 C 41.6016 -39.5996 42.4805 -40.4785 42.4805 -41.8945 C 42.4805 -42.2852 42.3828 -42.8223 42.1875 -43.457 L 37.5488 -56.7871 C 36.8652 -58.7891 35.6934 -59.7656 33.6914 -59.7656 C 31.7871 -59.7656 30.6641 -58.8379 29.9805 -56.7871 L 25.3418 -43.457 C 25.1465 -42.8711 25.0488 -42.2852 25.0488 -41.8945 C 25.0488 -40.4785 25.9766 -39.5996 27.3438 -39.5996 Z M 48.877 -53.0762 L 58.0078 -53.0762 C 59.5215 -53.0762 60.6934 -54.248 60.6934 -55.8105 C 60.6934 -57.2754 59.5215 -58.3984 58.0078 -58.3984 L 48.877 -58.3984 C 47.3145 -58.3984 46.1914 -57.2754 46.1914 -55.8105 C 46.1914 -54.248 47.3145 -53.0762 48.877 -53.0762 Z M 31.543 -47.998 L 33.6426 -55.0781 L 33.8867 -55.0781 L 35.9863 -47.998 Z M 48.877 -40.7227 L 58.0078 -40.7227 C 59.5215 -40.7227 60.6934 -41.9434 60.6934 -43.457 C 60.6934 -44.9219 59.5215 -46.0938 58.0078 -46.0938 L 48.877 -46.0938 C 47.3145 -46.0938 46.1914 -44.9219 46.1914 -43.457 C 46.1914 -41.9434 47.3145 -40.7227 48.877 -40.7227 Z M 25.1953 -11.7676 L 28.0762 -11.7676 L 32.4219 -16.3086 C 33.0078 -16.8945 33.6914 -17.1387 34.4238 -17.1387 C 35.1074 -17.1387 35.8398 -16.8945 36.5234 -16.3086 L 39.4043 -13.6719 L 46.4844 -20.0195 C 47.2168 -20.6543 47.998 -20.9961 48.8281 -20.9961 C 49.707 -20.9961 50.5371 -20.7031 51.1719 -20.0195 L 57.8125 -12.207 L 60.6934 -12.207 L 60.6934 -28.5645 C 60.6934 -31.7383 59.0332 -33.3984 55.8594 -33.3984 L 30.0781 -33.3984 C 27.002 -33.3984 25.1953 -31.7383 25.1953 -28.5645 Z M 36.7676 -19.9707 C 34.7656 -19.9707 33.0566 -21.6797 33.0566 -23.7305 C 33.0078 -25.7812 34.7656 -27.5391 36.7676 -27.4414 C 38.8184 -27.3438 40.5273 -25.7812 40.5273 -23.7305 C 40.5273 -21.6797 38.8184 -19.9707 36.7676 -19.9707 Z"/>
  </g>
  <g id="Medium-S" transform="matrix(1 0 0 1 1703.66 696)">
   <path d="M 22.5586 6.34766 L 63.2324 6.34766 C 71.6797 6.34766 76.0254 1.95312 76.0254 -6.5918 L 76.0254 -63.8184 C 76.0254 -72.3145 71.6797 -76.7578 63.2324 -76.7578 L 22.5586 -76.7578 C 14.1113 -76.7578 9.76562 -72.3145 9.76562 -63.8184 L 9.76562 -6.5918 C 9.76562 1.95312 14.1113 6.34766 22.5586 6.34766 Z M 23.2422 -1.95312 C 19.8242 -1.95312 18.0664 -3.80859 18.0664 -7.08008 L 18.0664 -63.3301 C 18.0664 -66.6016 19.8242 -68.457 23.291 -68.457 L 62.5 -68.457 C 65.9668 -68.457 67.6758 -66.6016 67.6758 -63.3301 L 67.6758 -7.08008 C 67.6758 -3.80859 65.9668 -1.95312 62.5488 -1.95312 Z M 26.3672 -39.4043 C 27.6367 -39.4043 28.3691 -40.0391 28.7598 -41.6016 L 29.6875 -44.4336 L 36.1816 -44.4336 L 37.1582 -41.6016 C 37.5488 -40.0879 38.3301 -39.4043 39.502 -39.4043 C 41.0156 -39.4043 41.8457 -40.2832 41.8457 -41.6504 C 41.8457 -41.9922 41.748 -42.5781 41.5527 -43.1641 L 36.6211 -57.1777 C 35.9863 -59.1309 34.8145 -60.0586 32.9102 -60.0586 C 31.0547 -60.0586 29.9316 -59.1309 29.248 -57.1777 L 24.3652 -43.1641 C 24.1699 -42.5781 24.0723 -41.9922 24.0723 -41.6504 C 24.0723 -40.2344 24.9512 -39.4043 26.3672 -39.4043 Z M 48.291 -53.3203 L 57.959 -53.3203 C 59.4727 -53.3203 60.5957 -54.4922 60.5957 -56.0059 C 60.5957 -57.4707 59.4727 -58.6426 57.959 -58.6426 L 48.291 -58.6426 C 46.7285 -58.6426 45.6055 -57.4707 45.6055 -56.0059 C 45.6055 -54.4922 46.7285 -53.3203 48.291 -53.3203 Z M 30.6152 -47.998 L 32.8125 -55.3711 L 33.0566 -55.3711 L 35.3027 -47.998 Z M 48.291 -40.5762 L 57.959 -40.5762 C 59.4727 -40.5762 60.5957 -41.748 60.5957 -43.2617 C 60.5957 -44.7266 59.4727 -45.8984 57.959 -45.8984 L 48.291 -45.8984 C 46.7285 -45.8984 45.6055 -44.7266 45.6055 -43.2617 C 45.6055 -41.748 46.7285 -40.5762 48.291 -40.5762 Z M 24.1699 -10.791 L 27.0996 -10.791 L 31.5918 -15.4785 C 32.1777 -16.0645 32.9102 -16.3574 33.6426 -16.3574 C 34.3262 -16.3574 35.1074 -16.0645 35.791 -15.4785 L 38.7207 -12.793 L 45.9961 -19.2871 C 46.7773 -19.9707 47.6074 -20.3125 48.4375 -20.3125 C 49.3164 -20.3125 50.1953 -20.0195 50.8301 -19.2871 L 57.666 -11.2793 L 60.5957 -11.2793 L 60.5957 -28.0762 C 60.5957 -31.2988 58.9355 -33.0078 55.6641 -33.0078 L 29.1992 -33.0078 C 26.0254 -33.0078 24.1699 -31.2988 24.1699 -28.0762 Z M 36.084 -19.2383 C 33.9844 -19.2383 32.2266 -21.0449 32.2266 -23.0957 C 32.2266 -25.1953 33.9844 -27.002 36.084 -26.9043 C 38.1836 -26.8555 39.8926 -25.1953 39.8926 -23.0957 C 39.8926 -21.0449 38.1836 -19.2383 36.084 -19.2383 Z"/>
  </g>
  <g id="Regular-S" transform="matrix(1 0 0 1 1407.56 696)">
   <path d="M 22.0215 5.95703 L 62.5 5.95703 C 70.7031 5.95703 74.8047 1.85547 74.8047 -6.49414 L 74.8047 -63.916 C 74.8047 -72.2168 70.7031 -76.3672 62.5 -76.3672 L 22.0215 -76.3672 C 13.8184 -76.3672 9.76562 -72.2168 9.76562 -63.916 L 9.76562 -6.49414 C 9.76562 1.85547 13.8184 5.95703 22.0215 5.95703 Z M 22.3633 -1.07422 C 18.7012 -1.07422 16.7969 -3.07617 16.7969 -6.5918 L 16.7969 -63.8184 C 16.7969 -67.334 18.7012 -69.3359 22.4121 -69.3359 L 62.1582 -69.3359 C 65.8203 -69.3359 67.7246 -67.334 67.7246 -63.8184 L 67.7246 -6.5918 C 67.7246 -3.07617 65.8203 -1.07422 62.207 -1.07422 Z M 25.0977 -39.209 C 26.2695 -39.209 27.002 -39.7949 27.3438 -41.3086 L 28.4668 -44.5312 L 35.3027 -44.5312 L 36.4746 -41.3086 C 36.8164 -39.8438 37.5977 -39.209 38.7207 -39.209 C 40.1855 -39.209 40.9668 -39.9902 40.9668 -41.3574 C 40.9668 -41.6992 40.8691 -42.1875 40.7227 -42.8223 L 35.4492 -57.666 C 34.8145 -59.5703 33.6914 -60.4492 31.8359 -60.4492 C 30.0781 -60.4492 29.0039 -59.5703 28.3691 -57.666 L 23.0957 -42.8223 C 22.9492 -42.2363 22.8516 -41.6992 22.8516 -41.3574 C 22.8516 -39.9902 23.6816 -39.209 25.0977 -39.209 Z M 47.5098 -53.6133 L 57.8613 -53.6133 C 59.375 -53.6133 60.5469 -54.7852 60.5469 -56.2988 C 60.5469 -57.7637 59.375 -58.8867 57.8613 -58.8867 L 47.5098 -58.8867 C 45.9473 -58.8867 44.8242 -57.7637 44.8242 -56.2988 C 44.8242 -54.7852 45.9473 -53.6133 47.5098 -53.6133 Z M 29.3945 -47.998 L 31.7383 -55.7617 L 32.0312 -55.7617 L 34.4238 -47.998 Z M 47.5098 -40.332 L 57.8613 -40.332 C 59.375 -40.332 60.5469 -41.5039 60.5469 -43.0176 C 60.5469 -44.4824 59.375 -45.6055 57.8613 -45.6055 L 47.5098 -45.6055 C 45.9473 -45.6055 44.8242 -44.4824 44.8242 -43.0176 C 44.8242 -41.5039 45.9473 -40.332 47.5098 -40.332 Z M 22.8516 -9.57031 L 25.8301 -9.57031 L 30.4688 -14.4043 C 31.1035 -15.0391 31.8848 -15.2832 32.6172 -15.2832 C 33.3496 -15.2832 34.1309 -15.0391 34.8633 -14.4043 L 37.8906 -11.6211 L 45.4102 -18.3594 C 46.2402 -19.043 47.0703 -19.3848 47.9492 -19.3848 C 48.877 -19.3848 49.7559 -19.0918 50.3906 -18.3594 L 57.5195 -10.0586 L 60.5469 -10.0586 L 60.5469 -27.3926 C 60.5469 -30.7617 58.7891 -32.5195 55.4199 -32.5195 L 27.9785 -32.5195 C 24.7559 -32.5195 22.8516 -30.7617 22.8516 -27.3926 Z M 35.1562 -18.3105 C 32.959 -18.3105 31.1523 -20.1172 31.1523 -22.2656 C 31.1523 -24.4629 32.959 -26.3184 35.1562 -26.2207 C 37.3047 -26.123 39.1113 -24.4629 39.1113 -22.2656 C 39.1113 -20.1172 37.3047 -18.3105 35.1562 -18.3105 Z"/>
  </g>
  <g id="Light-S" transform="matrix(1 0 0 1 1111.48 696)">
   <path d="M 21.2891 5.71289 L 62.0605 5.71289 C 69.6777 5.71289 73.5352 1.80664 73.5352 -5.95703 L 73.5352 -64.4531 C 73.5352 -72.168 69.6777 -76.0742 62.0605 -76.0742 L 21.2891 -76.0742 C 13.6719 -76.0742 9.76562 -72.168 9.76562 -64.4531 L 9.76562 -5.95703 C 9.76562 1.80664 13.623 5.71289 21.2891 5.71289 Z M 21.5332 0.244141 C 17.3828 0.244141 15.1855 -1.95312 15.1855 -6.05469 L 15.1855 -64.3555 C 15.1855 -68.3594 17.3828 -70.6543 21.582 -70.6543 L 61.7676 -70.6543 C 65.9668 -70.6543 68.1152 -68.4082 68.1152 -64.3555 L 68.1152 -6.05469 C 68.1152 -1.95312 65.9668 0.244141 61.7676 0.244141 Z M 24.2676 -40.1855 C 25.1953 -40.1855 25.7812 -40.625 26.0742 -41.7969 L 27.5879 -45.9961 L 35.0586 -45.9961 L 36.6211 -41.7969 C 36.9141 -40.6738 37.5 -40.1855 38.3789 -40.1855 C 39.5996 -40.1855 40.2344 -40.8203 40.2344 -41.8945 C 40.2344 -42.1875 40.1367 -42.627 39.9902 -43.0664 L 34.0332 -59.1797 C 33.5449 -60.5957 32.7148 -61.2793 31.2988 -61.2793 C 29.9316 -61.2793 29.1016 -60.5957 28.6133 -59.1797 L 22.6562 -43.0664 C 22.5098 -42.627 22.4121 -42.1875 22.4121 -41.8945 C 22.4121 -40.8203 23.1445 -40.1855 24.2676 -40.1855 Z M 47.168 -54.7852 L 59.1309 -54.7852 C 60.3516 -54.7852 61.2793 -55.7129 61.2793 -56.8848 C 61.2793 -58.0566 60.3516 -58.9844 59.1309 -58.9844 L 47.168 -58.9844 C 45.8984 -58.9844 44.9707 -58.0566 44.9707 -56.8848 C 44.9707 -55.7129 45.8984 -54.7852 47.168 -54.7852 Z M 28.418 -48.9258 L 31.2012 -57.2266 L 31.4453 -57.2266 L 34.2285 -48.9258 Z M 47.168 -41.3574 L 59.1309 -41.3574 C 60.3516 -41.3574 61.2793 -42.334 61.2793 -43.5059 C 61.2793 -44.6777 60.3516 -45.6055 59.1309 -45.6055 L 47.168 -45.6055 C 45.8984 -45.6055 44.9707 -44.6777 44.9707 -43.5059 C 44.9707 -42.334 45.8984 -41.3574 47.168 -41.3574 Z M 21.3379 -9.0332 L 23.7305 -9.0332 L 29.1016 -14.3066 C 29.8828 -15.0391 30.6641 -15.332 31.4453 -15.332 C 32.2754 -15.332 33.1055 -15.0391 33.8867 -14.3066 L 37.1094 -11.377 L 45.2148 -18.5547 C 46.1426 -19.3359 47.0703 -19.7266 47.998 -19.7266 C 49.0234 -19.7266 50.0488 -19.3848 50.7812 -18.5547 L 58.8379 -9.32617 L 61.2793 -9.32617 L 61.2793 -28.3691 C 61.2793 -31.7383 59.5215 -33.4473 56.1523 -33.4473 L 26.4648 -33.4473 C 23.1934 -33.4473 21.3379 -31.7383 21.3379 -28.3691 Z M 34.1797 -18.5547 C 31.8359 -18.5547 29.8828 -20.5566 29.8828 -22.8516 C 29.8828 -25.1953 31.8359 -27.1973 34.1797 -27.1484 C 36.5234 -27.0996 38.4766 -25.1953 38.4766 -22.8516 C 38.4766 -20.5566 36.5234 -18.5547 34.1797 -18.5547 Z"/>
  </g>
  <g id="Thin-S" transform="matrix(1 0 0 1 815.578 696)">
   <path d="M 20.2637 5.37109 L 61.4258 5.37109 C 68.3594 5.37109 71.9238 1.75781 71.9238 -5.22461 L 71.9238 -65.1367 C 71.9238 -72.0703 68.3594 -75.6836 61.4258 -75.6836 L 20.2637 -75.6836 C 13.4277 -75.6836 9.76562 -72.0703 9.76562 -65.1367 L 9.76562 -5.22461 C 9.76562 1.75781 13.3789 5.37109 20.2637 5.37109 Z M 20.4102 2.05078 C 15.5762 2.05078 13.0859 -0.488281 13.0859 -5.32227 L 13.0859 -65.0391 C 13.0859 -69.6777 15.5762 -72.3633 20.459 -72.3633 L 61.2793 -72.3633 C 66.1133 -72.3633 68.6035 -69.8242 68.6035 -65.0391 L 68.6035 -5.32227 C 68.6035 -0.488281 66.1133 2.05078 61.2793 2.05078 Z M 23.1934 -41.4551 C 23.7793 -41.4551 24.1699 -41.748 24.3652 -42.4316 L 26.4648 -47.9004 L 34.7168 -47.9004 L 36.7676 -42.4316 C 37.0117 -41.7969 37.4023 -41.4551 37.9883 -41.4551 C 38.7695 -41.4551 39.2578 -41.9434 39.2578 -42.627 C 39.2578 -42.8223 39.209 -43.1152 39.1113 -43.4082 L 32.2266 -61.1328 C 31.9336 -61.9141 31.3965 -62.3535 30.5664 -62.3535 C 29.7852 -62.3535 29.1992 -61.9141 28.9551 -61.1328 L 22.0703 -43.4082 C 21.9727 -43.1152 21.9238 -42.8223 21.9238 -42.627 C 21.9238 -41.9434 22.4121 -41.4551 23.1934 -41.4551 Z M 27.1973 -50.0977 L 30.5176 -59.1309 L 30.6152 -59.1309 L 33.9844 -50.0977 Z M 46.6797 -56.25 L 60.791 -56.25 C 61.6211 -56.25 62.207 -56.8848 62.207 -57.7148 C 62.207 -58.4961 61.6211 -59.082 60.791 -59.082 L 46.6797 -59.082 C 45.8496 -59.082 45.2148 -58.4961 45.2148 -57.7148 C 45.2148 -56.8848 45.8496 -56.25 46.6797 -56.25 Z M 46.6797 -42.7734 L 60.791 -42.7734 C 61.6211 -42.7734 62.207 -43.4082 62.207 -44.1895 C 62.207 -44.9707 61.6211 -45.6055 60.791 -45.6055 L 46.6797 -45.6055 C 45.8496 -45.6055 45.2148 -44.9707 45.2148 -44.1895 C 45.2148 -43.4082 45.8496 -42.7734 46.6797 -42.7734 Z M 19.3848 -8.30078 L 20.9473 -8.30078 L 27.2949 -14.209 C 28.2227 -15.0391 29.1016 -15.4297 29.9316 -15.4297 C 30.8105 -15.4297 31.7871 -14.9902 32.6172 -14.209 L 36.0352 -11.084 L 44.9707 -18.7988 C 46.0449 -19.7266 47.1191 -20.166 48.0957 -20.166 C 49.1699 -20.166 50.3906 -19.7754 51.2695 -18.7988 L 60.6445 -8.44727 L 62.207 -8.44727 L 62.207 -29.6387 C 62.207 -33.0078 60.5469 -34.6191 57.1777 -34.6191 L 24.4141 -34.6191 C 21.0938 -34.6191 19.3848 -33.0078 19.3848 -29.6387 Z M 32.9102 -18.8965 C 30.3223 -18.8965 28.2227 -21.0449 28.2227 -23.6328 C 28.2227 -26.2207 30.3223 -28.3691 32.9102 -28.3203 C 35.498 -28.3203 37.6465 -26.2207 37.6465 -23.6328 C 37.6465 -21.0449 35.498 -18.8965 32.9102 -18.8965 Z"/>
  </g>
  <g id="Ultralight-S" transform="matrix(1 0 0 1 519.281 696)">
   <path d="M 19.7266 5.17578 L 61.084 5.17578 C 67.627 5.17578 71.0938 1.70898 71.0938 -4.83398 L 71.0938 -65.4785 C 71.0938 -72.0215 67.627 -75.4883 61.084 -75.4883 L 19.7266 -75.4883 C 13.3301 -75.4883 9.76562 -72.0215 9.76562 -65.4785 L 9.76562 -4.83398 C 9.76562 1.70898 13.2324 5.17578 19.7266 5.17578 Z M 19.873 2.97852 C 14.6484 2.97852 11.9629 0.244141 11.9629 -4.93164 L 11.9629 -65.3809 C 11.9629 -70.4102 14.6484 -73.291 19.873 -73.291 L 60.9863 -73.291 C 66.2109 -73.291 68.8965 -70.6055 68.8965 -65.3809 L 68.8965 -4.93164 C 68.8965 0.244141 66.2109 2.97852 60.9863 2.97852 Z M 22.6562 -42.1387 C 22.998 -42.1387 23.3398 -42.334 23.4863 -42.7734 L 25.8789 -48.877 L 34.5215 -48.877 L 36.9141 -42.7734 C 37.0605 -42.334 37.3535 -42.1387 37.7441 -42.1387 C 38.3789 -42.1387 38.7207 -42.4805 38.7207 -43.0176 C 38.7207 -43.1641 38.6719 -43.4082 38.623 -43.5547 L 31.25 -62.1582 C 31.1035 -62.6465 30.7129 -62.8906 30.2246 -62.8906 C 29.6875 -62.8906 29.2969 -62.6465 29.1016 -62.1582 L 21.7285 -43.5547 C 21.6797 -43.4082 21.6309 -43.1641 21.6309 -43.0176 C 21.6309 -42.4805 22.0215 -42.1387 22.6562 -42.1387 Z M 26.5625 -50.7324 L 30.1758 -60.1074 L 30.2246 -60.1074 L 33.8379 -50.7324 Z M 46.4355 -57.0312 L 61.6211 -57.0312 C 62.2559 -57.0312 62.7441 -57.5195 62.7441 -58.1055 C 62.7441 -58.6914 62.2559 -59.1797 61.6211 -59.1797 L 46.4355 -59.1797 C 45.8008 -59.1797 45.3125 -58.6914 45.3125 -58.1055 C 45.3125 -57.5195 45.8008 -57.0312 46.4355 -57.0312 Z M 46.4355 -43.5059 L 61.6211 -43.5059 C 62.2559 -43.5059 62.7441 -43.9453 62.7441 -44.5312 C 62.7441 -45.1172 62.2559 -45.6055 61.6211 -45.6055 L 46.4355 -45.6055 C 45.8008 -45.6055 45.3125 -45.1172 45.3125 -44.5312 C 45.3125 -43.9453 45.8008 -43.5059 46.4355 -43.5059 Z M 18.3594 -7.95898 L 19.5312 -7.95898 L 26.3672 -14.1602 C 27.3438 -15.0391 28.2715 -15.4785 29.1504 -15.4785 C 30.0781 -15.4785 31.0547 -14.9902 31.9336 -14.1602 L 35.498 -10.9375 L 44.8242 -18.9453 C 45.9473 -19.9219 47.1191 -20.4102 48.1445 -20.4102 C 49.3164 -20.4102 50.5859 -19.9707 51.5625 -18.8965 L 61.5723 -7.95898 L 62.7441 -7.95898 L 62.7441 -30.2734 C 62.7441 -33.6426 61.084 -35.2539 57.7148 -35.2539 L 23.3887 -35.2539 C 20.0195 -35.2539 18.3594 -33.6426 18.3594 -30.2734 Z M 32.2754 -19.0918 C 29.5898 -19.0918 27.3438 -21.3379 27.3438 -24.0234 C 27.3438 -26.7578 29.5898 -28.9551 32.2754 -28.9551 C 34.9609 -28.9551 37.207 -26.7578 37.207 -24.0234 C 37.207 -21.3379 34.9609 -19.0918 32.2754 -19.0918 Z"/>
  </g>
 </g>
</svg>
