<?xml version="1.0" encoding="UTF-8"?>
<!--Generator: Apple Native CoreSVG 123-->
<!DOCTYPE svg
PUBLIC "-//W3C//DTD SVG 1.1//EN"
       "http://www.w3.org/Graphics/SVG/1.1/DTD/svg11.dtd">
<svg version="1.1" xmlns="http://www.w3.org/2000/svg" xmlns:xlink="http://www.w3.org/1999/xlink" width="3300" height="2200">
 <!--glyph: "uni10026E.medium", point size: 100.000000, font version: "Version 15.0d7e11", template writer version: "5"-->
 <g id="Notes">
  <rect height="2200" id="artboard" style="fill:white;opacity:1" width="3300" x="0" y="0"/>
  <line id="" style="fill:none;stroke:black;opacity:1;stroke-width:0.5;" x1="263" x2="3036" y1="292" y2="292"/>
  <text style="stroke:none;fill:black;font-family:-apple-system,&quot;SF Pro Display&quot;,&quot;SF Pro Text&quot;,Helvetica,sans-serif;font-weight:bold;" transform="matrix(1 0 0 1 263 322)">Weight/Scale Variations</text>
  <text style="stroke:none;fill:black;font-family:-apple-system,&quot;SF Pro Display&quot;,&quot;SF Pro Text&quot;,Helvetica,sans-serif;text-anchor:middle;" transform="matrix(1 0 0 1 559.711 322)">Ultralight</text>
  <text style="stroke:none;fill:black;font-family:-apple-system,&quot;SF Pro Display&quot;,&quot;SF Pro Text&quot;,Helvetica,sans-serif;text-anchor:middle;" transform="matrix(1 0 0 1 856.422 322)">Thin</text>
  <text style="stroke:none;fill:black;font-family:-apple-system,&quot;SF Pro Display&quot;,&quot;SF Pro Text&quot;,Helvetica,sans-serif;text-anchor:middle;" transform="matrix(1 0 0 1 1153.13 322)">Light</text>
  <text style="stroke:none;fill:black;font-family:-apple-system,&quot;SF Pro Display&quot;,&quot;SF Pro Text&quot;,Helvetica,sans-serif;text-anchor:middle;" transform="matrix(1 0 0 1 1449.84 322)">Regular</text>
  <text style="stroke:none;fill:black;font-family:-apple-system,&quot;SF Pro Display&quot;,&quot;SF Pro Text&quot;,Helvetica,sans-serif;text-anchor:middle;" transform="matrix(1 0 0 1 1746.56 322)">Medium</text>
  <text style="stroke:none;fill:black;font-family:-apple-system,&quot;SF Pro Display&quot;,&quot;SF Pro Text&quot;,Helvetica,sans-serif;text-anchor:middle;" transform="matrix(1 0 0 1 2043.27 322)">Semibold</text>
  <text style="stroke:none;fill:black;font-family:-apple-system,&quot;SF Pro Display&quot;,&quot;SF Pro Text&quot;,Helvetica,sans-serif;text-anchor:middle;" transform="matrix(1 0 0 1 2339.98 322)">Bold</text>
  <text style="stroke:none;fill:black;font-family:-apple-system,&quot;SF Pro Display&quot;,&quot;SF Pro Text&quot;,Helvetica,sans-serif;text-anchor:middle;" transform="matrix(1 0 0 1 2636.69 322)">Heavy</text>
  <text style="stroke:none;fill:black;font-family:-apple-system,&quot;SF Pro Display&quot;,&quot;SF Pro Text&quot;,Helvetica,sans-serif;text-anchor:middle;" transform="matrix(1 0 0 1 2933.4 322)">Black</text>
  <line id="" style="fill:none;stroke:black;opacity:1;stroke-width:0.5;" x1="263" x2="3036" y1="1903" y2="1903"/>
  <g id="" transform="matrix(1 0 0 1 263 1933)">
   <path d="M 9.24805 0.830078 C 13.5547 0.830078 17.1387 -2.74414 17.1387 -7.05078 C 17.1387 -11.3574 13.5449 -14.9316 9.23828 -14.9316 C 4.94141 -14.9316 1.36719 -11.3574 1.36719 -7.05078 C 1.36719 -2.74414 4.95117 0.830078 9.24805 0.830078 Z M 9.24805 -0.654297 C 5.70312 -0.654297 2.87109 -3.49609 2.87109 -7.05078 C 2.87109 -10.6055 5.69336 -13.4473 9.23828 -13.4473 C 12.793 -13.4473 15.6348 -10.6055 15.6445 -7.05078 C 15.6543 -3.49609 12.8027 -0.654297 9.24805 -0.654297 Z M 9.22852 -3.42773 C 9.69727 -3.42773 9.9707 -3.74023 9.9707 -4.25781 L 9.9707 -6.31836 L 12.1973 -6.31836 C 12.6953 -6.31836 13.0371 -6.57227 13.0371 -7.04102 C 13.0371 -7.51953 12.7148 -7.7832 12.1973 -7.7832 L 9.9707 -7.7832 L 9.9707 -10.0098 C 9.9707 -10.5273 9.69727 -10.8496 9.22852 -10.8496 C 8.75977 -10.8496 8.50586 -10.5078 8.50586 -10.0098 L 8.50586 -7.7832 L 6.29883 -7.7832 C 5.78125 -7.7832 5.44922 -7.51953 5.44922 -7.04102 C 5.44922 -6.57227 5.80078 -6.31836 6.29883 -6.31836 L 8.50586 -6.31836 L 8.50586 -4.25781 C 8.50586 -3.75977 8.75977 -3.42773 9.22852 -3.42773 Z"/>
  </g>
  <g id="" transform="matrix(1 0 0 1 281.506 1933)">
   <path d="M 11.709 2.91016 C 17.1582 2.91016 21.6699 -1.60156 21.6699 -7.05078 C 21.6699 -12.4902 17.1484 -17.0117 11.6992 -17.0117 C 6.25977 -17.0117 1.74805 -12.4902 1.74805 -7.05078 C 1.74805 -1.60156 6.26953 2.91016 11.709 2.91016 Z M 11.709 1.25 C 7.09961 1.25 3.41797 -2.44141 3.41797 -7.05078 C 3.41797 -11.6504 7.08984 -15.3516 11.6992 -15.3516 C 16.3086 -15.3516 20 -11.6504 20.0098 -7.05078 C 20.0195 -2.44141 16.3184 1.25 11.709 1.25 Z M 11.6895 -2.41211 C 12.207 -2.41211 12.5195 -2.77344 12.5195 -3.33984 L 12.5195 -6.23047 L 15.5762 -6.23047 C 16.123 -6.23047 16.5039 -6.51367 16.5039 -7.03125 C 16.5039 -7.55859 16.1426 -7.86133 15.5762 -7.86133 L 12.5195 -7.86133 L 12.5195 -10.9277 C 12.5195 -11.5039 12.207 -11.8555 11.6895 -11.8555 C 11.1719 -11.8555 10.8789 -11.4844 10.8789 -10.9277 L 10.8789 -7.86133 L 7.83203 -7.86133 C 7.26562 -7.86133 6.89453 -7.55859 6.89453 -7.03125 C 6.89453 -6.51367 7.28516 -6.23047 7.83203 -6.23047 L 10.8789 -6.23047 L 10.8789 -3.33984 C 10.8789 -2.79297 11.1719 -2.41211 11.6895 -2.41211 Z"/>
  </g>
  <g id="" transform="matrix(1 0 0 1 304.924 1933)">
   <path d="M 14.9707 5.67383 C 21.9336 5.67383 27.6953 -0.078125 27.6953 -7.04102 C 27.6953 -14.0039 21.9238 -19.7559 14.9609 -19.7559 C 8.00781 -19.7559 2.25586 -14.0039 2.25586 -7.04102 C 2.25586 -0.078125 8.01758 5.67383 14.9707 5.67383 Z M 14.9707 3.85742 C 8.93555 3.85742 4.08203 -1.00586 4.08203 -7.04102 C 4.08203 -13.0762 8.92578 -17.9395 14.9609 -17.9395 C 21.0059 -17.9395 25.8594 -13.0762 25.8691 -7.04102 C 25.8789 -1.00586 21.0156 3.85742 14.9707 3.85742 Z M 14.9512 -1.06445 C 15.5176 -1.06445 15.8691 -1.45508 15.8691 -2.06055 L 15.8691 -6.13281 L 20.1074 -6.13281 C 20.6934 -6.13281 21.1133 -6.46484 21.1133 -7.02148 C 21.1133 -7.59766 20.7227 -7.93945 20.1074 -7.93945 L 15.8691 -7.93945 L 15.8691 -12.1875 C 15.8691 -12.8027 15.5176 -13.1934 14.9512 -13.1934 C 14.3848 -13.1934 14.0625 -12.7832 14.0625 -12.1875 L 14.0625 -7.93945 L 9.83398 -7.93945 C 9.21875 -7.93945 8.80859 -7.59766 8.80859 -7.02148 C 8.80859 -6.46484 9.23828 -6.13281 9.83398 -6.13281 L 14.0625 -6.13281 L 14.0625 -2.06055 C 14.0625 -1.47461 14.3848 -1.06445 14.9512 -1.06445 Z"/>
  </g>
  <text style="stroke:none;fill:black;font-family:-apple-system,&quot;SF Pro Display&quot;,&quot;SF Pro Text&quot;,Helvetica,sans-serif;font-weight:bold;" transform="matrix(1 0 0 1 263 1953)">Design Variations</text>
  <text style="stroke:none;fill:black;font-family:-apple-system,&quot;SF Pro Display&quot;,&quot;SF Pro Text&quot;,Helvetica,sans-serif;" transform="matrix(1 0 0 1 263 1971)">Symbols are supported in up to nine weights and three scales.</text>
  <text style="stroke:none;fill:black;font-family:-apple-system,&quot;SF Pro Display&quot;,&quot;SF Pro Text&quot;,Helvetica,sans-serif;" transform="matrix(1 0 0 1 263 1989)">For optimal layout with text and other symbols, vertically align</text>
  <text style="stroke:none;fill:black;font-family:-apple-system,&quot;SF Pro Display&quot;,&quot;SF Pro Text&quot;,Helvetica,sans-serif;" transform="matrix(1 0 0 1 263 2007)">symbols with the adjacent text.</text>
  <rect height="14" id="" style="fill:#00AEEF;stroke:none;opacity:0.4;" width="3" x="776" y="1919"/>
  <g id="" transform="matrix(1 0 0 1 779 1933)">
   <path d="M 10.5273 0 L 12.373 0 L 7.17773 -14.0918 L 5.43945 -14.0918 L 0.244141 0 L 2.08984 0 L 3.50586 -4.0332 L 9.11133 -4.0332 Z M 6.2793 -11.9531 L 6.33789 -11.9531 L 8.59375 -5.52734 L 4.02344 -5.52734 Z"/>
  </g>
  <rect height="14" id="" style="fill:#00AEEF;stroke:none;opacity:0.4;" width="3" x="791.617" y="1919"/>
  <text style="stroke:none;fill:black;font-family:-apple-system,&quot;SF Pro Display&quot;,&quot;SF Pro Text&quot;,Helvetica,sans-serif;font-weight:bold;" transform="matrix(1 0 0 1 776 1953)">Margins</text>
  <text style="stroke:none;fill:black;font-family:-apple-system,&quot;SF Pro Display&quot;,&quot;SF Pro Text&quot;,Helvetica,sans-serif;" transform="matrix(1 0 0 1 776 1971)">Leading and trailing margins on the left and right side of each symbol</text>
  <text style="stroke:none;fill:black;font-family:-apple-system,&quot;SF Pro Display&quot;,&quot;SF Pro Text&quot;,Helvetica,sans-serif;" transform="matrix(1 0 0 1 776 1989)">can be adjusted by modifying the width of the blue rectangles.</text>
  <text style="stroke:none;fill:black;font-family:-apple-system,&quot;SF Pro Display&quot;,&quot;SF Pro Text&quot;,Helvetica,sans-serif;" transform="matrix(1 0 0 1 776 2007)">Modifications are automatically applied proportionally to all</text>
  <text style="stroke:none;fill:black;font-family:-apple-system,&quot;SF Pro Display&quot;,&quot;SF Pro Text&quot;,Helvetica,sans-serif;" transform="matrix(1 0 0 1 776 2025)">scales and weights.</text>
  <g id="" transform="matrix(1 0 0 1 1289 1933)">
   <path d="M 2.83203 3.11523 L 4.375 4.6582 C 5.22461 5.48828 6.19141 5.41992 7.06055 4.46289 L 17.2754 -6.66016 C 17.7051 -6.36719 18.0957 -6.37695 18.5645 -6.47461 L 19.6094 -6.68945 L 20.3027 -5.99609 L 20.2539 -5.47852 C 20.1855 -4.95117 20.3516 -4.53125 20.8496 -4.0332 L 21.6602 -3.22266 C 22.168 -2.71484 22.8223 -2.68555 23.3008 -3.16406 L 26.5527 -6.41602 C 27.0312 -6.89453 27.0117 -7.54883 26.5039 -8.05664 L 25.6836 -8.87695 C 25.1855 -9.375 24.7754 -9.55078 24.2383 -9.47266 L 23.7109 -9.41406 L 23.0566 -10.0781 L 23.3398 -11.2207 C 23.4863 -11.7871 23.3398 -12.2559 22.7148 -12.8613 L 20.3027 -15.2539 C 16.7578 -18.7793 12.2266 -18.6719 9.11133 -15.5371 C 8.69141 -15.1074 8.64258 -14.5215 8.91602 -14.0918 C 9.15039 -13.7207 9.62891 -13.4961 10.2734 -13.6621 C 11.7871 -14.043 13.3008 -13.9258 14.7852 -12.9199 L 14.1602 -11.3379 C 13.9258 -10.752 13.9453 -10.2734 14.1797 -9.83398 L 3.01758 0.439453 C 2.08008 1.30859 1.97266 2.25586 2.83203 3.11523 Z M 10.6738 -15.1465 C 13.3398 -17.1387 16.6504 -16.8262 19.0527 -14.4141 L 21.6797 -11.8066 C 21.9141 -11.5723 21.9434 -11.3867 21.8848 -11.0938 L 21.5039 -9.53125 L 23.0762 -7.95898 L 24.043 -8.04688 C 24.3262 -8.07617 24.4141 -8.05664 24.6387 -7.83203 L 25.2637 -7.20703 L 22.5098 -4.46289 L 21.8848 -5.07812 C 21.6602 -5.30273 21.6406 -5.40039 21.6699 -5.68359 L 21.7578 -6.64062 L 20.1953 -8.20312 L 18.5742 -7.89062 C 18.291 -7.83203 18.1445 -7.83203 17.9102 -8.07617 L 15.7324 -10.2539 C 15.5078 -10.4883 15.4785 -10.625 15.6055 -10.9473 L 16.5527 -13.2227 C 14.9512 -14.7559 12.8418 -15.6055 10.8008 -14.9512 C 10.7129 -14.9219 10.6445 -14.9414 10.6152 -14.9805 C 10.5859 -15.0293 10.5859 -15.0781 10.6738 -15.1465 Z M 4.10156 2.41211 C 3.61328 1.91406 3.78906 1.61133 4.12109 1.30859 L 15.0781 -8.80859 L 16.3086 -7.57812 L 6.15234 3.34961 C 5.84961 3.68164 5.46875 3.7793 5.06836 3.37891 Z"/>
  </g>
  <text style="stroke:none;fill:black;font-family:-apple-system,&quot;SF Pro Display&quot;,&quot;SF Pro Text&quot;,Helvetica,sans-serif;font-weight:bold;" transform="matrix(1 0 0 1 1289 1953)">Exporting</text>
  <text style="stroke:none;fill:black;font-family:-apple-system,&quot;SF Pro Display&quot;,&quot;SF Pro Text&quot;,Helvetica,sans-serif;" transform="matrix(1 0 0 1 1289 1971)">Symbols should be outlined when exporting to ensure the</text>
  <text style="stroke:none;fill:black;font-family:-apple-system,&quot;SF Pro Display&quot;,&quot;SF Pro Text&quot;,Helvetica,sans-serif;" transform="matrix(1 0 0 1 1289 1989)">design is preserved when submitting to Xcode.</text>
  <text id="template-version" style="stroke:none;fill:black;font-family:-apple-system,&quot;SF Pro Display&quot;,&quot;SF Pro Text&quot;,Helvetica,sans-serif;text-anchor:end;" transform="matrix(1 0 0 1 3036 1933)">Template v.1.0</text>
  <text style="stroke:none;fill:black;font-family:-apple-system,&quot;SF Pro Display&quot;,&quot;SF Pro Text&quot;,Helvetica,sans-serif;text-anchor:end;" transform="matrix(1 0 0 1 3036 1951)">Generated from person.crop.circle.fill</text>
  <text style="stroke:none;fill:black;font-family:-apple-system,&quot;SF Pro Display&quot;,&quot;SF Pro Text&quot;,Helvetica,sans-serif;text-anchor:end;" transform="matrix(1 0 0 1 3036 1969)">Typeset at 100 points</text>
  <text style="stroke:none;fill:black;font-family:-apple-system,&quot;SF Pro Display&quot;,&quot;SF Pro Text&quot;,Helvetica,sans-serif;" transform="matrix(1 0 0 1 263 726)">Small</text>
  <text style="stroke:none;fill:black;font-family:-apple-system,&quot;SF Pro Display&quot;,&quot;SF Pro Text&quot;,Helvetica,sans-serif;" transform="matrix(1 0 0 1 263 1156)">Medium</text>
  <text style="stroke:none;fill:black;font-family:-apple-system,&quot;SF Pro Display&quot;,&quot;SF Pro Text&quot;,Helvetica,sans-serif;" transform="matrix(1 0 0 1 263 1586)">Large</text>
 </g>
 <g id="Guides">
  <g id="H-reference" style="fill:#27AAE1;stroke:none;" transform="matrix(1 0 0 1 339 696)">
   <path d="M 54.9316 0 L 57.666 0 L 30.5664 -70.459 L 28.0762 -70.459 L 0.976562 0 L 3.66211 0 L 12.9395 -24.4629 L 45.7031 -24.4629 Z M 29.1992 -67.0898 L 29.4434 -67.0898 L 44.8242 -26.709 L 13.8184 -26.709 Z"/>
  </g>
  <line id="Baseline-S" style="fill:none;stroke:#27AAE1;opacity:1;stroke-width:0.577;" x1="263" x2="3036" y1="696" y2="696"/>
  <line id="Capline-S" style="fill:none;stroke:#27AAE1;opacity:1;stroke-width:0.577;" x1="263" x2="3036" y1="625.541" y2="625.541"/>
  <g id="H-reference" style="fill:#27AAE1;stroke:none;" transform="matrix(1 0 0 1 339 1126)">
   <path d="M 54.9316 0 L 57.666 0 L 30.5664 -70.459 L 28.0762 -70.459 L 0.976562 0 L 3.66211 0 L 12.9395 -24.4629 L 45.7031 -24.4629 Z M 29.1992 -67.0898 L 29.4434 -67.0898 L 44.8242 -26.709 L 13.8184 -26.709 Z"/>
  </g>
  <line id="Baseline-M" style="fill:none;stroke:#27AAE1;opacity:1;stroke-width:0.577;" x1="263" x2="3036" y1="1126" y2="1126"/>
  <line id="Capline-M" style="fill:none;stroke:#27AAE1;opacity:1;stroke-width:0.577;" x1="263" x2="3036" y1="1055.54" y2="1055.54"/>
  <g id="H-reference" style="fill:#27AAE1;stroke:none;" transform="matrix(1 0 0 1 339 1556)">
   <path d="M 54.9316 0 L 57.666 0 L 30.5664 -70.459 L 28.0762 -70.459 L 0.976562 0 L 3.66211 0 L 12.9395 -24.4629 L 45.7031 -24.4629 Z M 29.1992 -67.0898 L 29.4434 -67.0898 L 44.8242 -26.709 L 13.8184 -26.709 Z"/>
  </g>
  <line id="Baseline-L" style="fill:none;stroke:#27AAE1;opacity:1;stroke-width:0.577;" x1="263" x2="3036" y1="1556" y2="1556"/>
  <line id="Capline-L" style="fill:none;stroke:#27AAE1;opacity:1;stroke-width:0.577;" x1="263" x2="3036" y1="1485.54" y2="1485.54"/>
  <rect height="119.336" id="left-margin" style="fill:#00AEEF;stroke:none;opacity:0.4;" width="8.74023" x="1391.3" y="1030.79"/>
  <rect height="119.336" id="right-margin" style="fill:#00AEEF;stroke:none;opacity:0.4;" width="8.74023" x="1499.65" y="1030.79"/>
 </g>
 <g id="Symbols">
  <g id="Black-L" transform="matrix(1 0 0 1 2854.05 1556)">
   <path d="M 79.3457 32.8613 C 116.748 32.8613 147.412 2.19727 147.412 -35.2051 C 147.412 -72.6074 116.748 -103.271 79.2969 -103.271 C 41.8945 -103.271 11.2793 -72.6074 11.2793 -35.2051 C 11.2793 2.19727 41.9434 32.8613 79.3457 32.8613 Z M 79.3457 -75.7812 C 92.1875 -75.7812 102.295 -64.4531 102.295 -51.2695 C 102.295 -37.3535 92.3828 -26.2207 79.3457 -26.2695 C 66.3086 -26.3184 56.3965 -37.3535 56.3965 -51.2695 C 56.2988 -64.4531 66.5039 -75.7812 79.3457 -75.7812 Z M 117.236 1.75781 L 117.334 2.44141 C 108.252 12.5977 92.041 17.9688 79.3457 17.9688 C 66.6504 17.9688 50.4395 12.5977 41.3574 2.44141 L 41.4551 1.75781 C 48.7305 -7.32422 61.2793 -14.8438 79.3457 -14.8438 C 97.3633 -14.8438 109.912 -7.32422 117.236 1.75781 Z"/>
  </g>
  <g id="Heavy-L" transform="matrix(1 0 0 1 2558.39 1556)">
   <path d="M 78.2715 31.7871 C 115.088 31.7871 145.312 1.61133 145.312 -35.2051 C 145.312 -72.0215 115.039 -102.197 78.2715 -102.197 C 41.4551 -102.197 11.2793 -72.0215 11.2793 -35.2051 C 11.2793 1.61133 41.5039 31.7871 78.2715 31.7871 Z M 78.2715 -74.8535 C 90.918 -74.8535 100.879 -63.6719 100.879 -50.5859 C 100.879 -36.8164 91.1133 -25.8301 78.2715 -25.9277 C 65.4785 -25.9766 55.6641 -36.8164 55.6641 -50.5859 C 55.6152 -63.6719 65.625 -74.8535 78.2715 -74.8535 Z M 116.406 1.80664 L 116.504 2.53906 C 107.324 12.7441 91.5527 18.3105 78.2715 18.3105 C 64.9902 18.3105 49.2188 12.7441 40.0391 2.53906 L 40.1367 1.80664 C 47.1191 -7.03125 60.1074 -14.6484 78.2715 -14.6484 C 96.4844 -14.6484 109.424 -7.03125 116.406 1.80664 Z"/>
  </g>
  <g id="Bold-L" transform="matrix(1 0 0 1 2262.88 1556)">
   <path d="M 77.0996 30.6152 C 113.232 30.6152 142.92 0.878906 142.92 -35.2051 C 142.92 -71.3379 113.184 -101.025 77.0508 -101.025 C 40.9668 -101.025 11.2793 -71.3379 11.2793 -35.2051 C 11.2793 0.878906 41.0156 30.6152 77.0996 30.6152 Z M 77.0996 -73.7793 C 89.5508 -73.7793 99.3164 -62.793 99.3164 -49.8535 C 99.3164 -36.1816 89.6484 -25.4395 77.0996 -25.4883 C 64.5508 -25.5859 54.8828 -36.1816 54.8828 -49.8535 C 54.7852 -62.793 64.6484 -73.7793 77.0996 -73.7793 Z M 115.527 1.85547 L 115.625 2.63672 C 106.299 12.8906 91.0645 18.75 77.0996 18.75 C 63.1348 18.75 47.9004 12.8906 38.5742 2.63672 L 38.6719 1.85547 C 45.3125 -6.64062 58.7402 -14.4043 77.0996 -14.4043 C 95.459 -14.4043 108.887 -6.64062 115.527 1.85547 Z"/>
  </g>
  <g id="Semibold-L" transform="matrix(1 0 0 1 1966.97 1556)">
   <path d="M 76.2695 29.7852 C 111.914 29.7852 141.309 0.439453 141.309 -35.2051 C 141.309 -70.8496 111.865 -100.244 76.2695 -100.244 C 40.625 -100.244 11.2793 -70.8496 11.2793 -35.2051 C 11.2793 0.439453 40.6738 29.7852 76.2695 29.7852 Z M 76.2695 -73.0469 C 88.5742 -73.0469 98.291 -62.207 98.291 -49.3652 C 98.291 -35.7422 88.6719 -25.1465 76.2695 -25.2441 C 63.8672 -25.293 54.2969 -35.7422 54.2969 -49.3652 C 54.248 -62.207 64.0137 -73.0469 76.2695 -73.0469 Z M 114.893 1.9043 L 114.99 2.68555 C 105.615 12.9883 90.7227 19.043 76.2695 19.043 C 61.8652 19.043 46.9727 12.9883 37.5488 2.68555 L 37.6953 1.9043 C 44.0918 -6.39648 57.8125 -14.2578 76.2695 -14.2578 C 94.7754 -14.2578 108.496 -6.39648 114.893 1.9043 Z"/>
  </g>
  <g id="Medium-L" transform="matrix(1 0 0 1 1670.87 1556)">
   <path d="M 75.6836 29.1992 C 110.938 29.1992 140.088 0.0488281 140.088 -35.2051 C 140.088 -70.459 110.889 -99.6094 75.6348 -99.6094 C 40.3809 -99.6094 11.2793 -70.459 11.2793 -35.2051 C 11.2793 0.0488281 40.3809 29.1992 75.6836 29.1992 Z M 75.6836 -72.4609 C 87.8418 -72.4609 97.4609 -61.7676 97.4609 -48.9746 C 97.4609 -35.4004 87.9395 -24.9023 75.6836 -25 C 63.3789 -25.0977 53.9062 -35.4004 53.9062 -48.9746 C 53.8086 -61.7676 63.5254 -72.4609 75.6836 -72.4609 Z M 114.404 1.95312 L 114.551 2.73438 C 105.078 13.0859 90.4297 19.2871 75.6836 19.2871 C 60.8887 19.2871 46.2891 13.0859 36.8164 2.73438 L 36.9141 1.95312 C 43.1152 -6.25 57.0801 -14.1602 75.6836 -14.1602 C 94.2383 -14.1602 108.203 -6.25 114.404 1.95312 Z"/>
  </g>
  <g id="Regular-L" transform="matrix(1 0 0 1 1374.97 1556)">
   <path d="M 74.8535 28.3691 C 109.668 28.3691 138.477 -0.390625 138.477 -35.2051 C 138.477 -70.0195 109.619 -98.7793 74.8047 -98.7793 C 40.0391 -98.7793 11.2793 -70.0195 11.2793 -35.2051 C 11.2793 -0.390625 40.0879 28.3691 74.8535 28.3691 Z M 74.8535 -71.7285 C 86.8652 -71.7285 96.3867 -61.1816 96.3867 -48.4863 C 96.3867 -34.9609 86.9629 -24.6094 74.8535 -24.707 C 62.7441 -24.8047 53.3203 -34.9609 53.3203 -48.4863 C 53.2715 -61.1816 62.8418 -71.7285 74.8535 -71.7285 Z M 113.77 2.00195 L 113.916 2.83203 C 104.395 13.1836 90.0879 19.5312 74.8535 19.5312 C 59.668 19.5312 45.3613 13.1836 35.791 2.83203 L 35.9375 2.00195 C 41.8945 -6.00586 56.2012 -14.0137 74.8535 -14.0137 C 93.5547 -14.0137 107.812 -6.00586 113.77 2.00195 Z"/>
  </g>
  <g id="Light-L" transform="matrix(1 0 0 1 1079.18 1556)">
   <path d="M 73.9258 27.4902 C 108.301 27.4902 136.621 -0.830078 136.621 -35.1562 C 136.621 -69.5312 108.252 -97.8516 73.9258 -97.8516 C 39.5508 -97.8516 11.2793 -69.5312 11.2793 -35.1562 C 11.2793 -0.830078 39.5996 27.4902 73.9258 27.4902 Z M 73.9258 -71.9727 C 85.8887 -71.9727 95.3613 -61.4258 95.3613 -48.7793 C 95.3613 -35.3027 86.0352 -25 73.9258 -25.0488 C 61.8652 -25.1465 52.5391 -35.3027 52.5391 -48.7793 C 52.4414 -61.4258 62.0117 -71.9727 73.9258 -71.9727 Z M 113.672 1.95312 L 113.77 2.7832 C 104.346 13.1836 90.1855 20.166 73.9258 20.166 C 57.7148 20.166 43.5547 13.1836 34.1309 2.7832 L 34.2285 1.95312 C 40.8691 -6.64062 56.2012 -14.2578 73.9258 -14.2578 C 91.6992 -14.2578 106.982 -6.64062 113.672 1.95312 Z"/>
  </g>
  <g id="Thin-L" transform="matrix(1 0 0 1 783.693 1556)">
   <path d="M 72.7051 26.3184 C 106.494 26.3184 134.18 -1.36719 134.18 -35.1074 C 134.18 -68.8965 106.494 -96.582 72.7051 -96.582 C 38.9648 -96.582 11.2793 -68.8965 11.2793 -35.1074 C 11.2793 -1.36719 38.9648 26.3184 72.7051 26.3184 Z M 72.7051 -72.3145 C 84.5703 -72.3145 93.9941 -61.7188 93.9941 -49.1699 C 93.9941 -35.791 84.8145 -25.4883 72.7051 -25.4883 C 60.6445 -25.5371 51.4648 -35.791 51.4648 -49.1699 C 51.3672 -61.7188 60.8887 -72.3145 72.7051 -72.3145 Z M 113.525 1.9043 L 113.574 2.7832 C 104.346 13.2324 90.2832 20.9473 72.7051 20.9473 C 55.127 20.9473 41.1133 13.2324 31.8848 2.7832 L 31.9336 1.9043 C 39.5508 -7.51953 56.25 -14.5996 72.7051 -14.5996 C 89.209 -14.5996 105.908 -7.51953 113.525 1.9043 Z"/>
  </g>
  <g id="Ultralight-L" transform="matrix(1 0 0 1 487.616 1556)">
   <path d="M 72.1191 25.7324 C 105.566 25.7324 132.91 -1.61133 132.91 -35.1074 C 132.91 -68.5547 105.566 -95.8984 72.1191 -95.8984 C 38.623 -95.8984 11.2793 -68.5547 11.2793 -35.1074 C 11.2793 -1.61133 38.623 25.7324 72.1191 25.7324 Z M 72.1191 -72.5098 C 83.8867 -72.5098 93.3105 -61.8652 93.3105 -49.3652 C 93.3105 -36.0352 84.1309 -25.7324 72.1191 -25.7324 C 60.0586 -25.7324 50.8789 -36.0352 50.8789 -49.3652 C 50.8301 -61.8652 60.3027 -72.5098 72.1191 -72.5098 Z M 113.477 1.85547 L 113.428 2.7832 C 104.297 13.2324 90.3809 21.3867 72.1191 21.3867 C 53.8086 21.3867 39.8926 13.2324 30.7617 2.7832 L 30.7129 1.85547 C 38.8672 -8.00781 56.25 -14.7461 72.1191 -14.7461 C 87.9395 -14.7461 105.322 -8.00781 113.477 1.85547 Z"/>
  </g>
  <g id="Black-M" transform="matrix(1 0 0 1 2870.97 1126)">
   <path d="M 62.4023 18.457 C 91.9922 18.457 116.113 -5.61523 116.113 -35.2051 C 116.113 -64.7949 91.9922 -88.8672 62.4023 -88.8672 C 32.8125 -88.8672 8.74023 -64.7949 8.74023 -35.2051 C 8.74023 -5.61523 32.8125 18.457 62.4023 18.457 Z M 62.4023 -68.1152 C 72.6074 -68.1152 80.5664 -59.0332 80.5664 -48.6816 C 80.5664 -37.8418 72.8027 -28.9551 62.4023 -28.9551 C 52.0508 -28.9551 44.2383 -37.8418 44.2383 -48.6816 C 44.1895 -59.0332 52.2461 -68.1152 62.4023 -68.1152 Z M 91.8945 -6.64062 L 91.8945 -6.15234 C 85.1074 1.66016 71.9727 5.81055 62.4023 5.81055 C 52.832 5.81055 39.6973 1.66016 32.9102 -6.15234 L 32.9102 -6.64062 C 39.4043 -14.4043 49.1211 -19.8242 62.4023 -19.8242 C 75.6836 -19.8242 85.4004 -14.4043 91.8945 -6.64062 Z"/>
  </g>
  <g id="Heavy-M" transform="matrix(1 0 0 1 2575.19 1126)">
   <path d="M 61.5234 17.5781 C 90.5273 17.5781 114.258 -6.15234 114.258 -35.2051 C 114.258 -64.2578 90.5273 -87.9883 61.4746 -87.9883 C 32.4707 -87.9883 8.74023 -64.2578 8.74023 -35.2051 C 8.74023 -6.15234 32.4707 17.5781 61.5234 17.5781 Z M 61.5234 -66.9922 C 71.4844 -66.9922 79.3457 -58.1543 79.3457 -47.9004 C 79.3457 -37.1094 71.6309 -28.4668 61.5234 -28.4668 C 51.3672 -28.5156 43.6523 -37.1094 43.6523 -47.9004 C 43.6035 -58.1543 51.5137 -66.9922 61.5234 -66.9922 Z M 91.0645 -6.5918 L 91.0645 -6.05469 C 84.1309 1.80664 71.4844 6.05469 61.5234 6.05469 C 51.5625 6.05469 38.8672 1.80664 31.9336 -6.05469 L 31.9824 -6.5918 C 37.8906 -13.8672 47.8027 -19.5312 61.5234 -19.5312 C 75.1953 -19.5312 85.1074 -13.8672 91.0645 -6.5918 Z"/>
  </g>
  <g id="Bold-M" transform="matrix(1 0 0 1 2279.5 1126)">
   <path d="M 60.498 16.5039 C 88.8672 16.5039 112.207 -6.78711 112.207 -35.2051 C 112.207 -63.623 88.8672 -86.9629 60.4492 -86.9629 C 32.0312 -86.9629 8.74023 -63.623 8.74023 -35.2051 C 8.74023 -6.78711 32.0801 16.5039 60.498 16.5039 Z M 60.498 -65.7227 C 70.2637 -65.7227 77.9297 -57.1289 77.9297 -47.0215 C 77.9297 -36.3281 70.3613 -27.8809 60.498 -27.9297 C 50.5859 -27.9785 43.0176 -36.3281 43.0176 -47.0215 C 42.9688 -57.1289 50.7324 -65.7227 60.498 -65.7227 Z M 90.0879 -6.49414 L 90.1367 -5.95703 C 83.0078 2.00195 70.8984 6.34766 60.498 6.34766 C 50.0977 6.34766 37.9395 2.00195 30.8105 -5.95703 L 30.9082 -6.49414 C 36.2305 -13.2812 46.3379 -19.2383 60.498 -19.2383 C 74.6094 -19.2383 84.7168 -13.2812 90.0879 -6.49414 Z"/>
  </g>
  <g id="Semibold-M" transform="matrix(1 0 0 1 1983.5 1126)">
   <path d="M 59.7656 15.8203 C 87.7441 15.8203 110.791 -7.22656 110.791 -35.2051 C 110.791 -63.1836 87.6953 -86.2793 59.7656 -86.2793 C 31.7871 -86.2793 8.74023 -63.1836 8.74023 -35.2051 C 8.74023 -7.22656 31.7871 15.8203 59.7656 15.8203 Z M 59.7656 -64.8926 C 69.3848 -64.8926 76.9531 -56.3965 76.9531 -46.3867 C 76.9531 -35.791 69.4824 -27.4902 59.7656 -27.5391 C 50.0488 -27.6367 42.5781 -35.791 42.5781 -46.3867 C 42.5293 -56.3965 50.1465 -64.8926 59.7656 -64.8926 Z M 89.4043 -6.44531 L 89.502 -5.85938 C 82.2266 2.09961 70.459 6.54297 59.7656 6.54297 C 49.0723 6.54297 37.3047 2.09961 30.0293 -5.85938 L 30.127 -6.44531 C 35.0586 -12.8906 45.3125 -18.9941 59.7656 -18.9941 C 74.2188 -18.9941 84.4727 -12.8906 89.4043 -6.44531 Z"/>
  </g>
  <g id="Medium-M" transform="matrix(1 0 0 1 1687.3 1126)">
   <path d="M 59.2285 15.2832 C 86.9141 15.2832 109.766 -7.56836 109.766 -35.2051 C 109.766 -62.8906 86.8652 -85.7422 59.1797 -85.7422 C 31.543 -85.7422 8.74023 -62.8906 8.74023 -35.2051 C 8.74023 -7.56836 31.5918 15.2832 59.2285 15.2832 Z M 59.2285 -64.209 C 68.75 -64.209 76.2695 -55.9082 76.2695 -45.9473 C 76.2695 -35.3516 68.7988 -27.1973 59.2285 -27.2949 C 49.6582 -27.3438 42.2363 -35.3516 42.2363 -45.9473 C 42.1875 -55.9082 49.7559 -64.209 59.2285 -64.209 Z M 88.916 -6.44531 L 89.0137 -5.81055 C 81.6406 2.14844 70.166 6.68945 59.2285 6.68945 C 48.3398 6.68945 36.8164 2.14844 29.4434 -5.81055 L 29.5898 -6.44531 C 34.1797 -12.5977 44.5312 -18.8477 59.2285 -18.8477 C 73.9258 -18.8477 84.2773 -12.5977 88.916 -6.44531 Z"/>
  </g>
  <g id="Regular-M" transform="matrix(1 0 0 1 1391.3 1126)">
   <path d="M 58.5449 14.5508 C 85.791 14.5508 108.35 -8.00781 108.35 -35.2539 C 108.35 -62.4512 85.7422 -85.0586 58.4961 -85.0586 C 31.2988 -85.0586 8.74023 -62.4512 8.74023 -35.2539 C 8.74023 -8.00781 31.3477 14.5508 58.5449 14.5508 Z M 58.5449 -63.3789 C 67.9199 -63.3789 75.293 -55.1758 75.293 -45.3125 C 75.293 -34.8145 67.9199 -26.8066 58.5449 -26.9043 C 49.1699 -27.002 41.7969 -34.8145 41.7969 -45.3125 C 41.748 -55.1758 49.1699 -63.3789 58.5449 -63.3789 Z M 88.2324 -6.34766 L 88.3789 -5.71289 C 80.9082 2.29492 69.7754 6.88477 58.5449 6.88477 C 47.3145 6.88477 36.1816 2.29492 28.7109 -5.71289 L 28.8574 -6.34766 C 33.0566 -12.207 43.5547 -18.6035 58.5449 -18.6035 C 73.584 -18.6035 84.0332 -12.207 88.2324 -6.34766 Z"/>
  </g>
  <g id="Light-M" transform="matrix(1 0 0 1 1095.42 1126)">
   <path d="M 57.7148 13.7695 C 84.5215 13.7695 106.689 -8.39844 106.689 -35.2051 C 106.689 -62.0117 84.5215 -84.1797 57.666 -84.1797 C 30.8594 -84.1797 8.74023 -62.0117 8.74023 -35.2051 C 8.74023 -8.39844 30.9082 13.7695 57.7148 13.7695 Z M 57.7148 -63.623 C 66.9922 -63.623 74.3652 -55.4199 74.3652 -45.6055 C 74.3652 -35.1562 67.0898 -27.1484 57.7148 -27.1973 C 48.3398 -27.2461 41.0645 -35.1562 41.0645 -45.6055 C 41.0156 -55.4199 48.4375 -63.623 57.7148 -63.623 Z M 88.1348 -6.39648 L 88.2324 -5.76172 C 80.8594 2.29492 69.8242 7.42188 57.7148 7.42188 C 45.6055 7.42188 34.5703 2.29492 27.1973 -5.76172 L 27.2949 -6.39648 C 32.1289 -12.793 43.5547 -18.8477 57.7148 -18.8477 C 71.875 -18.8477 83.3008 -12.793 88.1348 -6.39648 Z"/>
  </g>
  <g id="Thin-M" transform="matrix(1 0 0 1 799.806 1126)">
   <path d="M 56.6406 12.7441 C 82.9102 12.7441 104.492 -8.83789 104.492 -35.1562 C 104.492 -61.4746 82.9102 -83.0566 56.5918 -83.0566 C 30.3223 -83.0566 8.74023 -61.4746 8.74023 -35.1562 C 8.74023 -8.83789 30.3223 12.7441 56.6406 12.7441 Z M 56.6406 -63.916 C 65.8203 -63.916 73.1445 -55.7129 73.1445 -45.9473 C 73.1445 -35.5469 65.9668 -27.5879 56.6406 -27.5879 C 47.2656 -27.6367 40.0879 -35.5469 40.0879 -45.9473 C 40.0391 -55.7129 47.4121 -63.916 56.6406 -63.916 Z M 88.0371 -6.44531 L 88.0371 -5.76172 C 80.8594 2.29492 69.9707 8.1543 56.6406 8.1543 C 43.3105 8.1543 32.373 2.29492 25.1953 -5.76172 L 25.2441 -6.44531 C 30.957 -13.5742 43.5547 -19.1406 56.6406 -19.1406 C 69.6777 -19.1406 82.3242 -13.5742 88.0371 -6.44531 Z"/>
  </g>
  <g id="Ultralight-M" transform="matrix(1 0 0 1 503.656 1126)">
   <path d="M 56.0547 12.207 C 82.0801 12.207 103.369 -9.08203 103.369 -35.1562 C 103.369 -61.1816 82.0801 -82.4707 56.0547 -82.4707 C 30.0293 -82.4707 8.74023 -61.1816 8.74023 -35.1562 C 8.74023 -9.08203 30.0293 12.207 56.0547 12.207 Z M 56.0547 -64.0625 C 65.2344 -64.0625 72.5098 -55.8594 72.5098 -46.1426 C 72.5098 -35.791 65.4297 -27.7832 56.0547 -27.7832 C 46.7285 -27.7832 39.5996 -35.791 39.5996 -46.1426 C 39.5508 -55.8594 46.9238 -64.0625 56.0547 -64.0625 Z M 87.9395 -6.44531 L 87.9395 -5.76172 C 80.8594 2.34375 70.0195 8.54492 56.0547 8.54492 C 42.0898 8.54492 31.25 2.34375 24.1699 -5.76172 L 24.1699 -6.44531 C 30.3223 -13.9648 43.6035 -19.3359 56.0547 -19.3359 C 68.5547 -19.3359 81.7871 -13.9648 87.9395 -6.44531 Z"/>
  </g>
  <g id="Black-S" transform="matrix(1 0 0 1 2884.57 696)">
   <path d="M 48.8281 6.78711 C 71.9727 6.78711 90.8203 -12.0605 90.8203 -35.2051 C 90.8203 -58.3496 71.9727 -77.1973 48.8281 -77.1973 C 25.6836 -77.1973 6.83594 -58.3496 6.83594 -35.2051 C 6.83594 -12.0605 25.6836 6.78711 48.8281 6.78711 Z M 48.8281 -60.8887 C 56.7871 -60.8887 63.0371 -53.8086 63.0371 -45.7031 C 63.0371 -37.207 56.9336 -30.2734 48.8281 -30.2734 C 40.7227 -30.2734 34.6191 -37.207 34.6191 -45.7031 C 34.5703 -53.8086 40.8691 -60.8887 48.8281 -60.8887 Z M 71.9238 -12.8418 L 71.9238 -12.4512 C 66.6016 -6.29883 56.3477 -3.07617 48.8281 -3.07617 C 41.3086 -3.07617 31.0547 -6.29883 25.7324 -12.4512 L 25.7324 -12.8418 C 30.7617 -18.8477 38.3789 -23.1445 48.8281 -23.1445 C 59.2773 -23.1445 66.8945 -18.8477 71.9238 -12.8418 Z"/>
  </g>
  <g id="Heavy-S" transform="matrix(1 0 0 1 2588.47 696)">
   <path d="M 48.2422 6.15234 C 70.9961 6.15234 89.5996 -12.4512 89.5996 -35.2051 C 89.5996 -57.959 70.9961 -76.6113 48.1934 -76.6113 C 25.4395 -76.6113 6.83594 -57.959 6.83594 -35.2051 C 6.83594 -12.4512 25.4395 6.15234 48.2422 6.15234 Z M 48.2422 -60.0098 C 56.0547 -60.0098 62.207 -53.0762 62.207 -45.0684 C 62.207 -36.6211 56.1523 -29.834 48.2422 -29.8828 C 40.2832 -29.8828 34.2773 -36.6211 34.2773 -45.0684 C 34.2285 -53.0762 40.3809 -60.0098 48.2422 -60.0098 Z M 71.2891 -12.793 L 71.2891 -12.3535 C 65.8203 -6.20117 55.957 -2.92969 48.2422 -2.92969 C 40.5273 -2.92969 30.6152 -6.20117 25.1465 -12.3535 L 25.1465 -12.793 C 29.7363 -18.4082 37.3535 -22.9004 48.2422 -22.9004 C 59.082 -22.9004 66.748 -18.4082 71.2891 -12.793 Z"/>
  </g>
  <g id="Bold-S" transform="matrix(1 0 0 1 2292.44 696)">
   <path d="M 47.5586 5.46875 C 69.873 5.46875 88.2324 -12.8906 88.2324 -35.2051 C 88.2324 -57.5684 69.873 -75.9277 47.5098 -75.9277 C 25.1953 -75.9277 6.83594 -57.5684 6.83594 -35.2051 C 6.83594 -12.8906 25.1953 5.46875 47.5586 5.46875 Z M 47.5586 -59.0332 C 55.2246 -59.0332 61.2305 -52.2949 61.2305 -44.3359 C 61.2305 -35.9863 55.2734 -29.3945 47.5586 -29.3945 C 39.7949 -29.4434 33.8379 -35.9863 33.8379 -44.3359 C 33.7891 -52.2949 39.8926 -59.0332 47.5586 -59.0332 Z M 70.5566 -12.7441 L 70.6055 -12.3047 C 64.9902 -6.05469 55.4688 -2.7832 47.5586 -2.7832 C 39.5996 -2.7832 30.0781 -6.05469 24.4629 -12.3047 L 24.5605 -12.7441 C 28.5645 -17.8711 36.2305 -22.6074 47.5586 -22.6074 C 58.8379 -22.6074 66.5527 -17.8711 70.5566 -12.7441 Z"/>
  </g>
  <g id="Semibold-S" transform="matrix(1 0 0 1 1996.2 696)">
   <path d="M 47.0703 4.98047 C 69.0918 4.98047 87.3047 -13.1836 87.3047 -35.2539 C 87.3047 -57.2754 69.0918 -75.4883 47.0215 -75.4883 C 25 -75.4883 6.83594 -57.2754 6.83594 -35.2539 C 6.83594 -13.1836 25.0488 4.98047 47.0703 4.98047 Z M 47.0703 -58.3496 C 54.6387 -58.3496 60.5957 -51.7578 60.5957 -43.8477 C 60.5957 -35.5469 54.6875 -29.0527 47.0703 -29.1016 C 39.4531 -29.1504 33.5938 -35.5469 33.5938 -43.8477 C 33.5449 -51.7578 39.502 -58.3496 47.0703 -58.3496 Z M 70.0684 -12.6953 L 70.166 -12.207 C 64.4043 -6.00586 55.1758 -2.68555 47.0703 -2.68555 C 39.0137 -2.68555 29.7363 -6.00586 24.0234 -12.207 L 24.1211 -12.6953 C 27.7344 -17.5293 35.4492 -22.4121 47.0703 -22.4121 C 58.6914 -22.4121 66.4062 -17.5293 70.0684 -12.6953 Z"/>
  </g>
  <g id="Medium-S" transform="matrix(1 0 0 1 1699.83 696)">
   <path d="M 46.7285 4.63867 C 68.5547 4.63867 86.6211 -13.4277 86.6211 -35.2539 C 86.6211 -57.0312 68.5059 -75.1465 46.6797 -75.1465 C 24.8535 -75.1465 6.83594 -57.0312 6.83594 -35.2539 C 6.83594 -13.4277 24.9023 4.63867 46.7285 4.63867 Z M 46.7285 -57.8125 C 54.1992 -57.8125 60.0586 -51.3184 60.0586 -43.5059 C 60.0586 -35.2051 54.1992 -28.8086 46.7285 -28.8574 C 39.209 -28.9551 33.3496 -35.2051 33.3496 -43.5059 C 33.3008 -51.3184 39.2578 -57.8125 46.7285 -57.8125 Z M 69.6777 -12.6465 L 69.7754 -12.1582 C 63.9648 -5.95703 54.9316 -2.58789 46.7285 -2.58789 C 38.5254 -2.58789 29.4922 -5.95703 23.6816 -12.1582 L 23.7793 -12.6465 C 27.0996 -17.2363 34.8633 -22.3145 46.7285 -22.3145 C 58.5938 -22.3145 66.3086 -17.2363 69.6777 -12.6465 Z"/>
  </g>
  <g id="Regular-S" transform="matrix(1 0 0 1 1403.58 696)">
   <path d="M 46.2402 4.15039 C 67.7734 4.15039 85.6934 -13.7207 85.6934 -35.2539 C 85.6934 -56.7871 67.7246 -74.6582 46.1914 -74.6582 C 24.707 -74.6582 6.83594 -56.7871 6.83594 -35.2539 C 6.83594 -13.7207 24.7559 4.15039 46.2402 4.15039 Z M 46.2402 -57.1777 C 53.6133 -57.1777 59.4238 -50.7812 59.4238 -43.0176 C 59.4238 -34.7656 53.6133 -28.4668 46.2402 -28.5645 C 38.8672 -28.6621 33.1055 -34.7656 33.1055 -43.0176 C 33.0566 -50.7812 38.916 -57.1777 46.2402 -57.1777 Z M 69.1895 -12.5977 L 69.3359 -12.1094 C 63.3789 -5.85938 54.5898 -2.49023 46.2402 -2.49023 C 37.8906 -2.49023 29.1504 -5.85938 23.1934 -12.1094 L 23.3398 -12.5977 C 26.3184 -16.8945 34.082 -22.1191 46.2402 -22.1191 C 58.4473 -22.1191 66.2109 -16.8945 69.1895 -12.5977 Z"/>
  </g>
  <g id="Light-S" transform="matrix(1 0 0 1 1107.6 696)">
   <path d="M 45.5078 3.4668 C 66.6992 3.4668 84.2285 -14.0625 84.2285 -35.2051 C 84.2285 -56.3965 66.6504 -73.9258 45.5078 -73.9258 C 24.3164 -73.9258 6.83594 -56.3965 6.83594 -35.2051 C 6.83594 -14.0625 24.3652 3.4668 45.5078 3.4668 Z M 45.5078 -57.373 C 52.832 -57.373 58.5938 -50.9766 58.5938 -43.2617 C 58.5938 -35.0586 52.8809 -28.7598 45.5078 -28.8086 C 38.1836 -28.9062 32.4219 -35.0586 32.4219 -43.2617 C 32.373 -50.9766 38.2324 -57.373 45.5078 -57.373 Z M 69.0918 -12.6465 L 69.1895 -12.1094 C 63.3789 -5.85938 54.6875 -2.00195 45.5078 -2.00195 C 36.377 -2.00195 27.6855 -5.85938 21.875 -12.1094 L 21.9727 -12.6465 C 25.5371 -17.4316 34.082 -22.3145 45.5078 -22.3145 C 56.9336 -22.3145 65.5273 -17.4316 69.0918 -12.6465 Z"/>
  </g>
  <g id="Thin-S" transform="matrix(1 0 0 1 811.867 696)">
   <path d="M 44.5801 2.53906 C 65.2832 2.53906 82.2754 -14.4531 82.2754 -35.2051 C 82.2754 -55.9082 65.2344 -72.9004 44.5312 -72.9004 C 23.8281 -72.9004 6.83594 -55.9082 6.83594 -35.2051 C 6.83594 -14.4531 23.877 2.53906 44.5801 2.53906 Z M 44.5801 -57.6172 C 51.8066 -57.6172 57.5195 -51.2207 57.5195 -43.5547 C 57.5195 -35.4004 51.9043 -29.1504 44.5801 -29.1504 C 37.207 -29.1992 31.5918 -35.4004 31.5918 -43.5547 C 31.543 -51.2207 37.3535 -57.6172 44.5801 -57.6172 Z M 68.9941 -12.6465 L 68.9941 -12.1582 C 63.3301 -5.81055 54.7852 -1.36719 44.5801 -1.36719 C 34.3262 -1.36719 25.7812 -5.81055 20.1172 -12.1582 L 20.166 -12.6465 C 24.4629 -18.1152 34.1309 -22.5586 44.5801 -22.5586 C 54.9805 -22.5586 64.6484 -18.1152 68.9941 -12.6465 Z"/>
  </g>
  <g id="Ultralight-S" transform="matrix(1 0 0 1 515.644 696)">
   <path d="M 44.043 2.05078 C 64.502 2.05078 81.2988 -14.6973 81.2988 -35.1562 C 81.2988 -55.6152 64.502 -72.3633 44.043 -72.3633 C 23.584 -72.3633 6.83594 -55.6152 6.83594 -35.1562 C 6.83594 -14.6973 23.584 2.05078 44.043 2.05078 Z M 44.043 -57.7637 C 51.2695 -57.7637 56.9824 -51.3184 56.9824 -43.7012 C 56.9824 -35.5957 51.3672 -29.3457 44.043 -29.3457 C 36.7188 -29.3457 31.1523 -35.5957 31.1523 -43.7012 C 31.1035 -51.3184 36.8652 -57.7637 44.043 -57.7637 Z M 68.8965 -12.6953 L 68.8965 -12.1582 C 63.3301 -5.81055 54.834 -1.07422 44.043 -1.07422 C 33.3008 -1.07422 24.8047 -5.81055 19.1895 -12.1582 L 19.1895 -12.6953 C 23.9258 -18.457 34.1309 -22.7051 44.043 -22.7051 C 54.0039 -22.7051 64.209 -18.457 68.8965 -12.6953 Z"/>
  </g>
 </g>
</svg>
